G04 Layer_Color=32896*
%FSLAX44Y44*%
%MOMM*%
G71*
G01*
G75*
%ADD30C,0.2000*%
%ADD31C,0.2500*%
%ADD57C,0.1500*%
%ADD59C,0.2540*%
%ADD103C,0.1000*%
%ADD104C,0.2200*%
G36*
X84350Y37537D02*
X80677Y36205D01*
X79565Y35825D01*
X80736Y35430D01*
X84350Y34113D01*
Y32416D01*
X78000Y34932D01*
Y36688D01*
X84350Y39175D01*
Y37537D01*
D02*
G37*
G36*
X79244Y44003D02*
X79390Y43974D01*
X79448Y43945D01*
X79492Y43930D01*
X79522Y43916D01*
X79536D01*
X79697Y43842D01*
X79829Y43755D01*
X79902Y43682D01*
X79931Y43667D01*
Y43652D01*
X80034Y43520D01*
X80121Y43389D01*
X80151Y43345D01*
X80180Y43301D01*
X80195Y43272D01*
Y43257D01*
X80253Y43096D01*
X80282Y42935D01*
X80297Y42877D01*
Y42818D01*
Y42789D01*
Y42774D01*
X80282Y42599D01*
X80253Y42453D01*
X80224Y42394D01*
X80209Y42350D01*
X80195Y42321D01*
Y42306D01*
X80107Y42160D01*
X80019Y42043D01*
X79960Y41955D01*
X79946Y41940D01*
X79931Y41926D01*
X79799Y41823D01*
X79668Y41736D01*
X79624Y41721D01*
X79580Y41692D01*
X79551Y41677D01*
X79536D01*
X79375Y41633D01*
X79214Y41604D01*
X79156Y41589D01*
X79068D01*
X78892Y41604D01*
X78731Y41633D01*
X78673Y41648D01*
X78629Y41663D01*
X78600Y41677D01*
X78585D01*
X78439Y41750D01*
X78307Y41838D01*
X78234Y41897D01*
X78219Y41926D01*
X78205D01*
X78102Y42057D01*
X78015Y42189D01*
X77971Y42277D01*
X77956Y42292D01*
Y42306D01*
X77898Y42467D01*
X77868Y42628D01*
X77854Y42687D01*
Y42730D01*
Y42760D01*
Y42774D01*
X77868Y42965D01*
X77912Y43111D01*
X77927Y43169D01*
X77941Y43213D01*
X77956Y43243D01*
Y43257D01*
X78029Y43418D01*
X78117Y43550D01*
X78176Y43623D01*
X78205Y43652D01*
X78337Y43769D01*
X78453Y43857D01*
X78556Y43901D01*
X78571Y43916D01*
X78585D01*
X78761Y43974D01*
X78922Y44003D01*
X78980Y44018D01*
X79068D01*
X79244Y44003D01*
D02*
G37*
G36*
X86164Y50938D02*
Y48787D01*
X78000Y46359D01*
Y47880D01*
X79609Y48349D01*
Y51202D01*
X78000Y51655D01*
Y53352D01*
X86164Y50938D01*
D02*
G37*
G36*
X34922Y116643D02*
X34995Y116409D01*
X35068Y116234D01*
X35141Y116102D01*
X35200Y116000D01*
X35258Y115941D01*
X35287Y115912D01*
X35317Y115883D01*
X35682D01*
X35814Y116014D01*
X36034Y115956D01*
X36312Y116014D01*
X36546Y116000D01*
X36751Y115970D01*
X36941Y115956D01*
X37102Y115927D01*
X37248Y115912D01*
X37365Y115883D01*
X37467Y115854D01*
X37555Y115839D01*
X37628Y115810D01*
X37701Y115795D01*
X37775Y115766D01*
X37819Y115751D01*
X37833Y115736D01*
X39296Y115883D01*
X39501Y115810D01*
X39574D01*
X39984Y115956D01*
X40203Y115883D01*
X40364Y115897D01*
X40481Y115927D01*
X40569Y115970D01*
X40628Y116000D01*
X40657Y116029D01*
X40686Y116058D01*
Y116088D01*
X41930Y115883D01*
X42281Y116014D01*
X42910Y115956D01*
X44227Y116014D01*
X44344Y115883D01*
X44432Y115766D01*
X44490Y115649D01*
X44534Y115546D01*
X44563Y115458D01*
X44578Y115385D01*
Y115341D01*
Y115327D01*
X44505Y114976D01*
X44578Y114698D01*
X44534Y114508D01*
X44505Y114376D01*
X44446Y114273D01*
X44402Y114215D01*
X44358Y114171D01*
X44329Y114156D01*
X44314Y114142D01*
X44300D01*
X44373Y112825D01*
Y112752D01*
X44036Y112825D01*
X43700Y112869D01*
X43363Y112913D01*
X43071Y112927D01*
X42807Y112942D01*
X42705Y112957D01*
X42427D01*
X42222Y112825D01*
X42017Y112723D01*
X41842Y112649D01*
X41681Y112605D01*
X41564Y112576D01*
X41462Y112547D01*
X41315D01*
X40203Y112679D01*
X39720D01*
X39633Y112664D01*
X39545Y112649D01*
X39384Y112576D01*
X39325Y112532D01*
X39267Y112503D01*
X39238Y112488D01*
X39223Y112474D01*
X39150D01*
X39106Y112518D01*
X39062Y112576D01*
X38916Y112649D01*
X38755Y112723D01*
X38565Y112781D01*
X38404Y112825D01*
X38257Y112854D01*
X38199Y112869D01*
X38155Y112884D01*
X38038D01*
X37994Y112840D01*
X37921Y112796D01*
X37833Y112766D01*
X37731Y112737D01*
X37467Y112679D01*
X37189Y112649D01*
X36911Y112635D01*
X36780D01*
X36677Y112620D01*
X35814D01*
X35756Y112547D01*
X35595Y112518D01*
X35463Y112474D01*
X35331Y112445D01*
X35229Y112401D01*
X35141Y112371D01*
X35068Y112327D01*
X34966Y112240D01*
X34892Y112181D01*
X34863Y112123D01*
X34848Y112079D01*
Y112064D01*
X34732Y112050D01*
X34644Y112035D01*
X34585Y111991D01*
X34541Y111962D01*
X34512Y111918D01*
X34497Y111874D01*
Y111859D01*
Y111845D01*
X34366D01*
X34351Y111932D01*
X34322Y112006D01*
X34278Y112050D01*
X34249Y112093D01*
X34190Y112123D01*
X34161D01*
X34366Y112825D01*
X34249Y113000D01*
X34161Y113161D01*
X34102Y113308D01*
X34058Y113425D01*
X34029Y113527D01*
X34015Y113600D01*
Y113644D01*
Y113659D01*
X34161Y114215D01*
Y114347D01*
X34088Y114420D01*
X34161D01*
X34015Y114829D01*
Y115034D01*
X34044Y115224D01*
X34058Y115385D01*
X34088Y115502D01*
X34117Y115605D01*
X34132Y115678D01*
X34161Y115722D01*
Y115736D01*
X34088Y116161D01*
Y116365D01*
X34205Y116424D01*
X34278Y116483D01*
X34337Y116541D01*
X34380Y116600D01*
X34410Y116643D01*
X34424Y116687D01*
Y116702D01*
Y116717D01*
X34571D01*
X34922Y116643D01*
D02*
G37*
G36*
X80736Y23609D02*
X80911Y23521D01*
X81072Y23433D01*
X81204Y23345D01*
X81321Y23272D01*
X81409Y23199D01*
X81482Y23155D01*
X81511Y23126D01*
X81526Y23111D01*
X81628Y23023D01*
X81701Y22921D01*
X81760Y22833D01*
X81804Y22745D01*
X81833Y22672D01*
X81862Y22614D01*
X81877Y22584D01*
Y22570D01*
X81936Y22848D01*
X81965Y22965D01*
X82009Y23067D01*
X82038Y23155D01*
X82053Y23214D01*
X82082Y23257D01*
Y23272D01*
X82214Y23506D01*
X82287Y23594D01*
X82345Y23682D01*
X82404Y23755D01*
X82448Y23799D01*
X82477Y23828D01*
X82492Y23843D01*
X82696Y24004D01*
X82901Y24121D01*
X82974Y24165D01*
X83048Y24194D01*
X83091Y24223D01*
X83106D01*
X83384Y24296D01*
X83516Y24325D01*
X83633Y24340D01*
X83735Y24355D01*
X83896D01*
X84115Y24340D01*
X84320Y24325D01*
X84510Y24282D01*
X84657Y24252D01*
X84789Y24208D01*
X84876Y24165D01*
X84935Y24150D01*
X84949Y24135D01*
X85110Y24048D01*
X85242Y23960D01*
X85359Y23857D01*
X85462Y23755D01*
X85549Y23667D01*
X85608Y23594D01*
X85637Y23550D01*
X85652Y23535D01*
X85754Y23389D01*
X85827Y23228D01*
X85900Y23067D01*
X85959Y22921D01*
X85988Y22789D01*
X86018Y22687D01*
X86047Y22628D01*
Y22599D01*
X86120Y22175D01*
X86135Y21970D01*
X86149Y21780D01*
X86164Y21619D01*
Y21487D01*
Y21399D01*
Y21385D01*
Y21370D01*
Y19000D01*
X78000D01*
Y20536D01*
X81380D01*
Y20829D01*
X81365Y20975D01*
X81350Y21107D01*
X81321Y21224D01*
X81277Y21326D01*
X81233Y21399D01*
X81204Y21458D01*
X81189Y21502D01*
X81175Y21516D01*
X81102Y21619D01*
X81014Y21707D01*
X80824Y21853D01*
X80751Y21897D01*
X80677Y21941D01*
X80633Y21970D01*
X80619D01*
X78000Y23126D01*
Y24925D01*
X80736Y23609D01*
D02*
G37*
G36*
X43407Y118721D02*
X43671Y118677D01*
X43919Y118619D01*
X44139Y118560D01*
X44329Y118502D01*
X44461Y118443D01*
X44549Y118399D01*
X44578Y118385D01*
Y117346D01*
X44432Y116717D01*
X44095Y116775D01*
X43817Y116643D01*
X43744D01*
X43671Y116717D01*
X43656Y116878D01*
X43612Y116995D01*
X43539Y117082D01*
X43466Y117141D01*
X43393Y117170D01*
X43320Y117199D01*
X43261D01*
X43188Y117317D01*
X43100Y117404D01*
X42983Y117492D01*
X42866Y117565D01*
X42603Y117682D01*
X42339Y117755D01*
X42076Y117799D01*
X41974Y117814D01*
X41871D01*
X41783Y117829D01*
X41666D01*
X41520Y117682D01*
X41388Y117711D01*
X41271Y117741D01*
X41169Y117770D01*
X41081Y117799D01*
X40949Y117858D01*
X40862Y117916D01*
X40803Y117960D01*
X40774Y118004D01*
X40759Y118019D01*
Y118033D01*
Y118385D01*
X41871Y118663D01*
X42149Y118516D01*
X42369Y118531D01*
X42559Y118546D01*
X42720Y118589D01*
X42851Y118633D01*
X42968Y118663D01*
X43042Y118706D01*
X43100Y118721D01*
X43115Y118736D01*
X43407Y118721D01*
D02*
G37*
G36*
X81877Y31626D02*
X82082Y31611D01*
X82287Y31582D01*
X82448Y31553D01*
X82594Y31509D01*
X82696Y31480D01*
X82755Y31465D01*
X82784Y31451D01*
X82974Y31377D01*
X83150Y31290D01*
X83296Y31202D01*
X83428Y31129D01*
X83530Y31041D01*
X83618Y30982D01*
X83662Y30938D01*
X83677Y30924D01*
X83808Y30792D01*
X83925Y30646D01*
X84028Y30499D01*
X84115Y30353D01*
X84174Y30236D01*
X84218Y30134D01*
X84247Y30075D01*
X84262Y30046D01*
X84335Y29856D01*
X84394Y29651D01*
X84423Y29446D01*
X84452Y29256D01*
X84467Y29095D01*
X84481Y28978D01*
Y28890D01*
Y28876D01*
Y28861D01*
X84467Y28612D01*
X84437Y28378D01*
X84408Y28159D01*
X84364Y27983D01*
X84306Y27837D01*
X84276Y27720D01*
X84247Y27647D01*
X84233Y27617D01*
X84130Y27427D01*
X84013Y27237D01*
X83896Y27091D01*
X83794Y26944D01*
X83691Y26842D01*
X83603Y26754D01*
X83545Y26696D01*
X83530Y26681D01*
X83355Y26549D01*
X83165Y26432D01*
X82989Y26330D01*
X82813Y26242D01*
X82667Y26169D01*
X82535Y26125D01*
X82462Y26096D01*
X82448Y26081D01*
X82433D01*
X82199Y26008D01*
X81950Y25964D01*
X81716Y25920D01*
X81497Y25905D01*
X81306Y25891D01*
X81160Y25876D01*
X81028D01*
X80751Y25891D01*
X80487Y25905D01*
X80253Y25935D01*
X80048Y25979D01*
X79887Y26023D01*
X79756Y26052D01*
X79682Y26067D01*
X79653Y26081D01*
X79448Y26169D01*
X79258Y26271D01*
X79083Y26374D01*
X78936Y26476D01*
X78819Y26564D01*
X78731Y26637D01*
X78673Y26681D01*
X78658Y26696D01*
X78527Y26857D01*
X78395Y27017D01*
X78293Y27178D01*
X78205Y27325D01*
X78146Y27456D01*
X78102Y27573D01*
X78073Y27632D01*
X78059Y27661D01*
X77985Y27881D01*
X77941Y28115D01*
X77898Y28334D01*
X77883Y28539D01*
X77868Y28715D01*
X77854Y28861D01*
Y28949D01*
Y28963D01*
Y28978D01*
Y29183D01*
X77868Y29373D01*
Y29446D01*
X77883Y29505D01*
Y29548D01*
Y29563D01*
X77898Y29783D01*
X77912Y29973D01*
X77927Y30061D01*
X77941Y30119D01*
Y30148D01*
Y30163D01*
X77971Y30382D01*
X78000Y30573D01*
X78015Y30660D01*
X78029Y30719D01*
Y30748D01*
Y30763D01*
X78073Y30968D01*
X78117Y31143D01*
X78132Y31216D01*
X78146Y31260D01*
X78161Y31290D01*
Y31304D01*
X79375D01*
X79317Y31099D01*
X79258Y30894D01*
X79214Y30704D01*
X79185Y30529D01*
X79156Y30397D01*
X79141Y30280D01*
X79127Y30222D01*
Y30192D01*
X79112Y30002D01*
X79097Y29812D01*
X79083Y29651D01*
Y29505D01*
X79068Y29388D01*
Y29285D01*
Y29227D01*
Y29212D01*
X79083Y28919D01*
X79097Y28802D01*
X79127Y28685D01*
X79141Y28598D01*
X79156Y28524D01*
X79170Y28481D01*
Y28466D01*
X79273Y28246D01*
X79331Y28144D01*
X79375Y28071D01*
X79419Y27998D01*
X79463Y27954D01*
X79478Y27924D01*
X79492Y27910D01*
X79668Y27749D01*
X79843Y27647D01*
X79917Y27603D01*
X79975Y27573D01*
X80019Y27544D01*
X80034D01*
X80282Y27471D01*
X80414Y27456D01*
X80531Y27442D01*
X80633Y27427D01*
X80780D01*
Y31597D01*
X80941Y31611D01*
X81087D01*
X81145Y31626D01*
X81233D01*
X81409Y31641D01*
X81643D01*
X81877Y31626D01*
D02*
G37*
G36*
X541236Y149466D02*
X541339Y149451D01*
X541514Y149363D01*
X541631Y149261D01*
X541719Y149129D01*
X541763Y148998D01*
X541792Y148881D01*
X541807Y148793D01*
Y148778D01*
Y148764D01*
Y143043D01*
X541792Y142751D01*
X541763Y142487D01*
X541705Y142224D01*
X541631Y141990D01*
X541544Y141770D01*
X541441Y141551D01*
X541339Y141375D01*
X541222Y141200D01*
X541119Y141053D01*
X541017Y140922D01*
X540914Y140805D01*
X540827Y140717D01*
X540754Y140644D01*
X540695Y140585D01*
X540666Y140556D01*
X540651Y140541D01*
X540446Y140395D01*
X540256Y140278D01*
X540051Y140176D01*
X539846Y140088D01*
X539642Y140015D01*
X539451Y139956D01*
X539071Y139883D01*
X538910Y139854D01*
X538764Y139839D01*
X538618Y139824D01*
X538281D01*
X537988Y139854D01*
X537710Y139898D01*
X537462Y139956D01*
X537228Y140029D01*
X537008Y140117D01*
X536789Y140219D01*
X536599Y140322D01*
X536423Y140439D01*
X536116Y140702D01*
X535852Y140980D01*
X535648Y141273D01*
X535472Y141566D01*
X535340Y141858D01*
X535252Y142151D01*
X535179Y142414D01*
X535121Y142648D01*
X535092Y142853D01*
X535077Y142999D01*
Y143058D01*
Y143102D01*
Y143116D01*
Y143131D01*
Y148764D01*
X535092Y148895D01*
X535106Y148998D01*
X535135Y149100D01*
X535179Y149173D01*
X535296Y149305D01*
X535428Y149393D01*
X535560Y149437D01*
X535662Y149466D01*
X535750Y149480D01*
X535779D01*
X535896Y149466D01*
X535999Y149451D01*
X536174Y149363D01*
X536291Y149261D01*
X536365Y149129D01*
X536423Y148998D01*
X536438Y148881D01*
X536452Y148793D01*
Y148778D01*
Y148764D01*
Y143131D01*
X536467Y142809D01*
X536540Y142531D01*
X536628Y142282D01*
X536759Y142063D01*
X536906Y141873D01*
X537081Y141726D01*
X537257Y141595D01*
X537433Y141492D01*
X537623Y141404D01*
X537798Y141331D01*
X537974Y141287D01*
X538120Y141244D01*
X538252Y141229D01*
X538340Y141214D01*
X538398Y141200D01*
X538691D01*
X538939Y141214D01*
X539144Y141258D01*
X539334Y141302D01*
X539495Y141346D01*
X539598Y141390D01*
X539671Y141419D01*
X539700Y141434D01*
X539832Y141566D01*
X539934Y141697D01*
X540037Y141843D01*
X540110Y141975D01*
X540242Y142239D01*
X540329Y142502D01*
X540373Y142721D01*
X540388Y142809D01*
X540402Y142882D01*
X540417Y142955D01*
Y142999D01*
Y143028D01*
Y143043D01*
Y148764D01*
X540432Y148895D01*
X540446Y148998D01*
X540476Y149100D01*
X540519Y149173D01*
X540636Y149305D01*
X540768Y149393D01*
X540900Y149437D01*
X541002Y149466D01*
X541090Y149480D01*
X541119D01*
X541236Y149466D01*
D02*
G37*
G36*
X39165Y108655D02*
X39223D01*
X39282Y108714D01*
X39486Y108655D01*
X39530Y108641D01*
X39574Y108597D01*
X39618Y108538D01*
X39662Y108465D01*
X39735Y108275D01*
X39808Y108055D01*
X39852Y107821D01*
X39896Y107631D01*
X39925Y107558D01*
Y107500D01*
X39940Y107456D01*
Y107441D01*
X39852Y107207D01*
X39779Y107002D01*
X39735Y106826D01*
X39691Y106680D01*
X39677Y106549D01*
X39662Y106461D01*
Y106402D01*
Y106388D01*
X39706Y106373D01*
X39735Y106329D01*
X39764Y106271D01*
X39779Y106197D01*
X39794Y106124D01*
X39808Y106066D01*
X39823Y106022D01*
Y106007D01*
Y105949D01*
Y105729D01*
X39794Y105539D01*
X39779Y105364D01*
X39750Y105217D01*
X39720Y105085D01*
X39691Y104998D01*
X39677Y104925D01*
X39662Y104910D01*
X38989Y104734D01*
X38667Y104793D01*
X38053D01*
X38009Y104734D01*
X37950Y104793D01*
X38170Y105349D01*
X38053Y106563D01*
X38170Y106724D01*
Y106944D01*
X37950Y107660D01*
Y107938D01*
Y108070D01*
X37965Y108158D01*
X37980Y108231D01*
X38009Y108275D01*
X38023Y108304D01*
X38038Y108319D01*
X38053D01*
X38082Y108480D01*
X38140Y108611D01*
X38228Y108699D01*
X38331Y108758D01*
X38433Y108787D01*
X38521Y108816D01*
X38609D01*
X39165Y108655D01*
D02*
G37*
G36*
X37014Y103783D02*
X37336Y103769D01*
X37628Y103710D01*
X37906Y103622D01*
X38140Y103505D01*
X38360Y103374D01*
X38565Y103227D01*
X38740Y103081D01*
X38886Y102920D01*
X39018Y102745D01*
X39135Y102598D01*
X39223Y102452D01*
X39296Y102320D01*
X39355Y102203D01*
X39399Y102115D01*
X39428Y102057D01*
Y102042D01*
Y101574D01*
X39618D01*
X39633Y101721D01*
X39662Y101838D01*
X39706Y101940D01*
X39764Y101999D01*
X39808Y102057D01*
X39852Y102086D01*
X39881Y102101D01*
X39896D01*
X39955Y102247D01*
X39998Y102364D01*
X40057Y102481D01*
X40115Y102569D01*
X40247Y102715D01*
X40364Y102803D01*
X40467Y102862D01*
X40554Y102891D01*
X40613Y102906D01*
X40628D01*
X40642Y102993D01*
X40701Y103067D01*
X40774Y103154D01*
X40862Y103227D01*
X40979Y103301D01*
X41110Y103359D01*
X41403Y103476D01*
X41681Y103579D01*
X41813Y103622D01*
X41930Y103652D01*
X42017Y103681D01*
X42105Y103696D01*
X42149Y103710D01*
X42164D01*
X43510Y103169D01*
X43715Y102818D01*
X43890Y102510D01*
X44036Y102218D01*
X44168Y101969D01*
X44285Y101735D01*
X44373Y101545D01*
X44446Y101355D01*
X44505Y101208D01*
X44549Y101077D01*
X44592Y100974D01*
X44622Y100887D01*
X44636Y100813D01*
X44651Y100755D01*
Y100726D01*
Y100696D01*
Y100097D01*
X44578Y100023D01*
X44051Y100155D01*
X44110Y100360D01*
X43963Y100521D01*
X43802Y100638D01*
X43641Y100711D01*
X43495Y100770D01*
X43363Y100799D01*
X43261Y100828D01*
X43173D01*
X42237Y100623D01*
X41988Y100711D01*
X41769Y100784D01*
X41578Y100828D01*
X41418Y100872D01*
X41286Y100887D01*
X41184Y100901D01*
X40891D01*
X39823Y100565D01*
X39794Y100462D01*
X39735Y100374D01*
X39633Y100301D01*
X39530Y100243D01*
X39413Y100199D01*
X39311Y100170D01*
X39252Y100155D01*
X39150D01*
X39091Y100345D01*
X39018Y100506D01*
X38960Y100653D01*
X38886Y100755D01*
X38843Y100843D01*
X38799Y100916D01*
X38770Y100945D01*
X38755Y100960D01*
X37482Y100755D01*
X36736Y101033D01*
X36472D01*
X35536Y100828D01*
X35463Y100653D01*
X35390Y100506D01*
X35287Y100374D01*
X35200Y100258D01*
X35127Y100155D01*
X35053Y100082D01*
X35010Y100038D01*
X34995Y100023D01*
X34951Y100038D01*
X34922Y100053D01*
X34878Y100126D01*
X34863Y100199D01*
Y100214D01*
Y100228D01*
X34746Y100243D01*
X34644Y100272D01*
X34468Y100331D01*
X34351Y100389D01*
X34278Y100462D01*
X34219Y100521D01*
X34205Y100579D01*
X34190Y100609D01*
Y100623D01*
X34322Y101574D01*
Y101794D01*
X34337Y101999D01*
X34366Y102159D01*
X34395Y102306D01*
X34424Y102437D01*
X34468Y102540D01*
X34512Y102628D01*
X34556Y102686D01*
X34600Y102745D01*
X34644Y102774D01*
X34717Y102832D01*
X34775Y102847D01*
X34790D01*
X34907Y102979D01*
X35010Y103081D01*
X35083Y103140D01*
X35156Y103198D01*
X35200Y103227D01*
X35229Y103242D01*
X35258D01*
X35726Y103637D01*
X35946Y103579D01*
X36941Y103842D01*
X37014Y103783D01*
D02*
G37*
G36*
X550000Y140015D02*
X546767D01*
X546489Y140029D01*
X546225Y140044D01*
X545991Y140088D01*
X545757Y140132D01*
X545552Y140190D01*
X545362Y140263D01*
X545011Y140439D01*
X544718Y140644D01*
X544470Y140878D01*
X544265Y141126D01*
X544104Y141375D01*
X543972Y141624D01*
X543885Y141873D01*
X543811Y142107D01*
X543767Y142312D01*
X543738Y142487D01*
X543724Y142619D01*
Y142707D01*
Y142721D01*
Y142736D01*
X543738Y143014D01*
X543767Y143277D01*
X543826Y143511D01*
X543885Y143716D01*
X543972Y143906D01*
X544060Y144082D01*
X544162Y144228D01*
X544250Y144360D01*
X544353Y144477D01*
X544455Y144579D01*
X544543Y144653D01*
X544631Y144726D01*
X544689Y144769D01*
X544748Y144799D01*
X544777Y144828D01*
X544792D01*
X544631Y144974D01*
X544484Y145121D01*
X544353Y145282D01*
X544236Y145442D01*
X544148Y145603D01*
X544075Y145779D01*
X543958Y146086D01*
X543885Y146350D01*
X543870Y146467D01*
X543855Y146569D01*
X543841Y146657D01*
Y146715D01*
Y146759D01*
Y146774D01*
X543855Y146993D01*
X543870Y147213D01*
X543972Y147593D01*
X544089Y147930D01*
X544236Y148208D01*
X544323Y148325D01*
X544397Y148442D01*
X544455Y148530D01*
X544514Y148603D01*
X544572Y148661D01*
X544616Y148705D01*
X544631Y148720D01*
X544645Y148734D01*
X544806Y148866D01*
X544982Y148983D01*
X545157Y149086D01*
X545348Y149173D01*
X545713Y149305D01*
X546079Y149393D01*
X546240Y149422D01*
X546401Y149437D01*
X546533Y149451D01*
X546650Y149466D01*
X546752Y149480D01*
X550000D01*
Y140015D01*
D02*
G37*
G36*
X43905Y112093D02*
X44036Y112064D01*
X44168Y112020D01*
X44271Y111962D01*
X44358Y111903D01*
X44432Y111845D01*
X44534Y111713D01*
X44607Y111581D01*
X44636Y111464D01*
X44651Y111391D01*
Y111377D01*
Y111362D01*
X44578Y110879D01*
X44651Y110323D01*
Y110206D01*
X44636Y110118D01*
X44622Y109957D01*
X44578Y109855D01*
X44549Y109767D01*
X44505Y109723D01*
X44461Y109709D01*
X44446Y109694D01*
X44432D01*
X44285Y109723D01*
X44168Y109738D01*
X44051Y109767D01*
X43963Y109782D01*
X43817Y109840D01*
X43715Y109884D01*
X43656Y109914D01*
X43627Y109943D01*
X43612Y109972D01*
X43393Y109899D01*
X43320D01*
X43261Y109972D01*
X42281Y109899D01*
X41871Y109972D01*
X41798D01*
X41725Y109899D01*
X41549Y109928D01*
X41403Y109957D01*
X41271Y110001D01*
X41169Y110031D01*
X41066Y110075D01*
X40993Y110104D01*
X40876Y110177D01*
X40818Y110235D01*
X40774Y110279D01*
X40759Y110309D01*
Y110323D01*
Y110528D01*
X40774Y110616D01*
X40818Y110689D01*
X40891Y110747D01*
X40979Y110806D01*
X41081Y110850D01*
X41198Y110894D01*
X41462Y110952D01*
X41710Y110982D01*
X41827Y110996D01*
X41930Y111011D01*
X42149D01*
X42310Y111157D01*
X42471Y111259D01*
X42646Y111333D01*
X42807Y111377D01*
X42954Y111420D01*
X43085Y111435D01*
X43320D01*
X43744Y112123D01*
X43905Y112093D01*
D02*
G37*
G36*
X524177Y149451D02*
X524280Y149437D01*
X524455Y149363D01*
X524572Y149246D01*
X524660Y149115D01*
X524704Y148983D01*
X524733Y148881D01*
X524748Y148793D01*
Y148778D01*
Y148764D01*
Y140585D01*
X524733Y140468D01*
X524719Y140366D01*
X524646Y140190D01*
X524529Y140073D01*
X524397Y139985D01*
X524280Y139942D01*
X524163Y139912D01*
X524090Y139898D01*
X524060D01*
X523943Y139912D01*
X523826Y139927D01*
X523651Y140000D01*
X523534Y140117D01*
X523446Y140249D01*
X523387Y140366D01*
X523373Y140483D01*
X523358Y140556D01*
Y140585D01*
Y148764D01*
X523373Y148881D01*
X523387Y148998D01*
X523460Y149173D01*
X523577Y149290D01*
X523709Y149378D01*
X523841Y149437D01*
X523943Y149451D01*
X524031Y149466D01*
X524060D01*
X524177Y149451D01*
D02*
G37*
G36*
X533087Y149466D02*
X533190Y149451D01*
X533365Y149363D01*
X533482Y149261D01*
X533570Y149129D01*
X533614Y148998D01*
X533643Y148881D01*
X533658Y148793D01*
Y148778D01*
Y148764D01*
X533643Y148647D01*
X533629Y148530D01*
X533555Y148354D01*
X533438Y148237D01*
X533307Y148149D01*
X533190Y148105D01*
X533073Y148076D01*
X532999Y148061D01*
X529108D01*
X533555Y141083D01*
X533643Y140907D01*
X533687Y140731D01*
Y140658D01*
X533702Y140600D01*
Y140571D01*
Y140556D01*
X533672Y140380D01*
X533614Y140249D01*
X533541Y140146D01*
X533438Y140088D01*
X533351Y140044D01*
X533263Y140029D01*
X533204Y140015D01*
X527806D01*
X527689Y140029D01*
X527572Y140044D01*
X527396Y140132D01*
X527279Y140234D01*
X527191Y140366D01*
X527133Y140497D01*
X527118Y140615D01*
X527103Y140688D01*
Y140702D01*
Y140717D01*
X527118Y140849D01*
X527133Y140951D01*
X527162Y141053D01*
X527206Y141126D01*
X527323Y141258D01*
X527454Y141346D01*
X527586Y141390D01*
X527689Y141419D01*
X527776Y141434D01*
X531800D01*
X527352Y148427D01*
X527264Y148573D01*
X527206Y148691D01*
X527162Y148807D01*
X527133Y148895D01*
X527118Y148954D01*
X527103Y148998D01*
Y149027D01*
Y149042D01*
X527133Y149188D01*
X527206Y149290D01*
X527294Y149378D01*
X527411Y149422D01*
X527528Y149451D01*
X527616Y149480D01*
X532970D01*
X533087Y149466D01*
D02*
G37*
G36*
X34819Y142057D02*
X34936Y141910D01*
X35010Y141793D01*
X35068Y141676D01*
X35097Y141588D01*
X35127Y141530D01*
Y141486D01*
Y141471D01*
X35273Y141413D01*
X35390Y141340D01*
X35507Y141281D01*
X35609Y141223D01*
X35770Y141105D01*
X35873Y141003D01*
X35946Y140915D01*
X35990Y140842D01*
X36019Y140798D01*
Y140784D01*
X36151D01*
X36268Y140798D01*
X36370D01*
X36458Y140813D01*
X36590Y140842D01*
X36677Y140886D01*
X36721Y140930D01*
X36751Y140959D01*
X36765Y140974D01*
Y140989D01*
X37380Y140915D01*
X37643Y140989D01*
X37921Y140857D01*
X38184Y140915D01*
X38462Y140652D01*
X38726Y140725D01*
X39004Y140710D01*
X39252Y140667D01*
X39457Y140608D01*
X39633Y140550D01*
X39764Y140491D01*
X39867Y140433D01*
X39940Y140389D01*
X39955Y140374D01*
Y140447D01*
X40057Y140433D01*
X40145Y140389D01*
X40233Y140345D01*
X40306Y140286D01*
X40364Y140213D01*
X40408Y140169D01*
X40423Y140125D01*
X40437Y140111D01*
Y140037D01*
X40057D01*
X39911Y140052D01*
X39779Y140081D01*
X39677Y140111D01*
X39589Y140125D01*
X39530Y140155D01*
X39501Y140169D01*
X39413D01*
X39355Y140111D01*
X37175Y140242D01*
X36356Y140037D01*
X35682Y140111D01*
X34790Y139087D01*
X34527Y139160D01*
X34453D01*
X34380Y139087D01*
X34176Y139160D01*
X34249Y140169D01*
Y140374D01*
X34044Y140652D01*
Y141120D01*
X34117Y141193D01*
X34044Y141266D01*
Y141325D01*
X34249Y141530D01*
Y141647D01*
X34263Y141764D01*
X34307Y141925D01*
X34380Y142057D01*
X34453Y142130D01*
X34527Y142188D01*
X34600Y142203D01*
X34644Y142217D01*
X34658D01*
X34819Y142057D01*
D02*
G37*
G36*
X41110Y145070D02*
X41666D01*
X41725Y145129D01*
Y144997D01*
X41491Y144836D01*
X41257Y144734D01*
X41037Y144646D01*
X40847Y144588D01*
X40671Y144558D01*
X40554Y144544D01*
X40467Y144529D01*
X40437D01*
X40628Y144178D01*
X40832D01*
X40993Y144163D01*
X41110Y144134D01*
X41184Y144119D01*
X41227Y144090D01*
X41242Y144061D01*
X41257Y144046D01*
X41432Y144017D01*
X41593Y143988D01*
X41740Y143929D01*
X41856Y143871D01*
X41944Y143812D01*
X42003Y143754D01*
X42047Y143724D01*
X42061Y143710D01*
X42266D01*
X42617Y143915D01*
X42705Y143827D01*
X42764Y143739D01*
X42822Y143680D01*
X42851Y143622D01*
X42881Y143534D01*
Y143520D01*
Y143505D01*
X43056Y143490D01*
X43188Y143461D01*
X43290Y143446D01*
X43349Y143417D01*
X43393Y143403D01*
X43407Y143388D01*
X43422Y143373D01*
X44036Y143095D01*
X44197D01*
X44314Y143081D01*
X44402Y143051D01*
X44461Y143037D01*
X44490Y143007D01*
X44519Y142978D01*
Y142964D01*
Y142890D01*
X44241Y141939D01*
X44651Y140520D01*
X44592Y140272D01*
X44549Y140052D01*
X44490Y139862D01*
X44432Y139686D01*
X44388Y139555D01*
X44329Y139438D01*
X44285Y139335D01*
X44241Y139262D01*
X44197Y139204D01*
X44153Y139160D01*
X44095Y139116D01*
X44051Y139087D01*
X43978D01*
X43817Y139174D01*
X43700Y139306D01*
X43612Y139438D01*
X43554Y139569D01*
X43524Y139701D01*
X43510Y139803D01*
X43495Y139877D01*
Y139906D01*
X43481Y139921D01*
X43451Y139950D01*
X43393Y139964D01*
X43334Y139994D01*
X43159Y140052D01*
X42983Y140111D01*
X42793Y140155D01*
X42632Y140198D01*
X42559Y140213D01*
X42515Y140228D01*
X42486Y140242D01*
X42471D01*
X39135Y141266D01*
X38945Y141369D01*
X38784Y141471D01*
X38623Y141544D01*
X38491Y141618D01*
X38375Y141676D01*
X38272Y141720D01*
X38096Y141793D01*
X37980Y141837D01*
X37906Y141852D01*
X37862Y141866D01*
X37848D01*
X37511Y141735D01*
X37233Y141808D01*
X35946Y142481D01*
X35668Y142554D01*
X35419Y142627D01*
X35200Y142686D01*
X35010Y142744D01*
X34848Y142803D01*
X34702Y142861D01*
X34571Y142920D01*
X34468Y142964D01*
X34395Y143007D01*
X34322Y143051D01*
X34278Y143081D01*
X34234Y143110D01*
X34190Y143154D01*
X34176Y143168D01*
Y143300D01*
X34205Y143359D01*
X34278Y143417D01*
X34366Y143476D01*
X34483Y143534D01*
X34600Y143578D01*
X34688Y143607D01*
X34761Y143622D01*
X34790Y143637D01*
X35200Y143988D01*
X35478Y143915D01*
X36151Y144251D01*
X37306Y144178D01*
X38462Y144588D01*
X38535D01*
X38594Y144529D01*
X38667D01*
X38711Y144544D01*
X38770Y144602D01*
X38799Y144646D01*
Y144661D01*
X38813Y144719D01*
X38872Y144763D01*
X38945Y144822D01*
X39048Y144880D01*
X39165Y144939D01*
X39296Y144997D01*
X39589Y145100D01*
X39867Y145187D01*
X39998Y145231D01*
X40115Y145275D01*
X40218Y145290D01*
X40291Y145319D01*
X40350Y145334D01*
X40364D01*
X41110Y145070D01*
D02*
G37*
G36*
X42208Y145129D02*
X41988Y145070D01*
X41856D01*
X42061Y145275D01*
X42208D01*
Y145129D01*
D02*
G37*
G36*
X34951Y138019D02*
X35024Y137814D01*
X35097Y137667D01*
X35170Y137550D01*
X35229Y137477D01*
X35287Y137433D01*
X35331Y137419D01*
X35346Y137404D01*
X35361D01*
X35829Y137463D01*
X35975Y137433D01*
X36107Y137389D01*
X36209Y137360D01*
X36312Y137331D01*
X36399Y137287D01*
X36458Y137258D01*
X36560Y137199D01*
X36619Y137141D01*
X36648Y137097D01*
X36663Y137067D01*
Y137053D01*
X37014Y137258D01*
X37350Y137053D01*
Y137126D01*
X38579Y136702D01*
X38857Y136775D01*
X39135Y136702D01*
X39413D01*
X39472Y136775D01*
X39750Y136497D01*
X40013Y136438D01*
X40247Y136380D01*
X40452Y136321D01*
X40628Y136278D01*
X40788Y136219D01*
X40920Y136175D01*
X41037Y136131D01*
X41125Y136102D01*
X41198Y136073D01*
X41271Y136043D01*
X41344Y135999D01*
X41388Y135970D01*
X41403Y135956D01*
X42837D01*
X43115Y135678D01*
X43875Y135414D01*
X44417Y135546D01*
Y135473D01*
X44563Y135341D01*
X44622Y135268D01*
X44212Y133000D01*
X44285Y132664D01*
X44271Y132547D01*
X44227Y132444D01*
X44153Y132371D01*
X44080Y132327D01*
X44007Y132283D01*
X43934Y132269D01*
X43890Y132254D01*
X43875D01*
X43246Y132313D01*
X43056Y132254D01*
X40847Y132869D01*
X40642Y132795D01*
X40379Y132854D01*
X40145Y132898D01*
X39940Y132942D01*
X39764Y132986D01*
X39633Y133030D01*
X39501Y133073D01*
X39399Y133103D01*
X39325Y133147D01*
X39267Y133176D01*
X39208Y133205D01*
X39165Y133249D01*
X39135Y133264D01*
Y133278D01*
X38726Y133205D01*
X37555Y133410D01*
X37482Y133073D01*
Y132591D01*
X37760Y132313D01*
X37731Y132181D01*
X37701Y132079D01*
X37658Y132005D01*
X37628Y131961D01*
X37599Y131932D01*
X37584Y131903D01*
X36941D01*
X36867Y131976D01*
Y132152D01*
X36853Y132298D01*
X36824Y132415D01*
X36809Y132517D01*
X36780Y132576D01*
X36751Y132634D01*
X36736Y132649D01*
Y132664D01*
X36867Y133205D01*
Y133820D01*
X36590D01*
X36531Y133761D01*
X35917Y133893D01*
X35829Y133820D01*
X35361Y133966D01*
X35141Y133951D01*
X34951Y133907D01*
X34790Y133834D01*
X34673Y133761D01*
X34585Y133688D01*
X34512Y133615D01*
X34483Y133571D01*
X34468Y133556D01*
X34395D01*
X34278Y133629D01*
X34205Y133717D01*
X34146Y133805D01*
X34102Y133893D01*
X34073Y133981D01*
X34058Y134039D01*
Y134083D01*
Y134098D01*
X34263Y135546D01*
X34058Y135883D01*
Y136029D01*
X34117Y136307D01*
X34058Y136570D01*
Y136643D01*
X34322Y137536D01*
Y137667D01*
X34190Y137872D01*
Y137945D01*
X34395Y138223D01*
X34951Y138019D01*
D02*
G37*
G36*
X38711Y126182D02*
X38930Y126256D01*
X39325Y126226D01*
X39677Y126197D01*
X39984Y126168D01*
X40247Y126139D01*
X40467Y126109D01*
X40642Y126080D01*
X40788Y126051D01*
X40920Y126022D01*
X41008Y126007D01*
X41081Y125978D01*
X41125Y125963D01*
X41169Y125948D01*
X41198Y125934D01*
Y125919D01*
X41622D01*
Y125641D01*
X41549Y125568D01*
X40101Y125217D01*
Y125144D01*
X40072Y125100D01*
X40028Y125041D01*
X39984Y125012D01*
X39955D01*
X39940Y124924D01*
X39911Y124851D01*
X39867Y124793D01*
X39808Y124734D01*
X39647Y124646D01*
X39472Y124588D01*
X39296Y124559D01*
X39135Y124544D01*
X39077Y124529D01*
X38989D01*
X38506Y125012D01*
X38375D01*
X38272Y125041D01*
X38199Y125056D01*
X38155Y125085D01*
X38126Y125114D01*
X38096Y125129D01*
Y125158D01*
X37936Y125261D01*
X37804Y125349D01*
X37687Y125436D01*
X37584Y125524D01*
X37497Y125597D01*
X37424Y125656D01*
X37321Y125773D01*
X37263Y125861D01*
X37219Y125934D01*
X37204Y125963D01*
Y125978D01*
X37233Y126095D01*
X37292Y126182D01*
X37380Y126256D01*
X37482Y126314D01*
X37570Y126358D01*
X37658Y126387D01*
X37716Y126402D01*
X37745D01*
X38096Y126329D01*
X38170Y126402D01*
X38711Y126182D01*
D02*
G37*
G36*
X36238Y127763D02*
X36429Y127748D01*
X36604Y127719D01*
X36751Y127690D01*
X36882Y127660D01*
X36985Y127631D01*
X37072Y127602D01*
X37160Y127572D01*
X37219Y127528D01*
X37292Y127470D01*
X37336Y127411D01*
X37350Y127382D01*
Y127368D01*
Y127221D01*
X37263Y127119D01*
X37160Y127031D01*
X36897Y126841D01*
X36619Y126665D01*
X36326Y126504D01*
X36063Y126373D01*
X35946Y126314D01*
X35829Y126270D01*
X35741Y126241D01*
X35682Y126212D01*
X35639Y126182D01*
X35624D01*
X35536Y126022D01*
X35448Y125890D01*
X35375Y125773D01*
X35317Y125656D01*
X35185Y125495D01*
X35097Y125378D01*
X35024Y125290D01*
X34966Y125246D01*
X34936Y125217D01*
X34922D01*
Y125012D01*
X34907Y124866D01*
X34878Y124749D01*
X34863Y124676D01*
X34834Y124632D01*
X34805Y124617D01*
X34790Y124602D01*
X34717D01*
X34307Y124676D01*
X34102Y124602D01*
X34307Y126051D01*
X34102Y127368D01*
X34176Y127631D01*
X35273D01*
X35624Y127704D01*
X35682Y127631D01*
X36238Y127850D01*
Y127763D01*
D02*
G37*
G36*
X42295Y132049D02*
Y131976D01*
X42076Y131786D01*
X41856Y131654D01*
X41622Y131552D01*
X41403Y131493D01*
X41213Y131449D01*
X41066Y131435D01*
X41008Y131420D01*
X40920D01*
X40715Y131493D01*
X40569Y131347D01*
X38038Y130601D01*
X37833Y130674D01*
X37555Y130572D01*
X37292Y130469D01*
X37043Y130367D01*
X36824Y130264D01*
X36634Y130162D01*
X36458Y130060D01*
X36297Y129972D01*
X36151Y129884D01*
X36019Y129811D01*
X35917Y129738D01*
X35829Y129665D01*
X35756Y129606D01*
X35712Y129562D01*
X35668Y129533D01*
X35653Y129518D01*
X35639Y129504D01*
X35507Y129489D01*
X35390Y129474D01*
X35287Y129431D01*
X35200Y129372D01*
X35068Y129240D01*
X34980Y129094D01*
X34922Y128948D01*
X34892Y128816D01*
X34878Y128714D01*
Y128699D01*
Y128684D01*
X34746D01*
X34615Y128728D01*
X34497Y128757D01*
X34395Y128801D01*
X34322Y128845D01*
X34176Y128933D01*
X34088Y129006D01*
X34044Y129065D01*
X34015Y129123D01*
X34000Y129152D01*
Y129167D01*
X34190Y130118D01*
X34132Y130206D01*
X34088Y130294D01*
X34029Y130455D01*
X34015Y130513D01*
X34000Y130557D01*
Y130586D01*
Y130601D01*
Y131420D01*
X34015Y131508D01*
X34029Y131581D01*
X34132Y131698D01*
X34249Y131786D01*
X34410Y131845D01*
X34556Y131874D01*
X34673Y131903D01*
X34878D01*
Y131771D01*
X34907Y131610D01*
X34936Y131479D01*
X34980Y131362D01*
X35024Y131259D01*
X35083Y131172D01*
X35141Y131098D01*
X35258Y130996D01*
X35375Y130923D01*
X35478Y130893D01*
X35536Y130879D01*
X35639D01*
X36180Y131084D01*
X36590Y131011D01*
X36663Y131215D01*
X37146Y131157D01*
X37628Y131215D01*
X37833Y131157D01*
X38214Y131332D01*
X38579Y131464D01*
X38901Y131566D01*
X39194Y131625D01*
X39428Y131669D01*
X39516Y131684D01*
X39603D01*
X39662Y131698D01*
X39750D01*
X39969Y131830D01*
X40203Y131932D01*
X40452Y132005D01*
X40671Y132064D01*
X40876Y132093D01*
X41052Y132108D01*
X41198D01*
X41886Y132049D01*
X42091Y132108D01*
X42295Y132049D01*
D02*
G37*
G36*
X60466Y125311D02*
X63178D01*
X62631Y123224D01*
X60466D01*
Y120941D01*
X58886D01*
Y123224D01*
X54458D01*
X54204Y123243D01*
X53970Y123282D01*
X53775Y123321D01*
X53619Y123341D01*
X53502Y123380D01*
X53424Y123399D01*
X53404D01*
X53209Y123477D01*
X53034Y123575D01*
X52878Y123673D01*
X52741Y123770D01*
X52644Y123848D01*
X52546Y123926D01*
X52507Y123965D01*
X52488Y123985D01*
X52371Y124141D01*
X52254Y124297D01*
X52098Y124628D01*
X52059Y124765D01*
X52020Y124882D01*
X51981Y124960D01*
Y124979D01*
X51922Y125214D01*
X51883Y125467D01*
X51844Y125701D01*
X51824Y125935D01*
Y126130D01*
X51805Y126286D01*
Y126384D01*
Y126423D01*
X51824Y126794D01*
Y126989D01*
X51844Y127145D01*
X51863Y127281D01*
Y127379D01*
X51883Y127457D01*
Y127476D01*
X51941Y127886D01*
X51981Y128081D01*
X52020Y128257D01*
X52039Y128393D01*
X52059Y128510D01*
X52078Y128588D01*
Y128608D01*
X53697D01*
X53619Y128296D01*
X53561Y128023D01*
X53541Y127906D01*
X53522Y127808D01*
X53502Y127750D01*
Y127730D01*
X53463Y127379D01*
X53443Y127223D01*
Y127067D01*
X53424Y126950D01*
Y126833D01*
Y126774D01*
Y126755D01*
X53443Y126482D01*
X53482Y126247D01*
X53541Y126052D01*
X53619Y125916D01*
X53678Y125799D01*
X53736Y125701D01*
X53775Y125662D01*
X53795Y125643D01*
X53951Y125526D01*
X54126Y125448D01*
X54302Y125389D01*
X54477Y125350D01*
X54633Y125331D01*
X54770Y125311D01*
X58886D01*
Y128608D01*
X60466D01*
Y125311D01*
D02*
G37*
G36*
X56682Y138615D02*
X57033Y138596D01*
X57345Y138556D01*
X57618Y138498D01*
X57852Y138439D01*
X58028Y138400D01*
X58125Y138381D01*
X58164Y138361D01*
X58457Y138244D01*
X58730Y138127D01*
X58964Y137991D01*
X59159Y137854D01*
X59315Y137737D01*
X59432Y137640D01*
X59510Y137581D01*
X59530Y137562D01*
X59725Y137367D01*
X59881Y137152D01*
X60037Y136937D01*
X60154Y136742D01*
X60232Y136567D01*
X60291Y136430D01*
X60330Y136352D01*
X60349Y136313D01*
X60447Y136021D01*
X60525Y135728D01*
X60564Y135455D01*
X60603Y135182D01*
X60622Y134967D01*
X60642Y134772D01*
Y134655D01*
Y134635D01*
Y134616D01*
X60622Y134265D01*
X60583Y133933D01*
X60544Y133641D01*
X60486Y133368D01*
X60408Y133153D01*
X60369Y132997D01*
X60330Y132899D01*
X60310Y132860D01*
X60174Y132587D01*
X60037Y132334D01*
X59881Y132100D01*
X59744Y131904D01*
X59608Y131749D01*
X59510Y131631D01*
X59432Y131553D01*
X59413Y131534D01*
X59179Y131339D01*
X58945Y131183D01*
X58710Y131046D01*
X58476Y130929D01*
X58281Y130832D01*
X58125Y130773D01*
X58028Y130734D01*
X58008Y130715D01*
X57989D01*
X57677Y130617D01*
X57365Y130559D01*
X57052Y130500D01*
X56779Y130480D01*
X56526Y130461D01*
X56350Y130442D01*
X56175D01*
X55784Y130461D01*
X55414Y130480D01*
X55082Y130520D01*
X54809Y130578D01*
X54575Y130637D01*
X54399Y130676D01*
X54302Y130695D01*
X54263Y130715D01*
X53970Y130832D01*
X53697Y130949D01*
X53463Y131085D01*
X53268Y131202D01*
X53112Y131319D01*
X52995Y131417D01*
X52917Y131475D01*
X52897Y131495D01*
X52702Y131709D01*
X52546Y131924D01*
X52390Y132119D01*
X52293Y132334D01*
X52195Y132509D01*
X52137Y132646D01*
X52098Y132724D01*
X52078Y132763D01*
X51981Y133055D01*
X51922Y133348D01*
X51863Y133621D01*
X51844Y133875D01*
X51824Y134109D01*
X51805Y134284D01*
Y134402D01*
Y134421D01*
Y134440D01*
X51824Y134811D01*
X51863Y135143D01*
X51902Y135435D01*
X51961Y135708D01*
X52020Y135923D01*
X52078Y136079D01*
X52098Y136177D01*
X52117Y136216D01*
X52254Y136489D01*
X52410Y136742D01*
X52546Y136976D01*
X52702Y137171D01*
X52839Y137308D01*
X52936Y137425D01*
X53014Y137503D01*
X53034Y137523D01*
X53268Y137718D01*
X53502Y137874D01*
X53736Y138010D01*
X53951Y138127D01*
X54146Y138225D01*
X54302Y138283D01*
X54399Y138322D01*
X54438Y138342D01*
X54750Y138439D01*
X55082Y138518D01*
X55394Y138556D01*
X55687Y138596D01*
X55921Y138615D01*
X56116Y138635D01*
X56292D01*
X56682Y138615D01*
D02*
G37*
G36*
X40657Y123769D02*
X41622Y123915D01*
X42442Y123842D01*
X42793D01*
X43203Y124120D01*
X43817D01*
X44007Y124003D01*
X44139Y123900D01*
X44241Y123812D01*
X44300Y123754D01*
X44344Y123695D01*
X44358Y123666D01*
X44373Y123637D01*
X44227Y123154D01*
X44271Y122832D01*
X44329Y122525D01*
X44388Y122247D01*
X44461Y121998D01*
X44534Y121793D01*
X44592Y121632D01*
X44622Y121574D01*
X44636Y121530D01*
X44651Y121515D01*
Y121501D01*
X44578D01*
X44563Y121194D01*
X44549Y120916D01*
X44505Y120667D01*
X44461Y120477D01*
X44402Y120301D01*
X44344Y120155D01*
X44271Y120038D01*
X44197Y119935D01*
X44124Y119862D01*
X44051Y119804D01*
X43993Y119774D01*
X43934Y119745D01*
X43846Y119716D01*
X43817D01*
X43685Y119921D01*
X43539Y120111D01*
X43363Y120272D01*
X43203Y120418D01*
X43042Y120535D01*
X42910Y120608D01*
X42822Y120667D01*
X42807Y120681D01*
X42793D01*
X41681Y120462D01*
X40584Y120681D01*
X39823Y120462D01*
X38857Y120608D01*
X38579Y120535D01*
X38301Y120608D01*
X37614D01*
X37058Y120462D01*
X36941Y120535D01*
X36794Y120594D01*
X36648Y120623D01*
X36502Y120652D01*
X36370Y120667D01*
X36268Y120681D01*
X36165D01*
X35419Y120403D01*
X35141Y120535D01*
X35068D01*
X34995Y120462D01*
X34936Y120257D01*
X34878Y120111D01*
X34805Y119994D01*
X34746Y119921D01*
X34688Y119877D01*
X34629Y119862D01*
X34600Y119848D01*
X34585D01*
X34424Y119965D01*
X34307Y120082D01*
X34219Y120199D01*
X34161Y120301D01*
X34132Y120403D01*
X34117Y120477D01*
X34102Y120521D01*
Y120535D01*
Y120681D01*
X34439Y121501D01*
X33971Y122393D01*
X34176Y123637D01*
Y123710D01*
X34102Y123769D01*
X34176D01*
X34234Y123842D01*
X35419D01*
X35902Y123769D01*
Y123842D01*
X36107D01*
X36165Y123769D01*
X36238D01*
X36297Y123842D01*
X36999Y123710D01*
X37263Y123769D01*
X37482Y123637D01*
X37541D01*
X37833Y123739D01*
X38096Y123842D01*
X38331Y123929D01*
X38535Y123988D01*
X38726Y124046D01*
X38886Y124105D01*
X39018Y124149D01*
X39150Y124178D01*
X39252Y124207D01*
X39340Y124222D01*
X39399Y124237D01*
X39457D01*
X39530Y124251D01*
X39545D01*
X40657Y123769D01*
D02*
G37*
G36*
X60466Y115928D02*
X63178D01*
X62631Y113841D01*
X60466D01*
Y111559D01*
X58886D01*
Y113841D01*
X54458D01*
X54204Y113860D01*
X53970Y113899D01*
X53775Y113938D01*
X53619Y113958D01*
X53502Y113997D01*
X53424Y114016D01*
X53404D01*
X53209Y114094D01*
X53034Y114192D01*
X52878Y114290D01*
X52741Y114387D01*
X52644Y114465D01*
X52546Y114543D01*
X52507Y114582D01*
X52488Y114602D01*
X52371Y114758D01*
X52254Y114914D01*
X52098Y115245D01*
X52059Y115382D01*
X52020Y115499D01*
X51981Y115577D01*
Y115597D01*
X51922Y115831D01*
X51883Y116084D01*
X51844Y116318D01*
X51824Y116552D01*
Y116747D01*
X51805Y116903D01*
Y117001D01*
Y117040D01*
X51824Y117411D01*
Y117606D01*
X51844Y117762D01*
X51863Y117898D01*
Y117996D01*
X51883Y118074D01*
Y118093D01*
X51941Y118503D01*
X51981Y118698D01*
X52020Y118874D01*
X52039Y119010D01*
X52059Y119127D01*
X52078Y119205D01*
Y119225D01*
X53697D01*
X53619Y118913D01*
X53561Y118640D01*
X53541Y118523D01*
X53522Y118425D01*
X53502Y118366D01*
Y118347D01*
X53463Y117996D01*
X53443Y117840D01*
Y117684D01*
X53424Y117567D01*
Y117450D01*
Y117391D01*
Y117372D01*
X53443Y117099D01*
X53482Y116865D01*
X53541Y116669D01*
X53619Y116533D01*
X53678Y116416D01*
X53736Y116318D01*
X53775Y116279D01*
X53795Y116260D01*
X53951Y116143D01*
X54126Y116065D01*
X54302Y116006D01*
X54477Y115967D01*
X54633Y115948D01*
X54770Y115928D01*
X58886D01*
Y119225D01*
X60466D01*
Y115928D01*
D02*
G37*
G36*
X44080Y149869D02*
X44124Y149854D01*
X44183Y149752D01*
X44241Y149635D01*
X44300Y149489D01*
X44329Y149328D01*
X44358Y149211D01*
X44373Y149108D01*
Y149094D01*
Y149079D01*
X44168Y148465D01*
X44241Y148392D01*
Y148260D01*
X44168Y148201D01*
X44241D01*
X44256Y148070D01*
X44285Y147953D01*
X44329Y147836D01*
X44388Y147733D01*
X44432Y147645D01*
X44475Y147572D01*
X44505Y147528D01*
X44519Y147514D01*
X44373Y146489D01*
X44446Y146080D01*
X44417Y145963D01*
X44388Y145890D01*
X44358Y145831D01*
X44329Y145787D01*
X44285Y145758D01*
X44271Y145743D01*
X43875D01*
X43554Y145729D01*
X43276Y145700D01*
X43042Y145685D01*
X42866Y145656D01*
X42734Y145626D01*
X42646Y145612D01*
X42617D01*
X42339Y145890D01*
X42134Y145816D01*
X41725Y145890D01*
X41388Y145816D01*
X41184Y145890D01*
X40569Y145816D01*
X40233D01*
X39486Y146021D01*
X39355Y145890D01*
X38872Y145948D01*
X38594D01*
X37175Y145816D01*
X35609Y145890D01*
X35478D01*
X35331Y145612D01*
X35170Y145392D01*
X35010Y145217D01*
X34863Y145070D01*
X34732Y144983D01*
X34629Y144909D01*
X34556Y144880D01*
X34527Y144866D01*
X34453Y144880D01*
X34410Y144924D01*
X34366Y144997D01*
X34351Y145070D01*
X34337Y145143D01*
X34322Y145217D01*
Y145261D01*
Y145275D01*
X33985Y146431D01*
X34058Y146533D01*
X34117Y146665D01*
X34176Y146811D01*
X34219Y146972D01*
X34263Y147133D01*
X34293Y147265D01*
X34322Y147353D01*
Y147367D01*
Y147382D01*
Y147514D01*
X34176Y148055D01*
X34249Y148392D01*
X34117Y149079D01*
Y149474D01*
X34146Y149547D01*
X34205Y149620D01*
X34278Y149679D01*
X34366Y149738D01*
X34453Y149767D01*
X34512Y149796D01*
X34571Y149825D01*
X34585D01*
X34717Y149738D01*
X34834Y149650D01*
X34936Y149591D01*
X35024Y149518D01*
X35156Y149416D01*
X35244Y149328D01*
X35287Y149269D01*
X35317Y149240D01*
X35331Y149211D01*
X36224Y149284D01*
X36619Y149211D01*
X36999Y149167D01*
X37350Y149123D01*
X37643Y149108D01*
X37775Y149094D01*
X37906D01*
X38009Y149079D01*
X38257D01*
Y149167D01*
X38287Y149225D01*
X38301Y149284D01*
X38331Y149313D01*
X38375Y149342D01*
X38462D01*
X38477Y149313D01*
X38506Y149284D01*
X38550Y149240D01*
X38609Y149196D01*
X38740Y149108D01*
X38916Y149021D01*
X39077Y148933D01*
X39223Y148860D01*
X39267Y148845D01*
X39311Y148816D01*
X39340Y148801D01*
X39355D01*
X39472Y148874D01*
X39603Y148947D01*
X39896Y149050D01*
X40028Y149094D01*
X40130Y149123D01*
X40203Y149152D01*
X40233D01*
X41388Y149006D01*
X41856Y149152D01*
X42617Y149006D01*
X42807Y149079D01*
X42881D01*
X42939Y149006D01*
X42998Y149021D01*
X43056Y149050D01*
X43115Y149094D01*
X43188Y149138D01*
X43334Y149284D01*
X43481Y149445D01*
X43612Y149606D01*
X43729Y149752D01*
X43773Y149796D01*
X43802Y149840D01*
X43832Y149869D01*
Y149884D01*
X44036D01*
X44080Y149869D01*
D02*
G37*
G36*
X57969Y110739D02*
X58437Y110720D01*
X58886Y110661D01*
X59276Y110583D01*
X59647Y110505D01*
X59998Y110408D01*
X60310Y110310D01*
X60583Y110212D01*
X60837Y110115D01*
X61051Y110017D01*
X61227Y109920D01*
X61364Y109842D01*
X61480Y109764D01*
X61578Y109705D01*
X61617Y109686D01*
X61637Y109666D01*
X61890Y109452D01*
X62105Y109218D01*
X62300Y108964D01*
X62475Y108710D01*
X62612Y108437D01*
X62729Y108164D01*
X62826Y107911D01*
X62905Y107638D01*
X62963Y107403D01*
X63002Y107169D01*
X63041Y106955D01*
X63061Y106779D01*
X63080Y106643D01*
Y106526D01*
Y106448D01*
Y106428D01*
X63061Y106096D01*
X63022Y105765D01*
X62963Y105472D01*
X62905Y105219D01*
X62846Y105004D01*
X62787Y104829D01*
X62748Y104731D01*
X62729Y104692D01*
X62592Y104399D01*
X62436Y104126D01*
X62261Y103892D01*
X62085Y103697D01*
X61929Y103522D01*
X61812Y103405D01*
X61734Y103307D01*
X61695Y103287D01*
X61422Y103073D01*
X61129Y102878D01*
X60837Y102722D01*
X60564Y102585D01*
X60310Y102468D01*
X60115Y102390D01*
X60037Y102371D01*
X59978Y102351D01*
X59959Y102332D01*
X59939D01*
X59530Y102215D01*
X59081Y102136D01*
X58652Y102078D01*
X58262Y102039D01*
X57911Y102020D01*
X57755D01*
X57638Y102000D01*
X57384D01*
X56896Y102020D01*
X56428Y102039D01*
X55979Y102098D01*
X55589Y102176D01*
X55219Y102254D01*
X54868Y102332D01*
X54555Y102429D01*
X54282Y102546D01*
X54029Y102644D01*
X53834Y102741D01*
X53639Y102819D01*
X53502Y102897D01*
X53385Y102975D01*
X53288Y103034D01*
X53249Y103053D01*
X53229Y103073D01*
X52975Y103287D01*
X52761Y103522D01*
X52566Y103775D01*
X52410Y104029D01*
X52273Y104302D01*
X52156Y104575D01*
X52059Y104829D01*
X51981Y105102D01*
X51922Y105336D01*
X51883Y105570D01*
X51844Y105784D01*
X51824Y105960D01*
Y106096D01*
X51805Y106214D01*
Y106292D01*
Y106311D01*
X51824Y106643D01*
X51863Y106974D01*
X51902Y107267D01*
X51981Y107521D01*
X52039Y107735D01*
X52078Y107891D01*
X52117Y107989D01*
X52137Y108028D01*
X52273Y108320D01*
X52429Y108593D01*
X52605Y108847D01*
X52761Y109042D01*
X52917Y109218D01*
X53034Y109354D01*
X53112Y109432D01*
X53151Y109452D01*
X53424Y109666D01*
X53717Y109861D01*
X54029Y110017D01*
X54302Y110154D01*
X54555Y110271D01*
X54750Y110349D01*
X54829Y110369D01*
X54887Y110388D01*
X54907Y110408D01*
X54926D01*
X55336Y110525D01*
X55784Y110603D01*
X56214Y110681D01*
X56604Y110720D01*
X56955Y110739D01*
X57111D01*
X57228Y110759D01*
X57481D01*
X57969Y110739D01*
D02*
G37*
G36*
X44036Y127572D02*
X44373D01*
X44505Y127016D01*
X44432Y126256D01*
X44578Y125495D01*
Y125436D01*
X44505Y125363D01*
X44651Y125085D01*
X44592Y124895D01*
X44549Y124763D01*
X44505Y124661D01*
X44461Y124602D01*
X44417Y124559D01*
X44402Y124544D01*
X44373Y124529D01*
X43817D01*
X43700Y124544D01*
X43597Y124588D01*
X43524Y124646D01*
X43481Y124705D01*
X43437Y124763D01*
X43422Y124822D01*
X43407Y124866D01*
Y124880D01*
X43466Y125495D01*
X43203Y125568D01*
X43188Y125656D01*
X43173Y125744D01*
X43129Y125817D01*
X43071Y125905D01*
X42939Y126051D01*
X42793Y126182D01*
X42632Y126300D01*
X42500Y126387D01*
X42442Y126417D01*
X42398Y126446D01*
X42383Y126461D01*
X42369D01*
X42310Y126402D01*
X42105D01*
X41403Y126943D01*
X41432Y127090D01*
X41491Y127221D01*
X41564Y127338D01*
X41637Y127441D01*
X41710Y127514D01*
X41769Y127572D01*
X41813Y127616D01*
X41827Y127631D01*
X44036Y127572D01*
D02*
G37*
G36*
X111413Y80584D02*
X111779Y80540D01*
X112130Y80467D01*
X112467Y80393D01*
X112759Y80276D01*
X113037Y80174D01*
X113301Y80042D01*
X113535Y79925D01*
X113725Y79794D01*
X113915Y79662D01*
X114061Y79560D01*
X114193Y79457D01*
X114281Y79369D01*
X114354Y79296D01*
X114398Y79252D01*
X114412Y79238D01*
X114603Y79018D01*
X114764Y78799D01*
X114895Y78565D01*
X115027Y78345D01*
X115129Y78111D01*
X115203Y77892D01*
X115276Y77672D01*
X115334Y77467D01*
X115378Y77263D01*
X115407Y77087D01*
X115437Y76926D01*
X115451Y76794D01*
X115466Y76692D01*
Y76604D01*
Y76546D01*
Y76531D01*
Y74000D01*
X106015D01*
Y76546D01*
X106029Y76838D01*
X106059Y77116D01*
X106117Y77380D01*
X106190Y77643D01*
X106263Y77877D01*
X106351Y78096D01*
X106454Y78301D01*
X106556Y78492D01*
X106658Y78653D01*
X106761Y78813D01*
X106849Y78930D01*
X106922Y79047D01*
X106995Y79121D01*
X107053Y79194D01*
X107083Y79223D01*
X107097Y79238D01*
X107361Y79472D01*
X107653Y79691D01*
X107961Y79867D01*
X108282Y80028D01*
X108604Y80159D01*
X108926Y80262D01*
X109248Y80350D01*
X109570Y80423D01*
X109862Y80481D01*
X110126Y80525D01*
X110374Y80554D01*
X110594Y80584D01*
X110770D01*
X110901Y80598D01*
X111018D01*
X111413Y80584D01*
D02*
G37*
G36*
X189400Y23481D02*
X189503Y23466D01*
X189649Y23393D01*
X189707Y23349D01*
X189751Y23320D01*
X189781Y23305D01*
X189795Y23290D01*
X189868Y23217D01*
X189912Y23129D01*
X189971Y22968D01*
X189985Y22895D01*
X190000Y22837D01*
Y22808D01*
Y22793D01*
X189985Y22632D01*
X189942Y22500D01*
X189898Y22413D01*
X189883Y22398D01*
Y22383D01*
X187147Y18301D01*
Y14585D01*
X187132Y14468D01*
X187118Y14351D01*
X187045Y14176D01*
X186928Y14059D01*
X186796Y13971D01*
X186679Y13927D01*
X186562Y13898D01*
X186489Y13883D01*
X186459D01*
X186342Y13898D01*
X186225Y13912D01*
X186050Y14000D01*
X185933Y14102D01*
X185845Y14234D01*
X185786Y14366D01*
X185772Y14483D01*
X185757Y14556D01*
Y14571D01*
Y14585D01*
Y18272D01*
X183080Y22413D01*
X183021Y22544D01*
X182992Y22661D01*
X182977Y22749D01*
Y22764D01*
Y22778D01*
X182992Y22881D01*
X183007Y22983D01*
X183095Y23144D01*
X183138Y23203D01*
X183168Y23246D01*
X183197Y23261D01*
X183211Y23276D01*
X183299Y23349D01*
X183387Y23407D01*
X183475Y23437D01*
X183548Y23466D01*
X183621Y23481D01*
X183680Y23495D01*
X183724D01*
X183841Y23481D01*
X183958Y23437D01*
X184045Y23378D01*
X184133Y23320D01*
X184192Y23261D01*
X184236Y23203D01*
X184265Y23159D01*
X184279Y23144D01*
X186489Y19603D01*
X188756Y23188D01*
X188844Y23290D01*
X188932Y23363D01*
X189020Y23422D01*
X189107Y23451D01*
X189181Y23481D01*
X189239Y23495D01*
X189298D01*
X189400Y23481D01*
D02*
G37*
G36*
X232767Y166539D02*
X233045Y166481D01*
X233308Y166407D01*
X233557Y166305D01*
X233791Y166188D01*
X234010Y166056D01*
X234200Y165910D01*
X234376Y165764D01*
X234537Y165617D01*
X234683Y165471D01*
X234800Y165339D01*
X234903Y165222D01*
X234991Y165120D01*
X235049Y165047D01*
X235078Y164988D01*
X235093Y164974D01*
X235254Y164696D01*
X235385Y164418D01*
X235517Y164140D01*
X235620Y163847D01*
X235707Y163569D01*
X235781Y163291D01*
X235839Y163028D01*
X235883Y162779D01*
X235927Y162530D01*
X235956Y162325D01*
X235971Y162121D01*
X235985Y161960D01*
X236000Y161828D01*
Y161726D01*
Y161667D01*
Y161638D01*
X235985Y161287D01*
X235956Y160950D01*
X235912Y160628D01*
X235854Y160306D01*
X235781Y160028D01*
X235693Y159750D01*
X235605Y159502D01*
X235517Y159268D01*
X235429Y159063D01*
X235342Y158873D01*
X235254Y158712D01*
X235181Y158580D01*
X235122Y158478D01*
X235078Y158390D01*
X235049Y158346D01*
X235034Y158331D01*
X234830Y158068D01*
X234625Y157834D01*
X234405Y157629D01*
X234171Y157453D01*
X233952Y157322D01*
X233718Y157190D01*
X233498Y157088D01*
X233293Y157015D01*
X233089Y156956D01*
X232913Y156898D01*
X232752Y156868D01*
X232606Y156854D01*
X232489Y156839D01*
X232401Y156824D01*
X232328D01*
X232079Y156839D01*
X231845Y156868D01*
X231625Y156912D01*
X231421Y156971D01*
X231216Y157044D01*
X231040Y157132D01*
X230879Y157205D01*
X230718Y157307D01*
X230587Y157395D01*
X230470Y157468D01*
X230367Y157556D01*
X230280Y157629D01*
X230221Y157688D01*
X230177Y157732D01*
X230148Y157761D01*
X230133Y157775D01*
X229489Y157146D01*
X229343Y157058D01*
X229212Y157015D01*
X229153D01*
X229109Y157000D01*
X229065D01*
X228948Y157015D01*
X228860Y157029D01*
X228699Y157117D01*
X228641Y157146D01*
X228582Y157190D01*
X228568Y157205D01*
X228553Y157219D01*
X228480Y157307D01*
X228421Y157395D01*
X228392Y157483D01*
X228363Y157556D01*
X228348Y157629D01*
X228334Y157688D01*
Y157717D01*
Y157732D01*
X228348Y157834D01*
X228378Y157936D01*
X228465Y158097D01*
X228524Y158170D01*
X228568Y158214D01*
X228597Y158244D01*
X228612Y158258D01*
X228773Y158405D01*
X228904Y158536D01*
X229036Y158639D01*
X229138Y158726D01*
X229226Y158799D01*
X229285Y158843D01*
X229328Y158873D01*
X229343Y158887D01*
X229226Y159107D01*
X229124Y159341D01*
X228977Y159809D01*
X228860Y160263D01*
X228773Y160702D01*
X228758Y160892D01*
X228729Y161067D01*
X228714Y161228D01*
Y161374D01*
X228699Y161477D01*
Y161565D01*
Y161623D01*
Y161638D01*
X228714Y161989D01*
X228743Y162325D01*
X228787Y162662D01*
X228860Y162969D01*
X228934Y163262D01*
X229007Y163540D01*
X229109Y163789D01*
X229197Y164023D01*
X229285Y164242D01*
X229372Y164418D01*
X229460Y164593D01*
X229533Y164725D01*
X229606Y164827D01*
X229650Y164915D01*
X229680Y164959D01*
X229694Y164974D01*
X229899Y165252D01*
X230133Y165500D01*
X230353Y165705D01*
X230587Y165881D01*
X230821Y166042D01*
X231055Y166173D01*
X231274Y166276D01*
X231494Y166363D01*
X231699Y166422D01*
X231889Y166466D01*
X232050Y166510D01*
X232196Y166524D01*
X232313Y166539D01*
X232401Y166554D01*
X232474D01*
X232767Y166539D01*
D02*
G37*
G36*
X226081Y166451D02*
X226198Y166437D01*
X226300Y166422D01*
X226476Y166334D01*
X226593Y166232D01*
X226666Y166100D01*
X226724Y165968D01*
X226739Y165851D01*
X226754Y165764D01*
Y165749D01*
Y165734D01*
X226739Y165617D01*
X226724Y165515D01*
X226651Y165339D01*
X226534Y165222D01*
X226402Y165135D01*
X226285Y165091D01*
X226168Y165061D01*
X226095Y165047D01*
X223857D01*
X225393Y163613D01*
X225481Y163510D01*
X225539Y163408D01*
X225598Y163306D01*
X225627Y163203D01*
X225642Y163130D01*
X225656Y163072D01*
Y163028D01*
Y163013D01*
X225642Y162940D01*
X225627Y162852D01*
X225569Y162735D01*
X225510Y162647D01*
X225481Y162633D01*
Y162618D01*
X225408Y162560D01*
X225320Y162516D01*
X225173Y162457D01*
X225115Y162442D01*
X225056Y162428D01*
X225013D01*
X224705Y162413D01*
X224574Y162399D01*
X224442Y162384D01*
X224340D01*
X224266Y162369D01*
X224193D01*
X223930Y162311D01*
X223696Y162252D01*
X223506Y162164D01*
X223330Y162091D01*
X223198Y162004D01*
X223096Y161945D01*
X223037Y161901D01*
X223023Y161887D01*
X222833Y161682D01*
X222686Y161433D01*
X222584Y161184D01*
X222511Y160936D01*
X222467Y160716D01*
X222452Y160614D01*
Y160526D01*
X222438Y160467D01*
Y160409D01*
Y160380D01*
Y160365D01*
X222467Y160028D01*
X222525Y159721D01*
X222628Y159443D01*
X222730Y159224D01*
X222847Y159034D01*
X222950Y158887D01*
X223008Y158799D01*
X223037Y158785D01*
Y158770D01*
X223228Y158624D01*
X223418Y158522D01*
X223608Y158434D01*
X223798Y158390D01*
X223959Y158361D01*
X224091Y158346D01*
X224179Y158331D01*
X224208D01*
X224398Y158346D01*
X224574Y158375D01*
X224720Y158405D01*
X224852Y158463D01*
X224954Y158507D01*
X225027Y158536D01*
X225086Y158565D01*
X225100Y158580D01*
X225276Y158726D01*
X225422Y158887D01*
X225554Y159048D01*
X225642Y159195D01*
X225715Y159312D01*
X225759Y159414D01*
X225788Y159473D01*
X225803Y159502D01*
X225876Y159692D01*
X225964Y159838D01*
X226081Y159941D01*
X226183Y160014D01*
X226285Y160058D01*
X226373Y160072D01*
X226432Y160087D01*
X226446D01*
X226549Y160072D01*
X226637Y160058D01*
X226798Y159999D01*
X226856Y159955D01*
X226885Y159926D01*
X226915Y159911D01*
X226929Y159897D01*
X227002Y159824D01*
X227046Y159736D01*
X227105Y159575D01*
X227119Y159502D01*
X227134Y159458D01*
Y159414D01*
Y159399D01*
Y159312D01*
X227119Y159253D01*
X227105Y159195D01*
Y159180D01*
X226958Y158785D01*
X226768Y158434D01*
X226578Y158141D01*
X226373Y157892D01*
X226198Y157702D01*
X226051Y157556D01*
X225993Y157512D01*
X225949Y157468D01*
X225934Y157453D01*
X225920Y157439D01*
X225627Y157249D01*
X225334Y157117D01*
X225042Y157015D01*
X224764Y156956D01*
X224544Y156912D01*
X224442Y156898D01*
X224354D01*
X224281Y156883D01*
X224193D01*
X223959Y156898D01*
X223740Y156927D01*
X223535Y156971D01*
X223330Y157029D01*
X222964Y157161D01*
X222803Y157249D01*
X222657Y157337D01*
X222525Y157410D01*
X222394Y157497D01*
X222306Y157571D01*
X222218Y157644D01*
X222145Y157688D01*
X222101Y157732D01*
X222072Y157761D01*
X222057Y157775D01*
X221882Y157966D01*
X221735Y158170D01*
X221604Y158390D01*
X221487Y158595D01*
X221399Y158814D01*
X221311Y159034D01*
X221194Y159443D01*
X221165Y159634D01*
X221136Y159809D01*
X221106Y159970D01*
X221092Y160102D01*
X221077Y160219D01*
Y160292D01*
Y160350D01*
Y160365D01*
X221106Y160877D01*
X221179Y161331D01*
X221297Y161740D01*
X221457Y162091D01*
X221648Y162413D01*
X221852Y162677D01*
X222072Y162911D01*
X222306Y163101D01*
X222540Y163262D01*
X222759Y163393D01*
X222964Y163496D01*
X223155Y163569D01*
X223301Y163628D01*
X223433Y163657D01*
X223506Y163686D01*
X223535D01*
X222043Y165193D01*
X221838Y165398D01*
X221691Y165573D01*
X221574Y165720D01*
X221501Y165837D01*
X221457Y165924D01*
X221443Y165998D01*
X221428Y166027D01*
Y166042D01*
X221457Y166188D01*
X221516Y166290D01*
X221589Y166363D01*
X221691Y166407D01*
X221794Y166451D01*
X221867Y166466D01*
X221955D01*
X226081Y166451D01*
D02*
G37*
G36*
X180607Y23451D02*
X180710Y23437D01*
X180885Y23363D01*
X181002Y23246D01*
X181090Y23115D01*
X181134Y22983D01*
X181163Y22881D01*
X181178Y22793D01*
Y22778D01*
Y22764D01*
Y14585D01*
X181163Y14468D01*
X181149Y14366D01*
X181075Y14190D01*
X180958Y14073D01*
X180827Y13985D01*
X180710Y13942D01*
X180593Y13912D01*
X180520Y13898D01*
X180490D01*
X180373Y13912D01*
X180256Y13927D01*
X180081Y14000D01*
X179963Y14117D01*
X179876Y14249D01*
X179817Y14366D01*
X179803Y14483D01*
X179788Y14556D01*
Y14585D01*
Y22764D01*
X179803Y22881D01*
X179817Y22998D01*
X179890Y23173D01*
X180007Y23290D01*
X180139Y23378D01*
X180271Y23437D01*
X180373Y23451D01*
X180461Y23466D01*
X180490D01*
X180607Y23451D01*
D02*
G37*
G36*
X328062Y150539D02*
X328164Y150510D01*
X328252Y150466D01*
X328266Y150451D01*
X328281D01*
X328544Y150290D01*
X328778Y150129D01*
X329013Y149954D01*
X329217Y149793D01*
X329422Y149632D01*
X329598Y149486D01*
X329759Y149339D01*
X329905Y149193D01*
X330037Y149076D01*
X330154Y148959D01*
X330256Y148856D01*
X330329Y148769D01*
X330388Y148696D01*
X330446Y148637D01*
X330461Y148608D01*
X330476Y148593D01*
X330724Y148227D01*
X330944Y147862D01*
X331119Y147481D01*
X331266Y147130D01*
X331339Y146984D01*
X331397Y146838D01*
X331441Y146706D01*
X331470Y146589D01*
X331500Y146501D01*
X331529Y146428D01*
X331544Y146384D01*
Y146369D01*
X331617Y146062D01*
X331675Y145770D01*
X331719Y145477D01*
X331749Y145228D01*
X331763Y145009D01*
Y144921D01*
X331778Y144848D01*
Y144789D01*
Y144745D01*
Y144716D01*
Y144701D01*
X331763Y144409D01*
X331749Y144116D01*
X331705Y143853D01*
X331661Y143604D01*
X331602Y143356D01*
X331529Y143151D01*
X331456Y142946D01*
X331383Y142770D01*
X331324Y142595D01*
X331251Y142463D01*
X331178Y142331D01*
X331119Y142244D01*
X331076Y142156D01*
X331032Y142097D01*
X331017Y142068D01*
X331002Y142053D01*
X330827Y141834D01*
X330622Y141644D01*
X330417Y141483D01*
X330198Y141336D01*
X329993Y141220D01*
X329773Y141132D01*
X329554Y141044D01*
X329349Y140985D01*
X329144Y140927D01*
X328969Y140883D01*
X328808Y140868D01*
X328661Y140839D01*
X328544D01*
X328457Y140824D01*
X328383D01*
X328135Y140839D01*
X327886Y140868D01*
X327667Y140912D01*
X327462Y140985D01*
X327257Y141059D01*
X327081Y141146D01*
X326906Y141234D01*
X326759Y141322D01*
X326613Y141410D01*
X326496Y141512D01*
X326394Y141585D01*
X326306Y141658D01*
X326247Y141732D01*
X326203Y141775D01*
X326174Y141805D01*
X326160Y141819D01*
X326013Y142009D01*
X325882Y142214D01*
X325765Y142434D01*
X325662Y142639D01*
X325589Y142858D01*
X325516Y143077D01*
X325414Y143472D01*
X325384Y143663D01*
X325355Y143838D01*
X325340Y143985D01*
X325326Y144116D01*
X325311Y144233D01*
Y144306D01*
Y144365D01*
Y144380D01*
X325326Y144658D01*
X325340Y144906D01*
X325384Y145155D01*
X325443Y145374D01*
X325501Y145579D01*
X325574Y145770D01*
X325648Y145945D01*
X325721Y146106D01*
X325808Y146238D01*
X325882Y146369D01*
X325955Y146472D01*
X326013Y146559D01*
X326072Y146618D01*
X326116Y146662D01*
X326130Y146691D01*
X326145Y146706D01*
X326306Y146852D01*
X326482Y146984D01*
X326672Y147101D01*
X326862Y147203D01*
X327052Y147276D01*
X327242Y147350D01*
X327608Y147452D01*
X327784Y147481D01*
X327945Y147510D01*
X328091Y147525D01*
X328208Y147540D01*
X328310Y147554D01*
X328457D01*
X328778Y147540D01*
X329057Y147496D01*
X329305Y147423D01*
X329495Y147350D01*
X329656Y147262D01*
X329759Y147203D01*
X329817Y147145D01*
X329846Y147130D01*
X329656Y147364D01*
X329466Y147569D01*
X329305Y147745D01*
X329159Y147906D01*
X329042Y148037D01*
X328939Y148140D01*
X328881Y148198D01*
X328866Y148213D01*
X328661Y148418D01*
X328442Y148608D01*
X328223Y148798D01*
X328003Y148959D01*
X327813Y149105D01*
X327667Y149222D01*
X327608Y149251D01*
X327564Y149281D01*
X327535Y149310D01*
X327520D01*
X327433Y149369D01*
X327359Y149442D01*
X327315Y149529D01*
X327272Y149617D01*
X327257Y149691D01*
X327242Y149764D01*
Y149808D01*
Y149822D01*
X327257Y149924D01*
X327272Y150012D01*
X327345Y150173D01*
X327389Y150232D01*
X327418Y150276D01*
X327433Y150305D01*
X327447Y150320D01*
X327520Y150393D01*
X327608Y150451D01*
X327681Y150495D01*
X327754Y150524D01*
X327827Y150539D01*
X327886Y150554D01*
X327930D01*
X328062Y150539D01*
D02*
G37*
G36*
X185895Y52715D02*
X185998Y52701D01*
X186100Y52671D01*
X186173Y52628D01*
X186305Y52510D01*
X186393Y52379D01*
X186437Y52247D01*
X186466Y52145D01*
X186481Y52057D01*
Y52042D01*
Y52028D01*
X186466Y51911D01*
X186451Y51808D01*
X186364Y51633D01*
X186261Y51516D01*
X186129Y51442D01*
X185998Y51384D01*
X185881Y51369D01*
X185793Y51355D01*
X180131D01*
X179809Y51340D01*
X179531Y51267D01*
X179282Y51179D01*
X179063Y51048D01*
X178873Y50901D01*
X178726Y50726D01*
X178595Y50550D01*
X178492Y50374D01*
X178405Y50184D01*
X178331Y50009D01*
X178288Y49833D01*
X178244Y49687D01*
X178229Y49555D01*
X178214Y49467D01*
X178200Y49409D01*
Y49380D01*
Y49116D01*
X178214Y48868D01*
X178258Y48663D01*
X178302Y48472D01*
X178346Y48312D01*
X178390Y48209D01*
X178419Y48136D01*
X178434Y48107D01*
X178566Y47975D01*
X178697Y47873D01*
X178843Y47770D01*
X178975Y47697D01*
X179238Y47565D01*
X179502Y47478D01*
X179721Y47434D01*
X179809Y47419D01*
X179882Y47404D01*
X179955Y47390D01*
X185764D01*
X185895Y47375D01*
X185998Y47361D01*
X186100Y47331D01*
X186173Y47288D01*
X186305Y47170D01*
X186393Y47039D01*
X186437Y46907D01*
X186466Y46805D01*
X186481Y46717D01*
Y46702D01*
Y46688D01*
X186466Y46571D01*
X186451Y46468D01*
X186364Y46293D01*
X186261Y46176D01*
X186129Y46088D01*
X185998Y46044D01*
X185881Y46015D01*
X185793Y46000D01*
X180043D01*
X179750Y46015D01*
X179487Y46044D01*
X179224Y46102D01*
X178990Y46176D01*
X178770Y46263D01*
X178551Y46366D01*
X178375Y46468D01*
X178200Y46585D01*
X178053Y46688D01*
X177922Y46790D01*
X177805Y46892D01*
X177717Y46980D01*
X177644Y47053D01*
X177585Y47112D01*
X177556Y47141D01*
X177541Y47156D01*
X177395Y47361D01*
X177278Y47551D01*
X177176Y47756D01*
X177088Y47961D01*
X177015Y48165D01*
X176956Y48355D01*
X176883Y48736D01*
X176854Y48897D01*
X176839Y49043D01*
X176824Y49189D01*
Y49307D01*
Y49394D01*
Y49467D01*
Y49511D01*
Y49526D01*
X176854Y49819D01*
X176898Y50097D01*
X176956Y50345D01*
X177029Y50579D01*
X177117Y50799D01*
X177220Y51018D01*
X177322Y51208D01*
X177439Y51384D01*
X177702Y51691D01*
X177980Y51955D01*
X178273Y52159D01*
X178566Y52335D01*
X178858Y52467D01*
X179151Y52554D01*
X179414Y52628D01*
X179648Y52686D01*
X179853Y52715D01*
X179999Y52730D01*
X185764D01*
X185895Y52715D01*
D02*
G37*
G36*
X184374Y60016D02*
X184549Y60001D01*
X184871Y59899D01*
X185164Y59782D01*
X185413Y59636D01*
X185603Y59475D01*
X185749Y59358D01*
X185807Y59299D01*
X185851Y59255D01*
X185866Y59240D01*
X185881Y59226D01*
X185998Y59109D01*
X186100Y58977D01*
X186276Y58685D01*
X186393Y58377D01*
X186466Y58085D01*
X186524Y57821D01*
X186539Y57704D01*
Y57602D01*
X186554Y57514D01*
Y57456D01*
Y57412D01*
Y57397D01*
X186539Y57031D01*
X186466Y56695D01*
X186378Y56388D01*
X186261Y56110D01*
X186115Y55846D01*
X185954Y55627D01*
X185778Y55422D01*
X185603Y55246D01*
X185427Y55086D01*
X185252Y54954D01*
X185091Y54851D01*
X184944Y54764D01*
X184827Y54705D01*
X184739Y54647D01*
X184666Y54632D01*
X184652Y54617D01*
X184549Y54588D01*
X184447Y54573D01*
X184388Y54559D01*
X184359D01*
X184257Y54573D01*
X184154Y54588D01*
X184008Y54661D01*
X183949Y54705D01*
X183906Y54734D01*
X183891Y54749D01*
X183876Y54764D01*
X183818Y54837D01*
X183774Y54925D01*
X183715Y55086D01*
X183701Y55144D01*
X183686Y55202D01*
Y55232D01*
Y55246D01*
X183701Y55393D01*
X183759Y55524D01*
X183818Y55627D01*
X183906Y55700D01*
X183979Y55773D01*
X184052Y55817D01*
X184096Y55832D01*
X184110Y55846D01*
X184315Y55949D01*
X184491Y56051D01*
X184637Y56168D01*
X184754Y56271D01*
X184842Y56373D01*
X184915Y56446D01*
X184944Y56505D01*
X184959Y56519D01*
X185018Y56636D01*
X185061Y56783D01*
X185120Y57090D01*
Y57221D01*
X185135Y57339D01*
Y57412D01*
Y57441D01*
X185120Y57617D01*
X185091Y57792D01*
X185032Y57924D01*
X184988Y58041D01*
X184930Y58143D01*
X184871Y58202D01*
X184842Y58246D01*
X184827Y58260D01*
X184710Y58363D01*
X184578Y58436D01*
X184461Y58494D01*
X184345Y58524D01*
X184242Y58553D01*
X184169Y58568D01*
X184096D01*
X183964Y58553D01*
X183847Y58538D01*
X183628Y58465D01*
X183437Y58348D01*
X183291Y58216D01*
X183159Y58085D01*
X183072Y57982D01*
X183013Y57895D01*
X182999Y57880D01*
Y57865D01*
X182838Y57587D01*
X182677Y57339D01*
X182501Y57105D01*
X182340Y56870D01*
X182164Y56666D01*
X182004Y56475D01*
X181857Y56300D01*
X181711Y56153D01*
X181565Y56007D01*
X181448Y55890D01*
X181331Y55788D01*
X181243Y55700D01*
X181155Y55641D01*
X181096Y55598D01*
X181067Y55568D01*
X181053Y55554D01*
X180716Y55320D01*
X180365Y55115D01*
X180028Y54939D01*
X179707Y54793D01*
X179429Y54676D01*
X179312Y54632D01*
X179209Y54603D01*
X179136Y54573D01*
X179077Y54544D01*
X179034Y54530D01*
X179019D01*
X178668Y54442D01*
X178317Y54354D01*
X177980Y54281D01*
X177673Y54222D01*
X177410Y54164D01*
X177293Y54134D01*
X177205Y54120D01*
X177117Y54105D01*
X177059Y54091D01*
X177029Y54076D01*
X177015D01*
Y59226D01*
X177029Y59343D01*
X177044Y59460D01*
X177132Y59636D01*
X177234Y59753D01*
X177366Y59840D01*
X177497Y59899D01*
X177614Y59914D01*
X177688Y59928D01*
X177717D01*
X177849Y59914D01*
X177951Y59899D01*
X178053Y59870D01*
X178127Y59826D01*
X178258Y59709D01*
X178346Y59577D01*
X178390Y59445D01*
X178419Y59343D01*
X178434Y59255D01*
Y59240D01*
Y59226D01*
Y55802D01*
X178756Y55905D01*
X179048Y56022D01*
X179297Y56124D01*
X179516Y56227D01*
X179707Y56329D01*
X179838Y56402D01*
X179911Y56446D01*
X179941Y56461D01*
X180131Y56592D01*
X180321Y56739D01*
X180672Y57075D01*
X180994Y57426D01*
X181272Y57778D01*
X181506Y58085D01*
X181594Y58231D01*
X181682Y58348D01*
X181740Y58450D01*
X181784Y58524D01*
X181813Y58568D01*
X181828Y58582D01*
X181989Y58831D01*
X182179Y59065D01*
X182369Y59255D01*
X182560Y59416D01*
X182750Y59562D01*
X182955Y59679D01*
X183145Y59767D01*
X183335Y59855D01*
X183510Y59914D01*
X183671Y59957D01*
X183818Y59987D01*
X183949Y60001D01*
X184052Y60016D01*
X184125Y60031D01*
X184198D01*
X184374Y60016D01*
D02*
G37*
G36*
X94304Y106642D02*
X95138Y104836D01*
X94450Y102969D01*
X92644Y102135D01*
X90778Y102823D01*
X89944Y104629D01*
X90631Y106495D01*
X92437Y107329D01*
X94304Y106642D01*
D02*
G37*
G36*
Y115604D02*
X95138Y113798D01*
X94450Y111932D01*
X92644Y111098D01*
X90778Y111785D01*
X89944Y113591D01*
X90631Y115458D01*
X92437Y116292D01*
X94304Y115604D01*
D02*
G37*
G36*
X97139Y142385D02*
X97658Y142281D01*
Y142281D01*
X98073Y142364D01*
X98915Y142447D01*
X99761D01*
X100603Y142364D01*
X101018Y142281D01*
X101433Y142364D01*
X102275Y142447D01*
X103121D01*
X103963Y142364D01*
X104378Y142281D01*
X104765Y142358D01*
X105550Y142436D01*
X106340D01*
X107126Y142358D01*
X107513Y142281D01*
Y141308D01*
X107259Y139378D01*
X106755Y137497D01*
X106010Y135698D01*
X105036Y134012D01*
X103851Y132468D01*
X102474Y131091D01*
X100929Y129906D01*
X99243Y128932D01*
X97445Y128187D01*
X95564Y127683D01*
X93634Y127429D01*
X92660Y127429D01*
X91687Y127429D01*
X89757Y127683D01*
X87876Y128187D01*
X86077Y128932D01*
X84391Y129906D01*
X82846Y131091D01*
X81470Y132467D01*
X80284Y134012D01*
X79311Y135698D01*
X78566Y137497D01*
X78062Y139378D01*
X77808Y141308D01*
Y142281D01*
X78288Y142377D01*
X79263Y142473D01*
X80243D01*
X81217Y142377D01*
X81698Y142281D01*
X82113Y142364D01*
X82955Y142447D01*
X83801D01*
X84643Y142364D01*
X85058Y142281D01*
X85576Y142385D01*
X86629Y142488D01*
X87687Y142488D01*
X88739Y142385D01*
X89258Y142281D01*
Y142281D01*
X89776Y142385D01*
X90829Y142488D01*
X91887D01*
X92939Y142385D01*
X93458Y142281D01*
X93976Y142385D01*
X95029Y142488D01*
X96087Y142488D01*
X97139Y142385D01*
D02*
G37*
G36*
X105595Y99061D02*
X105573Y98925D01*
X105475Y98828D01*
X105339Y98805D01*
X105278Y98836D01*
X105278Y98836D01*
X104824Y98005D01*
X103712Y96473D01*
X102412Y95096D01*
X100946Y93897D01*
X99338Y92896D01*
X97615Y92110D01*
X95806Y91552D01*
X93940Y91230D01*
X92994Y91191D01*
X92029D01*
X90114Y91440D01*
X88249Y91936D01*
X86463Y92669D01*
X84787Y93626D01*
X83249Y94793D01*
X81875Y96149D01*
X80688Y97671D01*
X80198Y98503D01*
X80194Y98510D01*
X80186Y98525D01*
X80179Y98540D01*
X80173Y98555D01*
X80170Y98563D01*
X80104Y98638D01*
X80075Y98834D01*
X80157Y99015D01*
X80324Y99123D01*
X105564D01*
X105595Y99061D01*
D02*
G37*
G36*
X406103Y80824D02*
X406466Y80766D01*
X406794Y80672D01*
X407075Y80543D01*
X407332Y80391D01*
X407543Y80227D01*
X407731Y80051D01*
X407883Y79864D01*
X408012Y79677D01*
X408117Y79501D01*
X408199Y79337D01*
X408257Y79185D01*
X408304Y79068D01*
X408328Y78962D01*
X408351Y78904D01*
Y78881D01*
X409557Y80075D01*
X409721Y80239D01*
X409862Y80356D01*
X409979Y80450D01*
X410073Y80508D01*
X410143Y80543D01*
X410201Y80555D01*
X410225Y80567D01*
X410236D01*
X410354Y80543D01*
X410435Y80496D01*
X410494Y80438D01*
X410529Y80356D01*
X410564Y80274D01*
X410576Y80215D01*
Y80169D01*
Y80145D01*
X410564Y76843D01*
X410553Y76749D01*
X410541Y76667D01*
X410471Y76527D01*
X410389Y76433D01*
X410283Y76375D01*
X410178Y76328D01*
X410084Y76316D01*
X410014Y76304D01*
X409991D01*
X409897Y76316D01*
X409815Y76328D01*
X409674Y76386D01*
X409581Y76480D01*
X409510Y76585D01*
X409475Y76679D01*
X409452Y76773D01*
X409440Y76831D01*
Y76855D01*
Y78623D01*
X408293Y77393D01*
X408211Y77323D01*
X408129Y77276D01*
X408047Y77229D01*
X407965Y77206D01*
X407906Y77194D01*
X407859Y77183D01*
X407813D01*
X407754Y77194D01*
X407684Y77206D01*
X407590Y77253D01*
X407520Y77300D01*
X407508Y77323D01*
X407496D01*
X407450Y77382D01*
X407415Y77452D01*
X407368Y77569D01*
X407356Y77616D01*
X407344Y77663D01*
Y77686D01*
Y77698D01*
X407332Y77944D01*
X407321Y78049D01*
X407309Y78155D01*
Y78236D01*
X407297Y78295D01*
Y78342D01*
Y78354D01*
X407251Y78564D01*
X407204Y78752D01*
X407133Y78904D01*
X407075Y79044D01*
X407005Y79150D01*
X406958Y79232D01*
X406923Y79279D01*
X406911Y79290D01*
X406747Y79443D01*
X406548Y79560D01*
X406349Y79642D01*
X406150Y79700D01*
X405974Y79735D01*
X405892Y79747D01*
X405822D01*
X405775Y79759D01*
X405693D01*
X405424Y79735D01*
X405178Y79689D01*
X404955Y79606D01*
X404780Y79524D01*
X404628Y79431D01*
X404510Y79349D01*
X404440Y79302D01*
X404429Y79279D01*
X404417D01*
X404300Y79126D01*
X404218Y78974D01*
X404147Y78822D01*
X404112Y78670D01*
X404089Y78541D01*
X404077Y78436D01*
X404066Y78365D01*
Y78354D01*
Y78342D01*
X404077Y78190D01*
X404101Y78049D01*
X404124Y77932D01*
X404171Y77827D01*
X404206Y77745D01*
X404230Y77686D01*
X404253Y77639D01*
X404265Y77628D01*
X404382Y77487D01*
X404510Y77370D01*
X404639Y77265D01*
X404756Y77194D01*
X404850Y77136D01*
X404932Y77101D01*
X404979Y77077D01*
X405002Y77066D01*
X405154Y77007D01*
X405272Y76937D01*
X405354Y76843D01*
X405412Y76761D01*
X405447Y76679D01*
X405459Y76609D01*
X405471Y76562D01*
Y76550D01*
X405459Y76468D01*
X405447Y76398D01*
X405400Y76269D01*
X405365Y76223D01*
X405342Y76199D01*
X405330Y76176D01*
X405318Y76164D01*
X405260Y76105D01*
X405190Y76070D01*
X405061Y76023D01*
X405002Y76012D01*
X404967Y76000D01*
X404850D01*
X404803Y76012D01*
X404756Y76023D01*
X404745D01*
X404429Y76140D01*
X404147Y76293D01*
X403913Y76445D01*
X403714Y76609D01*
X403562Y76749D01*
X403445Y76866D01*
X403410Y76913D01*
X403375Y76948D01*
X403363Y76960D01*
X403351Y76972D01*
X403199Y77206D01*
X403094Y77440D01*
X403012Y77674D01*
X402965Y77897D01*
X402930Y78073D01*
X402918Y78155D01*
Y78225D01*
X402906Y78283D01*
Y78319D01*
Y78342D01*
Y78354D01*
X402918Y78541D01*
X402942Y78717D01*
X402977Y78881D01*
X403023Y79044D01*
X403129Y79337D01*
X403199Y79466D01*
X403269Y79583D01*
X403328Y79689D01*
X403398Y79794D01*
X403457Y79864D01*
X403515Y79934D01*
X403550Y79993D01*
X403586Y80028D01*
X403609Y80051D01*
X403621Y80063D01*
X403773Y80204D01*
X403937Y80321D01*
X404112Y80426D01*
X404276Y80520D01*
X404452Y80590D01*
X404628Y80660D01*
X404955Y80754D01*
X405108Y80777D01*
X405248Y80801D01*
X405377Y80824D01*
X405482Y80836D01*
X405576Y80848D01*
X405693D01*
X406103Y80824D01*
D02*
G37*
G36*
X113812Y178451D02*
X113914Y178437D01*
X114090Y178363D01*
X114207Y178246D01*
X114295Y178115D01*
X114339Y177983D01*
X114368Y177881D01*
X114383Y177793D01*
Y177778D01*
Y177764D01*
Y169585D01*
X114368Y169468D01*
X114353Y169366D01*
X114280Y169190D01*
X114163Y169073D01*
X114032Y168985D01*
X113914Y168941D01*
X113798Y168912D01*
X113724Y168898D01*
X113695D01*
X113578Y168912D01*
X113461Y168927D01*
X113285Y169000D01*
X113168Y169117D01*
X113081Y169249D01*
X113022Y169366D01*
X113007Y169483D01*
X112993Y169556D01*
Y169585D01*
Y177764D01*
X113007Y177881D01*
X113022Y177998D01*
X113095Y178173D01*
X113212Y178290D01*
X113344Y178378D01*
X113476Y178437D01*
X113578Y178451D01*
X113666Y178466D01*
X113695D01*
X113812Y178451D01*
D02*
G37*
G36*
X122429Y178466D02*
X122532Y178451D01*
X122707Y178363D01*
X122824Y178261D01*
X122912Y178129D01*
X122956Y177998D01*
X122985Y177881D01*
X123000Y177793D01*
Y177778D01*
Y177764D01*
Y172043D01*
X122985Y171751D01*
X122956Y171487D01*
X122898Y171224D01*
X122824Y170990D01*
X122737Y170770D01*
X122634Y170551D01*
X122532Y170375D01*
X122415Y170200D01*
X122312Y170053D01*
X122210Y169922D01*
X122108Y169805D01*
X122020Y169717D01*
X121947Y169644D01*
X121888Y169585D01*
X121859Y169556D01*
X121844Y169541D01*
X121639Y169395D01*
X121449Y169278D01*
X121244Y169176D01*
X121039Y169088D01*
X120835Y169015D01*
X120645Y168956D01*
X120264Y168883D01*
X120103Y168854D01*
X119957Y168839D01*
X119811Y168824D01*
X119474D01*
X119181Y168854D01*
X118904Y168898D01*
X118655Y168956D01*
X118421Y169029D01*
X118201Y169117D01*
X117982Y169219D01*
X117792Y169322D01*
X117616Y169439D01*
X117309Y169702D01*
X117045Y169980D01*
X116841Y170273D01*
X116665Y170565D01*
X116533Y170858D01*
X116446Y171151D01*
X116372Y171414D01*
X116314Y171648D01*
X116285Y171853D01*
X116270Y171999D01*
Y172058D01*
Y172102D01*
Y172116D01*
Y172131D01*
Y177764D01*
X116285Y177895D01*
X116299Y177998D01*
X116328Y178100D01*
X116372Y178173D01*
X116489Y178305D01*
X116621Y178393D01*
X116753Y178437D01*
X116855Y178466D01*
X116943Y178480D01*
X116972D01*
X117089Y178466D01*
X117192Y178451D01*
X117367Y178363D01*
X117484Y178261D01*
X117557Y178129D01*
X117616Y177998D01*
X117631Y177881D01*
X117645Y177793D01*
Y177778D01*
Y177764D01*
Y172131D01*
X117660Y171809D01*
X117733Y171531D01*
X117821Y171282D01*
X117952Y171063D01*
X118099Y170873D01*
X118274Y170726D01*
X118450Y170595D01*
X118625Y170492D01*
X118816Y170404D01*
X118991Y170331D01*
X119167Y170287D01*
X119313Y170244D01*
X119445Y170229D01*
X119533Y170214D01*
X119591Y170200D01*
X119884D01*
X120132Y170214D01*
X120337Y170258D01*
X120527Y170302D01*
X120688Y170346D01*
X120791Y170390D01*
X120864Y170419D01*
X120893Y170434D01*
X121025Y170565D01*
X121127Y170697D01*
X121230Y170843D01*
X121303Y170975D01*
X121435Y171238D01*
X121522Y171502D01*
X121566Y171721D01*
X121581Y171809D01*
X121595Y171882D01*
X121610Y171955D01*
Y171999D01*
Y172029D01*
Y172043D01*
Y177764D01*
X121625Y177895D01*
X121639Y177998D01*
X121669Y178100D01*
X121713Y178173D01*
X121830Y178305D01*
X121961Y178393D01*
X122093Y178437D01*
X122195Y178466D01*
X122283Y178480D01*
X122312D01*
X122429Y178466D01*
D02*
G37*
G36*
X33020Y150674D02*
X33064Y150542D01*
X33093Y150425D01*
X33108Y150323D01*
X33122Y150264D01*
Y150206D01*
Y150191D01*
Y150176D01*
X33078Y150162D01*
X33049Y150118D01*
X33034Y150074D01*
Y150059D01*
X33064Y149884D01*
X33034Y149650D01*
X33064Y149620D01*
X33034Y149591D01*
Y149562D01*
X33049Y149152D01*
X33078Y148947D01*
X33093Y148772D01*
X33122Y148626D01*
X33137Y148494D01*
X33151Y148421D01*
Y148406D01*
Y148392D01*
X33034Y148070D01*
X33093Y147689D01*
X33064Y147441D01*
X33122Y147265D01*
Y147148D01*
X33108Y147045D01*
X33078Y146943D01*
X33049Y146884D01*
X33034Y146855D01*
X33064Y146577D01*
X33049Y146563D01*
X33034Y146533D01*
X32991Y146431D01*
X32961Y146329D01*
X32947Y146299D01*
Y146285D01*
X32976Y146182D01*
X33034Y146109D01*
X33078Y146065D01*
X33093Y146051D01*
X33122Y145934D01*
X33093Y145714D01*
X33122Y145685D01*
X33034Y144617D01*
X33064Y144500D01*
X32976Y144149D01*
X33005Y143812D01*
X32976Y143578D01*
X33064Y143168D01*
X33005Y142656D01*
X33064Y142481D01*
Y142334D01*
X33005Y142100D01*
X33064Y142013D01*
Y141954D01*
X33034D01*
X33093Y141266D01*
X33005Y140784D01*
X33064Y140667D01*
X33078Y140550D01*
X33093Y140462D01*
Y140447D01*
Y140433D01*
X33049Y140316D01*
X33020Y140213D01*
X33005Y140140D01*
Y140125D01*
Y140111D01*
X33151Y139189D01*
X33093Y138940D01*
X32941D01*
X32991Y138735D01*
X32844Y138574D01*
X32830Y138457D01*
X32815Y138399D01*
X32800Y138355D01*
X32786Y138340D01*
Y138253D01*
X32873Y138106D01*
X32844Y138077D01*
Y138019D01*
X32859Y137931D01*
X32888Y137887D01*
X32917Y137872D01*
X32932D01*
Y137784D01*
X32873D01*
Y137682D01*
X32961Y137594D01*
X32932Y137360D01*
X32903Y137243D01*
X32873Y137141D01*
X32859Y137053D01*
X32830Y136980D01*
X32815Y136936D01*
Y136921D01*
Y136775D01*
X32830Y136672D01*
X32844Y136556D01*
X32917Y136292D01*
X32961Y136160D01*
X32991Y136073D01*
X33005Y135999D01*
X33020Y135970D01*
X32976Y135839D01*
X32947Y135707D01*
X32917Y135429D01*
X32903Y135297D01*
Y135195D01*
Y135136D01*
Y135107D01*
X32961Y134800D01*
X32917Y134610D01*
X32888Y134449D01*
X32873Y134376D01*
Y134317D01*
Y134288D01*
Y134273D01*
X32903D01*
X32786Y133981D01*
X32932Y133205D01*
Y133000D01*
X32903Y132781D01*
X32932Y132766D01*
X32961Y132722D01*
X32991Y132678D01*
Y132664D01*
X32961Y132634D01*
Y132605D01*
X32991Y132430D01*
X32976Y132313D01*
X32961Y132210D01*
X32932Y132035D01*
X32903Y131918D01*
X32888Y131830D01*
X32873Y131786D01*
X32859Y131757D01*
X32844Y131742D01*
Y131625D01*
X32873Y131596D01*
Y131566D01*
X32830Y131523D01*
X32800Y131464D01*
X32786Y131420D01*
Y131391D01*
Y131274D01*
X32815Y131215D01*
X32844Y131113D01*
X32873Y130981D01*
X32903Y130864D01*
X32932Y130733D01*
X32947Y130630D01*
X32961Y130557D01*
Y130542D01*
Y130528D01*
X32873Y130206D01*
Y130118D01*
X32961Y129606D01*
Y129460D01*
X32917Y129416D01*
X32888Y129343D01*
X32859Y129196D01*
X32844Y129123D01*
Y129065D01*
Y129021D01*
Y129006D01*
X32903Y128816D01*
X32947D01*
X33020Y128392D01*
X32932Y127646D01*
X32961Y127207D01*
X32932Y127177D01*
X32961Y127060D01*
Y126695D01*
X32844Y126314D01*
Y126080D01*
X32932Y125773D01*
Y125744D01*
Y125612D01*
X32917Y125495D01*
X32903Y125407D01*
X32888Y125334D01*
X32873Y125275D01*
X32859Y125246D01*
X32844Y125217D01*
X32903Y125012D01*
X32844Y124412D01*
X32859Y124398D01*
X32873Y124354D01*
X32888Y124281D01*
X32903Y124207D01*
X32917Y124134D01*
X32932Y124061D01*
Y124017D01*
Y124003D01*
X32903Y123725D01*
Y123373D01*
Y123242D01*
Y123110D01*
X32917Y122905D01*
X32947Y122759D01*
X32961Y122657D01*
X32991Y122583D01*
X33005Y122540D01*
X33020Y122510D01*
Y122364D01*
X32873Y121472D01*
X32903Y121296D01*
X32844Y120960D01*
X32903Y120433D01*
Y120316D01*
X33020Y119862D01*
X33005Y119760D01*
X32991Y119672D01*
X32964Y119628D01*
X32976Y119570D01*
X32991Y119511D01*
X33005Y119467D01*
X33020Y119438D01*
X33034Y119423D01*
Y119277D01*
X32888Y118385D01*
X32917Y118194D01*
X32859Y117872D01*
X32917Y117346D01*
Y117214D01*
X33034Y116775D01*
Y116687D01*
Y116673D01*
Y116658D01*
Y116614D01*
X33005Y116439D01*
X33093Y116102D01*
X33078Y116088D01*
X33064Y116029D01*
X33049Y115970D01*
Y115883D01*
X33034Y115810D01*
Y115736D01*
Y115678D01*
Y115663D01*
X33049Y115576D01*
X33078Y115517D01*
X33108Y115502D01*
X33122Y115488D01*
X33093Y115458D01*
X33122Y115210D01*
X33108Y115137D01*
X33064Y115078D01*
X33020Y115020D01*
X33005Y115005D01*
Y114976D01*
X33064D01*
Y114946D01*
X32976Y114859D01*
Y114800D01*
X33049Y114712D01*
X33093Y114625D01*
X33151Y114493D01*
X33181Y114405D01*
Y114390D01*
Y114376D01*
X33093Y114186D01*
X33049Y114054D01*
X33034Y113966D01*
Y113937D01*
X33093Y113425D01*
X33034Y113220D01*
Y112810D01*
X33151Y112240D01*
Y112152D01*
X33137Y112108D01*
X33122Y112035D01*
X33049Y111903D01*
X33005Y111845D01*
X32976Y111786D01*
X32961Y111757D01*
X32947Y111742D01*
X33005Y111538D01*
X33020Y111333D01*
X33034Y111245D01*
Y111172D01*
Y111128D01*
Y111113D01*
X33005Y110513D01*
X33093Y110045D01*
X33005Y109870D01*
X33034Y109782D01*
X33005Y109665D01*
X33049Y109504D01*
X32961D01*
X32976Y109475D01*
X33020Y109402D01*
X33034Y109343D01*
X33064Y109270D01*
Y109241D01*
Y109153D01*
X32947Y108597D01*
Y108173D01*
X33005Y107968D01*
X32947Y107456D01*
Y107397D01*
X32976Y107339D01*
X33020Y107192D01*
X33049Y107119D01*
X33064Y107061D01*
X33093Y107031D01*
Y107017D01*
X33078Y106958D01*
X33064Y106885D01*
X32991Y106753D01*
X32947Y106695D01*
X32917Y106651D01*
X32903Y106622D01*
X32888Y106607D01*
Y106534D01*
X32976Y106446D01*
Y106417D01*
X32917D01*
Y106388D01*
X32991Y106314D01*
X33020Y106241D01*
X33034Y106197D01*
Y106183D01*
X33005Y105949D01*
X33034Y105919D01*
X32991Y105876D01*
X32961Y105817D01*
X32947Y105773D01*
Y105744D01*
Y105598D01*
X32961Y105480D01*
Y105407D01*
X32976Y105349D01*
X32991Y105320D01*
Y105305D01*
X33005Y105290D01*
X32917Y104968D01*
X32944Y104808D01*
X33020D01*
X32917Y104091D01*
X32932Y103974D01*
X32961Y103871D01*
X32991Y103798D01*
X33005Y103783D01*
Y103769D01*
X32991Y103637D01*
X32961Y103520D01*
X32932Y103447D01*
X32917Y103432D01*
Y103418D01*
X33005Y102935D01*
X32947Y102262D01*
X32976D01*
Y102189D01*
X32917Y102101D01*
X32976Y101867D01*
Y101721D01*
X32917Y101545D01*
X32976Y101033D01*
X32888Y100623D01*
X32917Y100389D01*
X32888Y100053D01*
X32976Y99701D01*
X32947Y99585D01*
X33034Y98516D01*
X33005Y98487D01*
X33034Y98268D01*
X33005Y98151D01*
X32932Y98077D01*
X32888Y98004D01*
X32859Y97946D01*
Y97931D01*
Y97917D01*
X32888Y97814D01*
X32903Y97741D01*
X32932Y97697D01*
X32947Y97668D01*
X32961Y97624D01*
X32976D01*
X32947Y97346D01*
X33005Y97244D01*
X33020Y97141D01*
X33034Y97083D01*
Y97053D01*
Y96936D01*
X32976Y96761D01*
X33005Y96512D01*
X32947Y96132D01*
X32991Y96015D01*
X32083D01*
X32054Y96161D01*
Y96293D01*
X32069Y96395D01*
X32098Y96483D01*
X32113Y96571D01*
X32142Y96629D01*
X32157Y96673D01*
X32171Y96688D01*
Y96702D01*
X32083Y96966D01*
X32113Y97258D01*
Y97288D01*
X32083Y97317D01*
X32142Y97507D01*
X32025Y97712D01*
X32113Y98180D01*
X32054Y98414D01*
X32113Y98546D01*
X32083Y98663D01*
Y98692D01*
X32142Y98750D01*
Y98882D01*
X32113Y98999D01*
X32098Y99102D01*
X32069Y99175D01*
X32039Y99233D01*
X32025Y99277D01*
X31996Y99306D01*
X32025Y99438D01*
X31996Y99585D01*
X32010Y99599D01*
X32039Y99643D01*
X32054Y99701D01*
X32069Y99775D01*
Y99848D01*
X32083Y99906D01*
Y99950D01*
Y99965D01*
X32054Y100053D01*
X32142Y100448D01*
X32054Y100682D01*
Y100916D01*
X32025Y101033D01*
X32039Y101179D01*
X32054Y101296D01*
X32069Y101369D01*
X32098Y101428D01*
X32113Y101457D01*
X32127Y101486D01*
X32142D01*
X32054Y102101D01*
X32083Y102642D01*
X32025Y103110D01*
X32113Y103535D01*
Y104164D01*
X32098Y104193D01*
X32069Y104237D01*
X32054Y104354D01*
X32039Y104412D01*
X32025Y104471D01*
Y104500D01*
Y104515D01*
X32054Y104691D01*
X32010Y104808D01*
X32105D01*
X32083Y104851D01*
X32069Y104895D01*
X32054Y104925D01*
Y104939D01*
X31996Y105203D01*
X32025Y105217D01*
X32054Y105246D01*
Y105276D01*
Y105290D01*
X32025Y105524D01*
X32054D01*
X32039Y105627D01*
X32025Y105700D01*
X31981Y105832D01*
X31952Y105890D01*
X31937Y105919D01*
X31966Y106022D01*
X31996Y106110D01*
X32025Y106183D01*
X32054Y106241D01*
X32098Y106300D01*
X32113Y106329D01*
X32083Y106446D01*
X32113Y106534D01*
X32083Y106783D01*
X32113Y106812D01*
X32083Y106958D01*
Y107046D01*
X32113Y107456D01*
X32083Y107485D01*
Y107514D01*
X32142Y107704D01*
X32054Y108231D01*
Y108319D01*
X32113Y108567D01*
Y108714D01*
X32098Y108889D01*
X32069Y109050D01*
X32054Y109123D01*
X32039Y109182D01*
X32025Y109226D01*
Y109241D01*
X32054Y109328D01*
X32025Y109753D01*
Y109840D01*
X32167D01*
X32142Y110045D01*
X32171Y110221D01*
X32157Y110294D01*
X32127Y110323D01*
X32098Y110338D01*
X32083D01*
Y110426D01*
X32113Y110528D01*
X32157Y110762D01*
X32186Y110879D01*
X32200Y110967D01*
X32230Y111025D01*
Y111055D01*
X32113Y111523D01*
Y111655D01*
X32142Y112064D01*
X32113Y112152D01*
X32171Y112371D01*
X32186Y112459D01*
Y112547D01*
X32200Y112605D01*
Y112649D01*
Y112679D01*
Y112693D01*
Y112840D01*
X32142Y113074D01*
Y113161D01*
X32230Y113703D01*
X32171Y113878D01*
Y113908D01*
X32200Y113937D01*
X32171Y114347D01*
Y114449D01*
X32200Y114595D01*
X32171Y114625D01*
X32200Y114859D01*
X32171Y114946D01*
X32200Y115063D01*
X32157Y115122D01*
X32127Y115181D01*
X32069Y115327D01*
X32054Y115385D01*
X32039Y115444D01*
X32025Y115473D01*
Y115488D01*
X32054Y115532D01*
X32069Y115590D01*
X32113Y115722D01*
X32127Y115780D01*
Y115824D01*
X32142Y115854D01*
Y115868D01*
X32113D01*
X32142Y116102D01*
X32127Y116161D01*
X32113Y116175D01*
X32098Y116190D01*
X32083D01*
X32142Y116468D01*
Y116497D01*
X32098Y116526D01*
X32054Y116585D01*
X32010Y116717D01*
Y116790D01*
X31996Y116834D01*
Y116878D01*
Y116892D01*
X32083Y117521D01*
X32039Y117609D01*
X32010Y117697D01*
X31996Y117755D01*
Y117785D01*
Y117902D01*
X32010Y117990D01*
X32039Y118048D01*
X32069Y118077D01*
X32083D01*
X31996Y118911D01*
X32186Y119540D01*
X32169Y119591D01*
X32127Y119599D01*
X32069Y119643D01*
X32039Y119716D01*
X32010Y119789D01*
X31996Y119848D01*
X31981Y119921D01*
Y119965D01*
Y119979D01*
X32069Y120608D01*
X32025Y120696D01*
X31996Y120784D01*
X31981Y120842D01*
Y120872D01*
Y120989D01*
X31996Y121091D01*
X32025Y121150D01*
X32054Y121179D01*
X32069D01*
X31981Y121998D01*
X32171Y122627D01*
X32010Y123110D01*
X32039D01*
X31952Y123490D01*
X31981Y123666D01*
X31952Y123783D01*
X32039Y123871D01*
Y123959D01*
X31952Y124061D01*
X32010Y124325D01*
X31952Y124763D01*
X31981Y124807D01*
X32010Y124880D01*
X32039Y125027D01*
X32054Y125100D01*
X32069Y125158D01*
Y125202D01*
Y125217D01*
X31981Y125363D01*
X32069Y125510D01*
X32039Y125656D01*
X32069Y125773D01*
X32039Y125992D01*
X32098Y126461D01*
X31981Y126973D01*
X32039Y127382D01*
X32010Y127558D01*
Y128041D01*
X31923Y128304D01*
X31959Y128431D01*
X31923Y128494D01*
X31937Y128670D01*
X31952Y128816D01*
X31966Y128948D01*
X31981Y129036D01*
X31996Y129109D01*
Y129152D01*
X32010Y129182D01*
Y129196D01*
Y129284D01*
X31981Y129313D01*
X32039Y129489D01*
X31952Y129606D01*
Y129665D01*
X31996Y129708D01*
X32025Y129782D01*
X32054Y129943D01*
X32069Y130016D01*
Y130089D01*
Y130133D01*
Y130147D01*
X32010Y130791D01*
X32039Y130820D01*
Y130850D01*
X32025Y130893D01*
X31996Y130967D01*
X31966Y131128D01*
X31952Y131201D01*
X31937Y131274D01*
X31923Y131318D01*
Y131332D01*
X31981Y131537D01*
X31952Y131713D01*
X31966Y131859D01*
X31981Y131961D01*
X32010Y132035D01*
X32039Y132079D01*
X32054Y132122D01*
X32083Y132137D01*
X32098D01*
X32039Y132210D01*
X31996Y132298D01*
X31952Y132444D01*
X31937Y132503D01*
X31923Y132561D01*
Y132591D01*
Y132605D01*
X31981Y133030D01*
X31996Y133220D01*
Y133395D01*
X32010Y133542D01*
Y133659D01*
Y133732D01*
Y133761D01*
X31923Y134010D01*
Y134098D01*
X31937Y134200D01*
X31966Y134288D01*
X31996Y134346D01*
X32010Y134361D01*
X31952Y134537D01*
X32039Y134712D01*
X31952Y134873D01*
X31981Y134902D01*
Y134931D01*
X31952Y135166D01*
X31966Y135239D01*
X32010Y135326D01*
X32054Y135400D01*
X32069Y135429D01*
Y135663D01*
X32098Y135780D01*
X32069Y135912D01*
X32142Y136263D01*
X32083Y136336D01*
X32039Y136395D01*
X31981Y136512D01*
X31952Y136585D01*
Y136599D01*
Y136614D01*
Y136702D01*
X31966Y136775D01*
X31996Y136848D01*
X32025Y136907D01*
X32039Y136921D01*
Y136951D01*
X31996Y137170D01*
X31966Y137331D01*
X31952Y137389D01*
Y137433D01*
Y137463D01*
Y137477D01*
X32010Y137931D01*
X31981Y138106D01*
X32010Y138253D01*
X31981Y138282D01*
X32090Y139061D01*
X32069Y139072D01*
X32054D01*
X32085Y139163D01*
X32069Y139218D01*
X32103D01*
X32113Y139248D01*
X32083Y139335D01*
X32142Y139511D01*
X32113Y139686D01*
X32127Y139789D01*
X32142Y139877D01*
X32157Y139935D01*
X32171Y139979D01*
X32200Y140037D01*
Y140052D01*
Y140667D01*
X32113Y141091D01*
X32171Y141559D01*
X32142Y142100D01*
X32230Y142715D01*
X32200Y142730D01*
X32186Y142788D01*
X32157Y142861D01*
X32142Y142949D01*
X32127Y143022D01*
Y143095D01*
X32113Y143154D01*
Y143168D01*
X32142Y143286D01*
Y143520D01*
X32230Y143754D01*
X32142Y144149D01*
X32171Y144236D01*
X32157Y144368D01*
X32142Y144456D01*
X32127Y144529D01*
X32113Y144573D01*
X32098Y144602D01*
Y144617D01*
X32083D01*
X32113Y144763D01*
X32083Y144895D01*
X32127Y144968D01*
X32171Y145056D01*
X32215Y145231D01*
X32230Y145319D01*
Y145392D01*
Y145436D01*
Y145451D01*
X32171Y145509D01*
Y145539D01*
X32200Y145656D01*
X32142Y145787D01*
X32200Y146021D01*
X32113Y146489D01*
X32230Y146709D01*
X32171Y146884D01*
X32200Y146914D01*
Y146943D01*
X32171Y147236D01*
X32259Y147499D01*
X32215Y147572D01*
X32186Y147660D01*
X32157Y147836D01*
X32142Y147923D01*
Y147982D01*
Y148026D01*
Y148040D01*
X32200Y148304D01*
X32186Y148450D01*
X32171Y148552D01*
X32157Y148611D01*
X32142Y148640D01*
X32171Y148962D01*
Y149225D01*
X32142Y149255D01*
X32200Y149489D01*
X32171Y149620D01*
X32200Y149708D01*
X32113Y149884D01*
X32200Y150352D01*
X32186Y150849D01*
X32976D01*
X33020Y150674D01*
D02*
G37*
G36*
X517257Y41539D02*
X517359Y41510D01*
X517447Y41466D01*
X517462Y41451D01*
X517476D01*
X517740Y41290D01*
X517974Y41129D01*
X518208Y40954D01*
X518413Y40793D01*
X518618Y40632D01*
X518793Y40486D01*
X518954Y40339D01*
X519100Y40193D01*
X519232Y40076D01*
X519349Y39959D01*
X519451Y39857D01*
X519525Y39769D01*
X519583Y39696D01*
X519642Y39637D01*
X519656Y39608D01*
X519671Y39593D01*
X519920Y39227D01*
X520139Y38862D01*
X520315Y38481D01*
X520461Y38130D01*
X520534Y37984D01*
X520593Y37838D01*
X520637Y37706D01*
X520666Y37589D01*
X520695Y37501D01*
X520724Y37428D01*
X520739Y37384D01*
Y37369D01*
X520812Y37062D01*
X520871Y36769D01*
X520914Y36477D01*
X520944Y36228D01*
X520958Y36009D01*
Y35921D01*
X520973Y35848D01*
Y35789D01*
Y35745D01*
Y35716D01*
Y35701D01*
X520958Y35409D01*
X520944Y35116D01*
X520900Y34853D01*
X520856Y34604D01*
X520798Y34355D01*
X520724Y34151D01*
X520651Y33946D01*
X520578Y33770D01*
X520519Y33595D01*
X520446Y33463D01*
X520373Y33331D01*
X520315Y33244D01*
X520271Y33156D01*
X520227Y33097D01*
X520212Y33068D01*
X520198Y33053D01*
X520022Y32834D01*
X519817Y32644D01*
X519612Y32483D01*
X519393Y32336D01*
X519188Y32220D01*
X518969Y32132D01*
X518749Y32044D01*
X518544Y31985D01*
X518340Y31927D01*
X518164Y31883D01*
X518003Y31868D01*
X517857Y31839D01*
X517740D01*
X517652Y31824D01*
X517579D01*
X517330Y31839D01*
X517081Y31868D01*
X516862Y31912D01*
X516657Y31985D01*
X516452Y32058D01*
X516277Y32146D01*
X516101Y32234D01*
X515955Y32322D01*
X515808Y32410D01*
X515691Y32512D01*
X515589Y32585D01*
X515501Y32658D01*
X515443Y32731D01*
X515399Y32775D01*
X515370Y32805D01*
X515355Y32819D01*
X515209Y33010D01*
X515077Y33214D01*
X514960Y33434D01*
X514857Y33639D01*
X514784Y33858D01*
X514711Y34077D01*
X514609Y34472D01*
X514580Y34663D01*
X514550Y34838D01*
X514536Y34985D01*
X514521Y35116D01*
X514506Y35233D01*
Y35306D01*
Y35365D01*
Y35380D01*
X514521Y35658D01*
X514536Y35906D01*
X514580Y36155D01*
X514638Y36374D01*
X514697Y36579D01*
X514770Y36769D01*
X514843Y36945D01*
X514916Y37106D01*
X515004Y37238D01*
X515077Y37369D01*
X515150Y37472D01*
X515209Y37560D01*
X515267Y37618D01*
X515311Y37662D01*
X515326Y37691D01*
X515340Y37706D01*
X515501Y37852D01*
X515677Y37984D01*
X515867Y38101D01*
X516057Y38203D01*
X516247Y38277D01*
X516438Y38350D01*
X516803Y38452D01*
X516979Y38481D01*
X517140Y38510D01*
X517286Y38525D01*
X517403Y38540D01*
X517506Y38554D01*
X517652D01*
X517974Y38540D01*
X518252Y38496D01*
X518501Y38423D01*
X518691Y38350D01*
X518852Y38262D01*
X518954Y38203D01*
X519013Y38145D01*
X519042Y38130D01*
X518852Y38364D01*
X518661Y38569D01*
X518501Y38745D01*
X518354Y38906D01*
X518237Y39037D01*
X518135Y39140D01*
X518076Y39198D01*
X518062Y39213D01*
X517857Y39418D01*
X517637Y39608D01*
X517418Y39798D01*
X517198Y39959D01*
X517008Y40105D01*
X516862Y40222D01*
X516803Y40252D01*
X516759Y40281D01*
X516730Y40310D01*
X516716D01*
X516628Y40369D01*
X516555Y40442D01*
X516511Y40529D01*
X516467Y40617D01*
X516452Y40690D01*
X516438Y40764D01*
Y40807D01*
Y40822D01*
X516452Y40925D01*
X516467Y41012D01*
X516540Y41173D01*
X516584Y41232D01*
X516613Y41276D01*
X516628Y41305D01*
X516642Y41320D01*
X516716Y41393D01*
X516803Y41451D01*
X516876Y41495D01*
X516950Y41524D01*
X517023Y41539D01*
X517081Y41554D01*
X517125D01*
X517257Y41539D01*
D02*
G37*
G36*
X317767Y242539D02*
X318045Y242481D01*
X318308Y242407D01*
X318557Y242305D01*
X318791Y242188D01*
X319010Y242056D01*
X319200Y241910D01*
X319376Y241764D01*
X319537Y241617D01*
X319683Y241471D01*
X319800Y241339D01*
X319903Y241222D01*
X319991Y241120D01*
X320049Y241047D01*
X320078Y240988D01*
X320093Y240974D01*
X320254Y240696D01*
X320386Y240418D01*
X320517Y240140D01*
X320620Y239847D01*
X320707Y239569D01*
X320780Y239291D01*
X320839Y239028D01*
X320883Y238779D01*
X320927Y238530D01*
X320956Y238326D01*
X320971Y238121D01*
X320985Y237960D01*
X321000Y237828D01*
Y237726D01*
Y237667D01*
Y237638D01*
X320985Y237287D01*
X320956Y236950D01*
X320912Y236628D01*
X320854Y236306D01*
X320780Y236028D01*
X320693Y235751D01*
X320605Y235502D01*
X320517Y235268D01*
X320429Y235063D01*
X320342Y234873D01*
X320254Y234712D01*
X320181Y234580D01*
X320122Y234478D01*
X320078Y234390D01*
X320049Y234346D01*
X320034Y234331D01*
X319830Y234068D01*
X319625Y233834D01*
X319405Y233629D01*
X319171Y233454D01*
X318952Y233322D01*
X318718Y233190D01*
X318498Y233088D01*
X318293Y233015D01*
X318088Y232956D01*
X317913Y232898D01*
X317752Y232868D01*
X317606Y232854D01*
X317489Y232839D01*
X317401Y232824D01*
X317328D01*
X317079Y232839D01*
X316845Y232868D01*
X316625Y232912D01*
X316421Y232971D01*
X316216Y233044D01*
X316040Y233132D01*
X315879Y233205D01*
X315718Y233307D01*
X315587Y233395D01*
X315470Y233468D01*
X315367Y233556D01*
X315280Y233629D01*
X315221Y233688D01*
X315177Y233731D01*
X315148Y233761D01*
X315133Y233775D01*
X314489Y233146D01*
X314343Y233058D01*
X314212Y233015D01*
X314153D01*
X314109Y233000D01*
X314065D01*
X313948Y233015D01*
X313860Y233029D01*
X313699Y233117D01*
X313641Y233146D01*
X313582Y233190D01*
X313568Y233205D01*
X313553Y233219D01*
X313480Y233307D01*
X313421Y233395D01*
X313392Y233483D01*
X313363Y233556D01*
X313348Y233629D01*
X313334Y233688D01*
Y233717D01*
Y233731D01*
X313348Y233834D01*
X313378Y233936D01*
X313465Y234097D01*
X313524Y234170D01*
X313568Y234214D01*
X313597Y234244D01*
X313612Y234258D01*
X313773Y234405D01*
X313904Y234536D01*
X314036Y234639D01*
X314138Y234726D01*
X314226Y234799D01*
X314285Y234843D01*
X314328Y234873D01*
X314343Y234887D01*
X314226Y235107D01*
X314124Y235341D01*
X313977Y235809D01*
X313860Y236263D01*
X313773Y236702D01*
X313758Y236892D01*
X313729Y237067D01*
X313714Y237228D01*
Y237374D01*
X313699Y237477D01*
Y237565D01*
Y237623D01*
Y237638D01*
X313714Y237989D01*
X313743Y238326D01*
X313787Y238662D01*
X313860Y238969D01*
X313934Y239262D01*
X314007Y239540D01*
X314109Y239788D01*
X314197Y240023D01*
X314285Y240242D01*
X314372Y240418D01*
X314460Y240593D01*
X314533Y240725D01*
X314606Y240827D01*
X314650Y240915D01*
X314680Y240959D01*
X314694Y240974D01*
X314899Y241252D01*
X315133Y241500D01*
X315353Y241705D01*
X315587Y241881D01*
X315821Y242042D01*
X316055Y242173D01*
X316274Y242276D01*
X316494Y242363D01*
X316699Y242422D01*
X316889Y242466D01*
X317050Y242510D01*
X317196Y242524D01*
X317313Y242539D01*
X317401Y242554D01*
X317474D01*
X317767Y242539D01*
D02*
G37*
G36*
X46611Y150747D02*
Y150440D01*
X46641Y150410D01*
X46611Y150381D01*
Y150264D01*
X46582Y150001D01*
X46670Y149108D01*
X46641Y149021D01*
X46670Y148933D01*
X46641Y148816D01*
Y148786D01*
X46670Y148757D01*
X46641Y148538D01*
X46699Y148187D01*
X46641Y147718D01*
X46758Y147265D01*
X46611Y146343D01*
X46626Y146226D01*
X46655Y146124D01*
X46684Y146051D01*
X46699Y146036D01*
Y146021D01*
X46684Y145890D01*
X46655Y145773D01*
X46626Y145685D01*
X46611Y145670D01*
Y145656D01*
X46699Y145187D01*
X46641Y144500D01*
X46670D01*
Y144441D01*
X46611Y144354D01*
X46670Y144119D01*
Y143973D01*
X46611Y143783D01*
X46670Y143286D01*
X46582Y142861D01*
X46611Y142627D01*
X46582Y142305D01*
X46670Y141954D01*
X46641Y141822D01*
X46728Y140754D01*
X46699Y140725D01*
X46728Y140520D01*
X46699Y140403D01*
X46641Y140330D01*
X46582Y140257D01*
X46568Y140198D01*
X46553Y140169D01*
X46582Y140067D01*
X46611Y139994D01*
X46626Y139935D01*
X46641Y139906D01*
X46670Y139862D01*
X46641Y139599D01*
X46699Y139496D01*
X46714Y139394D01*
X46728Y139335D01*
Y139306D01*
Y139189D01*
X46670Y139013D01*
X46684Y138940D01*
X46564D01*
X46494Y138662D01*
X46553Y138370D01*
X46524Y138253D01*
X46611Y137828D01*
X46582Y137799D01*
Y137770D01*
X46641Y137565D01*
X46611Y137477D01*
X46670Y137272D01*
X46582Y136994D01*
Y136526D01*
X46553Y136351D01*
X46611Y135926D01*
X46494Y135429D01*
X46553Y134946D01*
X46524Y134741D01*
X46553Y134624D01*
X46524Y134478D01*
X46611Y134317D01*
X46524Y134171D01*
X46538Y134054D01*
X46553Y133966D01*
X46568Y133878D01*
X46597Y133820D01*
X46611Y133776D01*
X46626Y133746D01*
X46641Y133732D01*
X46582Y133278D01*
X46641Y133015D01*
X46553Y132927D01*
Y132839D01*
X46641Y132752D01*
X46611Y132634D01*
X46641Y132444D01*
X46553Y132064D01*
X46582D01*
X46436Y131596D01*
X46611Y130967D01*
X46524Y130133D01*
X46582Y130089D01*
X46597Y130030D01*
X46611Y129986D01*
Y129957D01*
Y129840D01*
X46597Y129723D01*
X46568Y129635D01*
X46538Y129577D01*
X46524Y129562D01*
X46611Y128948D01*
X46597Y128816D01*
X46582Y128714D01*
X46553Y128640D01*
X46519Y128606D01*
X46538Y128450D01*
X46480Y128055D01*
X46597Y127733D01*
X46553Y127514D01*
X46524Y127294D01*
X46509Y127104D01*
X46494Y126929D01*
X46480Y126782D01*
Y126665D01*
Y126607D01*
Y126578D01*
Y126548D01*
X46509Y126519D01*
X46480Y126490D01*
X46509Y126241D01*
X46480Y126066D01*
X46494Y125992D01*
X46524Y125963D01*
X46553Y125948D01*
X46568D01*
Y125861D01*
X46538Y125758D01*
X46494Y125524D01*
X46465Y125407D01*
X46451Y125319D01*
X46421Y125261D01*
Y125232D01*
X46538Y124763D01*
Y124646D01*
X46509Y124222D01*
X46538Y124134D01*
X46494Y123915D01*
X46465Y123827D01*
Y123754D01*
X46451Y123695D01*
Y123652D01*
Y123622D01*
Y123608D01*
Y123447D01*
X46509Y123213D01*
Y123125D01*
X46421Y122598D01*
X46480Y122408D01*
Y122379D01*
X46451Y122349D01*
X46480Y121940D01*
Y121852D01*
X46451Y121706D01*
X46480Y121676D01*
X46451Y121428D01*
X46480Y121340D01*
X46451Y121223D01*
X46524Y121106D01*
X46582Y120974D01*
X46597Y120916D01*
X46611Y120857D01*
X46626Y120828D01*
Y120813D01*
X46597Y120769D01*
X46582Y120696D01*
X46538Y120579D01*
X46524Y120506D01*
Y120462D01*
X46509Y120433D01*
Y120418D01*
X46538D01*
X46509Y120184D01*
X46524Y120140D01*
X46538Y120111D01*
X46553Y120096D01*
X46568D01*
X46522Y119892D01*
X46524D01*
Y119774D01*
X46553Y119745D01*
Y119716D01*
X46509Y119672D01*
X46480Y119614D01*
X46465Y119570D01*
Y119540D01*
Y119423D01*
X46494Y119365D01*
X46524Y119262D01*
X46553Y119131D01*
X46582Y119014D01*
X46611Y118882D01*
X46626Y118779D01*
X46641Y118706D01*
Y118692D01*
Y118677D01*
X46553Y118355D01*
Y118267D01*
X46641Y117755D01*
Y117609D01*
X46597Y117565D01*
X46568Y117492D01*
X46538Y117346D01*
X46524Y117273D01*
Y117214D01*
Y117170D01*
Y117156D01*
X46582Y116965D01*
X46597Y116775D01*
X46611Y116687D01*
Y116629D01*
Y116585D01*
Y116570D01*
X46524Y116512D01*
Y116497D01*
Y116395D01*
X46538Y116322D01*
X46553Y116278D01*
Y116249D01*
X46582Y116205D01*
X46553Y115970D01*
X46582Y115400D01*
X46465Y114800D01*
X46582Y114390D01*
X46524Y113937D01*
X46553Y113908D01*
Y113878D01*
X46465Y113644D01*
X46553Y113147D01*
X46494Y112927D01*
X46524Y112898D01*
Y112869D01*
X46465Y112664D01*
X46582Y112035D01*
X46494Y111830D01*
Y111508D01*
X46509Y111406D01*
X46538Y111318D01*
X46553Y111259D01*
X46568Y111230D01*
X46582Y111201D01*
X46597Y111186D01*
X46611D01*
X46597Y111099D01*
X46582Y111025D01*
X46568Y110982D01*
X46553Y110938D01*
X46538Y110908D01*
X46524D01*
X46538Y110806D01*
X46553Y110733D01*
X46568Y110674D01*
X46582Y110630D01*
X46597Y110572D01*
X46611Y110557D01*
Y110440D01*
X46597Y110352D01*
X46582Y110191D01*
X46568Y110089D01*
X46553Y110001D01*
X46538Y109957D01*
Y109943D01*
X46524Y109928D01*
X46582Y109840D01*
X46524Y109679D01*
Y109592D01*
X46582Y109504D01*
X46464D01*
X46480Y109358D01*
Y109328D01*
X46392Y108919D01*
X46480Y108655D01*
Y108348D01*
X46538Y108026D01*
X46480Y107646D01*
Y107514D01*
X46509Y107339D01*
X46480Y107192D01*
Y107134D01*
X46509Y107105D01*
X46480Y107075D01*
Y106958D01*
X46597Y106446D01*
X46582Y106285D01*
Y106153D01*
X46568Y106037D01*
X46553Y105934D01*
X46538Y105846D01*
Y105773D01*
X46509Y105671D01*
X46480Y105598D01*
X46465Y105568D01*
X46451Y105554D01*
X46509Y105437D01*
X46480Y105407D01*
Y105378D01*
X46494Y105334D01*
X46524Y105261D01*
X46538Y105159D01*
X46553Y105056D01*
Y104954D01*
X46568Y104851D01*
Y104808D01*
X46597D01*
X46582Y104705D01*
X46553Y104617D01*
X46524Y104544D01*
X46509Y104529D01*
Y104515D01*
X46538Y104252D01*
X46524Y104237D01*
X46509Y104208D01*
X46465Y104105D01*
X46436Y103988D01*
X46421Y103959D01*
Y103944D01*
X46451Y103842D01*
X46509Y103769D01*
X46553Y103725D01*
X46568Y103710D01*
X46597Y103593D01*
X46568Y103388D01*
X46597Y103359D01*
X46509Y102291D01*
X46538Y102159D01*
X46451Y101808D01*
X46480Y101486D01*
X46451Y101238D01*
X46538Y100828D01*
X46480Y100316D01*
X46538Y100140D01*
Y99994D01*
X46480Y99760D01*
X46538Y99672D01*
Y99614D01*
X46509D01*
X46568Y98926D01*
X46480Y98458D01*
X46538Y98326D01*
X46553Y98209D01*
X46568Y98121D01*
Y98107D01*
Y98092D01*
X46524Y97975D01*
X46494Y97873D01*
X46480Y97800D01*
Y97785D01*
Y97770D01*
X46626Y96849D01*
X46509Y96395D01*
X46553Y96015D01*
X45631D01*
X45704Y96307D01*
X45690Y96454D01*
X45660Y96556D01*
X45631Y96629D01*
X45602Y96673D01*
X45573Y96717D01*
X45558Y96732D01*
X45529D01*
X45587Y96907D01*
X45558Y96995D01*
X45616Y97170D01*
X45587Y97346D01*
X45602Y97448D01*
X45616Y97536D01*
X45631Y97595D01*
X45646Y97639D01*
X45660Y97697D01*
X45675Y97712D01*
Y98326D01*
X45587Y98750D01*
X45646Y99219D01*
X45616Y99760D01*
X45704Y100389D01*
X45675Y100404D01*
X45646Y100462D01*
X45631Y100535D01*
X45616Y100609D01*
X45602Y100696D01*
X45587Y100755D01*
Y100813D01*
Y100828D01*
X45616Y100945D01*
Y101179D01*
X45704Y101428D01*
X45616Y101808D01*
X45646Y101896D01*
X45631Y102028D01*
X45616Y102130D01*
X45602Y102189D01*
X45587Y102247D01*
X45573Y102276D01*
Y102291D01*
X45558D01*
X45587Y102437D01*
X45558Y102554D01*
X45602Y102628D01*
X45646Y102715D01*
X45690Y102891D01*
X45704Y102979D01*
Y103052D01*
Y103096D01*
Y103110D01*
X45646Y103169D01*
Y103213D01*
X45675Y103330D01*
X45616Y103447D01*
X45675Y103681D01*
X45587Y104164D01*
X45704Y104369D01*
X45646Y104544D01*
X45675Y104573D01*
Y104588D01*
Y104603D01*
X45646Y104808D01*
X45675D01*
Y104895D01*
X45660Y104968D01*
X45646Y105012D01*
Y105056D01*
X45631Y105085D01*
X45616D01*
X45646Y105320D01*
X45616Y105890D01*
X45734Y106475D01*
X45616Y106900D01*
X45675Y107339D01*
X45646Y107368D01*
Y107397D01*
X45734Y107646D01*
X45646Y108143D01*
X45704Y108348D01*
X45675Y108377D01*
Y108407D01*
X45734Y108626D01*
X45616Y109241D01*
X45704Y109460D01*
Y109504D01*
X45690D01*
X45704Y109661D01*
Y109782D01*
X45690Y109826D01*
Y109840D01*
X45721D01*
X45748Y110133D01*
X45719Y110411D01*
Y110528D01*
X45690Y110557D01*
X45719Y110587D01*
Y110879D01*
X45631Y111245D01*
X45748Y111655D01*
X45719Y111918D01*
Y111947D01*
X45807Y112371D01*
X45719Y112635D01*
Y112927D01*
X45660Y113264D01*
X45719Y113644D01*
Y113761D01*
X45690Y113937D01*
X45719Y114098D01*
Y114156D01*
X45690Y114186D01*
X45719Y114215D01*
Y114332D01*
X45602Y114829D01*
X45616Y114990D01*
Y115122D01*
X45631Y115239D01*
X45646Y115341D01*
X45660Y115429D01*
X45675Y115502D01*
X45690Y115605D01*
X45719Y115678D01*
X45734Y115707D01*
X45748Y115722D01*
X45690Y115839D01*
X45719Y115883D01*
Y115912D01*
X45704Y115956D01*
X45675Y116029D01*
X45660Y116131D01*
Y116234D01*
X45646Y116351D01*
X45631Y116439D01*
Y116497D01*
Y116526D01*
X45646Y116556D01*
Y116570D01*
X45602Y116629D01*
X45616Y116804D01*
X45631Y116965D01*
X45646Y117082D01*
X45660Y117185D01*
X45675Y117258D01*
Y117302D01*
X45690Y117331D01*
Y117346D01*
Y117434D01*
X45660Y117463D01*
X45719Y117638D01*
X45631Y117755D01*
Y117814D01*
X45675Y117858D01*
X45704Y117931D01*
X45734Y118092D01*
X45748Y118165D01*
Y118238D01*
Y118282D01*
Y118297D01*
X45690Y118940D01*
X45719Y118970D01*
Y118999D01*
X45704Y119043D01*
X45675Y119116D01*
X45646Y119277D01*
X45631Y119350D01*
X45616Y119423D01*
X45602Y119467D01*
Y119482D01*
X45642Y119623D01*
X45631Y119628D01*
X45616Y119643D01*
Y119657D01*
Y119687D01*
X45638Y119818D01*
X45631Y119862D01*
Y119892D01*
X45638D01*
X45558Y120184D01*
X45573Y120199D01*
X45587Y120257D01*
X45602Y120330D01*
X45616Y120403D01*
Y120491D01*
Y120550D01*
Y120608D01*
Y120623D01*
X45602Y120725D01*
X45573Y120784D01*
X45543Y120813D01*
X45529D01*
X45558Y120842D01*
X45529Y121076D01*
X45543Y121150D01*
X45587Y121223D01*
X45631Y121267D01*
X45646Y121281D01*
Y121311D01*
X45587D01*
Y121340D01*
X45675Y121428D01*
Y121486D01*
X45602Y121589D01*
X45558Y121676D01*
X45500Y121808D01*
X45470Y121881D01*
Y121910D01*
X45514Y122013D01*
X45558Y122115D01*
X45587Y122188D01*
X45602Y122247D01*
X45616Y122320D01*
Y122349D01*
X45558Y122861D01*
X45616Y123066D01*
Y123476D01*
X45500Y124046D01*
Y124134D01*
X45514Y124193D01*
X45529Y124251D01*
X45602Y124398D01*
X45646Y124456D01*
X45675Y124515D01*
X45690Y124544D01*
X45704Y124559D01*
X45660Y124749D01*
X45631Y124954D01*
X45616Y125041D01*
Y125114D01*
Y125158D01*
Y125173D01*
X45646Y125773D01*
X45558Y126241D01*
X45646Y126431D01*
X45616Y126519D01*
X45646Y126636D01*
X45587Y126870D01*
X45616Y126899D01*
Y127163D01*
X45587Y127499D01*
X45616Y127602D01*
X45646Y127704D01*
Y127792D01*
Y127807D01*
Y127821D01*
X45587Y128084D01*
Y128216D01*
X45602Y128319D01*
X45631Y128421D01*
X45646Y128494D01*
X45667Y128537D01*
X45631Y128596D01*
X45602Y128655D01*
X45587Y128728D01*
X45573Y128787D01*
Y128816D01*
Y128831D01*
X45690Y129270D01*
Y129387D01*
X45748Y129928D01*
X45690Y130250D01*
X45719Y130425D01*
X45573Y131318D01*
Y131464D01*
X45587Y131493D01*
X45616Y131523D01*
X45646Y131640D01*
X45660Y131771D01*
X45675Y131932D01*
X45690Y132079D01*
Y132210D01*
Y132298D01*
Y132313D01*
Y132327D01*
Y132693D01*
X45660Y132956D01*
X45675Y133088D01*
X45690Y133190D01*
X45704Y133264D01*
X45719Y133322D01*
X45734Y133351D01*
X45748Y133366D01*
X45690Y133966D01*
X45748Y134171D01*
X45719Y134229D01*
X45704Y134317D01*
X45675Y134493D01*
X45660Y134580D01*
Y134654D01*
Y134697D01*
Y134712D01*
Y134741D01*
X45748Y135034D01*
Y135268D01*
X45631Y135663D01*
Y136014D01*
X45660Y136131D01*
X45631Y136160D01*
X45660Y136614D01*
X45573Y137360D01*
X45748Y138253D01*
X45719Y138574D01*
X45778Y138750D01*
Y138779D01*
X45748Y138809D01*
X45807Y139043D01*
X45792Y139057D01*
X45778Y139072D01*
X45748Y139130D01*
X45734Y139189D01*
X45719Y139218D01*
X45778D01*
X45807Y139511D01*
Y139540D01*
X45778Y139569D01*
X45836Y139745D01*
X45719Y139950D01*
X45807Y140433D01*
X45748Y140667D01*
X45807Y140784D01*
X45778Y140901D01*
Y140930D01*
X45836Y141003D01*
Y141135D01*
X45807Y141252D01*
X45792Y141354D01*
X45763Y141427D01*
X45734Y141486D01*
X45719Y141530D01*
X45690Y141559D01*
X45719Y141676D01*
X45690Y141822D01*
X45704Y141837D01*
X45734Y141881D01*
X45748Y141954D01*
X45763Y142027D01*
Y142086D01*
X45778Y142159D01*
Y142203D01*
Y142217D01*
X45748Y142305D01*
X45836Y142686D01*
X45748Y142934D01*
Y143168D01*
X45719Y143286D01*
X45734Y143432D01*
X45763Y143534D01*
X45778Y143622D01*
X45792Y143666D01*
X45807Y143695D01*
X45821Y143724D01*
X45836D01*
X45748Y144354D01*
X45778Y144895D01*
X45719Y145363D01*
X45807Y145787D01*
Y146402D01*
X45792Y146431D01*
X45778Y146489D01*
X45748Y146607D01*
X45734Y146665D01*
Y146724D01*
X45719Y146753D01*
Y146768D01*
X45748Y146943D01*
X45690Y147119D01*
X45719Y147206D01*
X45660Y147382D01*
X45704Y147397D01*
X45748Y147455D01*
X45778Y147514D01*
X45807Y147601D01*
X45821Y147675D01*
X45836Y147748D01*
Y147792D01*
Y147806D01*
X45719Y148304D01*
Y148538D01*
X45748Y148816D01*
Y148845D01*
X45719Y148874D01*
X45748Y149196D01*
Y149342D01*
X45807Y149430D01*
Y149518D01*
X45748Y149708D01*
X45807Y149796D01*
X45792Y149825D01*
X45763Y149898D01*
X45748Y149986D01*
Y150103D01*
X45734Y150220D01*
X45719Y150308D01*
Y150381D01*
Y150410D01*
X45734Y150440D01*
X45763Y150498D01*
X45792Y150615D01*
Y150674D01*
X45807Y150732D01*
Y150762D01*
Y150776D01*
X45792Y150791D01*
X45763Y150820D01*
X45748Y150835D01*
Y150849D01*
X46641D01*
X46611Y150747D01*
D02*
G37*
G36*
X39984Y99482D02*
X40174Y99336D01*
X40335Y99233D01*
X40467Y99160D01*
X40569Y99116D01*
X40642Y99102D01*
X40686Y99087D01*
X40701D01*
X41696Y99292D01*
X41959Y99219D01*
X42032D01*
X42105Y99292D01*
X42705Y99219D01*
X42968D01*
X44446Y99555D01*
Y99292D01*
X44314Y98882D01*
X44446Y98414D01*
X44358Y98209D01*
X44271Y98034D01*
X44183Y97887D01*
X44095Y97785D01*
X44022Y97697D01*
X43963Y97653D01*
X43919Y97624D01*
X43905Y97609D01*
X43846Y97214D01*
X43715Y97112D01*
X43568Y97009D01*
X43217Y96834D01*
X42851Y96658D01*
X42500Y96512D01*
X42325Y96439D01*
X42164Y96380D01*
X42017Y96336D01*
X41886Y96293D01*
X41783Y96249D01*
X41710Y96220D01*
X41652Y96205D01*
X41637D01*
X41491Y96220D01*
X41359Y96263D01*
X41213Y96336D01*
X41081Y96424D01*
X40949Y96527D01*
X40818Y96644D01*
X40584Y96907D01*
X40379Y97170D01*
X40291Y97288D01*
X40218Y97390D01*
X40159Y97478D01*
X40115Y97551D01*
X40101Y97595D01*
X40086Y97609D01*
X39925Y97726D01*
X39823Y97829D01*
X39735Y97946D01*
X39677Y98034D01*
X39647Y98107D01*
X39633Y98165D01*
X39618Y98209D01*
Y98224D01*
X39486D01*
X39369Y98092D01*
X39267Y97990D01*
X39194Y97917D01*
X39121Y97873D01*
X39077Y97843D01*
X39048Y97814D01*
X39018D01*
Y97653D01*
X39004Y97551D01*
X38974Y97463D01*
X38960Y97404D01*
X38930Y97375D01*
X38901Y97361D01*
X38886Y97346D01*
X38813Y97273D01*
Y97214D01*
X38886Y97141D01*
Y97083D01*
X38828Y96966D01*
X38770Y96892D01*
X38696Y96834D01*
X38638Y96790D01*
X38579Y96761D01*
X38521Y96746D01*
X38477D01*
X38433Y96688D01*
X38360Y96615D01*
X38199Y96497D01*
X38023Y96380D01*
X37833Y96278D01*
X37643Y96205D01*
X37497Y96132D01*
X37438Y96102D01*
X37394Y96088D01*
X37365Y96073D01*
X37350D01*
X37072Y96205D01*
X36751Y96220D01*
X36458Y96234D01*
X36209Y96278D01*
X35990Y96336D01*
X35814Y96395D01*
X35653Y96454D01*
X35536Y96527D01*
X35434Y96615D01*
X35361Y96688D01*
X35302Y96761D01*
X35258Y96819D01*
X35229Y96878D01*
X35200Y96980D01*
Y96995D01*
Y97009D01*
X35068Y97024D01*
X34951Y97083D01*
X34834Y97156D01*
X34732Y97244D01*
X34644Y97331D01*
X34585Y97404D01*
X34541Y97463D01*
X34527Y97478D01*
X34497Y97741D01*
X34468Y97961D01*
X34439Y98165D01*
X34395Y98326D01*
X34351Y98472D01*
X34307Y98590D01*
X34263Y98692D01*
X34219Y98765D01*
X34176Y98838D01*
X34132Y98882D01*
X34073Y98926D01*
X34015Y98955D01*
X34000D01*
Y99029D01*
X34015Y99131D01*
X34029Y99233D01*
X34117Y99380D01*
X34234Y99482D01*
X34366Y99555D01*
X34497Y99599D01*
X34615Y99614D01*
X34702Y99628D01*
X34995D01*
X35112Y99511D01*
X35244Y99438D01*
X35375Y99380D01*
X35478Y99336D01*
X35580Y99306D01*
X35653Y99292D01*
X36546D01*
X36604Y99219D01*
X36677Y99292D01*
X36736D01*
X37745Y99087D01*
X37994Y99160D01*
X38214Y99233D01*
X38404Y99292D01*
X38579Y99350D01*
X38726Y99409D01*
X38857Y99453D01*
X38974Y99497D01*
X39062Y99541D01*
X39150Y99570D01*
X39208Y99599D01*
X39296Y99658D01*
X39340Y99672D01*
X39355Y99687D01*
X39764D01*
X39984Y99482D01*
D02*
G37*
G36*
X114881Y84007D02*
X114998Y83993D01*
X115173Y83919D01*
X115290Y83802D01*
X115378Y83671D01*
X115437Y83539D01*
X115451Y83437D01*
X115466Y83349D01*
Y83334D01*
Y83320D01*
X115451Y83202D01*
X115437Y83100D01*
X115363Y82924D01*
X115246Y82808D01*
X115115Y82720D01*
X114983Y82676D01*
X114881Y82647D01*
X114793Y82632D01*
X106585D01*
X106468Y82647D01*
X106366Y82661D01*
X106190Y82734D01*
X106073Y82851D01*
X105985Y82983D01*
X105941Y83100D01*
X105912Y83217D01*
X105898Y83290D01*
Y83320D01*
X105912Y83437D01*
X105927Y83554D01*
X106000Y83729D01*
X106117Y83846D01*
X106249Y83934D01*
X106366Y83993D01*
X106483Y84007D01*
X106556Y84022D01*
X114764D01*
X114881Y84007D01*
D02*
G37*
G36*
X526767Y41539D02*
X527045Y41480D01*
X527308Y41407D01*
X527557Y41305D01*
X527791Y41188D01*
X528010Y41056D01*
X528200Y40910D01*
X528376Y40764D01*
X528537Y40617D01*
X528683Y40471D01*
X528800Y40339D01*
X528903Y40222D01*
X528991Y40120D01*
X529049Y40047D01*
X529078Y39988D01*
X529093Y39974D01*
X529254Y39696D01*
X529385Y39418D01*
X529517Y39140D01*
X529620Y38847D01*
X529707Y38569D01*
X529781Y38291D01*
X529839Y38028D01*
X529883Y37779D01*
X529927Y37530D01*
X529956Y37325D01*
X529971Y37121D01*
X529985Y36960D01*
X530000Y36828D01*
Y36726D01*
Y36667D01*
Y36638D01*
X529985Y36287D01*
X529956Y35950D01*
X529912Y35628D01*
X529854Y35306D01*
X529781Y35029D01*
X529693Y34750D01*
X529605Y34502D01*
X529517Y34268D01*
X529429Y34063D01*
X529342Y33873D01*
X529254Y33712D01*
X529181Y33580D01*
X529122Y33478D01*
X529078Y33390D01*
X529049Y33346D01*
X529034Y33331D01*
X528830Y33068D01*
X528625Y32834D01*
X528405Y32629D01*
X528171Y32454D01*
X527952Y32322D01*
X527718Y32190D01*
X527498Y32088D01*
X527293Y32015D01*
X527089Y31956D01*
X526913Y31898D01*
X526752Y31868D01*
X526606Y31854D01*
X526489Y31839D01*
X526401Y31824D01*
X526328D01*
X526079Y31839D01*
X525845Y31868D01*
X525625Y31912D01*
X525421Y31971D01*
X525216Y32044D01*
X525040Y32132D01*
X524879Y32205D01*
X524718Y32307D01*
X524587Y32395D01*
X524470Y32468D01*
X524367Y32556D01*
X524280Y32629D01*
X524221Y32688D01*
X524177Y32731D01*
X524148Y32761D01*
X524133Y32775D01*
X523489Y32146D01*
X523343Y32058D01*
X523212Y32015D01*
X523153D01*
X523109Y32000D01*
X523065D01*
X522948Y32015D01*
X522860Y32029D01*
X522699Y32117D01*
X522641Y32146D01*
X522582Y32190D01*
X522568Y32205D01*
X522553Y32220D01*
X522480Y32307D01*
X522421Y32395D01*
X522392Y32483D01*
X522363Y32556D01*
X522348Y32629D01*
X522334Y32688D01*
Y32717D01*
Y32731D01*
X522348Y32834D01*
X522378Y32936D01*
X522465Y33097D01*
X522524Y33170D01*
X522568Y33214D01*
X522597Y33244D01*
X522612Y33258D01*
X522773Y33405D01*
X522904Y33536D01*
X523036Y33639D01*
X523138Y33726D01*
X523226Y33800D01*
X523285Y33843D01*
X523329Y33873D01*
X523343Y33887D01*
X523226Y34107D01*
X523124Y34341D01*
X522977Y34809D01*
X522860Y35263D01*
X522773Y35701D01*
X522758Y35892D01*
X522729Y36067D01*
X522714Y36228D01*
Y36374D01*
X522699Y36477D01*
Y36565D01*
Y36623D01*
Y36638D01*
X522714Y36989D01*
X522743Y37325D01*
X522787Y37662D01*
X522860Y37969D01*
X522934Y38262D01*
X523007Y38540D01*
X523109Y38788D01*
X523197Y39023D01*
X523285Y39242D01*
X523372Y39418D01*
X523460Y39593D01*
X523533Y39725D01*
X523606Y39827D01*
X523650Y39915D01*
X523680Y39959D01*
X523694Y39974D01*
X523899Y40252D01*
X524133Y40500D01*
X524353Y40705D01*
X524587Y40881D01*
X524821Y41042D01*
X525055Y41173D01*
X525274Y41276D01*
X525494Y41364D01*
X525699Y41422D01*
X525889Y41466D01*
X526050Y41510D01*
X526196Y41524D01*
X526313Y41539D01*
X526401Y41554D01*
X526474D01*
X526767Y41539D01*
D02*
G37*
G36*
X181007Y102451D02*
X181110Y102437D01*
X181285Y102363D01*
X181402Y102246D01*
X181490Y102115D01*
X181534Y101983D01*
X181563Y101881D01*
X181578Y101793D01*
Y101778D01*
Y101764D01*
Y93585D01*
X181563Y93468D01*
X181549Y93366D01*
X181476Y93190D01*
X181359Y93073D01*
X181227Y92985D01*
X181110Y92942D01*
X180993Y92912D01*
X180920Y92898D01*
X180890D01*
X180773Y92912D01*
X180656Y92927D01*
X180481Y93000D01*
X180364Y93117D01*
X180276Y93249D01*
X180217Y93366D01*
X180203Y93483D01*
X180188Y93556D01*
Y93585D01*
Y101764D01*
X180203Y101881D01*
X180217Y101998D01*
X180291Y102173D01*
X180408Y102290D01*
X180539Y102378D01*
X180671Y102437D01*
X180773Y102451D01*
X180861Y102466D01*
X180890D01*
X181007Y102451D01*
D02*
G37*
G36*
X339429Y150466D02*
X339532Y150451D01*
X339707Y150364D01*
X339824Y150261D01*
X339912Y150129D01*
X339956Y149998D01*
X339985Y149881D01*
X340000Y149793D01*
Y149778D01*
Y149764D01*
Y144043D01*
X339985Y143750D01*
X339956Y143487D01*
X339898Y143224D01*
X339824Y142990D01*
X339737Y142770D01*
X339634Y142551D01*
X339532Y142375D01*
X339415Y142200D01*
X339312Y142053D01*
X339210Y141922D01*
X339108Y141805D01*
X339020Y141717D01*
X338947Y141644D01*
X338888Y141585D01*
X338859Y141556D01*
X338844Y141541D01*
X338639Y141395D01*
X338449Y141278D01*
X338244Y141176D01*
X338040Y141088D01*
X337835Y141015D01*
X337645Y140956D01*
X337264Y140883D01*
X337103Y140854D01*
X336957Y140839D01*
X336811Y140824D01*
X336474D01*
X336181Y140854D01*
X335904Y140898D01*
X335655Y140956D01*
X335421Y141029D01*
X335201Y141117D01*
X334982Y141220D01*
X334792Y141322D01*
X334616Y141439D01*
X334309Y141702D01*
X334045Y141980D01*
X333841Y142273D01*
X333665Y142565D01*
X333533Y142858D01*
X333446Y143151D01*
X333372Y143414D01*
X333314Y143648D01*
X333285Y143853D01*
X333270Y143999D01*
Y144058D01*
Y144102D01*
Y144116D01*
Y144131D01*
Y149764D01*
X333285Y149895D01*
X333299Y149998D01*
X333329Y150100D01*
X333372Y150173D01*
X333489Y150305D01*
X333621Y150393D01*
X333753Y150437D01*
X333855Y150466D01*
X333943Y150480D01*
X333972D01*
X334089Y150466D01*
X334192Y150451D01*
X334367Y150364D01*
X334484Y150261D01*
X334557Y150129D01*
X334616Y149998D01*
X334631Y149881D01*
X334645Y149793D01*
Y149778D01*
Y149764D01*
Y144131D01*
X334660Y143809D01*
X334733Y143531D01*
X334821Y143282D01*
X334953Y143063D01*
X335099Y142873D01*
X335274Y142726D01*
X335450Y142595D01*
X335625Y142492D01*
X335816Y142404D01*
X335991Y142331D01*
X336167Y142288D01*
X336313Y142244D01*
X336445Y142229D01*
X336533Y142214D01*
X336591Y142200D01*
X336884D01*
X337132Y142214D01*
X337337Y142258D01*
X337528Y142302D01*
X337688Y142346D01*
X337791Y142390D01*
X337864Y142419D01*
X337893Y142434D01*
X338025Y142565D01*
X338127Y142697D01*
X338230Y142843D01*
X338303Y142975D01*
X338435Y143238D01*
X338522Y143502D01*
X338566Y143721D01*
X338581Y143809D01*
X338596Y143882D01*
X338610Y143955D01*
Y143999D01*
Y144029D01*
Y144043D01*
Y149764D01*
X338625Y149895D01*
X338639Y149998D01*
X338669Y150100D01*
X338713Y150173D01*
X338830Y150305D01*
X338961Y150393D01*
X339093Y150437D01*
X339195Y150466D01*
X339283Y150480D01*
X339312D01*
X339429Y150466D01*
D02*
G37*
G36*
X406993Y87147D02*
X407262Y87136D01*
X407520Y87100D01*
X407766Y87065D01*
X408000Y87018D01*
X408211Y86960D01*
X408422Y86902D01*
X408597Y86855D01*
X408773Y86796D01*
X408913Y86737D01*
X409042Y86679D01*
X409147Y86632D01*
X409229Y86597D01*
X409300Y86562D01*
X409335Y86550D01*
X409347Y86538D01*
X409569Y86410D01*
X409756Y86269D01*
X409920Y86129D01*
X410061Y85988D01*
X410178Y85836D01*
X410271Y85695D01*
X410354Y85555D01*
X410424Y85414D01*
X410471Y85286D01*
X410506Y85169D01*
X410541Y85063D01*
X410553Y84969D01*
X410564Y84899D01*
X410576Y84841D01*
Y84805D01*
Y84794D01*
X410564Y84595D01*
X410517Y84407D01*
X410447Y84232D01*
X410365Y84068D01*
X410260Y83916D01*
X410143Y83775D01*
X410014Y83635D01*
X409885Y83517D01*
X409756Y83412D01*
X409627Y83307D01*
X409510Y83225D01*
X409405Y83166D01*
X409323Y83108D01*
X409253Y83073D01*
X409206Y83049D01*
X409194Y83037D01*
X409007Y82932D01*
X408808Y82838D01*
X408609Y82756D01*
X408398Y82698D01*
X407988Y82581D01*
X407590Y82510D01*
X407415Y82487D01*
X407239Y82475D01*
X407098Y82464D01*
X406969Y82452D01*
X406864Y82440D01*
X406712D01*
X406431Y82452D01*
X406161Y82464D01*
X405904Y82499D01*
X405670Y82534D01*
X405447Y82581D01*
X405248Y82627D01*
X405061Y82686D01*
X404897Y82745D01*
X404745Y82792D01*
X404604Y82850D01*
X404499Y82897D01*
X404405Y82944D01*
X404323Y82979D01*
X404276Y83014D01*
X404241Y83026D01*
X404230Y83037D01*
X403984Y83166D01*
X403773Y83307D01*
X403597Y83447D01*
X403433Y83599D01*
X403304Y83752D01*
X403199Y83892D01*
X403105Y84033D01*
X403035Y84173D01*
X402977Y84302D01*
X402930Y84419D01*
X402906Y84524D01*
X402883Y84618D01*
X402871Y84688D01*
X402859Y84747D01*
Y84782D01*
Y84794D01*
X402871Y84993D01*
X402918Y85180D01*
X402988Y85356D01*
X403070Y85520D01*
X403176Y85684D01*
X403293Y85824D01*
X403422Y85953D01*
X403550Y86082D01*
X403667Y86187D01*
X403796Y86281D01*
X403913Y86363D01*
X404019Y86433D01*
X404101Y86480D01*
X404171Y86515D01*
X404218Y86538D01*
X404230Y86550D01*
X404417Y86656D01*
X404604Y86749D01*
X404815Y86831D01*
X405014Y86902D01*
X405436Y87007D01*
X405822Y87089D01*
X406009Y87112D01*
X406173Y87124D01*
X406325Y87136D01*
X406454Y87147D01*
X406560Y87159D01*
X406712D01*
X406993Y87147D01*
D02*
G37*
G36*
X186108Y73101D02*
X186201Y73089D01*
X186342Y73030D01*
X186436Y72937D01*
X186506Y72831D01*
X186553Y72726D01*
X186564Y72644D01*
X186576Y72574D01*
Y72562D01*
Y72550D01*
X186564Y72457D01*
X186553Y72375D01*
X186494Y72234D01*
X186400Y72140D01*
X186295Y72070D01*
X186190Y72035D01*
X186108Y72012D01*
X186037Y72000D01*
X179468D01*
X179375Y72012D01*
X179293Y72023D01*
X179152Y72082D01*
X179058Y72176D01*
X178988Y72281D01*
X178953Y72375D01*
X178930Y72468D01*
X178918Y72527D01*
Y72550D01*
X178930Y72644D01*
X178941Y72738D01*
X179000Y72878D01*
X179094Y72972D01*
X179199Y73042D01*
X179293Y73089D01*
X179386Y73101D01*
X179445Y73112D01*
X186014D01*
X186108Y73101D01*
D02*
G37*
G36*
X311432Y242437D02*
X311534Y242422D01*
X311710Y242334D01*
X311827Y242232D01*
X311900Y242100D01*
X311958Y241968D01*
X311973Y241851D01*
X311988Y241764D01*
Y241749D01*
Y241734D01*
X311973Y241617D01*
X311958Y241500D01*
X311885Y241325D01*
X311768Y241208D01*
X311651Y241120D01*
X311534Y241076D01*
X311417Y241047D01*
X311344Y241032D01*
X308008D01*
X310905Y233849D01*
X310949Y233746D01*
X310963Y233644D01*
X310978Y233571D01*
Y233556D01*
Y233541D01*
X310963Y233439D01*
X310949Y233351D01*
X310876Y233190D01*
X310832Y233132D01*
X310803Y233102D01*
X310788Y233073D01*
X310773Y233058D01*
X310700Y233000D01*
X310612Y232956D01*
X310452Y232898D01*
X310393Y232883D01*
X310334Y232868D01*
X310291D01*
X310144Y232883D01*
X310013Y232941D01*
X309895Y233000D01*
X309822Y233088D01*
X309749Y233161D01*
X309705Y233234D01*
X309691Y233278D01*
X309676Y233293D01*
X306618Y241032D01*
X306560Y241193D01*
X306516Y241339D01*
X306487Y241471D01*
X306457Y241573D01*
Y241647D01*
X306443Y241705D01*
Y241734D01*
Y241749D01*
X306457Y241866D01*
X306472Y241968D01*
X306501Y242027D01*
X306516Y242056D01*
X306604Y242188D01*
X306677Y242276D01*
X306735Y242334D01*
X306765Y242349D01*
X306852Y242378D01*
X306969Y242407D01*
X307116Y242422D01*
X307247Y242437D01*
X307379Y242451D01*
X311315D01*
X311432Y242437D01*
D02*
G37*
G36*
X187767Y102539D02*
X188045Y102480D01*
X188308Y102407D01*
X188557Y102305D01*
X188791Y102188D01*
X189010Y102056D01*
X189200Y101910D01*
X189376Y101764D01*
X189537Y101617D01*
X189683Y101471D01*
X189800Y101339D01*
X189903Y101222D01*
X189991Y101120D01*
X190049Y101047D01*
X190078Y100988D01*
X190093Y100974D01*
X190254Y100696D01*
X190385Y100418D01*
X190517Y100140D01*
X190620Y99847D01*
X190707Y99569D01*
X190781Y99291D01*
X190839Y99028D01*
X190883Y98779D01*
X190927Y98530D01*
X190956Y98326D01*
X190971Y98121D01*
X190985Y97960D01*
X191000Y97828D01*
Y97726D01*
Y97667D01*
Y97638D01*
X190985Y97287D01*
X190956Y96950D01*
X190912Y96628D01*
X190854Y96306D01*
X190781Y96028D01*
X190693Y95751D01*
X190605Y95502D01*
X190517Y95268D01*
X190429Y95063D01*
X190342Y94873D01*
X190254Y94712D01*
X190181Y94580D01*
X190122Y94478D01*
X190078Y94390D01*
X190049Y94346D01*
X190034Y94331D01*
X189830Y94068D01*
X189625Y93834D01*
X189405Y93629D01*
X189171Y93454D01*
X188952Y93322D01*
X188718Y93190D01*
X188498Y93088D01*
X188293Y93015D01*
X188088Y92956D01*
X187913Y92898D01*
X187752Y92868D01*
X187606Y92854D01*
X187489Y92839D01*
X187401Y92824D01*
X187328D01*
X187079Y92839D01*
X186845Y92868D01*
X186625Y92912D01*
X186421Y92971D01*
X186216Y93044D01*
X186040Y93132D01*
X185879Y93205D01*
X185718Y93307D01*
X185587Y93395D01*
X185470Y93468D01*
X185367Y93556D01*
X185280Y93629D01*
X185221Y93688D01*
X185177Y93731D01*
X185148Y93761D01*
X185133Y93775D01*
X184489Y93146D01*
X184343Y93059D01*
X184212Y93015D01*
X184153D01*
X184109Y93000D01*
X184065D01*
X183948Y93015D01*
X183860Y93029D01*
X183699Y93117D01*
X183641Y93146D01*
X183582Y93190D01*
X183568Y93205D01*
X183553Y93219D01*
X183480Y93307D01*
X183421Y93395D01*
X183392Y93483D01*
X183363Y93556D01*
X183348Y93629D01*
X183334Y93688D01*
Y93717D01*
Y93731D01*
X183348Y93834D01*
X183378Y93936D01*
X183465Y94097D01*
X183524Y94170D01*
X183568Y94214D01*
X183597Y94244D01*
X183612Y94258D01*
X183773Y94404D01*
X183904Y94536D01*
X184036Y94639D01*
X184138Y94726D01*
X184226Y94799D01*
X184285Y94843D01*
X184328Y94873D01*
X184343Y94887D01*
X184226Y95107D01*
X184124Y95341D01*
X183977Y95809D01*
X183860Y96263D01*
X183773Y96701D01*
X183758Y96892D01*
X183729Y97067D01*
X183714Y97228D01*
Y97374D01*
X183699Y97477D01*
Y97565D01*
Y97623D01*
Y97638D01*
X183714Y97989D01*
X183743Y98326D01*
X183787Y98662D01*
X183860Y98969D01*
X183934Y99262D01*
X184007Y99540D01*
X184109Y99789D01*
X184197Y100023D01*
X184285Y100242D01*
X184372Y100418D01*
X184460Y100593D01*
X184533Y100725D01*
X184606Y100827D01*
X184650Y100915D01*
X184680Y100959D01*
X184694Y100974D01*
X184899Y101251D01*
X185133Y101500D01*
X185353Y101705D01*
X185587Y101881D01*
X185821Y102042D01*
X186055Y102173D01*
X186274Y102276D01*
X186494Y102363D01*
X186699Y102422D01*
X186889Y102466D01*
X187050Y102510D01*
X187196Y102524D01*
X187313Y102539D01*
X187401Y102554D01*
X187474D01*
X187767Y102539D01*
D02*
G37*
%LPC*%
G36*
X80868Y50850D02*
Y48700D01*
X84671Y49797D01*
X80868Y50850D01*
D02*
G37*
G36*
X83852Y22745D02*
X83750D01*
X83545Y22731D01*
X83384Y22687D01*
X83326Y22672D01*
X83282Y22643D01*
X83252Y22628D01*
X83238D01*
X83091Y22526D01*
X82974Y22424D01*
X82901Y22336D01*
X82872Y22321D01*
Y22306D01*
X82769Y22146D01*
X82711Y21985D01*
X82682Y21911D01*
X82667Y21853D01*
X82653Y21824D01*
Y21809D01*
X82609Y21590D01*
X82594Y21370D01*
X82579Y21282D01*
Y21209D01*
Y21165D01*
Y21151D01*
Y20536D01*
X84876D01*
Y21209D01*
X84862Y21472D01*
X84832Y21707D01*
X84789Y21911D01*
X84745Y22072D01*
X84701Y22189D01*
X84657Y22277D01*
X84628Y22336D01*
X84613Y22350D01*
X84496Y22482D01*
X84364Y22584D01*
X84218Y22643D01*
X84086Y22701D01*
X83955Y22731D01*
X83852Y22745D01*
D02*
G37*
G36*
X82009Y30090D02*
X81877D01*
Y27442D01*
X82126Y27486D01*
X82331Y27544D01*
X82521Y27617D01*
X82667Y27690D01*
X82784Y27764D01*
X82872Y27822D01*
X82930Y27866D01*
X82945Y27881D01*
X83077Y28027D01*
X83179Y28188D01*
X83238Y28349D01*
X83296Y28495D01*
X83326Y28627D01*
X83340Y28729D01*
Y28802D01*
Y28832D01*
X83326Y29022D01*
X83296Y29168D01*
X83282Y29227D01*
X83267Y29271D01*
X83252Y29300D01*
Y29314D01*
X83179Y29475D01*
X83077Y29607D01*
X83004Y29680D01*
X82989Y29709D01*
X82974D01*
X82828Y29827D01*
X82682Y29914D01*
X82623Y29943D01*
X82565Y29973D01*
X82535Y29987D01*
X82521D01*
X82301Y30046D01*
X82097Y30075D01*
X82009Y30090D01*
D02*
G37*
G36*
X548625Y148061D02*
X546884D01*
X546606Y148047D01*
X546372Y148003D01*
X546152Y147959D01*
X545991Y147900D01*
X545845Y147827D01*
X545742Y147783D01*
X545684Y147739D01*
X545669Y147725D01*
X545523Y147593D01*
X545406Y147432D01*
X545333Y147286D01*
X545274Y147125D01*
X545245Y146993D01*
X545216Y146891D01*
Y146818D01*
Y146789D01*
X545230Y146569D01*
X545274Y146379D01*
X545362Y146218D01*
X545450Y146072D01*
X545567Y145955D01*
X545699Y145852D01*
X545845Y145764D01*
X545977Y145706D01*
X546269Y145618D01*
X546401Y145589D01*
X546518Y145560D01*
X546606D01*
X546679Y145545D01*
X548625D01*
Y148061D01*
D02*
G37*
G36*
Y144126D02*
X546840D01*
X546533Y144111D01*
X546269Y144067D01*
X546035Y143994D01*
X545830Y143906D01*
X545669Y143804D01*
X545523Y143687D01*
X545406Y143570D01*
X545318Y143438D01*
X545245Y143307D01*
X545187Y143189D01*
X545157Y143072D01*
X545128Y142970D01*
X545113Y142882D01*
X545099Y142809D01*
Y142765D01*
Y142751D01*
X545113Y142516D01*
X545172Y142312D01*
X545245Y142136D01*
X545362Y141990D01*
X545479Y141858D01*
X545625Y141756D01*
X545772Y141668D01*
X545933Y141595D01*
X546094Y141551D01*
X546240Y141507D01*
X546386Y141478D01*
X546503Y141448D01*
X546606D01*
X546693Y141434D01*
X548625D01*
Y144126D01*
D02*
G37*
G36*
X56448Y136508D02*
X56233D01*
X55823Y136489D01*
X55648Y136469D01*
X55492Y136450D01*
X55355Y136430D01*
X55258Y136411D01*
X55199Y136391D01*
X55180D01*
X54848Y136294D01*
X54692Y136235D01*
X54575Y136177D01*
X54458Y136118D01*
X54380Y136079D01*
X54341Y136060D01*
X54321Y136040D01*
X54068Y135845D01*
X53892Y135650D01*
X53834Y135552D01*
X53795Y135474D01*
X53756Y135435D01*
Y135416D01*
X53639Y135123D01*
X53580Y134831D01*
Y134714D01*
X53561Y134616D01*
Y134558D01*
Y134538D01*
X53580Y134206D01*
X53658Y133933D01*
X53775Y133680D01*
X53892Y133465D01*
X54009Y133309D01*
X54126Y133192D01*
X54204Y133114D01*
X54224Y133095D01*
X54497Y132919D01*
X54809Y132782D01*
X55141Y132704D01*
X55472Y132626D01*
X55765Y132587D01*
X55999Y132568D01*
X56214D01*
X56604Y132587D01*
X56779Y132607D01*
X56935Y132626D01*
X57072D01*
X57169Y132646D01*
X57228Y132665D01*
X57247D01*
X57579Y132763D01*
X57735Y132821D01*
X57852Y132880D01*
X57950Y132938D01*
X58028Y132977D01*
X58067Y133016D01*
X58086D01*
X58340Y133231D01*
X58515Y133426D01*
X58593Y133504D01*
X58632Y133582D01*
X58671Y133621D01*
Y133641D01*
X58749Y133777D01*
X58788Y133933D01*
X58867Y134226D01*
Y134343D01*
X58886Y134460D01*
Y134518D01*
Y134538D01*
X58867Y134889D01*
X58788Y135182D01*
X58671Y135435D01*
X58554Y135630D01*
X58437Y135787D01*
X58320Y135904D01*
X58242Y135982D01*
X58223Y136001D01*
X57950Y136177D01*
X57638Y136294D01*
X57306Y136391D01*
X56974Y136450D01*
X56682Y136489D01*
X56448Y136508D01*
D02*
G37*
G36*
X57696Y108593D02*
X57052D01*
X56760Y108574D01*
X56487Y108554D01*
X56253Y108535D01*
X56058Y108496D01*
X55901Y108476D01*
X55823Y108457D01*
X55784D01*
X55531Y108398D01*
X55297Y108340D01*
X55102Y108281D01*
X54946Y108223D01*
X54809Y108164D01*
X54692Y108106D01*
X54633Y108086D01*
X54614Y108067D01*
X54458Y107950D01*
X54302Y107852D01*
X54185Y107716D01*
X54087Y107618D01*
X53990Y107521D01*
X53931Y107443D01*
X53912Y107384D01*
X53892Y107365D01*
X53814Y107208D01*
X53756Y107033D01*
X53697Y106721D01*
X53678Y106584D01*
X53658Y106467D01*
Y106389D01*
Y106370D01*
X53678Y106155D01*
X53697Y105960D01*
X53814Y105609D01*
X53951Y105316D01*
X54126Y105082D01*
X54302Y104907D01*
X54458Y104770D01*
X54555Y104692D01*
X54575Y104672D01*
X54594D01*
X54790Y104575D01*
X54985Y104497D01*
X55453Y104380D01*
X55921Y104282D01*
X56389Y104224D01*
X56623Y104204D01*
X56818Y104185D01*
X57013D01*
X57169Y104165D01*
X57813D01*
X58106Y104185D01*
X58379Y104204D01*
X58613Y104224D01*
X58808Y104243D01*
X58964Y104263D01*
X59042Y104282D01*
X59081D01*
X59335Y104341D01*
X59569Y104399D01*
X59764Y104458D01*
X59939Y104516D01*
X60076Y104575D01*
X60174Y104634D01*
X60232Y104653D01*
X60251Y104672D01*
X60427Y104789D01*
X60564Y104887D01*
X60681Y105004D01*
X60798Y105121D01*
X60876Y105219D01*
X60934Y105297D01*
X60954Y105336D01*
X60973Y105355D01*
X61051Y105531D01*
X61129Y105687D01*
X61168Y105862D01*
X61188Y106018D01*
X61207Y106155D01*
X61227Y106272D01*
Y106350D01*
Y106370D01*
X61207Y106584D01*
X61188Y106779D01*
X61071Y107130D01*
X60934Y107423D01*
X60759Y107657D01*
X60583Y107852D01*
X60427Y107969D01*
X60310Y108047D01*
X60291Y108067D01*
X60271D01*
X60076Y108164D01*
X59881Y108242D01*
X59413Y108379D01*
X58945Y108457D01*
X58476Y108535D01*
X58242Y108554D01*
X58047Y108574D01*
X57852D01*
X57696Y108593D01*
D02*
G37*
G36*
X111165Y79223D02*
X111018D01*
X110682Y79208D01*
X110360Y79179D01*
X110067Y79135D01*
X109775Y79077D01*
X109526Y79004D01*
X109277Y78930D01*
X109058Y78843D01*
X108853Y78755D01*
X108677Y78667D01*
X108516Y78579D01*
X108385Y78506D01*
X108282Y78433D01*
X108195Y78375D01*
X108136Y78331D01*
X108092Y78301D01*
X108077Y78287D01*
X107961Y78155D01*
X107873Y78009D01*
X107712Y77716D01*
X107595Y77424D01*
X107522Y77146D01*
X107463Y76912D01*
X107448Y76794D01*
Y76707D01*
X107434Y76634D01*
Y76575D01*
Y76546D01*
Y76531D01*
Y75375D01*
X114047D01*
Y76531D01*
X114032Y76721D01*
X114017Y76897D01*
X113930Y77248D01*
X113827Y77541D01*
X113696Y77804D01*
X113564Y78023D01*
X113491Y78111D01*
X113447Y78184D01*
X113403Y78243D01*
X113359Y78287D01*
X113344Y78301D01*
X113330Y78316D01*
X113169Y78477D01*
X112993Y78609D01*
X112803Y78740D01*
X112613Y78843D01*
X112423Y78930D01*
X112233Y79004D01*
X111867Y79106D01*
X111691Y79150D01*
X111530Y79179D01*
X111384Y79194D01*
X111267Y79208D01*
X111165Y79223D01*
D02*
G37*
G36*
X232577Y165135D02*
X232474D01*
X232269Y165120D01*
X232079Y165091D01*
X231903Y165032D01*
X231728Y164959D01*
X231435Y164783D01*
X231172Y164593D01*
X230967Y164388D01*
X230821Y164213D01*
X230777Y164140D01*
X230733Y164081D01*
X230718Y164052D01*
X230704Y164037D01*
X230499Y163642D01*
X230353Y163247D01*
X230236Y162838D01*
X230163Y162457D01*
X230133Y162282D01*
X230119Y162121D01*
X230104Y161989D01*
Y161857D01*
X230089Y161755D01*
Y161682D01*
Y161638D01*
Y161623D01*
X230104Y161243D01*
X230133Y160892D01*
X230177Y160570D01*
X230236Y160292D01*
X230294Y160072D01*
X230309Y159970D01*
X230338Y159897D01*
X230353Y159838D01*
X230367Y159794D01*
X230382Y159765D01*
Y159750D01*
X230982Y160380D01*
X231026Y160438D01*
X231084Y160467D01*
X231201Y160526D01*
X231304Y160541D01*
X231348D01*
X231450Y160526D01*
X231552Y160511D01*
X231713Y160424D01*
X231772Y160380D01*
X231816Y160350D01*
X231845Y160321D01*
X231860Y160306D01*
X231933Y160219D01*
X231977Y160131D01*
X232035Y159970D01*
X232050Y159897D01*
X232064Y159838D01*
Y159809D01*
Y159794D01*
X232050Y159692D01*
X232020Y159604D01*
X231947Y159429D01*
X231903Y159370D01*
X231860Y159326D01*
X231845Y159297D01*
X231830Y159282D01*
X231099Y158668D01*
X231274Y158522D01*
X231479Y158419D01*
X231684Y158346D01*
X231874Y158302D01*
X232050Y158273D01*
X232196Y158244D01*
X232328D01*
X232518Y158258D01*
X232708Y158287D01*
X232898Y158346D01*
X233059Y158419D01*
X233381Y158595D01*
X233645Y158799D01*
X233864Y158990D01*
X233952Y159092D01*
X234025Y159165D01*
X234083Y159238D01*
X234127Y159297D01*
X234142Y159326D01*
X234157Y159341D01*
X234303Y159692D01*
X234405Y160072D01*
X234493Y160467D01*
X234537Y160819D01*
X234552Y160994D01*
X234566Y161140D01*
X234581Y161287D01*
Y161404D01*
X234596Y161506D01*
Y161579D01*
Y161623D01*
Y161638D01*
X234566Y162150D01*
X234508Y162618D01*
X234478Y162838D01*
X234435Y163028D01*
X234391Y163218D01*
X234332Y163379D01*
X234288Y163540D01*
X234244Y163671D01*
X234200Y163789D01*
X234157Y163876D01*
X234127Y163949D01*
X234098Y164008D01*
X234083Y164037D01*
Y164052D01*
X233966Y164242D01*
X233849Y164403D01*
X233718Y164549D01*
X233586Y164681D01*
X233454Y164783D01*
X233323Y164871D01*
X233191Y164944D01*
X233059Y165003D01*
X232825Y165076D01*
X232723Y165105D01*
X232650Y165120D01*
X232577Y165135D01*
D02*
G37*
G36*
X328515Y146135D02*
X328442D01*
X328179Y146106D01*
X327945Y146047D01*
X327740Y145974D01*
X327564Y145872D01*
X327418Y145770D01*
X327301Y145696D01*
X327242Y145638D01*
X327213Y145609D01*
X327038Y145404D01*
X326906Y145199D01*
X326818Y144994D01*
X326745Y144804D01*
X326716Y144628D01*
X326701Y144497D01*
X326686Y144409D01*
Y144394D01*
Y144380D01*
X326701Y144072D01*
X326759Y143794D01*
X326833Y143546D01*
X326920Y143326D01*
X327008Y143151D01*
X327081Y143019D01*
X327140Y142931D01*
X327155Y142917D01*
Y142902D01*
X327257Y142785D01*
X327345Y142683D01*
X327550Y142522D01*
X327754Y142404D01*
X327959Y142331D01*
X328120Y142273D01*
X328266Y142258D01*
X328354Y142244D01*
X328383D01*
X328661Y142273D01*
X328925Y142331D01*
X329159Y142419D01*
X329349Y142522D01*
X329510Y142624D01*
X329627Y142712D01*
X329700Y142770D01*
X329729Y142800D01*
X329920Y143019D01*
X330051Y143253D01*
X330154Y143487D01*
X330212Y143707D01*
X330256Y143897D01*
X330271Y144058D01*
X330285Y144116D01*
Y144160D01*
Y144175D01*
Y144189D01*
X330256Y144482D01*
X330198Y144745D01*
X330110Y144979D01*
X330007Y145184D01*
X329920Y145345D01*
X329832Y145462D01*
X329773Y145535D01*
X329744Y145565D01*
X329539Y145755D01*
X329305Y145901D01*
X329100Y146004D01*
X328895Y146062D01*
X328705Y146106D01*
X328574Y146121D01*
X328515Y146135D01*
D02*
G37*
G36*
X517710Y37135D02*
X517637D01*
X517374Y37106D01*
X517140Y37048D01*
X516935Y36974D01*
X516759Y36872D01*
X516613Y36769D01*
X516496Y36696D01*
X516438Y36638D01*
X516408Y36609D01*
X516233Y36404D01*
X516101Y36199D01*
X516013Y35994D01*
X515940Y35804D01*
X515911Y35628D01*
X515896Y35497D01*
X515882Y35409D01*
Y35394D01*
Y35380D01*
X515896Y35072D01*
X515955Y34794D01*
X516028Y34546D01*
X516116Y34326D01*
X516203Y34151D01*
X516277Y34019D01*
X516335Y33931D01*
X516350Y33917D01*
Y33902D01*
X516452Y33785D01*
X516540Y33682D01*
X516745Y33522D01*
X516950Y33405D01*
X517155Y33331D01*
X517315Y33273D01*
X517462Y33258D01*
X517550Y33244D01*
X517579D01*
X517857Y33273D01*
X518120Y33331D01*
X518354Y33419D01*
X518544Y33522D01*
X518705Y33624D01*
X518822Y33712D01*
X518895Y33770D01*
X518925Y33800D01*
X519115Y34019D01*
X519247Y34253D01*
X519349Y34487D01*
X519408Y34707D01*
X519451Y34897D01*
X519466Y35058D01*
X519481Y35116D01*
Y35160D01*
Y35175D01*
Y35189D01*
X519451Y35482D01*
X519393Y35745D01*
X519305Y35979D01*
X519203Y36184D01*
X519115Y36345D01*
X519027Y36462D01*
X518969Y36535D01*
X518939Y36565D01*
X518735Y36755D01*
X518501Y36901D01*
X518296Y37004D01*
X518091Y37062D01*
X517901Y37106D01*
X517769Y37121D01*
X517710Y37135D01*
D02*
G37*
G36*
X317577Y241134D02*
X317474D01*
X317269Y241120D01*
X317079Y241091D01*
X316903Y241032D01*
X316728Y240959D01*
X316435Y240783D01*
X316172Y240593D01*
X315967Y240388D01*
X315821Y240213D01*
X315777Y240140D01*
X315733Y240081D01*
X315718Y240052D01*
X315704Y240037D01*
X315499Y239642D01*
X315353Y239247D01*
X315236Y238838D01*
X315163Y238457D01*
X315133Y238282D01*
X315119Y238121D01*
X315104Y237989D01*
Y237857D01*
X315089Y237755D01*
Y237682D01*
Y237638D01*
Y237623D01*
X315104Y237243D01*
X315133Y236892D01*
X315177Y236570D01*
X315236Y236292D01*
X315294Y236072D01*
X315309Y235970D01*
X315338Y235897D01*
X315353Y235838D01*
X315367Y235794D01*
X315382Y235765D01*
Y235751D01*
X315982Y236380D01*
X316026Y236438D01*
X316084Y236467D01*
X316201Y236526D01*
X316304Y236541D01*
X316348D01*
X316450Y236526D01*
X316552Y236511D01*
X316713Y236423D01*
X316772Y236380D01*
X316816Y236350D01*
X316845Y236321D01*
X316860Y236306D01*
X316933Y236219D01*
X316977Y236131D01*
X317035Y235970D01*
X317050Y235897D01*
X317064Y235838D01*
Y235809D01*
Y235794D01*
X317050Y235692D01*
X317020Y235604D01*
X316947Y235429D01*
X316903Y235370D01*
X316860Y235326D01*
X316845Y235297D01*
X316830Y235282D01*
X316099Y234668D01*
X316274Y234522D01*
X316479Y234419D01*
X316684Y234346D01*
X316874Y234302D01*
X317050Y234273D01*
X317196Y234244D01*
X317328D01*
X317518Y234258D01*
X317708Y234287D01*
X317898Y234346D01*
X318059Y234419D01*
X318381Y234595D01*
X318645Y234799D01*
X318864Y234990D01*
X318952Y235092D01*
X319025Y235165D01*
X319083Y235238D01*
X319127Y235297D01*
X319142Y235326D01*
X319157Y235341D01*
X319303Y235692D01*
X319405Y236072D01*
X319493Y236467D01*
X319537Y236819D01*
X319552Y236994D01*
X319566Y237140D01*
X319581Y237287D01*
Y237404D01*
X319596Y237506D01*
Y237579D01*
Y237623D01*
Y237638D01*
X319566Y238150D01*
X319508Y238618D01*
X319478Y238838D01*
X319435Y239028D01*
X319391Y239218D01*
X319332Y239379D01*
X319288Y239540D01*
X319244Y239671D01*
X319200Y239788D01*
X319157Y239876D01*
X319127Y239949D01*
X319098Y240008D01*
X319083Y240037D01*
Y240052D01*
X318966Y240242D01*
X318849Y240403D01*
X318718Y240549D01*
X318586Y240681D01*
X318454Y240783D01*
X318323Y240871D01*
X318191Y240944D01*
X318059Y241003D01*
X317825Y241076D01*
X317723Y241105D01*
X317650Y241120D01*
X317577Y241134D01*
D02*
G37*
G36*
X526576Y40135D02*
X526474D01*
X526269Y40120D01*
X526079Y40091D01*
X525904Y40032D01*
X525728Y39959D01*
X525435Y39783D01*
X525172Y39593D01*
X524967Y39388D01*
X524821Y39213D01*
X524777Y39140D01*
X524733Y39081D01*
X524718Y39052D01*
X524704Y39037D01*
X524499Y38642D01*
X524353Y38247D01*
X524236Y37838D01*
X524162Y37457D01*
X524133Y37282D01*
X524119Y37121D01*
X524104Y36989D01*
Y36857D01*
X524089Y36755D01*
Y36682D01*
Y36638D01*
Y36623D01*
X524104Y36243D01*
X524133Y35892D01*
X524177Y35570D01*
X524236Y35292D01*
X524294Y35072D01*
X524309Y34970D01*
X524338Y34897D01*
X524353Y34838D01*
X524367Y34794D01*
X524382Y34765D01*
Y34750D01*
X524982Y35380D01*
X525026Y35438D01*
X525084Y35467D01*
X525201Y35526D01*
X525304Y35541D01*
X525348D01*
X525450Y35526D01*
X525552Y35511D01*
X525713Y35424D01*
X525772Y35380D01*
X525816Y35350D01*
X525845Y35321D01*
X525860Y35306D01*
X525933Y35219D01*
X525977Y35131D01*
X526035Y34970D01*
X526050Y34897D01*
X526064Y34838D01*
Y34809D01*
Y34794D01*
X526050Y34692D01*
X526021Y34604D01*
X525947Y34429D01*
X525904Y34370D01*
X525860Y34326D01*
X525845Y34297D01*
X525830Y34282D01*
X525099Y33668D01*
X525274Y33522D01*
X525479Y33419D01*
X525684Y33346D01*
X525874Y33302D01*
X526050Y33273D01*
X526196Y33244D01*
X526328D01*
X526518Y33258D01*
X526708Y33287D01*
X526898Y33346D01*
X527059Y33419D01*
X527381Y33595D01*
X527645Y33800D01*
X527864Y33990D01*
X527952Y34092D01*
X528025Y34165D01*
X528083Y34239D01*
X528127Y34297D01*
X528142Y34326D01*
X528157Y34341D01*
X528303Y34692D01*
X528405Y35072D01*
X528493Y35467D01*
X528537Y35819D01*
X528552Y35994D01*
X528566Y36140D01*
X528581Y36287D01*
Y36404D01*
X528596Y36506D01*
Y36579D01*
Y36623D01*
Y36638D01*
X528566Y37150D01*
X528508Y37618D01*
X528478Y37838D01*
X528435Y38028D01*
X528391Y38218D01*
X528332Y38379D01*
X528288Y38540D01*
X528244Y38672D01*
X528200Y38788D01*
X528157Y38876D01*
X528127Y38949D01*
X528098Y39008D01*
X528083Y39037D01*
Y39052D01*
X527966Y39242D01*
X527849Y39403D01*
X527718Y39549D01*
X527586Y39681D01*
X527454Y39783D01*
X527323Y39871D01*
X527191Y39944D01*
X527059Y40003D01*
X526825Y40076D01*
X526723Y40105D01*
X526650Y40120D01*
X526576Y40135D01*
D02*
G37*
G36*
X406899Y86070D02*
X406712D01*
X406314Y86058D01*
X405951Y86011D01*
X405787Y85988D01*
X405623Y85965D01*
X405482Y85930D01*
X405354Y85894D01*
X405237Y85859D01*
X405131Y85836D01*
X405037Y85801D01*
X404967Y85777D01*
X404909Y85754D01*
X404862Y85730D01*
X404838Y85719D01*
X404827D01*
X404686Y85648D01*
X404557Y85578D01*
X404440Y85496D01*
X404347Y85426D01*
X404265Y85344D01*
X404194Y85262D01*
X404147Y85192D01*
X404101Y85122D01*
X404042Y84993D01*
X404007Y84887D01*
X403995Y84817D01*
Y84805D01*
Y84794D01*
X404007Y84688D01*
X404030Y84595D01*
X404066Y84501D01*
X404124Y84407D01*
X404253Y84255D01*
X404405Y84115D01*
X404557Y84009D01*
X404686Y83927D01*
X404745Y83904D01*
X404780Y83880D01*
X404803Y83869D01*
X404815D01*
X405119Y83763D01*
X405436Y83681D01*
X405752Y83623D01*
X406056Y83588D01*
X406185Y83564D01*
X406314D01*
X406431Y83553D01*
X406525Y83541D01*
X406712D01*
X407110Y83553D01*
X407461Y83588D01*
X407625Y83611D01*
X407777Y83635D01*
X407918Y83670D01*
X408047Y83693D01*
X408152Y83716D01*
X408257Y83752D01*
X408340Y83775D01*
X408410Y83799D01*
X408468Y83822D01*
X408503Y83834D01*
X408527Y83845D01*
X408539D01*
X408703Y83916D01*
X408831Y83997D01*
X408960Y84068D01*
X409066Y84150D01*
X409147Y84232D01*
X409218Y84314D01*
X409276Y84384D01*
X409323Y84466D01*
X409393Y84595D01*
X409428Y84700D01*
X409440Y84770D01*
Y84782D01*
Y84794D01*
X409428Y84899D01*
X409405Y84993D01*
X409358Y85098D01*
X409311Y85180D01*
X409183Y85344D01*
X409030Y85473D01*
X408866Y85578D01*
X408738Y85660D01*
X408691Y85684D01*
X408644Y85707D01*
X408620Y85719D01*
X408609D01*
X408304Y85836D01*
X407976Y85918D01*
X407660Y85988D01*
X407368Y86023D01*
X407227Y86047D01*
X407110D01*
X406993Y86058D01*
X406899Y86070D01*
D02*
G37*
G36*
X187577Y101135D02*
X187474D01*
X187269Y101120D01*
X187079Y101091D01*
X186903Y101032D01*
X186728Y100959D01*
X186435Y100783D01*
X186172Y100593D01*
X185967Y100388D01*
X185821Y100213D01*
X185777Y100140D01*
X185733Y100081D01*
X185718Y100052D01*
X185704Y100037D01*
X185499Y99642D01*
X185353Y99247D01*
X185236Y98837D01*
X185163Y98457D01*
X185133Y98282D01*
X185119Y98121D01*
X185104Y97989D01*
Y97857D01*
X185089Y97755D01*
Y97682D01*
Y97638D01*
Y97623D01*
X185104Y97243D01*
X185133Y96892D01*
X185177Y96570D01*
X185236Y96292D01*
X185294Y96072D01*
X185309Y95970D01*
X185338Y95897D01*
X185353Y95838D01*
X185367Y95794D01*
X185382Y95765D01*
Y95751D01*
X185982Y96380D01*
X186026Y96438D01*
X186084Y96467D01*
X186201Y96526D01*
X186304Y96540D01*
X186348D01*
X186450Y96526D01*
X186552Y96511D01*
X186713Y96424D01*
X186772Y96380D01*
X186816Y96350D01*
X186845Y96321D01*
X186860Y96306D01*
X186933Y96219D01*
X186977Y96131D01*
X187035Y95970D01*
X187050Y95897D01*
X187064Y95838D01*
Y95809D01*
Y95794D01*
X187050Y95692D01*
X187020Y95604D01*
X186947Y95429D01*
X186903Y95370D01*
X186860Y95326D01*
X186845Y95297D01*
X186830Y95282D01*
X186099Y94668D01*
X186274Y94522D01*
X186479Y94419D01*
X186684Y94346D01*
X186874Y94302D01*
X187050Y94273D01*
X187196Y94244D01*
X187328D01*
X187518Y94258D01*
X187708Y94288D01*
X187898Y94346D01*
X188059Y94419D01*
X188381Y94595D01*
X188645Y94799D01*
X188864Y94990D01*
X188952Y95092D01*
X189025Y95165D01*
X189083Y95238D01*
X189127Y95297D01*
X189142Y95326D01*
X189157Y95341D01*
X189303Y95692D01*
X189405Y96072D01*
X189493Y96467D01*
X189537Y96819D01*
X189552Y96994D01*
X189566Y97140D01*
X189581Y97287D01*
Y97404D01*
X189596Y97506D01*
Y97579D01*
Y97623D01*
Y97638D01*
X189566Y98150D01*
X189508Y98618D01*
X189478Y98837D01*
X189435Y99028D01*
X189391Y99218D01*
X189332Y99379D01*
X189288Y99540D01*
X189244Y99671D01*
X189200Y99789D01*
X189157Y99876D01*
X189127Y99949D01*
X189098Y100008D01*
X189083Y100037D01*
Y100052D01*
X188966Y100242D01*
X188849Y100403D01*
X188718Y100549D01*
X188586Y100681D01*
X188454Y100783D01*
X188323Y100871D01*
X188191Y100944D01*
X188059Y101003D01*
X187825Y101076D01*
X187723Y101105D01*
X187650Y101120D01*
X187577Y101135D01*
D02*
G37*
%LPD*%
D30*
X528000Y59000D02*
Y69000D01*
X537000D01*
X551000D02*
X560000D01*
Y59000D02*
Y69000D01*
X266000Y203000D02*
X276000D01*
X266000D02*
Y212000D01*
Y226000D02*
Y235000D01*
X276000D01*
X199000Y183000D02*
X209000D01*
Y174000D02*
Y183000D01*
X189000Y109000D02*
Y119000D01*
X180000Y109000D02*
X189000D01*
X157000D02*
X166000D01*
X157000D02*
Y119000D01*
X122500Y113000D02*
X139500D01*
X137500Y103500D02*
X139500D01*
X122500D02*
X124500D01*
X137500Y132500D02*
X139500D01*
X122500D02*
X124500D01*
X139500Y103500D02*
Y132500D01*
X122500Y103500D02*
Y132500D01*
X136000Y31000D02*
X176000D01*
X136000Y9000D02*
Y31000D01*
Y9000D02*
X176000D01*
Y31000D01*
X351500Y134500D02*
Y140750D01*
Y134500D02*
X357750D01*
X388250D02*
X394500D01*
Y140750D01*
Y171250D02*
Y177500D01*
X388250D02*
X394500D01*
X351500Y171250D02*
Y177500D01*
X357750D01*
X351500Y140750D02*
X357750Y134500D01*
X171000Y85750D02*
Y87000D01*
X164000D02*
X171000D01*
X137000D02*
X144000D01*
X137000Y85750D02*
Y87000D01*
Y53000D02*
Y54250D01*
Y53000D02*
X144000D01*
X171000D02*
Y54250D01*
X164000Y53000D02*
X171000D01*
X287000Y85000D02*
Y95000D01*
X278000Y85000D02*
X287000D01*
X255000D02*
X264000D01*
X255000D02*
Y95000D01*
X190000Y37000D02*
Y72000D01*
X410000D01*
Y37000D02*
Y72000D01*
X209000Y152000D02*
Y160000D01*
X199000Y152000D02*
X209000D01*
D31*
X178750Y85500D02*
G03*
X178750Y85500I-1250J0D01*
G01*
X425000Y47000D02*
Y68500D01*
Y47000D02*
X515000D01*
Y68500D01*
Y113500D02*
Y136000D01*
X425000D02*
X515000D01*
X425000Y113500D02*
Y136000D01*
D57*
X140000Y147000D02*
X156000D01*
X140000D02*
Y148000D01*
X156000Y147000D02*
Y148000D01*
X140000Y171000D02*
X156000D01*
X190000Y37000D02*
X300000Y22000D01*
X410000Y37000D01*
D59*
X519000Y182000D02*
Y188000D01*
D103*
X128500Y147000D02*
G03*
X128500Y147000I-500J0D01*
G01*
D104*
X102924Y132018D02*
G03*
X78145Y142281I-10264J10264D01*
G01*
X108056Y126886D02*
G03*
X70887Y142281I-15396J15396D01*
G01*
X82396Y116257D02*
G03*
X107175Y105993I10264J-10264D01*
G01*
X77264Y121389D02*
G03*
X114433Y105993I15396J-15396D01*
G01*
X70887Y142281D02*
G03*
X92660Y120509I21773J0D01*
G01*
X78145Y142281D02*
G03*
X92660Y127766I14515J0D01*
G01*
X107175Y105993D02*
G03*
X92660Y120509I-14515J0D01*
G01*
X114433Y105993D02*
G03*
X92660Y127766I-21773J0D01*
G01*
X107175Y142281D02*
G03*
X107175Y142281I-14515J0D01*
G01*
X77264Y121389D02*
X82396Y116257D01*
X102924Y132018D02*
X108056Y126886D01*
X78145Y142281D02*
X107175D01*
X80090Y98736D02*
X105231D01*
X90631Y115458D02*
X92437Y116292D01*
X94304Y115604D01*
X95138Y113798D01*
X94450Y111932D02*
X95138Y113798D01*
X92644Y111098D02*
X94450Y111932D01*
X90778Y111785D02*
X92644Y111098D01*
X89944Y113591D02*
X90778Y111785D01*
X89944Y113591D02*
X90631Y115458D01*
Y106495D02*
X92437Y107329D01*
X94304Y106642D01*
X95138Y104836D01*
X94450Y102969D02*
X95138Y104836D01*
X92644Y102135D02*
X94450Y102969D01*
X90778Y102823D02*
X92644Y102135D01*
X89944Y104629D02*
X90778Y102823D01*
X89944Y104629D02*
X90631Y106495D01*
M02*
