G04 Layer_Color=8421504*
%FSLAX44Y44*%
%MOMM*%
G71*
G01*
G75*
%ADD10R,0.9000X0.8000*%
%ADD11R,0.8000X0.9000*%
%ADD12R,0.5000X0.6000*%
%ADD13R,0.6000X0.5000*%
%ADD14R,1.8000X1.9000*%
%ADD15R,0.4000X1.3500*%
%ADD16R,0.6500X0.9000*%
%ADD17R,0.6500X1.1000*%
G04:AMPARAMS|DCode=18|XSize=1.2mm|YSize=1.3mm|CornerRadius=0mm|HoleSize=0mm|Usage=FLASHONLY|Rotation=315.000|XOffset=0mm|YOffset=0mm|HoleType=Round|Shape=Rectangle|*
%AMROTATEDRECTD18*
4,1,4,-0.8839,-0.0354,0.0354,0.8839,0.8839,0.0354,-0.0354,-0.8839,-0.8839,-0.0354,0.0*
%
%ADD18ROTATEDRECTD18*%

G04:AMPARAMS|DCode=19|XSize=1.3mm|YSize=1.4mm|CornerRadius=0mm|HoleSize=0mm|Usage=FLASHONLY|Rotation=315.000|XOffset=0mm|YOffset=0mm|HoleType=Round|Shape=Rectangle|*
%AMROTATEDRECTD19*
4,1,4,-0.9546,-0.0354,0.0354,0.9546,0.9546,0.0354,-0.0354,-0.9546,-0.9546,-0.0354,0.0*
%
%ADD19ROTATEDRECTD19*%

%ADD20R,0.8500X1.2000*%
%ADD21R,1.2000X0.8500*%
%ADD22R,1.5000X1.4000*%
%ADD23R,0.3000X1.2000*%
%ADD24R,1.1000X0.3000*%
%ADD25R,1.2000X0.3000*%
%ADD26R,1.5000X0.5500*%
%ADD27R,4.0000X4.0000*%
%ADD28R,2.1000X0.9000*%
%ADD29R,0.9000X2.1000*%
G36*
X345825Y222950D02*
X326378D01*
X325276Y223407D01*
X324432Y224251D01*
X323975Y225353D01*
Y225950D01*
Y236950D01*
Y237945D01*
X324736Y239782D01*
X326143Y241189D01*
X327980Y241950D01*
X345825D01*
Y222950D01*
D02*
G37*
G36*
X418857Y241189D02*
X420264Y239782D01*
X421025Y237945D01*
Y236950D01*
Y225950D01*
Y225353D01*
X420568Y224251D01*
X419724Y223407D01*
X418622Y222950D01*
X399175D01*
Y241950D01*
X417020D01*
X418857Y241189D01*
D02*
G37*
D10*
X393000Y125998D02*
D03*
Y111998D02*
D03*
X366000Y62002D02*
D03*
Y48002D02*
D03*
X379000Y62002D02*
D03*
Y48002D02*
D03*
X392000Y62002D02*
D03*
Y48002D02*
D03*
D11*
X407002Y140000D02*
D03*
X393002D02*
D03*
X476998Y93000D02*
D03*
X490998D02*
D03*
D12*
X408000Y128000D02*
D03*
Y118000D02*
D03*
X396000Y164000D02*
D03*
Y154000D02*
D03*
X463000Y54000D02*
D03*
Y64000D02*
D03*
X434000Y236000D02*
D03*
Y226000D02*
D03*
X381000Y107000D02*
D03*
Y117000D02*
D03*
X352500Y50000D02*
D03*
Y60000D02*
D03*
X372000Y107000D02*
D03*
Y117000D02*
D03*
X443000Y226000D02*
D03*
Y236000D02*
D03*
X463000Y74000D02*
D03*
Y84000D02*
D03*
X340000Y92000D02*
D03*
Y82000D02*
D03*
D13*
X510000Y24000D02*
D03*
X520000D02*
D03*
X354000Y141000D02*
D03*
X364000D02*
D03*
X334000D02*
D03*
X344000D02*
D03*
X520000Y15000D02*
D03*
X510000D02*
D03*
X270000Y234000D02*
D03*
X280000D02*
D03*
X490000Y24000D02*
D03*
X500000D02*
D03*
X480000Y118000D02*
D03*
X470000D02*
D03*
X480000Y109000D02*
D03*
X470000D02*
D03*
X162000Y13000D02*
D03*
X152000D02*
D03*
X172000Y13000D02*
D03*
X182000D02*
D03*
D14*
X361000Y232450D02*
D03*
X384000D02*
D03*
D15*
X385500Y204400D02*
D03*
X359500D02*
D03*
X379000D02*
D03*
X372500D02*
D03*
X366000D02*
D03*
D16*
X358500Y129375D02*
D03*
X339500D02*
D03*
X339500Y152625D02*
D03*
X358500D02*
D03*
D17*
X349000Y108625D02*
D03*
Y173375D02*
D03*
D18*
X553482Y157624D02*
D03*
X477115Y233991D02*
D03*
D19*
X442467Y179544D02*
D03*
X460321Y161690D02*
D03*
X481181Y140830D02*
D03*
X499035Y122976D02*
D03*
D20*
X524491Y250962D02*
D03*
D21*
X570453Y205000D02*
D03*
D22*
X482500Y55000D02*
D03*
X547500D02*
D03*
D23*
X434000Y140750D02*
D03*
X439000D02*
D03*
X444000D02*
D03*
Y111250D02*
D03*
X439000D02*
D03*
X434000D02*
D03*
D24*
X453500Y136000D02*
D03*
Y116000D02*
D03*
D25*
Y131000D02*
D03*
Y126000D02*
D03*
Y121000D02*
D03*
X424500Y116000D02*
D03*
Y121000D02*
D03*
Y126000D02*
D03*
Y131000D02*
D03*
Y136000D02*
D03*
D26*
X446000Y66750D02*
D03*
Y79250D02*
D03*
Y91750D02*
D03*
X424000Y54250D02*
D03*
X446000D02*
D03*
X424000Y66750D02*
D03*
Y79250D02*
D03*
Y91750D02*
D03*
D27*
X207500Y131349D02*
D03*
D28*
X313500Y181499D02*
D03*
Y168799D02*
D03*
Y156099D02*
D03*
Y143399D02*
D03*
Y130699D02*
D03*
Y117999D02*
D03*
Y105299D02*
D03*
Y92599D02*
D03*
Y79899D02*
D03*
Y67199D02*
D03*
D29*
X133400Y34599D02*
D03*
X146100D02*
D03*
X158800D02*
D03*
X171500D02*
D03*
X184200D02*
D03*
X196900D02*
D03*
X209600D02*
D03*
X222300D02*
D03*
X235000D02*
D03*
X247700D02*
D03*
X260400D02*
D03*
X273100D02*
D03*
X285800D02*
D03*
X298500D02*
D03*
Y214349D02*
D03*
X285800D02*
D03*
X273100D02*
D03*
X260400D02*
D03*
X247700D02*
D03*
X235000D02*
D03*
X222300D02*
D03*
X209600D02*
D03*
X196900D02*
D03*
X184200D02*
D03*
X171500D02*
D03*
X158800D02*
D03*
X146100D02*
D03*
X133400D02*
D03*
M02*
