G04 Layer_Color=8388736*
%FSLAX44Y44*%
%MOMM*%
G71*
G01*
G75*
G04:AMPARAMS|DCode=19|XSize=1.3mm|YSize=1.4mm|CornerRadius=0mm|HoleSize=0mm|Usage=FLASHONLY|Rotation=315.000|XOffset=0mm|YOffset=0mm|HoleType=Round|Shape=Rectangle|*
%AMROTATEDRECTD19*
4,1,4,-0.9546,-0.0354,0.0354,0.9546,0.9546,0.0354,-0.0354,-0.9546,-0.9546,-0.0354,0.0*
%
%ADD19ROTATEDRECTD19*%

%ADD52C,0.1500*%
%ADD57R,1.0000X0.9000*%
%ADD58R,0.9000X1.0000*%
%ADD59R,0.6000X0.7000*%
%ADD60R,0.7000X0.6000*%
%ADD61R,1.9000X2.0000*%
%ADD62R,0.5000X1.4500*%
%ADD63R,0.7500X1.0000*%
%ADD64R,0.7500X1.2000*%
G04:AMPARAMS|DCode=65|XSize=1.4mm|YSize=1.5mm|CornerRadius=0mm|HoleSize=0mm|Usage=FLASHONLY|Rotation=315.000|XOffset=0mm|YOffset=0mm|HoleType=Round|Shape=Rectangle|*
%AMROTATEDRECTD65*
4,1,4,-1.0253,-0.0354,0.0354,1.0253,1.0253,0.0354,-0.0354,-1.0253,-1.0253,-0.0354,0.0*
%
%ADD65ROTATEDRECTD65*%

%ADD66R,0.9500X1.3000*%
%ADD67R,1.3000X0.9500*%
%ADD68R,1.6000X1.5000*%
%ADD69R,0.4000X1.3000*%
%ADD70R,1.2000X0.4000*%
%ADD71R,1.3000X0.4000*%
%ADD72R,1.6000X0.6500*%
%ADD73R,4.1000X4.1000*%
%ADD74R,2.2000X1.0000*%
%ADD75R,1.0000X2.2000*%
%ADD76C,4.1000*%
%ADD77O,1.1500X1.3500*%
%ADD78C,0.1000*%
%ADD79C,0.7000*%
G36*
X169029Y235783D02*
X169088Y235769D01*
X169175Y235739D01*
X169249Y235710D01*
X169336Y235652D01*
X169424Y235578D01*
X169439Y235564D01*
X169468Y235549D01*
X169497Y235505D01*
X169541Y235447D01*
X169629Y235286D01*
X169643Y235198D01*
X169658Y235096D01*
Y235081D01*
Y235037D01*
X169643Y234979D01*
X169629Y234905D01*
X167742Y228278D01*
Y228263D01*
X167712Y228219D01*
X167668Y228146D01*
X167610Y228073D01*
X167507Y228000D01*
X167376Y227927D01*
X167215Y227883D01*
X166995Y227868D01*
X166908D01*
X166805Y227883D01*
X166688Y227912D01*
X166556Y227956D01*
X166439Y228015D01*
X166337Y228102D01*
X166278Y228219D01*
X164186Y234876D01*
Y234891D01*
X164172Y234949D01*
X164157Y235023D01*
Y235110D01*
Y235125D01*
Y235154D01*
X164172Y235213D01*
X164186Y235286D01*
X164245Y235432D01*
X164289Y235520D01*
X164362Y235593D01*
X164377Y235608D01*
X164406Y235622D01*
X164435Y235652D01*
X164494Y235696D01*
X164655Y235769D01*
X164742Y235783D01*
X164845Y235798D01*
X164918D01*
X165006Y235783D01*
X165108Y235754D01*
X165210Y235696D01*
X165298Y235637D01*
X165386Y235535D01*
X165430Y235403D01*
X166981Y230121D01*
X168312Y235286D01*
Y235315D01*
X168341Y235374D01*
X168385Y235447D01*
X168444Y235549D01*
X168517Y235637D01*
X168634Y235725D01*
X168766Y235783D01*
X168927Y235798D01*
X168971D01*
X169029Y235783D01*
D02*
G37*
G36*
X172379Y229668D02*
X172453Y229653D01*
X172555Y229624D01*
X172643Y229580D01*
X172745Y229522D01*
X172847Y229434D01*
X172862Y229419D01*
X172891Y229390D01*
X172921Y229331D01*
X172979Y229273D01*
X173023Y229185D01*
X173052Y229083D01*
X173082Y228980D01*
X173096Y228863D01*
Y228848D01*
Y228805D01*
X173082Y228746D01*
X173067Y228658D01*
X173038Y228571D01*
X172994Y228468D01*
X172935Y228366D01*
X172847Y228278D01*
X172833Y228263D01*
X172804Y228249D01*
X172745Y228205D01*
X172687Y228161D01*
X172599Y228117D01*
X172496Y228088D01*
X172379Y228058D01*
X172248Y228044D01*
X172189D01*
X172131Y228058D01*
X172043Y228073D01*
X171955Y228102D01*
X171853Y228132D01*
X171750Y228190D01*
X171663Y228263D01*
X171648Y228278D01*
X171633Y228307D01*
X171589Y228351D01*
X171545Y228424D01*
X171502Y228512D01*
X171472Y228615D01*
X171443Y228731D01*
X171428Y228863D01*
Y228878D01*
Y228922D01*
X171443Y228980D01*
X171458Y229053D01*
X171487Y229141D01*
X171531Y229244D01*
X171589Y229331D01*
X171663Y229434D01*
X171677Y229448D01*
X171706Y229478D01*
X171750Y229507D01*
X171823Y229565D01*
X171911Y229609D01*
X172014Y229639D01*
X172116Y229668D01*
X172248Y229683D01*
X172306D01*
X172379Y229668D01*
D02*
G37*
G36*
X162167Y235769D02*
X162270Y235754D01*
X162401Y235696D01*
X162533Y235622D01*
X162650Y235491D01*
X162723Y235330D01*
X162738Y235213D01*
X162753Y235096D01*
Y235067D01*
X162738Y234993D01*
X162723Y234876D01*
X162665Y234759D01*
X162577Y234627D01*
X162460Y234510D01*
X162284Y234437D01*
X162167Y234423D01*
X162050Y234408D01*
X158832D01*
Y232974D01*
X161875D01*
X161948Y232960D01*
X162065Y232945D01*
X162197Y232887D01*
X162314Y232799D01*
X162431Y232682D01*
X162504Y232506D01*
X162533Y232389D01*
Y232272D01*
Y232243D01*
X162519Y232170D01*
X162504Y232053D01*
X162445Y231936D01*
X162372Y231804D01*
X162241Y231687D01*
X162080Y231614D01*
X161963Y231599D01*
X161845Y231584D01*
X158832D01*
Y229390D01*
X162080D01*
X162167Y229375D01*
X162270Y229361D01*
X162401Y229302D01*
X162533Y229214D01*
X162650Y229097D01*
X162723Y228922D01*
X162738Y228805D01*
X162753Y228688D01*
Y228658D01*
X162738Y228585D01*
X162723Y228468D01*
X162665Y228351D01*
X162577Y228219D01*
X162460Y228102D01*
X162284Y228029D01*
X162167Y228015D01*
X162050Y228000D01*
X157486D01*
Y235783D01*
X162080D01*
X162167Y235769D01*
D02*
G37*
G36*
X153243Y237437D02*
X153345D01*
X153448Y237407D01*
X153711Y237363D01*
X154018Y237276D01*
X154340Y237144D01*
X154501Y237056D01*
X154677Y236968D01*
X154823Y236851D01*
X154984Y236720D01*
X154998Y236705D01*
X155028Y236676D01*
X155057Y236632D01*
X155115Y236573D01*
X155174Y236500D01*
X155247Y236398D01*
X155335Y236281D01*
X155408Y236164D01*
X155481Y236017D01*
X155569Y235856D01*
X155701Y235505D01*
X155759Y235301D01*
X155803Y235096D01*
X155818Y234876D01*
X155832Y234642D01*
Y234627D01*
Y234584D01*
X155818Y234496D01*
Y234394D01*
X155788Y234276D01*
X155774Y234130D01*
X155730Y233984D01*
X155686Y233808D01*
X155613Y233633D01*
X155540Y233442D01*
X155437Y233252D01*
X155320Y233062D01*
X155189Y232887D01*
X155013Y232711D01*
X154838Y232535D01*
X154618Y232389D01*
X154603Y232374D01*
X154545Y232316D01*
X154443Y232243D01*
X154325Y232170D01*
X154164Y232082D01*
X153989Y232009D01*
X153770Y231950D01*
X153535Y231936D01*
X155701Y228995D01*
Y228980D01*
X155715Y228966D01*
X155774Y228878D01*
X155818Y228746D01*
X155832Y228600D01*
Y228585D01*
Y228556D01*
X155818Y228497D01*
X155803Y228439D01*
X155774Y228351D01*
X155745Y228278D01*
X155686Y228190D01*
X155613Y228102D01*
X155598Y228088D01*
X155569Y228073D01*
X155525Y228044D01*
X155467Y228000D01*
X155306Y227927D01*
X155218Y227912D01*
X155115Y227898D01*
X155057D01*
X154998Y227912D01*
X154925Y227941D01*
X154838Y227971D01*
X154750Y228029D01*
X154662Y228102D01*
X154574Y228205D01*
X151941Y231936D01*
X150390D01*
Y228600D01*
Y228585D01*
Y228571D01*
X150375Y228497D01*
X150361Y228380D01*
X150302Y228249D01*
X150214Y228117D01*
X150097Y228015D01*
X149922Y227927D01*
X149805Y227912D01*
X149688Y227898D01*
X149658D01*
X149585Y227912D01*
X149468Y227941D01*
X149351Y227985D01*
X149219Y228073D01*
X149102Y228190D01*
X149029Y228366D01*
X149015Y228483D01*
X149000Y228600D01*
Y237451D01*
X153155D01*
X153243Y237437D01*
D02*
G37*
G36*
X179504Y237524D02*
X179636Y237495D01*
X179768Y237437D01*
X179899Y237363D01*
X180016Y237246D01*
X180104Y237085D01*
X183308Y228805D01*
X183323Y228775D01*
X183337Y228717D01*
X183352Y228629D01*
X183367Y228527D01*
Y228512D01*
Y228483D01*
X183352Y228424D01*
X183337Y228366D01*
X183308Y228293D01*
X183279Y228219D01*
X183221Y228132D01*
X183147Y228058D01*
X183133D01*
X183103Y228029D01*
X183060Y228000D01*
X183001Y227971D01*
X182840Y227912D01*
X182752Y227898D01*
X182650Y227883D01*
X182577D01*
X182489Y227912D01*
X182387Y227941D01*
X182284Y227985D01*
X182182Y228058D01*
X182079Y228161D01*
X182006Y228307D01*
X181494Y229609D01*
X177251D01*
X176754Y228307D01*
X176739Y228293D01*
X176725Y228249D01*
X176681Y228176D01*
X176622Y228102D01*
X176534Y228015D01*
X176417Y227956D01*
X176286Y227898D01*
X176125Y227883D01*
X176081D01*
X176022Y227898D01*
X175949Y227912D01*
X175788Y227956D01*
X175700Y228000D01*
X175613Y228058D01*
X175598Y228073D01*
X175583Y228088D01*
X175554Y228132D01*
X175510Y228190D01*
X175437Y228337D01*
X175422Y228439D01*
X175408Y228541D01*
Y228571D01*
Y228629D01*
X175422Y228702D01*
X175437Y228790D01*
X178524Y237027D01*
X178539Y237056D01*
X178568Y237115D01*
X178612Y237188D01*
X178700Y237290D01*
X178802Y237393D01*
X178934Y237466D01*
X179095Y237524D01*
X179300Y237554D01*
X179402D01*
X179504Y237524D01*
D02*
G37*
G36*
X417118Y242443D02*
X417212Y242414D01*
X419049Y241653D01*
X419050Y241653D01*
X419136Y241607D01*
X419212Y241544D01*
X420619Y240138D01*
X420682Y240061D01*
X420728Y239975D01*
X421489Y238137D01*
X421518Y238043D01*
X421527Y237945D01*
Y236950D01*
Y225950D01*
Y225353D01*
D01*
Y225353D01*
X421518Y225255D01*
X421489Y225161D01*
X421032Y224058D01*
X420986Y223972D01*
X420924Y223895D01*
X420080Y223051D01*
X420004Y222989D01*
X419917Y222943D01*
X419916Y222943D01*
X418814Y222486D01*
X418720Y222457D01*
X418622Y222448D01*
X399175D01*
X399077Y222457D01*
X398983Y222486D01*
X398896Y222532D01*
X398820Y222595D01*
X398757Y222671D01*
X398711Y222758D01*
X398682Y222852D01*
X398673Y222950D01*
Y241950D01*
X398682Y242048D01*
X398711Y242142D01*
X398757Y242229D01*
X398820Y242305D01*
X398896Y242368D01*
X398983Y242414D01*
X399077Y242443D01*
X399175Y242452D01*
X417020D01*
X417118Y242443D01*
D02*
G37*
G36*
X345923D02*
X346017Y242414D01*
X346104Y242368D01*
X346180Y242305D01*
X346243Y242229D01*
X346289Y242142D01*
X346318Y242048D01*
X346327Y241950D01*
Y222950D01*
X346318Y222852D01*
X346289Y222758D01*
X346243Y222671D01*
X346180Y222595D01*
X346104Y222532D01*
X346017Y222486D01*
X345923Y222457D01*
X345825Y222448D01*
X326378D01*
X326280Y222457D01*
X326186Y222486D01*
X325084Y222943D01*
X325083Y222943D01*
X324996Y222989D01*
X324920Y223051D01*
X324076Y223895D01*
X324014Y223972D01*
X323968Y224058D01*
X323511Y225161D01*
X323482Y225255D01*
X323473Y225353D01*
Y225950D01*
Y236950D01*
Y237945D01*
X323482Y238043D01*
X323511Y238137D01*
X324272Y239974D01*
X324272Y239975D01*
X324319Y240061D01*
X324381Y240138D01*
X325788Y241544D01*
X325864Y241607D01*
X325951Y241653D01*
X325951Y241653D01*
X327788Y242414D01*
X327882Y242443D01*
X327980Y242452D01*
X345825D01*
X345923Y242443D01*
D02*
G37*
G36*
X518590Y107389D02*
X518668Y107379D01*
X518756Y107340D01*
X518844Y107282D01*
X518912Y107204D01*
X518971Y107087D01*
X518980Y107009D01*
X518990Y106931D01*
Y103341D01*
Y103332D01*
X518980Y103293D01*
X518971Y103234D01*
X518941Y103176D01*
X518903Y103107D01*
X518834Y103059D01*
X518746Y103020D01*
X518629Y103000D01*
X518600D01*
X518561Y103010D01*
X518512D01*
X518395Y103039D01*
X518278Y103097D01*
X513626Y106063D01*
Y103488D01*
Y103468D01*
X513616Y103419D01*
X513596Y103341D01*
X513567Y103263D01*
X513509Y103176D01*
X513431Y103097D01*
X513314Y103049D01*
X513236Y103039D01*
X513158Y103029D01*
X513138D01*
X513080Y103039D01*
X513002Y103059D01*
X512914Y103088D01*
X512826Y103146D01*
X512758Y103224D01*
X512699Y103341D01*
X512689Y103410D01*
X512680Y103488D01*
Y106989D01*
Y107009D01*
Y107058D01*
X512699Y107116D01*
X512719Y107194D01*
X512748Y107272D01*
X512807Y107331D01*
X512875Y107379D01*
X512972Y107399D01*
X513002D01*
X513031Y107389D01*
X513070Y107379D01*
X513128Y107360D01*
X513206Y107331D01*
X513284Y107292D01*
X513382Y107233D01*
X518044Y104268D01*
Y106931D01*
Y106940D01*
Y106950D01*
X518054Y107009D01*
X518073Y107077D01*
X518103Y107165D01*
X518161Y107253D01*
X518249Y107331D01*
X518298Y107360D01*
X518366Y107379D01*
X518434Y107389D01*
X518522Y107399D01*
X518542D01*
X518590Y107389D01*
D02*
G37*
G36*
X501668Y104750D02*
X501707Y104740D01*
X501756Y104721D01*
X501815Y104691D01*
X501873Y104653D01*
X501922Y104604D01*
X501932Y104594D01*
X501941Y104574D01*
X501961Y104545D01*
X501990Y104506D01*
X502039Y104399D01*
X502049Y104340D01*
X502058Y104272D01*
Y104262D01*
Y104233D01*
X502049Y104194D01*
X502029Y104136D01*
X502010Y104077D01*
X501971Y104018D01*
X501922Y103960D01*
X501854Y103901D01*
X499386Y102380D01*
X501854Y100849D01*
X501864Y100839D01*
X501883Y100819D01*
X501922Y100790D01*
X501951Y100751D01*
X501990Y100702D01*
X502029Y100634D01*
X502049Y100566D01*
X502058Y100478D01*
Y100468D01*
Y100449D01*
X502049Y100410D01*
X502039Y100371D01*
X502000Y100263D01*
X501971Y100205D01*
X501932Y100146D01*
X501922Y100137D01*
X501903Y100127D01*
X501873Y100098D01*
X501834Y100078D01*
X501737Y100020D01*
X501668Y100010D01*
X501600Y100000D01*
X501581D01*
X501522Y100010D01*
X501444Y100029D01*
X501356Y100068D01*
X498586Y101853D01*
X496401Y100507D01*
X496392D01*
X496382Y100497D01*
X496323Y100468D01*
X496245Y100429D01*
X496148Y100419D01*
X496119D01*
X496080Y100429D01*
X496041Y100439D01*
X495992Y100458D01*
X495933Y100478D01*
X495875Y100517D01*
X495826Y100566D01*
X495816Y100576D01*
X495807Y100595D01*
X495777Y100624D01*
X495748Y100663D01*
X495699Y100780D01*
X495689Y100839D01*
X495680Y100907D01*
Y100917D01*
Y100946D01*
X495689Y100985D01*
X495699Y101044D01*
X495728Y101092D01*
X495758Y101151D01*
X495807Y101209D01*
X495865Y101258D01*
X497806Y102390D01*
X495865Y103511D01*
X495855Y103521D01*
X495836Y103531D01*
X495807Y103560D01*
X495768Y103599D01*
X495738Y103648D01*
X495709Y103706D01*
X495689Y103775D01*
X495680Y103853D01*
Y103862D01*
Y103882D01*
X495689Y103921D01*
X495699Y103970D01*
X495719Y104018D01*
X495738Y104077D01*
X495777Y104136D01*
X495826Y104194D01*
X495836Y104204D01*
X495845Y104223D01*
X495875Y104243D01*
X495914Y104272D01*
X496021Y104331D01*
X496080Y104340D01*
X496148Y104350D01*
X496167D01*
X496226Y104340D01*
X496304Y104321D01*
X496401Y104272D01*
X498586Y102916D01*
X501356Y104682D01*
X501366D01*
X501376Y104691D01*
X501434Y104721D01*
X501512Y104750D01*
X501600Y104760D01*
X501629D01*
X501668Y104750D01*
D02*
G37*
G36*
X507226Y86672D02*
X507304Y86652D01*
X507392Y86613D01*
X510152Y84829D01*
X512629D01*
X512678Y84819D01*
X512756Y84809D01*
X512844Y84770D01*
X512932Y84712D01*
X513000Y84634D01*
X513059Y84516D01*
X513068Y84438D01*
X513078Y84360D01*
Y84341D01*
X513068Y84292D01*
X513049Y84214D01*
X513019Y84136D01*
X512961Y84048D01*
X512883Y83970D01*
X512766Y83921D01*
X512688Y83912D01*
X512610Y83902D01*
X510132D01*
X507411Y82078D01*
X507401D01*
X507392Y82068D01*
X507333Y82039D01*
X507245Y82010D01*
X507138Y82000D01*
X507109D01*
X507070Y82010D01*
X507021Y82020D01*
X506914Y82058D01*
X506855Y82088D01*
X506806Y82136D01*
X506797Y82146D01*
X506787Y82166D01*
X506767Y82195D01*
X506738Y82234D01*
X506689Y82332D01*
X506680Y82400D01*
X506670Y82468D01*
Y82478D01*
Y82507D01*
X506680Y82546D01*
X506699Y82595D01*
X506719Y82654D01*
X506758Y82712D01*
X506806Y82771D01*
X506875Y82829D01*
X509264Y84341D01*
X506904Y85814D01*
X506894Y85823D01*
X506865Y85843D01*
X506826Y85872D01*
X506787Y85911D01*
X506748Y85970D01*
X506709Y86028D01*
X506680Y86106D01*
X506670Y86184D01*
Y86194D01*
Y86214D01*
X506680Y86253D01*
X506689Y86301D01*
X506709Y86350D01*
X506728Y86409D01*
X506767Y86467D01*
X506816Y86526D01*
X506826Y86535D01*
X506836Y86555D01*
X506865Y86574D01*
X506904Y86604D01*
X507011Y86662D01*
X507080Y86672D01*
X507148Y86682D01*
X507167D01*
X507226Y86672D01*
D02*
G37*
G36*
X430420Y44106D02*
X430473Y44071D01*
X430543Y44001D01*
X430631Y43913D01*
X430719Y43808D01*
X430789Y43667D01*
X430842Y43527D01*
X430859Y43351D01*
Y43333D01*
Y43316D01*
X430842Y43228D01*
X430824Y43087D01*
X430789Y42929D01*
X430719Y42771D01*
X430631Y42648D01*
X430490Y42542D01*
X430402Y42525D01*
X430314Y42507D01*
X430244D01*
X430156Y42542D01*
X430033Y42577D01*
X429893Y42630D01*
X429699Y42718D01*
X429488Y42841D01*
X429260Y42999D01*
Y43509D01*
X429277Y43527D01*
X429348Y43597D01*
X429453Y43667D01*
X429576Y43773D01*
X429699Y43860D01*
X429822Y43948D01*
X429928Y44001D01*
X430016Y44019D01*
X430068D01*
X430191Y44036D01*
X430332Y44071D01*
X430367Y44089D01*
X430402Y44124D01*
X430420Y44106D01*
D02*
G37*
G36*
X427133Y41417D02*
X427274Y41400D01*
X427414Y41347D01*
X427555Y41277D01*
X427696Y41154D01*
X427783Y40978D01*
X427801Y40872D01*
X427819Y40749D01*
Y40732D01*
Y40697D01*
X427801Y40644D01*
X427783Y40591D01*
X427731Y40503D01*
X427678Y40415D01*
X427590Y40310D01*
X427485Y40204D01*
X427467Y40187D01*
X427432Y40169D01*
X427362Y40117D01*
X427274Y40081D01*
X427080Y39976D01*
X426957Y39958D01*
X426852Y39941D01*
X426817D01*
X426764Y39958D01*
X426659Y39976D01*
X426641D01*
X426571Y39994D01*
X426518Y40011D01*
X426483D01*
Y40029D01*
X426465Y40064D01*
X426430Y40117D01*
X426395Y40222D01*
Y40240D01*
X426377Y40257D01*
X426360Y40328D01*
X426342Y40433D01*
X426325Y40538D01*
Y40556D01*
Y40591D01*
X426342Y40661D01*
X426360Y40749D01*
X426413Y40943D01*
X426483Y41048D01*
X426553Y41154D01*
X426571Y41171D01*
X426588Y41206D01*
X426694Y41294D01*
X426834Y41400D01*
X426922Y41417D01*
X427010Y41435D01*
X427045D01*
X427133Y41417D01*
D02*
G37*
G36*
X430578Y40960D02*
X430701Y40943D01*
X430719Y40908D01*
X430754Y40837D01*
X430789Y40714D01*
X430842Y40574D01*
X430912Y40415D01*
X430947Y40240D01*
X430982Y40064D01*
X431000Y39906D01*
X430982Y39871D01*
X430947Y39783D01*
X430859Y39660D01*
X430824Y39624D01*
X430771Y39554D01*
X430719Y39466D01*
X430684Y39449D01*
Y39431D01*
X430666D01*
X430631Y39413D01*
X430561Y39396D01*
X430490Y39361D01*
X430297Y39308D01*
X430086Y39290D01*
X430051D01*
X429981Y39308D01*
X429857Y39343D01*
X429682Y39431D01*
X429664D01*
X429629Y39466D01*
X429524Y39536D01*
X429418Y39660D01*
X429383Y39730D01*
X429365Y39800D01*
Y39835D01*
X429383Y39906D01*
X429400Y40029D01*
Y40169D01*
X429418Y40310D01*
X429436Y40451D01*
X429453Y40574D01*
Y40644D01*
X429471Y40661D01*
X429506Y40697D01*
X429594Y40749D01*
X429699Y40820D01*
X429822Y40872D01*
X429981Y40925D01*
X430156Y40960D01*
X430367Y40978D01*
X430473D01*
X430578Y40960D01*
D02*
G37*
G36*
X427344Y38113D02*
X427414D01*
X427590Y38043D01*
X427696Y38007D01*
X427801Y37937D01*
X427819Y37902D01*
X427889Y37814D01*
X427994Y37673D01*
X428153Y37498D01*
X428188Y37480D01*
X428258Y37427D01*
X428381Y37357D01*
X428522Y37234D01*
X428539Y37216D01*
X428574Y37164D01*
X428627Y37076D01*
X428680Y36953D01*
X428768Y36812D01*
X428856Y36672D01*
X429049Y36320D01*
X429242Y35951D01*
X429418Y35617D01*
X429471Y35459D01*
X429524Y35318D01*
X429559Y35213D01*
X429576Y35125D01*
Y35107D01*
X429559Y35072D01*
X429524Y35019D01*
X429453Y34931D01*
X429611Y34791D01*
X429629Y34773D01*
X429682Y34703D01*
X429752Y34633D01*
X429770Y34580D01*
Y34562D01*
X429752Y34492D01*
X429734Y34474D01*
X429717Y34457D01*
Y34439D01*
Y34422D01*
X429734Y34386D01*
X429805Y34334D01*
X429840Y34299D01*
X429910Y34246D01*
Y33719D01*
X429805Y33842D01*
X429787Y33824D01*
X429752Y33771D01*
X429734Y33683D01*
X429717Y33543D01*
Y33508D01*
X429734Y33437D01*
X429752Y33314D01*
X429805Y33174D01*
X429822Y33209D01*
X429875Y33262D01*
X429945Y33349D01*
X429963Y33314D01*
X429998Y33244D01*
X430068Y33139D01*
X430139Y32998D01*
X430209Y32857D01*
X430279Y32717D01*
X430314Y32594D01*
X430332Y32488D01*
Y32471D01*
X430314Y32453D01*
X430297Y32400D01*
Y32383D01*
X430279Y32348D01*
Y32313D01*
Y32277D01*
X430297Y32242D01*
X430314Y32154D01*
X430350Y32102D01*
X430385Y32014D01*
Y31996D01*
X430402Y31978D01*
X430438Y31891D01*
X430473Y31803D01*
X430490Y31768D01*
Y31750D01*
Y31732D01*
Y31715D01*
X430473Y31627D01*
X430420Y31521D01*
X430332Y31451D01*
X430350Y31416D01*
X430402Y31346D01*
X430473Y31258D01*
X430490Y31205D01*
Y31188D01*
Y31152D01*
X430473Y31100D01*
Y31082D01*
X430455Y31065D01*
X430438Y30994D01*
Y30977D01*
Y30959D01*
X430455Y30889D01*
X430525Y30801D01*
X430561Y30783D01*
X430631Y30766D01*
X430648D01*
X430736Y30783D01*
X431387Y27743D01*
Y27725D01*
X431369Y27655D01*
X431334Y27549D01*
X431316Y27444D01*
X431281Y27338D01*
X431264Y27233D01*
X431246Y27145D01*
X431228Y27110D01*
Y27092D01*
X431211Y27057D01*
X431176Y27004D01*
X431141Y26934D01*
X431018Y26776D01*
X430947Y26723D01*
X430859Y26670D01*
X430367D01*
X430156Y26653D01*
X430121D01*
X430016Y26618D01*
X429857Y26582D01*
X429629Y26547D01*
X429348Y26512D01*
X429014Y26477D01*
X428627Y26459D01*
X428188Y26442D01*
X428117D01*
X428065Y26424D01*
X427994D01*
X427906Y26407D01*
X427871D01*
X427766Y26389D01*
X427678Y26372D01*
X427397D01*
X427221Y26389D01*
X427010Y26407D01*
X426764Y26424D01*
X426465Y26459D01*
X426131Y26512D01*
X426078D01*
X426008Y26495D01*
X425920Y26459D01*
X425903D01*
X425868Y26477D01*
X425780Y26495D01*
X425657Y26512D01*
X425499Y26547D01*
X425270Y26582D01*
X424989Y26618D01*
X424655Y26670D01*
X424620D01*
X424514Y26688D01*
X424356Y26706D01*
X424180Y26741D01*
X423987Y26758D01*
X423829Y26776D01*
X423688Y26793D01*
X423583D01*
X423495Y26776D01*
X423389Y26741D01*
X423266Y26670D01*
Y26653D01*
Y26635D01*
X423284Y26530D01*
X423301Y26372D01*
X423319Y26178D01*
Y26143D01*
X423301Y26073D01*
X423284Y25950D01*
X423231Y25827D01*
X423143Y25704D01*
X423038Y25580D01*
X422862Y25510D01*
X422633Y25475D01*
X422563D01*
X422493Y25493D01*
X422405Y25510D01*
X422229Y25563D01*
X422159Y25616D01*
X422106Y25686D01*
Y25704D01*
X422089Y25739D01*
X422053Y25791D01*
X422001Y25879D01*
X421948Y25985D01*
X421895Y26108D01*
X421825Y26266D01*
X421737Y26442D01*
X421649Y26653D01*
X421544Y26881D01*
X421438Y27145D01*
X421333Y27426D01*
X421210Y27725D01*
X421087Y28076D01*
X420964Y28446D01*
X420823Y28832D01*
Y28867D01*
X420806Y28938D01*
X420788Y29078D01*
X420770Y29254D01*
Y29272D01*
X420753Y29289D01*
X420735Y29395D01*
X420682Y29553D01*
X420630Y29781D01*
X420577Y30045D01*
X420489Y30361D01*
X420419Y30713D01*
X420331Y31100D01*
X420261Y31504D01*
X420173Y31943D01*
X420050Y32840D01*
X419944Y33771D01*
X419927Y34211D01*
X419909Y34650D01*
Y34685D01*
X419927Y34738D01*
X419944Y34791D01*
X419962Y34861D01*
Y34879D01*
Y34896D01*
X419979Y34984D01*
X419997Y35072D01*
X420014Y35107D01*
Y35125D01*
Y35160D01*
X420032Y35248D01*
X420050Y35406D01*
X420102Y35635D01*
X420173Y35898D01*
X420296Y36214D01*
X420454Y36566D01*
X420665Y36970D01*
X420700Y36988D01*
X420770Y37041D01*
X420893Y37111D01*
X421034Y37199D01*
X421192Y37269D01*
X421333Y37339D01*
X421473Y37392D01*
X421596Y37410D01*
X421632D01*
X421737Y37392D01*
X421895Y37375D01*
X422106Y37304D01*
X422352Y37199D01*
X422616Y37058D01*
X422897Y36847D01*
X423038Y36707D01*
X423178Y36566D01*
X423196Y36549D01*
X423249Y36478D01*
X423336Y36355D01*
X423389Y36285D01*
X423460Y36179D01*
X423547Y36056D01*
X423635Y35916D01*
X423741Y35758D01*
X423864Y35582D01*
X424004Y35371D01*
X424145Y35142D01*
X424303Y34896D01*
X424479Y34615D01*
X424497D01*
X424549Y34650D01*
X424567Y34685D01*
X424602Y34738D01*
X424637Y34808D01*
X424655Y34914D01*
Y34931D01*
X424672Y34984D01*
Y35072D01*
X424690Y35160D01*
X424707Y35265D01*
X424725Y35353D01*
Y35406D01*
X424743Y35441D01*
Y35459D01*
X424760Y35476D01*
X424795Y35547D01*
X424831Y35617D01*
X424866Y35652D01*
Y35670D01*
X424831Y35740D01*
Y35758D01*
X424813Y35775D01*
Y35810D01*
Y35828D01*
X424831Y35880D01*
X424848Y35951D01*
X424901Y36039D01*
Y36056D01*
X424918Y36127D01*
X424954Y36250D01*
X425024Y36390D01*
X425112Y36566D01*
X425235Y36777D01*
X425393Y37006D01*
X425586Y37252D01*
X425604Y37287D01*
X425692Y37357D01*
X425797Y37480D01*
X425956Y37621D01*
X426114Y37761D01*
X426307Y37884D01*
X426500Y37990D01*
X426694Y38060D01*
X426711D01*
X426746Y38078D01*
X426799D01*
X426887Y38095D01*
X427063Y38113D01*
X427256Y38130D01*
X427291D01*
X427344Y38113D01*
D02*
G37*
G36*
X424444Y26002D02*
X424497D01*
X424620Y25985D01*
X424778Y25967D01*
X424883Y25950D01*
X425006D01*
X425147Y25932D01*
X425305Y25914D01*
X425323D01*
X425340Y25879D01*
X425393Y25844D01*
X425463Y25774D01*
X425481Y25791D01*
X425534Y25809D01*
X425621D01*
X425709Y25774D01*
X425832Y25739D01*
X425973Y25668D01*
X426131Y25580D01*
X426289Y25440D01*
X426465Y25264D01*
X426553Y25088D01*
X426571Y25071D01*
X426588Y25036D01*
X426641Y24983D01*
X426676Y24965D01*
X426659D01*
X426641Y24948D01*
X426588Y24913D01*
X426518Y24842D01*
X426535Y24807D01*
X426588Y24737D01*
X426676Y24614D01*
X426799Y24456D01*
Y24473D01*
X426817Y24508D01*
X426852Y24561D01*
X426887Y24631D01*
X426905D01*
X426940Y24596D01*
X426975Y24561D01*
X427028Y24508D01*
X427098Y24438D01*
X427186Y24350D01*
X427203D01*
X427186Y24333D01*
X427168Y24315D01*
X427098Y24262D01*
X426975Y24192D01*
Y24016D01*
X427010Y23981D01*
X427045Y23928D01*
X427098Y23876D01*
X427256Y23700D01*
X427467Y23454D01*
X427485Y23471D01*
X427502Y23507D01*
X427537Y23559D01*
X427555Y23630D01*
Y23647D01*
Y23682D01*
X427537Y23735D01*
X427520Y23753D01*
X427555Y23735D01*
X427625Y23682D01*
X427696Y23630D01*
X427836Y23489D01*
X427889Y23401D01*
X427906Y23313D01*
X427871Y23278D01*
X427836Y23243D01*
X427783Y23190D01*
Y23208D01*
X427766Y23243D01*
X427731Y23296D01*
X427678Y23383D01*
X427520D01*
X427502Y23348D01*
X427485Y23313D01*
Y23260D01*
X428680Y21028D01*
Y21011D01*
X428662Y20958D01*
X428645Y20940D01*
X428627Y20905D01*
Y20887D01*
X428645Y20870D01*
X428680Y20817D01*
X428733Y20747D01*
X429225Y19235D01*
Y19218D01*
X429242Y19200D01*
X429277Y19095D01*
X429330Y18954D01*
X429400Y18796D01*
X429506Y18603D01*
X429594Y18427D01*
X429717Y18251D01*
X429840Y18128D01*
X429857Y18146D01*
X429875Y18181D01*
X429910Y18251D01*
X429928Y18339D01*
Y18356D01*
X429910Y18409D01*
X429893Y18462D01*
X429875Y18532D01*
X429840Y18620D01*
X429805Y18743D01*
Y18761D01*
X429787Y18796D01*
X429770Y18866D01*
X429752Y18919D01*
X429717Y19060D01*
X429699Y19112D01*
Y19147D01*
Y19165D01*
Y19218D01*
X429717Y19288D01*
X429734Y19376D01*
X429752Y19358D01*
X429770Y19270D01*
X429822Y19165D01*
X429893Y18989D01*
X429981Y18778D01*
X430086Y18515D01*
X430227Y18216D01*
X430367Y17864D01*
Y17847D01*
Y17776D01*
X430385Y17653D01*
X430402Y17495D01*
X430420Y17460D01*
X430438Y17390D01*
X430490Y17249D01*
X430543Y17091D01*
X430613Y16880D01*
X430684Y16669D01*
X430842Y16177D01*
Y16159D01*
X430859Y16089D01*
X430895Y15984D01*
X430930Y15843D01*
X430965Y15667D01*
X431018Y15474D01*
X431070Y15263D01*
X431105Y15035D01*
X431211Y14542D01*
X431299Y14050D01*
X431369Y13576D01*
X431387Y13365D01*
Y13171D01*
Y13136D01*
X431369Y13048D01*
X431316Y12890D01*
X431228Y12679D01*
Y12662D01*
X431193Y12626D01*
X431158Y12556D01*
X431123Y12486D01*
X431018Y12328D01*
X430965Y12257D01*
X430912Y12205D01*
X430877Y12187D01*
X430807Y12152D01*
X430666Y12099D01*
X430490Y12082D01*
X430473D01*
X430438Y12099D01*
X430385Y12117D01*
X430314Y12152D01*
X430244Y12222D01*
X430156Y12328D01*
X430068Y12468D01*
X429981Y12662D01*
Y12679D01*
X429998Y12732D01*
Y12750D01*
X430016Y12767D01*
X430033Y12802D01*
Y12820D01*
X430016Y12873D01*
X429981Y12960D01*
X429928Y13066D01*
Y13101D01*
X429910Y13171D01*
Y13277D01*
X429893Y13417D01*
X429857Y13716D01*
X429822Y13874D01*
X429805Y13997D01*
Y14015D01*
X429787Y14085D01*
X429770Y14173D01*
X429752Y14296D01*
X429682Y14542D01*
X429629Y14683D01*
X429594Y14788D01*
X429559D01*
X429488Y14771D01*
X429348Y14753D01*
X429190Y14736D01*
X428979Y14718D01*
X428750Y14683D01*
X428504Y14665D01*
X428258Y14630D01*
X427731Y14577D01*
X427485Y14542D01*
X427256Y14525D01*
X427045Y14507D01*
X426870Y14490D01*
X426711Y14472D01*
X426571D01*
X426535Y14490D01*
X426430D01*
X426289Y14507D01*
X426202Y14525D01*
X426078Y14542D01*
X425956Y14560D01*
X425797Y14577D01*
X425621Y14595D01*
X425428Y14613D01*
X425358D01*
X425288Y14630D01*
X425200D01*
X425094Y14648D01*
X424954Y14665D01*
X424672Y14683D01*
X424356Y14718D01*
X424040Y14736D01*
X423776Y14753D01*
X423653Y14771D01*
X423547D01*
X423512Y14788D01*
X423442Y14823D01*
X423354Y14876D01*
X423336D01*
X423301Y14859D01*
X423178Y14841D01*
X423143D01*
X423038Y14859D01*
X423020D01*
X422967Y14876D01*
X422897Y14894D01*
X422774Y14911D01*
X422598Y14964D01*
X422493Y14999D01*
X422370Y15017D01*
X422212Y15070D01*
X422053Y15105D01*
Y15122D01*
X422036Y15158D01*
X422001Y15228D01*
X421948Y15316D01*
X421930Y15280D01*
X421878Y15210D01*
X421842Y15122D01*
X421825Y15017D01*
Y14999D01*
X421842Y14929D01*
X421860Y14823D01*
X421878Y14753D01*
X421895Y14665D01*
X421930Y14542D01*
X421965Y14419D01*
X422001Y14261D01*
X422036Y14085D01*
X422089Y13874D01*
X422141Y13628D01*
X422440Y12240D01*
Y12205D01*
X422405Y12134D01*
X422370Y12064D01*
X422317Y11994D01*
X422247Y11906D01*
X422159Y11818D01*
X422141D01*
X422124Y11783D01*
X422036Y11712D01*
X421913Y11642D01*
X421878Y11625D01*
X421825Y11607D01*
X421772D01*
X421702Y11642D01*
X421632Y11677D01*
X421544Y11730D01*
X421438Y11818D01*
X421333Y11941D01*
X421227Y12099D01*
Y12117D01*
X421210Y12152D01*
X421175Y12222D01*
X421139Y12345D01*
X421087Y12503D01*
X421016Y12714D01*
X420964Y12855D01*
X420928Y13013D01*
X420876Y13171D01*
X420823Y13365D01*
Y13382D01*
X420806Y13435D01*
X420788Y13505D01*
X420770Y13593D01*
X420735Y13716D01*
X420700Y13857D01*
X420630Y14156D01*
X420559Y14490D01*
X420489Y14841D01*
X420454Y15158D01*
X420436Y15316D01*
Y15439D01*
Y19956D01*
Y19973D01*
X420454Y20009D01*
Y20044D01*
X420471Y20114D01*
X420507Y20220D01*
X420542Y20343D01*
Y20360D01*
X420559Y20413D01*
X420577Y20466D01*
Y20536D01*
X420612Y20694D01*
X420630Y20747D01*
Y20782D01*
Y20800D01*
X420647Y20887D01*
Y20993D01*
X420665Y21134D01*
X420682Y21292D01*
X420718Y21485D01*
X420770Y21872D01*
Y21889D01*
Y21925D01*
X420788Y21977D01*
X420806Y22048D01*
X420841Y22153D01*
X420858Y22259D01*
X420946Y22540D01*
X421069Y22856D01*
X421227Y23243D01*
X421438Y23647D01*
X421684Y24069D01*
Y24086D01*
X421720Y24122D01*
X421755Y24192D01*
X421825Y24262D01*
X421983Y24473D01*
X422176Y24719D01*
X422405Y24983D01*
X422669Y25247D01*
X422967Y25457D01*
X423108Y25545D01*
X423249Y25616D01*
X423284Y25633D01*
X423319Y25651D01*
X423389Y25686D01*
X423460Y25704D01*
X423565Y25756D01*
X423671Y25791D01*
X423811Y25844D01*
X423829D01*
X423899Y25879D01*
X423987Y25897D01*
X424075Y25932D01*
X424286Y25985D01*
X424374Y26020D01*
X424409D01*
X424444Y26002D01*
D02*
G37*
G36*
X428223Y22786D02*
X428240Y22768D01*
X428258Y22715D01*
X428311Y22645D01*
X428328D01*
X428346Y22663D01*
X428363Y22698D01*
Y22434D01*
X428328Y22469D01*
X428276Y22592D01*
X428205Y22715D01*
X428188Y22751D01*
X428179Y22759D01*
X428223Y22803D01*
Y22786D01*
D02*
G37*
G36*
X428522Y22206D02*
X428539Y22171D01*
X428557Y22118D01*
X428592Y22048D01*
X428627Y21960D01*
Y21942D01*
X428645Y21925D01*
X428680Y21837D01*
X428715Y21731D01*
X428733Y21696D01*
Y21679D01*
Y21661D01*
Y21626D01*
Y21520D01*
X428750Y21415D01*
Y21362D01*
X428768Y21344D01*
Y21362D01*
X428785Y21397D01*
X428803Y21450D01*
Y21520D01*
X428820Y21503D01*
X428856Y21432D01*
X428891Y21344D01*
X428943Y21239D01*
X429014Y21081D01*
X429084Y20905D01*
X429154Y20677D01*
X429137D01*
X429102Y20694D01*
X429049Y20747D01*
X428979Y20800D01*
X428891Y20870D01*
X428820Y20993D01*
X428750Y21134D01*
X428680Y21309D01*
X428434Y22100D01*
X428451Y22118D01*
X428469Y22153D01*
X428487Y22206D01*
X428504Y22241D01*
X428522Y22206D01*
D02*
G37*
G36*
X429242Y20466D02*
X429260Y20413D01*
X429295Y20360D01*
X429330Y20272D01*
X429365Y20167D01*
X429154D01*
X429207Y20501D01*
X429242Y20466D01*
D02*
G37*
G36*
X429611Y19640D02*
X429664Y19569D01*
X429682Y19517D01*
X429717Y19446D01*
X429699D01*
X429647Y19481D01*
X429594Y19534D01*
X429576Y19587D01*
Y19657D01*
X429594D01*
X429611Y19640D01*
D02*
G37*
G36*
X427133Y10816D02*
X427274Y10798D01*
X427414Y10746D01*
X427555Y10675D01*
X427696Y10552D01*
X427783Y10377D01*
X427801Y10271D01*
X427819Y10148D01*
Y10130D01*
Y10095D01*
X427801Y10043D01*
X427783Y9990D01*
X427731Y9902D01*
X427678Y9814D01*
X427590Y9709D01*
X427485Y9603D01*
X427467Y9586D01*
X427432Y9568D01*
X427362Y9515D01*
X427274Y9480D01*
X427080Y9375D01*
X426957Y9357D01*
X426852Y9340D01*
X426817D01*
X426764Y9357D01*
X426659Y9375D01*
X426641D01*
X426571Y9392D01*
X426518Y9410D01*
X426483D01*
Y9427D01*
X426465Y9463D01*
X426430Y9515D01*
X426395Y9621D01*
Y9638D01*
X426377Y9656D01*
X426360Y9726D01*
X426342Y9832D01*
X426325Y9937D01*
Y9955D01*
Y9990D01*
X426342Y10060D01*
X426360Y10148D01*
X426413Y10342D01*
X426483Y10447D01*
X426553Y10552D01*
X426571Y10570D01*
X426588Y10605D01*
X426694Y10693D01*
X426834Y10798D01*
X426922Y10816D01*
X427010Y10834D01*
X427045D01*
X427133Y10816D01*
D02*
G37*
G36*
X430578Y10359D02*
X430701Y10342D01*
X430719Y10306D01*
X430754Y10236D01*
X430789Y10113D01*
X430842Y9972D01*
X430912Y9814D01*
X430947Y9638D01*
X430982Y9463D01*
X431000Y9304D01*
X430982Y9269D01*
X430947Y9181D01*
X430859Y9058D01*
X430824Y9023D01*
X430771Y8953D01*
X430719Y8865D01*
X430684Y8847D01*
Y8830D01*
X430666D01*
X430631Y8812D01*
X430561Y8795D01*
X430490Y8759D01*
X430297Y8707D01*
X430086Y8689D01*
X430051D01*
X429981Y8707D01*
X429857Y8742D01*
X429682Y8830D01*
X429664D01*
X429629Y8865D01*
X429524Y8935D01*
X429418Y9058D01*
X429383Y9129D01*
X429365Y9199D01*
Y9234D01*
X429383Y9304D01*
X429400Y9427D01*
Y9568D01*
X429418Y9709D01*
X429436Y9849D01*
X429453Y9972D01*
Y10043D01*
X429471Y10060D01*
X429506Y10095D01*
X429594Y10148D01*
X429699Y10218D01*
X429822Y10271D01*
X429981Y10324D01*
X430156Y10359D01*
X430367Y10377D01*
X430473D01*
X430578Y10359D01*
D02*
G37*
G36*
X430420Y7582D02*
X430473Y7547D01*
X430543Y7476D01*
X430631Y7389D01*
X430719Y7283D01*
X430789Y7143D01*
X430842Y7002D01*
X430859Y6826D01*
Y6809D01*
Y6791D01*
X430842Y6703D01*
X430824Y6562D01*
X430789Y6404D01*
X430719Y6246D01*
X430631Y6123D01*
X430490Y6018D01*
X430402Y6000D01*
X430314Y5982D01*
X430244D01*
X430156Y6018D01*
X430033Y6053D01*
X429893Y6105D01*
X429699Y6193D01*
X429488Y6316D01*
X429260Y6475D01*
Y6984D01*
X429277Y7002D01*
X429348Y7072D01*
X429453Y7143D01*
X429576Y7248D01*
X429699Y7336D01*
X429822Y7424D01*
X429928Y7476D01*
X430016Y7494D01*
X430068D01*
X430191Y7512D01*
X430332Y7547D01*
X430367Y7564D01*
X430402Y7599D01*
X430420Y7582D01*
D02*
G37*
%LPC*%
G36*
X153053Y236061D02*
X150390D01*
Y233355D01*
X153579D01*
X153623Y233369D01*
X153696Y233384D01*
X153770Y233413D01*
X153857Y233457D01*
X153960Y233516D01*
X154062Y233589D01*
X154077Y233603D01*
X154121Y233662D01*
X154194Y233735D01*
X154267Y233852D01*
X154325Y234013D01*
X154399Y234189D01*
X154443Y234394D01*
X154457Y234642D01*
Y234657D01*
Y234671D01*
Y234745D01*
X154443Y234876D01*
X154399Y235023D01*
X154355Y235184D01*
X154282Y235359D01*
X154179Y235535D01*
X154033Y235696D01*
X154018Y235710D01*
X153960Y235754D01*
X153872Y235813D01*
X153770Y235886D01*
X153623Y235944D01*
X153448Y236003D01*
X153257Y236047D01*
X153053Y236061D01*
D02*
G37*
G36*
X179314Y235491D02*
X177734Y231028D01*
X181026D01*
X179314Y235491D01*
D02*
G37*
G36*
X429260Y34914D02*
Y34685D01*
X429277Y34668D01*
X429313Y34685D01*
X429365Y34738D01*
X429453Y34826D01*
X429436D01*
X429383Y34843D01*
X429330Y34861D01*
X429260Y34914D01*
D02*
G37*
G36*
X430279Y32629D02*
X430033Y32576D01*
Y32559D01*
X430051Y32506D01*
X430086Y32436D01*
X430139Y32348D01*
X430156Y32365D01*
X430174Y32383D01*
X430279Y32418D01*
Y32629D01*
D02*
G37*
G36*
X421667Y35986D02*
X421632Y35968D01*
X421596Y35951D01*
X421561Y35916D01*
X421508Y35828D01*
X421456Y35722D01*
X421385Y35582D01*
X421333Y35371D01*
Y35353D01*
X421315Y35301D01*
X421298Y35213D01*
X421263Y35107D01*
X421227Y34861D01*
X421210Y34615D01*
Y34580D01*
Y34474D01*
X421227Y34316D01*
Y34088D01*
X421263Y33807D01*
X421298Y33472D01*
X421333Y33103D01*
X421403Y32664D01*
X421473Y32189D01*
X421579Y31662D01*
X421702Y31117D01*
X421842Y30520D01*
X422018Y29904D01*
X422229Y29254D01*
X422458Y28569D01*
X422721Y27866D01*
X422739D01*
X422757Y27883D01*
X422809D01*
X422879Y27901D01*
X422967Y27936D01*
X423090Y27953D01*
X423214Y27989D01*
X423354Y28024D01*
X423372D01*
X423424Y28041D01*
X423495Y28059D01*
X423583Y28094D01*
X423741Y28129D01*
X423811Y28147D01*
X423864D01*
X423899Y28129D01*
X423969D01*
X424040Y28112D01*
X424180Y28094D01*
X424233Y28076D01*
X424409D01*
X424497Y28059D01*
X424620D01*
X424778Y28041D01*
X424883D01*
X424971Y28059D01*
X425077Y28094D01*
X425182Y28164D01*
Y28358D01*
Y28375D01*
X425164Y28410D01*
Y28463D01*
X425147Y28533D01*
X425112Y28639D01*
X425059Y28779D01*
X425006Y28955D01*
Y28973D01*
X424989Y29026D01*
X424954Y29114D01*
X424936Y29219D01*
X424866Y29465D01*
X424795Y29746D01*
X424778Y29764D01*
X424743Y29834D01*
X424690Y29922D01*
X424620Y30045D01*
Y30063D01*
Y30150D01*
X424602Y30256D01*
X424585Y30414D01*
Y30432D01*
X424567Y30484D01*
X424532Y30572D01*
X424497Y30695D01*
X424444Y30818D01*
X424391Y30977D01*
X424268Y31328D01*
X424145Y31697D01*
X424004Y32049D01*
X423952Y32207D01*
X423899Y32348D01*
X423846Y32471D01*
X423811Y32576D01*
Y32594D01*
X423793Y32629D01*
X423758Y32699D01*
X423723Y32787D01*
X423671Y32910D01*
X423618Y33033D01*
X423477Y33349D01*
X423301Y33701D01*
X423090Y34088D01*
X422879Y34492D01*
X422633Y34879D01*
Y34896D01*
X422598Y34931D01*
X422563Y34984D01*
X422510Y35054D01*
X422387Y35230D01*
X422247Y35441D01*
X422089Y35635D01*
X421913Y35810D01*
X421842Y35880D01*
X421772Y35933D01*
X421720Y35968D01*
X421667Y35986D01*
D02*
G37*
G36*
X426870Y36584D02*
X426834D01*
X426782Y36566D01*
X426711Y36531D01*
X426641Y36478D01*
X426571Y36390D01*
X426483Y36285D01*
X426377Y36127D01*
X426289Y35933D01*
X426202Y35705D01*
X426131Y35406D01*
X426061Y35054D01*
X425991Y34650D01*
X425973Y34404D01*
X425938Y34158D01*
X425920Y33894D01*
Y33596D01*
X425903Y33297D01*
Y32963D01*
Y32945D01*
Y32928D01*
X425920Y32892D01*
X425938Y32840D01*
X425956Y32769D01*
X425991Y32646D01*
X426026Y32506D01*
Y32488D01*
X426043Y32436D01*
X426061Y32365D01*
X426078Y32295D01*
X426114Y32207D01*
X426131Y32137D01*
X426149Y32084D01*
Y32066D01*
Y32031D01*
X426166Y31978D01*
X426184Y31873D01*
Y31803D01*
X426202Y31715D01*
X426237Y31592D01*
X426254Y31469D01*
X426272Y31311D01*
X426307Y31135D01*
X426360Y30924D01*
X426395Y30695D01*
Y30660D01*
X426413Y30572D01*
X426430Y30432D01*
X426465Y30256D01*
X426483Y30063D01*
X426518Y29852D01*
X426535Y29623D01*
Y29430D01*
Y29395D01*
X426553Y29342D01*
X426571Y29237D01*
Y29201D01*
X426588Y29149D01*
X426606Y29078D01*
X426623Y29043D01*
Y29008D01*
X426606Y28938D01*
X426571Y28779D01*
X426553Y28692D01*
X426518Y28569D01*
Y28551D01*
X426500Y28516D01*
Y28463D01*
X426483Y28393D01*
X426465Y28235D01*
Y28059D01*
Y28024D01*
X426483Y27936D01*
X426535D01*
X426588Y27918D01*
X426659Y27901D01*
X426764Y27883D01*
X426887Y27866D01*
X427028Y27830D01*
X427203Y27795D01*
X429453D01*
X429506Y27813D01*
X429594Y27848D01*
X429682Y27901D01*
X429770Y27953D01*
X429857Y28024D01*
X429910Y28112D01*
X429928Y28217D01*
Y28235D01*
X429910Y28270D01*
Y28340D01*
X429893Y28428D01*
X429857Y28551D01*
X429822Y28709D01*
X429770Y28903D01*
X429752Y28938D01*
X429734Y29008D01*
X429699Y29131D01*
X429664Y29289D01*
X429629Y29430D01*
X429576Y29588D01*
X429541Y29711D01*
X429524Y29817D01*
Y29852D01*
X429506Y29940D01*
X429471Y30080D01*
X429436Y30256D01*
X429383Y30502D01*
X429313Y30783D01*
X429242Y31100D01*
X429154Y31451D01*
X429049Y31838D01*
X428943Y32242D01*
X428820Y32682D01*
X428680Y33139D01*
X428522Y33631D01*
X428363Y34123D01*
X428012Y35142D01*
X427994Y35160D01*
X427942Y35230D01*
X427871Y35318D01*
X427766Y35441D01*
Y35459D01*
X427748Y35494D01*
X427713Y35547D01*
X427678Y35617D01*
X427590Y35810D01*
X427467Y36021D01*
X427327Y36214D01*
X427186Y36408D01*
X427098Y36478D01*
X427028Y36531D01*
X426940Y36566D01*
X426870Y36584D01*
D02*
G37*
G36*
X430209Y17214D02*
X430191Y17161D01*
X430156Y17073D01*
Y17056D01*
X430139Y17003D01*
Y16950D01*
Y16915D01*
Y16880D01*
X430156Y16810D01*
X430191Y16739D01*
X430227Y16722D01*
X430279Y16704D01*
Y16722D01*
X430262Y16757D01*
Y16827D01*
X430244Y16915D01*
X430227Y17073D01*
X430209Y17144D01*
Y17214D01*
D02*
G37*
G36*
X424690Y24754D02*
X424655D01*
X424585Y24737D01*
X424479D01*
X424356Y24719D01*
X424233Y24702D01*
X424128D01*
X424057Y24684D01*
X424022D01*
X424004Y24649D01*
X423952Y24614D01*
X423917D01*
X423846Y24579D01*
X423723Y24526D01*
X423565Y24420D01*
X423372Y24280D01*
X423143Y24086D01*
X423020Y23963D01*
X422897Y23823D01*
X422774Y23665D01*
X422633Y23489D01*
X422616Y23454D01*
X422563Y23383D01*
X422475Y23260D01*
X422387Y23102D01*
X422282Y22891D01*
X422176Y22680D01*
X422071Y22434D01*
X422001Y22171D01*
Y22153D01*
X421983Y22118D01*
Y22065D01*
X421948Y21977D01*
X421930Y21854D01*
X421913Y21714D01*
X421878Y21556D01*
X421842Y21362D01*
X421825Y21134D01*
X421790Y20887D01*
X421755Y20606D01*
X421720Y20290D01*
X421684Y19956D01*
X421649Y19587D01*
X421632Y19183D01*
X421596Y18761D01*
X421579Y18726D01*
X421544Y18655D01*
X421526Y18567D01*
X421508Y18515D01*
Y18497D01*
X421526Y18444D01*
X421544Y18374D01*
X421614Y18269D01*
Y18251D01*
Y18216D01*
Y18146D01*
Y18058D01*
Y17952D01*
Y17812D01*
X421632Y17653D01*
Y17495D01*
X421649Y17109D01*
X421684Y16669D01*
X421737Y16194D01*
X421790Y15685D01*
X421825D01*
X421895Y15702D01*
X422001Y15738D01*
X422124Y15808D01*
X422141Y15825D01*
X422194Y15896D01*
X422264Y15966D01*
X422370Y16071D01*
X422387D01*
X422440Y16089D01*
X422528Y16124D01*
X422633Y16142D01*
X422879Y16194D01*
X423126Y16212D01*
X423266D01*
X423372Y16194D01*
X423512Y16177D01*
X423723Y16159D01*
X423846Y16142D01*
X423987Y16124D01*
X424163Y16089D01*
X424338Y16071D01*
X424391D01*
X424461Y16054D01*
X424532D01*
X424760Y16019D01*
X425024Y16001D01*
X425305Y15966D01*
X425604Y15931D01*
X425868Y15913D01*
X425973Y15896D01*
X426078D01*
X428153Y15808D01*
X428170D01*
X428223Y15825D01*
X428293D01*
X428434Y15843D01*
X428522Y15861D01*
X428627Y15878D01*
X428750Y15896D01*
X428891Y15931D01*
X429049Y15948D01*
X429242Y15984D01*
Y16001D01*
X429260Y16071D01*
X429277Y16124D01*
X429295Y16177D01*
Y16194D01*
Y16230D01*
X429277Y16265D01*
X429260Y16335D01*
X429242Y16406D01*
X429225Y16511D01*
X429190Y16652D01*
X429137Y16792D01*
X429084Y16985D01*
X429014Y17196D01*
X428926Y17460D01*
X428838Y17741D01*
X428715Y18075D01*
X428592Y18444D01*
X428434Y18849D01*
X428416Y18866D01*
X428399Y18937D01*
X428363Y19042D01*
X428311Y19183D01*
X428240Y19341D01*
X428170Y19517D01*
X428100Y19727D01*
X428012Y19956D01*
X427836Y20413D01*
X427643Y20870D01*
X427555Y21081D01*
X427467Y21292D01*
X427397Y21468D01*
X427327Y21626D01*
Y21643D01*
X427291Y21679D01*
X427256Y21766D01*
X427203Y21854D01*
X427151Y21977D01*
X427063Y22118D01*
X426975Y22276D01*
X426870Y22452D01*
X426623Y22839D01*
X426325Y23278D01*
X425973Y23735D01*
X425586Y24192D01*
X425569Y24210D01*
X425499Y24280D01*
X425411Y24368D01*
X425288Y24473D01*
X425147Y24579D01*
X424989Y24667D01*
X424831Y24737D01*
X424690Y24754D01*
D02*
G37*
%LPD*%
D19*
X553482Y157624D02*
D03*
X477115Y233991D02*
D03*
D52*
X519000Y95000D02*
G03*
X519000Y95000I-1000J0D01*
G01*
X522000D02*
G03*
X522000Y95000I-4000J0D01*
G01*
X518000Y83000D02*
Y91000D01*
X505000Y95000D02*
X514000D01*
X516000Y85000D02*
X518000Y83000D01*
X516000Y85000D02*
X520000D01*
X518000Y83000D02*
X520000Y85000D01*
X503000Y95000D02*
X505000Y93000D01*
Y97000D01*
X503000Y95000D02*
X505000Y97000D01*
D57*
X393000Y125998D02*
D03*
Y111998D02*
D03*
X366000Y62002D02*
D03*
Y48002D02*
D03*
X379000Y62002D02*
D03*
Y48002D02*
D03*
X392000Y62002D02*
D03*
Y48002D02*
D03*
D58*
X407002Y140000D02*
D03*
X393002D02*
D03*
X476998Y93000D02*
D03*
X490998D02*
D03*
D59*
X408000Y128000D02*
D03*
Y118000D02*
D03*
X396000Y164000D02*
D03*
Y154000D02*
D03*
X463000Y54000D02*
D03*
Y64000D02*
D03*
X434000Y236000D02*
D03*
Y226000D02*
D03*
X381000Y107000D02*
D03*
Y117000D02*
D03*
X352500Y50000D02*
D03*
Y60000D02*
D03*
X372000Y107000D02*
D03*
Y117000D02*
D03*
X443000Y226000D02*
D03*
Y236000D02*
D03*
X463000Y74000D02*
D03*
Y84000D02*
D03*
X340000Y92000D02*
D03*
Y82000D02*
D03*
D60*
X510000Y24000D02*
D03*
X520000D02*
D03*
X354000Y141000D02*
D03*
X364000D02*
D03*
X334000D02*
D03*
X344000D02*
D03*
X520000Y15000D02*
D03*
X510000D02*
D03*
X270000Y234000D02*
D03*
X280000D02*
D03*
X490000Y24000D02*
D03*
X500000D02*
D03*
X480000Y118000D02*
D03*
X470000D02*
D03*
X480000Y109000D02*
D03*
X470000D02*
D03*
X162000Y13000D02*
D03*
X152000D02*
D03*
X172000Y13000D02*
D03*
X182000D02*
D03*
D61*
X361000Y232450D02*
D03*
X384000D02*
D03*
D62*
X385500Y204400D02*
D03*
X359500D02*
D03*
X379000D02*
D03*
X372500D02*
D03*
X366000D02*
D03*
D63*
X358500Y129375D02*
D03*
X339500D02*
D03*
X339500Y152625D02*
D03*
X358500D02*
D03*
D64*
X349000Y108625D02*
D03*
Y173375D02*
D03*
D65*
X442467Y179544D02*
D03*
X460321Y161690D02*
D03*
X481181Y140830D02*
D03*
X499035Y122976D02*
D03*
D66*
X524491Y250962D02*
D03*
D67*
X570453Y205000D02*
D03*
D68*
X482500Y55000D02*
D03*
X547500D02*
D03*
D69*
X434000Y140750D02*
D03*
X439000D02*
D03*
X444000D02*
D03*
Y111250D02*
D03*
X439000D02*
D03*
X434000D02*
D03*
D70*
X453500Y136000D02*
D03*
Y116000D02*
D03*
D71*
Y131000D02*
D03*
Y126000D02*
D03*
Y121000D02*
D03*
X424500Y116000D02*
D03*
Y121000D02*
D03*
Y126000D02*
D03*
Y131000D02*
D03*
Y136000D02*
D03*
D72*
X446000Y66750D02*
D03*
Y79250D02*
D03*
Y91750D02*
D03*
X424000Y54250D02*
D03*
X446000D02*
D03*
X424000Y66750D02*
D03*
Y79250D02*
D03*
Y91750D02*
D03*
D73*
X207500Y131349D02*
D03*
D74*
X313500Y181499D02*
D03*
Y168799D02*
D03*
Y156099D02*
D03*
Y143399D02*
D03*
Y130699D02*
D03*
Y117999D02*
D03*
Y105299D02*
D03*
Y92599D02*
D03*
Y79899D02*
D03*
Y67199D02*
D03*
D75*
X133400Y34599D02*
D03*
X146100D02*
D03*
X158800D02*
D03*
X171500D02*
D03*
X184200D02*
D03*
X196900D02*
D03*
X209600D02*
D03*
X222300D02*
D03*
X235000D02*
D03*
X247700D02*
D03*
X260400D02*
D03*
X273100D02*
D03*
X285800D02*
D03*
X298500D02*
D03*
Y214349D02*
D03*
X285800D02*
D03*
X273100D02*
D03*
X260400D02*
D03*
X247700D02*
D03*
X235000D02*
D03*
X222300D02*
D03*
X209600D02*
D03*
X196900D02*
D03*
X184200D02*
D03*
X171500D02*
D03*
X158800D02*
D03*
X146100D02*
D03*
X133400D02*
D03*
D76*
X453435Y24000D02*
D03*
D77*
X350250Y201900D02*
D03*
X394750D02*
D03*
D78*
X513884Y151967D02*
D03*
X471458Y194393D02*
D03*
D79*
X222500Y116349D02*
D03*
Y126349D02*
D03*
Y136349D02*
D03*
Y146349D02*
D03*
X212500Y116349D02*
D03*
Y126349D02*
D03*
Y136349D02*
D03*
Y146349D02*
D03*
X202500Y116349D02*
D03*
Y126349D02*
D03*
Y136349D02*
D03*
Y146349D02*
D03*
X192500D02*
D03*
Y136349D02*
D03*
Y126349D02*
D03*
X152000Y155000D02*
D03*
X144000Y163000D02*
D03*
X152000D02*
D03*
X144000Y155000D02*
D03*
M02*
