G04 Layer_Color=2752767*
%FSLAX44Y44*%
%MOMM*%
G71*
G01*
G75*
%ADD105C,0.0508*%
%ADD106C,0.0677*%
D105*
X141968Y152968D02*
Y157032D01*
X146032D01*
Y152968D01*
X141968D01*
X149968Y160968D02*
Y165032D01*
X154032D01*
Y160968D01*
X149968D01*
X141968D02*
Y165032D01*
X146032D01*
Y160968D01*
X141968D01*
X149968Y152968D02*
Y157032D01*
X154032D01*
Y152968D01*
X149968D01*
X365968Y158968D02*
Y163032D01*
X370032D01*
Y158968D01*
X365968D01*
X375968D02*
Y163032D01*
X380032D01*
Y158968D01*
X375968D01*
Y148968D02*
Y153032D01*
X380032D01*
Y148968D01*
X375968D01*
X365968D02*
Y153032D01*
X370032D01*
Y148968D01*
X365968D01*
X155968Y75968D02*
Y80032D01*
X160032D01*
Y75968D01*
X155968D01*
X147968D02*
Y80032D01*
X152032D01*
Y75968D01*
X147968D01*
X155968Y67968D02*
Y72032D01*
X160032D01*
Y67968D01*
X155968D01*
X147968D02*
Y72032D01*
X152032D01*
Y67968D01*
X147968D01*
X155968Y59968D02*
Y64032D01*
X160032D01*
Y59968D01*
X155968D01*
X147968D02*
Y64032D01*
X152032D01*
Y59968D01*
X147968D01*
X190468Y114317D02*
Y118381D01*
X194532D01*
Y114317D01*
X190468D01*
Y124317D02*
Y128381D01*
X194532D01*
Y124317D01*
X190468D01*
Y134317D02*
Y138381D01*
X194532D01*
Y134317D01*
X190468D01*
Y144317D02*
Y148381D01*
X194532D01*
Y144317D01*
X190468D01*
X200468D02*
Y148381D01*
X204532D01*
Y144317D01*
X200468D01*
Y134317D02*
Y138381D01*
X204532D01*
Y134317D01*
X200468D01*
Y124317D02*
Y128381D01*
X204532D01*
Y124317D01*
X200468D01*
Y114317D02*
Y118381D01*
X204532D01*
Y114317D01*
X200468D01*
X210468Y144317D02*
Y148381D01*
X214532D01*
Y144317D01*
X210468D01*
Y134317D02*
Y138381D01*
X214532D01*
Y134317D01*
X210468D01*
Y124317D02*
Y128381D01*
X214532D01*
Y124317D01*
X210468D01*
Y114317D02*
Y118381D01*
X214532D01*
Y114317D01*
X210468D01*
X220468Y144317D02*
Y148381D01*
X224532D01*
Y144317D01*
X220468D01*
Y134317D02*
Y138381D01*
X224532D01*
Y134317D01*
X220468D01*
Y124317D02*
Y128381D01*
X224532D01*
Y124317D01*
X220468D01*
Y114317D02*
Y118381D01*
X224532D01*
Y114317D01*
X220468D01*
X330750Y230418D02*
X328718Y234482D01*
X332782D01*
X330750Y230418D01*
X414250D02*
X412218Y234482D01*
X416282D01*
X414250Y230418D01*
X394750Y199868D02*
X395766Y200884D01*
X396782D01*
X395766Y201900D01*
X396782Y202916D01*
X395766D01*
X394750Y203932D01*
X393734Y202916D01*
X392718D01*
X393734Y201900D01*
X392718Y200884D01*
X393734D01*
X394750Y199868D01*
X350250D02*
X351266Y200884D01*
X352282D01*
X351266Y201900D01*
X352282Y202916D01*
X351266D01*
X350250Y203932D01*
X349234Y202916D01*
X348218D01*
X349234Y201900D01*
X348218Y200884D01*
X349234D01*
X350250Y199868D01*
X451403Y21968D02*
X452419Y24000D01*
X451403Y26032D01*
X453435Y25016D01*
X455467Y26032D01*
X454451Y24000D01*
X455467Y21968D01*
X453435Y22984D01*
X451403Y21968D01*
X254968Y232968D02*
Y237032D01*
X259032D01*
Y232968D01*
X254968D01*
X386584Y72352D02*
Y76416D01*
X390648D01*
Y72352D01*
X386584D01*
X408296Y63639D02*
Y67703D01*
X412360D01*
Y63639D01*
X408296D01*
X395968Y71968D02*
Y76032D01*
X400032D01*
Y71968D01*
X395968D01*
X377968D02*
Y76032D01*
X382032D01*
Y71968D01*
X377968D01*
X409968Y82968D02*
Y87032D01*
X414032D01*
Y82968D01*
X409968D01*
X406967Y54968D02*
Y59032D01*
X411031D01*
Y54968D01*
X406967D01*
X333968Y161968D02*
Y166032D01*
X338032D01*
Y161968D01*
X333968D01*
X269967Y67968D02*
Y72032D01*
X274032D01*
Y67968D01*
X269967D01*
X239168Y16867D02*
Y20931D01*
X243232D01*
Y16867D01*
X239168D01*
X247968Y17968D02*
Y22032D01*
X252032D01*
Y17968D01*
X247968D01*
X185968Y76968D02*
Y81032D01*
X190032D01*
Y76968D01*
X185968D01*
X187968Y54968D02*
Y59032D01*
X192032D01*
Y54968D01*
X187968D01*
X411968Y102968D02*
Y107032D01*
X416032D01*
Y102968D01*
X411968D01*
X398967Y97968D02*
Y102032D01*
X403031D01*
Y97968D01*
X398967D01*
X377437Y80437D02*
Y84501D01*
X381501D01*
Y80437D01*
X377437D01*
X376968Y94968D02*
Y99032D01*
X381032D01*
Y94968D01*
X376968D01*
X327968Y126968D02*
Y131032D01*
X332032D01*
Y126968D01*
X327968D01*
X146968Y143968D02*
Y148032D01*
X151032D01*
Y143968D01*
X146968D01*
X577520Y186739D02*
Y190803D01*
X581584D01*
Y186739D01*
X577520D01*
X586520Y168739D02*
Y172803D01*
X590584D01*
Y168739D01*
X586520D01*
X559520Y222739D02*
Y226803D01*
X563584D01*
Y222739D01*
X559520D01*
Y186739D02*
Y190803D01*
X563584D01*
Y186739D01*
X559520D01*
X568520Y168739D02*
Y172803D01*
X572584D01*
Y168739D01*
X568520D01*
X550520Y240739D02*
Y244803D01*
X554584D01*
Y240739D01*
X550520D01*
X541520Y222739D02*
Y226803D01*
X545584D01*
Y222739D01*
X541520D01*
X550520Y204739D02*
Y208803D01*
X554584D01*
Y204739D01*
X550520D01*
X541520Y186739D02*
Y190803D01*
X545584D01*
Y186739D01*
X541520D01*
X532520Y60739D02*
Y64804D01*
X536584D01*
Y60739D01*
X532520D01*
X523520Y42740D02*
Y46803D01*
X527584D01*
Y42740D01*
X523520D01*
X514520Y132739D02*
Y136803D01*
X518584D01*
Y132739D01*
X514520D01*
Y60739D02*
Y64804D01*
X518584D01*
Y60739D01*
X514520D01*
X415520Y6740D02*
Y10804D01*
X419584D01*
Y6740D01*
X415520D01*
X192968Y229968D02*
Y234032D01*
X197032D01*
Y229968D01*
X192968D01*
X200968D02*
Y234032D01*
X205032D01*
Y229968D01*
X200968D01*
X139968Y126968D02*
Y131032D01*
X144032D01*
Y126968D01*
X139968D01*
X137968Y115968D02*
Y120032D01*
X142032D01*
Y115968D01*
X137968D01*
X176968Y88968D02*
Y93032D01*
X181032D01*
Y88968D01*
X176968D01*
X137968Y51968D02*
Y56032D01*
X142032D01*
Y51968D01*
X137968D01*
X118968Y13968D02*
Y18032D01*
X123032D01*
Y13968D01*
X118968D01*
X118968Y6968D02*
Y11032D01*
X123032D01*
Y6968D01*
X118968D01*
X118968Y21968D02*
Y26032D01*
X123032D01*
Y21968D01*
X118968D01*
Y28968D02*
Y33032D01*
X123032D01*
Y28968D01*
X118968D01*
X146968Y51468D02*
Y55532D01*
X151032D01*
Y51468D01*
X146968D01*
X455968Y181968D02*
Y186032D01*
X460032D01*
Y181968D01*
X455968D01*
X431968Y199968D02*
Y204032D01*
X436032D01*
Y199968D01*
X431968D01*
X443968D02*
Y204032D01*
X448032D01*
Y199968D01*
X443968D01*
X420968Y199968D02*
Y204032D01*
X425032D01*
Y199968D01*
X420968D01*
X346968Y128968D02*
Y133032D01*
X351032D01*
Y128968D01*
X346968D01*
X244968Y120968D02*
Y125032D01*
X249032D01*
Y120968D01*
X244968D01*
X339968Y171968D02*
Y176032D01*
X344032D01*
Y171968D01*
X339968D01*
X271968Y100968D02*
Y105032D01*
X276032D01*
Y100968D01*
X271968D01*
X356968Y71968D02*
Y76032D01*
X361032D01*
Y71968D01*
X356968D01*
X219968Y17968D02*
Y22032D01*
X224032D01*
Y17968D01*
X219968D01*
X230968D02*
Y22032D01*
X235032D01*
Y17968D01*
X230968D01*
X283968D02*
Y22032D01*
X288032D01*
Y17968D01*
X283968D01*
X270968D02*
Y22032D01*
X275032D01*
Y17968D01*
X270968D01*
X295968D02*
Y22032D01*
X300032D01*
Y17968D01*
X295968D01*
X487968Y28968D02*
Y33032D01*
X492032D01*
Y28968D01*
X487968D01*
X434968Y119968D02*
Y124032D01*
X439032D01*
Y119968D01*
X434968D01*
X490968Y185968D02*
Y190032D01*
X495032D01*
Y185968D01*
X490968D01*
X486968Y153968D02*
Y158032D01*
X491032D01*
Y153968D01*
X486968D01*
X325968Y166968D02*
Y171032D01*
X330032D01*
Y166968D01*
X325968D01*
X283968Y196968D02*
Y201032D01*
X288032D01*
Y196968D01*
X283968D01*
X257968D02*
Y201032D01*
X262032D01*
Y196968D01*
X257968D01*
X369968Y191968D02*
Y196032D01*
X374032D01*
Y191968D01*
X369968D01*
X377468D02*
Y196032D01*
X381532D01*
Y191968D01*
X377468D01*
X407968Y45968D02*
Y50032D01*
X412032D01*
Y45968D01*
X407968D01*
X407768Y37168D02*
Y41232D01*
X411832D01*
Y37168D01*
X407768D01*
X494968Y46968D02*
Y51032D01*
X499032D01*
Y46968D01*
X494968D01*
X257968Y133968D02*
Y138032D01*
X262032D01*
Y133968D01*
X257968D01*
X280968Y152968D02*
Y157032D01*
X285032D01*
Y152968D01*
X280968D01*
X269968Y165968D02*
Y170032D01*
X274032D01*
Y165968D01*
X269968D01*
X287968Y146968D02*
Y151032D01*
X292032D01*
Y146968D01*
X287968D01*
X294967Y138968D02*
Y143032D01*
X299031D01*
Y138968D01*
X294967D01*
X355967Y111968D02*
Y116032D01*
X360031D01*
Y111968D01*
X355967D01*
X336968Y118968D02*
Y123032D01*
X341032D01*
Y118968D01*
X336968D01*
X352968Y89968D02*
Y94032D01*
X357032D01*
Y89968D01*
X352968D01*
X477968Y122968D02*
Y127032D01*
X482032D01*
Y122968D01*
X477968D01*
X145768Y183768D02*
Y187832D01*
X149832D01*
Y183768D01*
X145768D01*
X289968Y230968D02*
Y235032D01*
X294032D01*
Y230968D01*
X289968D01*
X411968Y197968D02*
Y202032D01*
X416032D01*
Y197968D01*
X411968D01*
X398968Y189968D02*
Y194032D01*
X403032D01*
Y189968D01*
X398968D01*
X463967Y177968D02*
Y182032D01*
X468031D01*
Y177968D01*
X463967D01*
X461968Y140968D02*
Y145032D01*
X466032D01*
Y140968D01*
X461968D01*
X448967Y149968D02*
Y154032D01*
X453031D01*
Y149968D01*
X448967D01*
X479967Y162968D02*
Y167032D01*
X484031D01*
Y162968D01*
X479967D01*
X435968Y157968D02*
Y162032D01*
X440032D01*
Y157968D01*
X435968D01*
X462768Y131968D02*
Y136032D01*
X466832D01*
Y131968D01*
X462768D01*
X504968Y128968D02*
Y133032D01*
X509032D01*
Y128968D01*
X504968D01*
X436567Y128168D02*
Y132232D01*
X440631D01*
Y128168D01*
X436567D01*
X466968Y42968D02*
Y47032D01*
X471032D01*
Y42968D01*
X466968D01*
X454968Y47968D02*
Y52032D01*
X459032D01*
Y47968D01*
X454968D01*
X484968Y63968D02*
Y68032D01*
X489032D01*
Y63968D01*
X484968D01*
X524968Y21968D02*
Y26032D01*
X529032D01*
Y21968D01*
X524968D01*
Y12968D02*
Y17032D01*
X529032D01*
Y12968D01*
X524968D01*
X467968Y81968D02*
Y86032D01*
X472032D01*
Y81968D01*
X467968D01*
X472967Y70968D02*
Y75032D01*
X477031D01*
Y70968D01*
X472967D01*
X494968Y78968D02*
Y83032D01*
X499032D01*
Y78968D01*
X494968D01*
X476968Y81968D02*
Y86032D01*
X481032D01*
Y81968D01*
X476968D01*
X496968Y90968D02*
Y95032D01*
X501032D01*
Y90968D01*
X496968D01*
X488968Y112968D02*
Y117032D01*
X493032D01*
Y112968D01*
X488968D01*
X455914Y89768D02*
Y93832D01*
X459978D01*
Y89768D01*
X455914D01*
X350968Y36968D02*
Y41032D01*
X355032D01*
Y36968D01*
X350968D01*
X363968D02*
Y41032D01*
X368032D01*
Y36968D01*
X363968D01*
X395968D02*
Y41032D01*
X400032D01*
Y36968D01*
X395968D01*
X377967Y34968D02*
Y39032D01*
X382031D01*
Y34968D01*
X377967D01*
X386968Y34968D02*
Y39032D01*
X391032D01*
Y34968D01*
X386968D01*
X336968Y36968D02*
Y41032D01*
X341032D01*
Y36968D01*
X336968D01*
X293968Y80968D02*
Y85032D01*
X298032D01*
Y80968D01*
X293968D01*
X295768Y73936D02*
Y78000D01*
X299832D01*
Y73936D01*
X295768D01*
X328967Y96968D02*
Y101032D01*
X333031D01*
Y96968D01*
X328967D01*
X427168Y157936D02*
Y162000D01*
X431232D01*
Y157936D01*
X427168D01*
X420968Y149968D02*
Y154032D01*
X425032D01*
Y149968D01*
X420968D01*
X434525Y166168D02*
Y170232D01*
X438590D01*
Y166168D01*
X434525D01*
X422968Y174968D02*
Y179032D01*
X427032D01*
Y174968D01*
X422968D01*
X332968Y186968D02*
Y191032D01*
X337032D01*
Y186968D01*
X332968D01*
X266968Y196968D02*
Y201032D01*
X271032D01*
Y196968D01*
X266968D01*
X292967Y192968D02*
Y197032D01*
X297031D01*
Y192968D01*
X292967D01*
X298967Y230968D02*
Y235032D01*
X303031D01*
Y230968D01*
X298967D01*
X391968Y92968D02*
Y97032D01*
X396032D01*
Y92968D01*
X391968D01*
X386967Y99968D02*
Y104032D01*
X391031D01*
Y99968D01*
X386967D01*
X382168Y123218D02*
Y127282D01*
X386232D01*
Y123218D01*
X382168D01*
X398967Y117968D02*
Y122032D01*
X403031D01*
Y117968D01*
X398967D01*
X453968Y103968D02*
Y108032D01*
X458032D01*
Y103968D01*
X453968D01*
X130968Y198968D02*
Y203032D01*
X135032D01*
Y198968D01*
X130968D01*
X145968Y174968D02*
Y179032D01*
X150032D01*
Y174968D01*
X145968D01*
X181968Y137968D02*
Y142032D01*
X186032D01*
Y137968D01*
X181968D01*
X259022Y142670D02*
Y146734D01*
X263086D01*
Y142670D01*
X259022D01*
X244967Y132968D02*
Y137032D01*
X249032D01*
Y132968D01*
X244967D01*
X240968Y142968D02*
Y147032D01*
X245032D01*
Y142968D01*
X240968D01*
X248968Y195968D02*
Y200032D01*
X253032D01*
Y195968D01*
X248968D01*
X239968D02*
Y200032D01*
X244032D01*
Y195968D01*
X239968D01*
X230968D02*
Y200032D01*
X235032D01*
Y195968D01*
X230968D01*
X216395Y196395D02*
Y200459D01*
X220459D01*
Y196395D01*
X216395D01*
X270968Y156968D02*
Y161032D01*
X275032D01*
Y156968D01*
X270968D01*
X187968Y194968D02*
Y199032D01*
X192032D01*
Y194968D01*
X187968D01*
X186968Y165968D02*
Y170032D01*
X191032D01*
Y165968D01*
X186968D01*
X236968Y127968D02*
Y132032D01*
X241032D01*
Y127968D01*
X236968D01*
X235968Y111968D02*
Y116032D01*
X240032D01*
Y111968D01*
X235968D01*
X231968Y102968D02*
Y107032D01*
X236032D01*
Y102968D01*
X231968D01*
X244967Y100968D02*
Y105032D01*
X249032D01*
Y100968D01*
X244967D01*
X143968Y196968D02*
Y201032D01*
X148032D01*
Y196968D01*
X143968D01*
X209968Y229968D02*
Y234032D01*
X214032D01*
Y229968D01*
X209968D01*
X515968Y182968D02*
Y187032D01*
X520032D01*
Y182968D01*
X515968D01*
Y172968D02*
Y177032D01*
X520032D01*
Y172968D01*
X515968D01*
X455968Y191968D02*
Y196032D01*
X460032D01*
Y191968D01*
X455968D01*
X413968Y143968D02*
Y148032D01*
X418032D01*
Y143968D01*
X413968D01*
X403968Y148968D02*
Y153032D01*
X408032D01*
Y148968D01*
X403968D01*
X294968Y168968D02*
Y173032D01*
X299032D01*
Y168968D01*
X294968D01*
X275768Y196617D02*
Y200681D01*
X279832D01*
Y196617D01*
X275768D01*
X306968Y191968D02*
Y196032D01*
X311032D01*
Y191968D01*
X306968D01*
X316968D02*
Y196032D01*
X321032D01*
Y191968D01*
X316968D01*
X322968Y198968D02*
Y203032D01*
X327032D01*
Y198968D01*
X322968D01*
X162968Y48968D02*
Y53032D01*
X167032D01*
Y48968D01*
X162968D01*
X130968Y51968D02*
Y56032D01*
X135032D01*
Y51968D01*
X130968D01*
X117968Y59968D02*
Y64032D01*
X122032D01*
Y59968D01*
X117968D01*
X177968Y102968D02*
Y107032D01*
X182032D01*
Y102968D01*
X177968D01*
X128968Y169968D02*
Y174032D01*
X133032D01*
Y169968D01*
X128968D01*
X169968Y173968D02*
Y178032D01*
X174032D01*
Y173968D01*
X169968D01*
X169968Y182968D02*
Y187032D01*
X174032D01*
Y182968D01*
X169968D01*
X407967Y161968D02*
Y166032D01*
X412031D01*
Y161968D01*
X407967D01*
X128968Y143968D02*
Y148032D01*
X133032D01*
Y143968D01*
X128968D01*
X138968D02*
Y148032D01*
X143032D01*
Y143968D01*
X138968D01*
X136968Y101968D02*
Y106032D01*
X141032D01*
Y101968D01*
X136968D01*
Y92968D02*
Y97032D01*
X141032D01*
Y92968D01*
X136968D01*
X138968Y84968D02*
Y89032D01*
X143032D01*
Y84968D01*
X138968D01*
X156968Y101968D02*
Y106032D01*
X161032D01*
Y101968D01*
X156968D01*
X403967Y197968D02*
Y202032D01*
X408031D01*
Y197968D01*
X403967D01*
X398968Y182968D02*
Y187032D01*
X403032D01*
Y182968D01*
X398968D01*
X130768Y85768D02*
Y89832D01*
X134832D01*
Y85768D01*
X130768D01*
D106*
X473490Y194393D02*
G03*
X473490Y194393I-2032J0D01*
G01*
X515916Y151967D02*
G03*
X515916Y151967I-2032J0D01*
G01*
M02*
