G04 Layer_Physical_Order=4*
G04 Layer_Color=16711680*
%FSLAX44Y44*%
%MOMM*%
G71*
G01*
G75*
%ADD10R,0.9000X0.8000*%
%ADD11R,0.8000X0.9000*%
%ADD12R,0.5000X0.6000*%
%ADD13R,0.6000X0.5000*%
%ADD16R,0.6500X0.9000*%
%ADD17R,0.6500X1.1000*%
%ADD30C,0.2000*%
%ADD31C,0.2500*%
%ADD32C,0.3500*%
%ADD33C,4.0000*%
%ADD34O,1.0500X1.2500*%
%ADD35C,0.6000*%
%ADD36R,3.5000X1.5000*%
%ADD37R,0.4500X2.5000*%
%ADD38R,1.0000X1.3000*%
G04:AMPARAMS|DCode=39|XSize=0.5mm|YSize=0.6mm|CornerRadius=0mm|HoleSize=0mm|Usage=FLASHONLY|Rotation=135.000|XOffset=0mm|YOffset=0mm|HoleType=Round|Shape=Rectangle|*
%AMROTATEDRECTD39*
4,1,4,0.3889,0.0354,-0.0354,-0.3889,-0.3889,-0.0354,0.0354,0.3889,0.3889,0.0354,0.0*
%
%ADD39ROTATEDRECTD39*%

%ADD40R,1.7300X2.5000*%
%ADD41O,1.1000X0.4500*%
%ADD42R,2.1000X2.1000*%
%ADD43R,0.3100X1.2000*%
%ADD44R,1.2000X0.3100*%
%ADD45R,1.0000X1.8000*%
%ADD46R,1.7000X1.4500*%
%ADD47R,1.3000X0.3100*%
%ADD48R,0.8000X1.6000*%
%ADD49R,0.9000X0.6500*%
%ADD50R,1.1000X0.6500*%
%ADD51R,1.5000X3.4000*%
%ADD52C,0.1500*%
%ADD53O,1.4000X2.1000*%
G36*
X168000Y114125D02*
X166750D01*
Y98078D01*
X165000D01*
Y99500D01*
X156040D01*
Y102732D01*
X149000D01*
Y105272D01*
X156040D01*
Y109692D01*
X156500Y111002D01*
X156500D01*
X156500Y111002D01*
Y117686D01*
X157250Y118875D01*
X168000D01*
Y114125D01*
D02*
G37*
G36*
X297544Y88445D02*
X298038Y88194D01*
X313422Y72811D01*
Y70500D01*
X312250D01*
Y70040D01*
X311770D01*
Y55000D01*
X309230D01*
Y70040D01*
X304770D01*
Y55000D01*
X302230D01*
Y70040D01*
X301750D01*
Y70500D01*
X299974D01*
X299384Y71384D01*
X299384Y71384D01*
X293078Y77689D01*
Y85031D01*
X296586Y88539D01*
X297544Y88445D01*
D02*
G37*
G36*
X116436Y148436D02*
X117842Y147497D01*
X119500Y147167D01*
X123751D01*
X124000Y146000D01*
X124000D01*
Y124000D01*
X138000D01*
Y133657D01*
X143500D01*
Y133000D01*
X143960D01*
Y130270D01*
X149000D01*
Y127730D01*
X143960D01*
Y124542D01*
X141960D01*
Y119272D01*
X149000D01*
Y116732D01*
X141960D01*
Y112111D01*
X141500Y111002D01*
X140579Y110159D01*
X140230Y109873D01*
X139000Y110118D01*
X138982Y110114D01*
X138000Y110920D01*
Y112000D01*
X124000D01*
Y90538D01*
X117960D01*
Y85268D01*
X125000D01*
Y82728D01*
X117960D01*
Y78078D01*
X117500Y76998D01*
X117500D01*
X117500Y76998D01*
Y67546D01*
X116270Y66724D01*
X115000Y67403D01*
Y148129D01*
X116270Y148602D01*
X116436Y148436D01*
D02*
G37*
G36*
X404185Y153447D02*
X405843Y153117D01*
X414514D01*
X414639Y151847D01*
X413659Y151652D01*
X411674Y150326D01*
X410348Y148341D01*
X409883Y146000D01*
X410348Y143659D01*
X411674Y141674D01*
X413659Y140348D01*
X416000Y139882D01*
X417652Y140211D01*
X418922Y139325D01*
Y134689D01*
X398115Y113883D01*
X397231Y112560D01*
X396921Y110999D01*
X396921Y110999D01*
Y104491D01*
X396674Y104326D01*
X396115Y103490D01*
X394767Y103758D01*
X394651Y104341D01*
X393325Y106326D01*
X391340Y107652D01*
X388999Y108117D01*
X386658Y107652D01*
X384674Y106326D01*
X383347Y104341D01*
X383084Y103015D01*
X381673Y102430D01*
X381341Y102652D01*
X379000Y103118D01*
X376659Y102652D01*
X374674Y101326D01*
X374509Y101078D01*
X366689D01*
X365220Y102548D01*
X365706Y103721D01*
X366739D01*
X366739Y103721D01*
X368300Y104032D01*
X369623Y104916D01*
X380884Y116176D01*
X380884Y116177D01*
X381768Y117500D01*
X382078Y119060D01*
Y128350D01*
X385950D01*
Y142960D01*
X386040D01*
Y143050D01*
X400650D01*
Y151910D01*
X401790D01*
Y153754D01*
X403060Y154198D01*
X404185Y153447D01*
D02*
G37*
G36*
X287394Y236907D02*
X286348Y235341D01*
X286231Y234750D01*
X275875D01*
Y222250D01*
X290875D01*
Y224422D01*
X292500D01*
Y216000D01*
X292960D01*
Y213270D01*
X298001D01*
Y212000D01*
X299271D01*
Y206460D01*
X302500D01*
Y206000D01*
X305218D01*
X305632Y204825D01*
X305614Y204730D01*
X304348Y203884D01*
X304348Y203884D01*
X299116Y198652D01*
X298232Y197329D01*
X297922Y195768D01*
X297922Y195768D01*
Y183078D01*
X294500D01*
Y194000D01*
X292878D01*
Y196201D01*
X292878Y196201D01*
X292567Y197761D01*
X292031Y198564D01*
X292118Y199000D01*
X291652Y201341D01*
X290836Y202562D01*
X290415Y203710D01*
X290415Y203710D01*
X290415Y203710D01*
Y208230D01*
X283375D01*
X276335D01*
Y204475D01*
X275459Y204301D01*
X273534Y203014D01*
X273326Y203326D01*
X271341Y204652D01*
X269000Y205117D01*
X266659Y204652D01*
X265489Y203870D01*
X264500Y203407D01*
X263511Y203870D01*
X262356Y204642D01*
X262343Y204716D01*
X262374Y205940D01*
X262658Y205997D01*
X264064Y206936D01*
X265689Y208561D01*
X266628Y209967D01*
X266958Y211625D01*
Y212750D01*
X271125D01*
Y225250D01*
X254500D01*
Y238177D01*
X286836D01*
X287394Y236907D01*
D02*
G37*
G36*
X226922Y154431D02*
Y143000D01*
X226922Y143000D01*
X226922Y143000D01*
Y135000D01*
X225500D01*
Y123000D01*
Y113000D01*
X232081D01*
X232348Y111659D01*
X233674Y109674D01*
X235658Y108348D01*
X237999Y107882D01*
X240341Y108348D01*
X242325Y109674D01*
X243651Y111659D01*
X244117Y114000D01*
X243651Y116341D01*
X243467Y116617D01*
X244382Y117533D01*
X244659Y117348D01*
X247000Y116882D01*
X249341Y117348D01*
X249568Y117500D01*
X258000D01*
Y110912D01*
X257497Y110158D01*
X257440Y109875D01*
X255250D01*
Y102683D01*
X254040Y102538D01*
Y102538D01*
X248269D01*
Y95998D01*
X245729D01*
Y102538D01*
X235269D01*
Y95998D01*
X232729D01*
Y102538D01*
X228500D01*
Y102998D01*
X213500D01*
Y101153D01*
X212998Y100077D01*
X211438Y99766D01*
X210114Y98882D01*
X208913Y98855D01*
X208882Y98885D01*
X207559Y99769D01*
X205998Y100080D01*
X205500Y101158D01*
Y103002D01*
X190500D01*
Y90272D01*
X190500Y89002D01*
X190500D01*
Y89002D01*
X190500D01*
Y85915D01*
X189230Y84873D01*
X188000Y85117D01*
X185658Y84652D01*
X183674Y83326D01*
X182348Y81341D01*
X181882Y79000D01*
X182348Y76659D01*
X183674Y74674D01*
X183921Y74509D01*
Y72000D01*
X183921Y72000D01*
X184232Y70440D01*
X185116Y69117D01*
X185921Y68311D01*
Y61491D01*
X185674Y61326D01*
X184348Y59341D01*
X183882Y57000D01*
X184348Y54659D01*
X185674Y52674D01*
X187659Y51348D01*
X190000Y50882D01*
X192341Y51348D01*
X192590Y51515D01*
X193710Y50916D01*
Y39960D01*
X197230D01*
Y55000D01*
X199770D01*
Y39960D01*
X200250D01*
Y39500D01*
X238750D01*
Y39960D01*
X239230D01*
Y55000D01*
X241770D01*
Y39960D01*
X246230D01*
Y55000D01*
X248770D01*
Y39960D01*
X249250D01*
Y39500D01*
X259750D01*
Y39960D01*
X260230D01*
Y55000D01*
X262770D01*
Y39960D01*
X267230D01*
Y55000D01*
X269770D01*
Y39960D01*
X276043D01*
X276193Y39693D01*
X276039Y38368D01*
X274716Y37484D01*
X274716Y37484D01*
X261311Y24078D01*
X254491D01*
X254326Y24326D01*
X252341Y25652D01*
X250000Y26118D01*
X247659Y25652D01*
X245674Y24326D01*
X244348Y22341D01*
X243883Y20000D01*
X244348Y17659D01*
X244876Y16868D01*
X244198Y15598D01*
X238803D01*
X238124Y16868D01*
X238652Y17659D01*
X239118Y20000D01*
X238652Y22341D01*
X237326Y24326D01*
X235341Y25652D01*
X233000Y26118D01*
X232708Y26060D01*
X229684Y29084D01*
X228361Y29968D01*
X226800Y30278D01*
X226800Y30278D01*
X192200D01*
X190639Y29968D01*
X189316Y29084D01*
X189316Y29084D01*
X185311Y25078D01*
X176500D01*
Y32000D01*
X177563Y32500D01*
X178000D01*
Y43500D01*
X166000D01*
Y43040D01*
X163270D01*
Y38000D01*
X162000D01*
Y36730D01*
X156460D01*
Y32960D01*
X159752D01*
X160500Y32000D01*
Y20064D01*
X159230Y19538D01*
X155884Y22884D01*
X154561Y23768D01*
X153000Y24078D01*
X153000Y24078D01*
X151500D01*
Y31960D01*
X154540D01*
Y35730D01*
X149000D01*
Y38270D01*
X154540D01*
Y40960D01*
Y44730D01*
X149001D01*
Y46000D01*
X147731D01*
Y51040D01*
X146650D01*
X145781Y52310D01*
X146117Y54000D01*
X146905Y54960D01*
X152730D01*
Y70000D01*
X155270D01*
Y54960D01*
X165190D01*
Y56076D01*
X166460Y56936D01*
X167250Y56778D01*
X173750D01*
X175174Y57062D01*
X176381Y57868D01*
X177188Y59076D01*
X177472Y60500D01*
X177188Y61924D01*
X176381Y63131D01*
X175174Y63938D01*
X174756Y64021D01*
Y65316D01*
X175619Y65488D01*
X177203Y66547D01*
X178262Y68131D01*
X178381Y68731D01*
X170500D01*
Y71270D01*
X178381D01*
X178262Y71869D01*
X177203Y73453D01*
X175619Y74512D01*
X174756Y74684D01*
Y75979D01*
X175174Y76062D01*
X176381Y76869D01*
X177188Y78076D01*
X177472Y79500D01*
X177188Y80924D01*
X176381Y82132D01*
X175174Y82938D01*
X173750Y83222D01*
X173578D01*
Y91500D01*
X173268Y93061D01*
X172384Y94384D01*
X172384Y94384D01*
X170913Y95855D01*
X171439Y97125D01*
X179250D01*
Y98267D01*
X180000Y98883D01*
X182341Y99348D01*
X184326Y100674D01*
X185652Y102659D01*
X186117Y105000D01*
X185652Y107341D01*
X184326Y109326D01*
X182341Y110652D01*
X180000Y111117D01*
X179250Y111733D01*
Y114125D01*
X177633D01*
X177504Y114295D01*
X177163Y115395D01*
X177884Y116116D01*
X177884Y116116D01*
X178768Y117439D01*
X179053Y118875D01*
X188750D01*
Y133875D01*
X182538D01*
Y138730D01*
X175998D01*
Y141270D01*
X182538D01*
Y146000D01*
X185500D01*
Y151250D01*
X199125D01*
Y152261D01*
X199500Y153422D01*
X201061Y153732D01*
X202384Y154616D01*
X205884Y158116D01*
X206768Y159439D01*
X207029Y160750D01*
X220603D01*
X226922Y154431D01*
D02*
G37*
G36*
X477116Y95116D02*
X481272Y90961D01*
X480646Y89790D01*
X479000Y90118D01*
X476659Y89652D01*
X474674Y88326D01*
X473348Y86341D01*
X472882Y84000D01*
X473348Y81659D01*
X474674Y79674D01*
X476659Y78348D01*
X479000Y77882D01*
X481341Y78348D01*
X483326Y79674D01*
X484652Y81659D01*
X485117Y84000D01*
X484790Y85646D01*
X485961Y86272D01*
X490941Y81292D01*
X490882Y81000D01*
X491348Y78659D01*
X492674Y76674D01*
X494659Y75348D01*
X497000Y74882D01*
X499341Y75348D01*
X501326Y76674D01*
X502652Y78659D01*
X502730Y79052D01*
X504000Y78927D01*
Y71000D01*
X525000D01*
Y72986D01*
X526175Y73400D01*
X526270Y73383D01*
X527116Y72116D01*
X529741Y69491D01*
X529741Y69491D01*
X531064Y68607D01*
X532625Y68297D01*
X537750D01*
Y63875D01*
X550250D01*
Y79398D01*
X568177D01*
Y69000D01*
X568214Y68814D01*
X567820Y61809D01*
X566614Y54709D01*
X564620Y47788D01*
X561864Y41134D01*
X558848Y35678D01*
X557578Y36006D01*
Y44125D01*
X559750D01*
Y59125D01*
X547250D01*
Y45500D01*
X541000D01*
X540290Y46476D01*
Y50355D01*
X528710D01*
Y44585D01*
X531460D01*
Y41270D01*
X537000D01*
Y38730D01*
X531460D01*
Y36500D01*
X531000D01*
Y35078D01*
X525689D01*
X498484Y62284D01*
X497161Y63168D01*
X495600Y63478D01*
X495600Y63478D01*
X486169D01*
X480363Y69284D01*
X479040Y70168D01*
X477479Y70478D01*
X477479Y70478D01*
X455086D01*
X454600Y71652D01*
X473884Y90935D01*
X473884Y90935D01*
X474768Y92258D01*
X475078Y93819D01*
X475078Y93819D01*
Y96054D01*
X475645Y96243D01*
X476348Y96265D01*
X477116Y95116D01*
D02*
G37*
G36*
X458698Y140135D02*
X459674Y138674D01*
X461659Y137348D01*
X464000Y136882D01*
X465652Y137211D01*
X466922Y136325D01*
Y95508D01*
X464875Y93462D01*
X463660Y93830D01*
X463598Y94141D01*
X462272Y96126D01*
X460287Y97452D01*
X457946Y97918D01*
X455605Y97452D01*
X454348Y96612D01*
X453078Y97291D01*
Y136311D01*
X457197Y140430D01*
X458698Y140135D01*
D02*
G37*
G36*
X402770Y39960D02*
X403059D01*
X403683Y39200D01*
X404148Y36859D01*
X405474Y34874D01*
X406261Y34348D01*
X405876Y33078D01*
X317689D01*
X313284Y37484D01*
X312032Y38320D01*
X312154Y38891D01*
X312378Y39500D01*
X336750D01*
Y39960D01*
X337230D01*
Y55000D01*
X339770D01*
Y39960D01*
X344230D01*
Y55000D01*
X346770D01*
Y39960D01*
X351230D01*
Y55000D01*
X353770D01*
Y39960D01*
X358230D01*
Y55000D01*
X360770D01*
Y39960D01*
X365230D01*
Y55000D01*
X367770D01*
Y39960D01*
X368250D01*
Y39500D01*
X392750D01*
Y39960D01*
X393230D01*
Y55000D01*
X395770D01*
Y39960D01*
X400230D01*
Y55000D01*
X402770D01*
Y39960D01*
D02*
G37*
G36*
X326922Y153968D02*
Y150000D01*
X326922Y150000D01*
X327232Y148439D01*
X328116Y147116D01*
X332116Y143116D01*
X332116Y143116D01*
X333439Y142232D01*
X335000Y141922D01*
X352750D01*
X352750Y141922D01*
X354311Y142232D01*
X355535Y143050D01*
X359960D01*
Y142960D01*
X360050D01*
Y139828D01*
X353750D01*
X352189Y139518D01*
X350866Y138634D01*
X350866Y138634D01*
X349292Y137059D01*
X349000Y137118D01*
X346659Y136652D01*
X344674Y135326D01*
X343348Y133341D01*
X342882Y131000D01*
X343348Y128659D01*
X344674Y126674D01*
X345162Y126348D01*
X344777Y125078D01*
X343491D01*
X343326Y125326D01*
X341341Y126652D01*
X339000Y127118D01*
X336659Y126652D01*
X334674Y125326D01*
X333348Y123341D01*
X332882Y121000D01*
X332990Y120460D01*
X332184Y119478D01*
X324289D01*
X323078Y120689D01*
Y145500D01*
X325000D01*
Y153944D01*
X326239Y154511D01*
X326922Y153968D01*
D02*
G37*
G36*
X332659Y183348D02*
X335000Y182882D01*
X336652Y183211D01*
X337922Y182325D01*
Y178491D01*
X337674Y178326D01*
X336348Y176341D01*
X335882Y174000D01*
X336348Y171659D01*
X337674Y169674D01*
X339659Y168348D01*
X342000Y167882D01*
X344080Y168296D01*
X344970Y167816D01*
X345350Y167495D01*
Y160090D01*
X344210D01*
Y157270D01*
X352750D01*
Y154730D01*
X344210D01*
Y151910D01*
X345350D01*
Y150078D01*
X336689D01*
X335078Y151689D01*
Y156000D01*
X335078Y156000D01*
X334768Y157561D01*
X333884Y158884D01*
X333884Y158884D01*
X330635Y162133D01*
X330592Y162309D01*
X330865Y163698D01*
X332326Y164674D01*
X333652Y166659D01*
X334118Y169000D01*
X333652Y171341D01*
X332326Y173326D01*
X330341Y174652D01*
X329402Y174839D01*
X328984Y176217D01*
X329884Y177116D01*
X329884Y177116D01*
X330768Y178439D01*
X331078Y180000D01*
Y183057D01*
X332198Y183656D01*
X332659Y183348D01*
D02*
G37*
G36*
X517255Y262819D02*
X525431Y261606D01*
X533449Y259598D01*
X541231Y256813D01*
X548703Y253279D01*
X555793Y249030D01*
X562431Y244106D01*
X568556Y238556D01*
X574106Y232431D01*
X579030Y225793D01*
X583279Y218703D01*
X586813Y211231D01*
X589598Y203449D01*
X591606Y195431D01*
X592819Y187255D01*
X593215Y179193D01*
X593177Y179000D01*
Y167437D01*
X572000D01*
X570537Y167146D01*
X569296Y166317D01*
X568468Y165077D01*
X568177Y163614D01*
Y139351D01*
X549283D01*
X549283Y139351D01*
Y139402D01*
X544235Y138905D01*
X539381Y137432D01*
X534908Y135042D01*
X530987Y131824D01*
X527769Y127903D01*
X525378Y123429D01*
X523906Y118575D01*
X523409Y113528D01*
X523460D01*
X523460Y113527D01*
Y111000D01*
X504000D01*
Y83073D01*
X502730Y82948D01*
X502652Y83341D01*
X501326Y85326D01*
X499341Y86652D01*
X497000Y87118D01*
X496708Y87059D01*
X484078Y99689D01*
Y120509D01*
X484326Y120674D01*
X485652Y122659D01*
X486118Y125000D01*
X485652Y127341D01*
X484326Y129326D01*
X482341Y130652D01*
X480000Y131117D01*
X477659Y130652D01*
X476348Y129776D01*
X475078Y130455D01*
Y134569D01*
X476111Y135333D01*
X476111D01*
X484596Y143818D01*
X484596D01*
X485494Y144716D01*
X491073Y150295D01*
X491341Y150348D01*
X493326Y151674D01*
X494652Y153659D01*
X495118Y156000D01*
X494652Y158341D01*
X493326Y160326D01*
X491341Y161652D01*
X489000Y162118D01*
X488655Y162049D01*
X488568Y162128D01*
X487990Y163211D01*
X494596Y169818D01*
X501667Y176889D01*
X496569Y181988D01*
X496693Y183251D01*
X497326Y183674D01*
X498652Y185659D01*
X499118Y188000D01*
X498652Y190341D01*
X497326Y192326D01*
X495341Y193652D01*
X493000Y194118D01*
X490659Y193652D01*
X488674Y192326D01*
X487348Y190341D01*
X487295Y190073D01*
X479404Y182182D01*
X472333Y175111D01*
X473338Y174106D01*
X472116Y172884D01*
X471857Y172496D01*
X470222Y172335D01*
X469177Y173379D01*
X469338Y175014D01*
X470325Y175674D01*
X471651Y177659D01*
X472117Y180000D01*
X471758Y181805D01*
X472414Y183025D01*
X472606Y183197D01*
X474395Y183433D01*
X477132Y184566D01*
X479482Y186370D01*
X481285Y188720D01*
X482419Y191457D01*
X482805Y194393D01*
X482419Y197330D01*
X481285Y200067D01*
X479482Y202417D01*
X477132Y204220D01*
X474395Y205354D01*
X471458Y205741D01*
X468521Y205354D01*
X465784Y204220D01*
X463434Y202417D01*
X461631Y200067D01*
X461600Y199991D01*
X460385Y199623D01*
X460341Y199652D01*
X458000Y200117D01*
X456677Y199855D01*
X456500Y200000D01*
Y200000D01*
X452721D01*
X451915Y200982D01*
X452118Y202000D01*
X451652Y204341D01*
X450326Y206326D01*
X448341Y207652D01*
X446000Y208118D01*
X443659Y207652D01*
X441674Y206326D01*
X440733Y204918D01*
X439267D01*
X438326Y206326D01*
X436341Y207652D01*
X434000Y208118D01*
X431659Y207652D01*
X429674Y206326D01*
X429135Y205519D01*
X427865D01*
X427326Y206326D01*
X425341Y207652D01*
X423000Y208118D01*
X420659Y207652D01*
X418675Y206326D01*
X417643Y204782D01*
X416341Y205652D01*
X414000Y206117D01*
X411659Y205652D01*
X410448Y204843D01*
X409551D01*
X408340Y205651D01*
X405999Y206117D01*
X403658Y205651D01*
X403469Y205525D01*
X401897Y206002D01*
X401554Y206829D01*
X400306Y208456D01*
X398679Y209704D01*
X396784Y210490D01*
X396021Y210590D01*
Y201900D01*
X394751D01*
Y200630D01*
X386928D01*
X387160Y198866D01*
X387946Y196971D01*
X389194Y195344D01*
X390821Y194095D01*
X392716Y193311D01*
X393819Y193165D01*
X394883Y192000D01*
X395348Y189659D01*
X396123Y188500D01*
X395348Y187341D01*
X394883Y185000D01*
X395348Y182659D01*
X396674Y180674D01*
X398659Y179348D01*
X401000Y178883D01*
X401018Y178886D01*
X402000Y178080D01*
Y171500D01*
X414000D01*
Y171960D01*
X416730D01*
Y177000D01*
X419270D01*
Y171960D01*
X422036D01*
X422562Y170690D01*
X417029Y165157D01*
X415813Y165525D01*
X415651Y166341D01*
X414325Y168325D01*
X412340Y169652D01*
X409999Y170117D01*
X407658Y169652D01*
X406486Y168868D01*
X406470Y168884D01*
X405147Y169768D01*
X403586Y170078D01*
X403586Y170078D01*
X397328D01*
Y174750D01*
X397328Y174750D01*
X397018Y176311D01*
X396134Y177634D01*
X394634Y179134D01*
X393311Y180018D01*
X391750Y180328D01*
X391750Y180328D01*
X385950D01*
Y183650D01*
X382303D01*
X382083Y184757D01*
Y188510D01*
X383826Y189674D01*
X385152Y191659D01*
X385617Y194000D01*
X385152Y196341D01*
X383826Y198326D01*
X381841Y199652D01*
X379500Y200117D01*
X377159Y199652D01*
X375750Y198710D01*
X374341Y199652D01*
X372000Y200117D01*
X369659Y199652D01*
X367674Y198326D01*
X366348Y196341D01*
X365882Y194000D01*
X366348Y191659D01*
X367674Y189674D01*
X369417Y188510D01*
Y185787D01*
X368997Y185158D01*
X368697Y183650D01*
X360050D01*
Y169040D01*
X359960D01*
Y168950D01*
X347354D01*
X346690Y170220D01*
X347652Y171659D01*
X348117Y174000D01*
X347652Y176341D01*
X346326Y178326D01*
X346078Y178491D01*
Y192200D01*
X346078Y192200D01*
X345944Y192877D01*
X347002Y193778D01*
X347057Y193791D01*
X348216Y193311D01*
X348981Y193210D01*
Y200630D01*
X342428D01*
X342633Y199074D01*
X342126Y198621D01*
X341505Y198337D01*
X340561Y198968D01*
X339000Y199278D01*
X339000Y199278D01*
X335278D01*
Y203568D01*
X334968Y205129D01*
X334084Y206452D01*
X334084Y206452D01*
X329652Y210884D01*
X328329Y211768D01*
X326768Y212078D01*
X326768Y212078D01*
X318689D01*
X315884Y214884D01*
X314561Y215768D01*
X313500Y215979D01*
Y228000D01*
X311474D01*
X310884Y228883D01*
X310884Y228883D01*
X307059Y232708D01*
X307117Y232999D01*
X306651Y235341D01*
X305605Y236907D01*
X306163Y238177D01*
X320458D01*
X321295Y237222D01*
X321128Y235950D01*
Y233720D01*
X340372D01*
Y235950D01*
X340045Y238440D01*
X339332Y240161D01*
X340072Y241431D01*
X404928D01*
X405668Y240161D01*
X404956Y238440D01*
X404628Y235950D01*
Y233720D01*
X414250D01*
X423872D01*
Y235950D01*
X423732Y237018D01*
X424860Y238177D01*
X496000D01*
X497463Y238468D01*
X498704Y239296D01*
X499532Y240537D01*
X499823Y242000D01*
Y263177D01*
X509000D01*
X509193Y263215D01*
X517255Y262819D01*
D02*
G37*
G36*
X117500Y56454D02*
X117500Y47002D01*
X117960Y45922D01*
Y41272D01*
X125000D01*
Y40002D01*
X126270D01*
Y33462D01*
X131730D01*
X132040Y33462D01*
X133000Y32713D01*
Y31500D01*
X132252Y30540D01*
X131271D01*
Y25000D01*
X130001D01*
Y23730D01*
X124960D01*
Y21000D01*
X124500D01*
Y9000D01*
X135500D01*
X135500Y8000D01*
X151500D01*
Y12710D01*
X152770Y13389D01*
X152922Y13287D01*
Y11000D01*
X152922Y11000D01*
X153232Y9439D01*
X154116Y8116D01*
X156139Y6093D01*
X155613Y4823D01*
X115000D01*
Y56597D01*
X116270Y57276D01*
X117500Y56454D01*
D02*
G37*
G36*
X191162Y236907D02*
X190997Y236658D01*
X190970Y236523D01*
X190674Y236326D01*
X189348Y234341D01*
X188883Y232000D01*
X189348Y229659D01*
X190667Y227685D01*
Y227000D01*
X190997Y225342D01*
X191936Y223936D01*
X193342Y222997D01*
X195000Y222667D01*
X213500D01*
Y220500D01*
Y201853D01*
X212775Y200768D01*
X212309Y198427D01*
X212775Y196086D01*
X213086Y195620D01*
X212488Y194500D01*
X196915D01*
X195873Y195770D01*
X196117Y197000D01*
X195652Y199341D01*
X194326Y201326D01*
X192341Y202652D01*
X190000Y203118D01*
X187659Y202652D01*
X185674Y201326D01*
X185509Y201078D01*
X180689D01*
X179884Y201883D01*
X178561Y202768D01*
X177000Y203078D01*
X177000Y203078D01*
X150491D01*
X150325Y203325D01*
X148341Y204652D01*
X146000Y205117D01*
X143659Y204652D01*
X141674Y203325D01*
X140348Y201341D01*
X140348Y201340D01*
X140264Y201031D01*
X140040Y200538D01*
X134271D01*
Y193999D01*
X131731D01*
Y200538D01*
X130552D01*
X129559Y201500D01*
Y219441D01*
X164441D01*
Y216078D01*
X164674Y214908D01*
X165337Y213916D01*
X166329Y213252D01*
X167500Y213020D01*
X170000D01*
X171171Y213252D01*
X172163Y213916D01*
X172826Y214908D01*
X173059Y216078D01*
Y238177D01*
X190484D01*
X191162Y236907D01*
D02*
G37*
G36*
X178922Y182533D02*
Y179000D01*
X178922Y179000D01*
X179232Y177439D01*
X180116Y176116D01*
X182616Y173616D01*
X183939Y172732D01*
X184125Y172695D01*
Y170250D01*
X198922D01*
Y163750D01*
X185040D01*
Y167540D01*
X181269D01*
Y162000D01*
X178729D01*
Y167540D01*
X174960D01*
Y166600D01*
X173977Y165742D01*
X173580Y165808D01*
X172900Y166488D01*
X172900Y169450D01*
X173839Y170249D01*
X174341Y170348D01*
X176325Y171675D01*
X177652Y173659D01*
X178117Y176000D01*
X177652Y178342D01*
X176826Y179577D01*
X176326Y180674D01*
X177652Y182659D01*
X178922Y182533D01*
D02*
G37*
G36*
X485922Y40311D02*
Y35491D01*
X485674Y35326D01*
X484348Y33341D01*
X483882Y31000D01*
X484348Y28659D01*
X485674Y26674D01*
X487659Y25348D01*
X490000Y24882D01*
X492341Y25348D01*
X494326Y26674D01*
X495652Y28659D01*
X496118Y31000D01*
X495652Y33341D01*
X494326Y35326D01*
X494078Y35491D01*
Y42000D01*
X494023Y42278D01*
X494147Y42488D01*
X495123Y43256D01*
X497000Y42882D01*
X499341Y43348D01*
X501326Y44674D01*
X502064Y45780D01*
X503328Y45904D01*
X521116Y28116D01*
X522439Y27232D01*
X524000Y26922D01*
X524000Y26922D01*
X531000D01*
Y25500D01*
X549568D01*
X550087Y24341D01*
X549413Y23587D01*
X544043Y18788D01*
X538169Y14620D01*
X533753Y12179D01*
X533701Y12202D01*
X532733Y13067D01*
X533117Y15000D01*
X532652Y17341D01*
X531326Y19326D01*
X529341Y20652D01*
X527000Y21117D01*
X524659Y20652D01*
X522674Y19326D01*
X521348Y17341D01*
X520882Y15000D01*
X521348Y12659D01*
X522674Y10674D01*
X524456Y9484D01*
X524494Y8674D01*
X524362Y8135D01*
X518291Y6386D01*
X511191Y5180D01*
X505260Y4847D01*
X504000Y4823D01*
X504000Y4823D01*
X502746Y4823D01*
X409823D01*
Y11775D01*
X410272Y12322D01*
X416219D01*
X416219Y12322D01*
X417780Y12632D01*
X419103Y13516D01*
X431884Y26297D01*
X431884Y26297D01*
X432768Y27620D01*
X433078Y29181D01*
X433078Y29181D01*
Y32311D01*
X449783Y49016D01*
X451161Y48598D01*
X451348Y47659D01*
X452674Y45674D01*
X454659Y44348D01*
X457000Y43882D01*
X459341Y44348D01*
X461326Y45674D01*
X461889Y46518D01*
X463086Y46022D01*
X462882Y45000D01*
X463348Y42659D01*
X464674Y40674D01*
X466659Y39348D01*
X469000Y38883D01*
X471341Y39348D01*
X473326Y40674D01*
X474652Y42659D01*
X475117Y45000D01*
X474652Y47341D01*
X473326Y49326D01*
X471341Y50652D01*
X469000Y51118D01*
X466659Y50652D01*
X464674Y49326D01*
X464110Y48482D01*
X462914Y48978D01*
X463117Y50000D01*
X462652Y52341D01*
X462344Y52802D01*
X462943Y53922D01*
X472311D01*
X485922Y40311D01*
D02*
G37*
G36*
X170000Y216078D02*
X167500D01*
Y222500D01*
X126500D01*
Y201500D01*
X125500Y200998D01*
Y187848D01*
X125500Y186998D01*
X125960Y185689D01*
Y181269D01*
X133001D01*
X140040D01*
Y185058D01*
X140956Y185990D01*
X141748Y185800D01*
X141954Y184234D01*
X142559Y182774D01*
X143521Y181521D01*
X142850Y180145D01*
X142759Y180026D01*
X142155Y178566D01*
X141948Y177000D01*
X142155Y175434D01*
X142759Y173974D01*
X143721Y172721D01*
X144974Y171759D01*
X146434Y171154D01*
X148000Y170948D01*
X149566Y171154D01*
X150401Y171500D01*
X160922D01*
Y169450D01*
X157100D01*
Y167650D01*
X140040D01*
Y170590D01*
X132270D01*
Y166500D01*
X131000D01*
Y165230D01*
X121960D01*
Y160833D01*
X119500D01*
X117842Y160503D01*
X116500Y159607D01*
X116234Y159661D01*
X115000Y160249D01*
Y238177D01*
X170000D01*
Y216078D01*
D02*
G37*
%LPC*%
G36*
X282105Y215290D02*
X276335D01*
Y210770D01*
X282105D01*
Y215290D01*
D02*
G37*
G36*
X290415D02*
X284645D01*
Y210770D01*
X290415D01*
Y215290D01*
D02*
G37*
G36*
X296731Y210730D02*
X292960D01*
Y206460D01*
X296731D01*
Y210730D01*
D02*
G37*
G36*
X160730Y43040D02*
X156460D01*
Y39270D01*
X160730D01*
Y43040D01*
D02*
G37*
G36*
X154540Y51040D02*
X150271D01*
Y47270D01*
X154540D01*
Y51040D01*
D02*
G37*
G36*
X540290Y58665D02*
X535770D01*
Y52895D01*
X540290D01*
Y58665D01*
D02*
G37*
G36*
X533230D02*
X528710D01*
Y52895D01*
X533230D01*
Y58665D01*
D02*
G37*
G36*
X351521Y210590D02*
Y203170D01*
X358072D01*
X357840Y204934D01*
X357055Y206829D01*
X355806Y208456D01*
X354179Y209704D01*
X352284Y210490D01*
X351521Y210590D01*
D02*
G37*
G36*
X340372Y231180D02*
X332020D01*
Y219495D01*
X333241Y219655D01*
X335561Y220617D01*
X337554Y222146D01*
X339083Y224139D01*
X340045Y226460D01*
X340372Y228950D01*
Y231180D01*
D02*
G37*
G36*
X423872Y231180D02*
X415521D01*
Y219495D01*
X416740Y219655D01*
X419061Y220617D01*
X421054Y222146D01*
X422583Y224139D01*
X423545Y226460D01*
X423872Y228950D01*
Y231180D01*
D02*
G37*
G36*
X412980D02*
X404628D01*
Y228950D01*
X404956Y226460D01*
X405917Y224139D01*
X407446Y222146D01*
X409439Y220617D01*
X411760Y219655D01*
X412980Y219495D01*
Y231180D01*
D02*
G37*
G36*
X329480Y231180D02*
X321128D01*
Y228950D01*
X321456Y226460D01*
X322417Y224139D01*
X323946Y222146D01*
X325939Y220617D01*
X328260Y219655D01*
X329480Y219495D01*
Y231180D01*
D02*
G37*
G36*
X348981Y210590D02*
X348216Y210490D01*
X346321Y209704D01*
X344694Y208456D01*
X343446Y206829D01*
X342660Y204934D01*
X342428Y203170D01*
X348981D01*
Y210590D01*
D02*
G37*
G36*
X513884Y163314D02*
X510948Y162927D01*
X508211Y161794D01*
X505861Y159991D01*
X504058Y157640D01*
X502924Y154904D01*
X502537Y151967D01*
X502924Y149030D01*
X504058Y146293D01*
X505861Y143943D01*
X508211Y142140D01*
X510948Y141007D01*
X513884Y140620D01*
X516821Y141007D01*
X519558Y142140D01*
X521908Y143943D01*
X523711Y146293D01*
X524845Y149030D01*
X525232Y151967D01*
X524845Y154904D01*
X523711Y157640D01*
X521908Y159991D01*
X519558Y161794D01*
X516821Y162927D01*
X513884Y163314D01*
D02*
G37*
G36*
X358072Y200630D02*
X351521D01*
Y193210D01*
X352284Y193311D01*
X354179Y194095D01*
X355806Y195344D01*
X357055Y196971D01*
X357840Y198866D01*
X358072Y200630D01*
D02*
G37*
G36*
X393481Y210590D02*
X392716Y210490D01*
X390821Y209704D01*
X389194Y208456D01*
X387946Y206829D01*
X387160Y204934D01*
X386928Y203170D01*
X393481D01*
Y210590D01*
D02*
G37*
G36*
X541000Y190500D02*
X529000D01*
Y190040D01*
X526270D01*
Y185000D01*
X525000D01*
Y183730D01*
X519460D01*
Y181828D01*
X518478Y181022D01*
X518000Y181117D01*
X515659Y180652D01*
X513674Y179326D01*
X512348Y177341D01*
X511883Y175000D01*
X512348Y172659D01*
X513674Y170674D01*
X515659Y169348D01*
X518000Y168883D01*
X520341Y169348D01*
X520568Y169500D01*
X541000D01*
Y180500D01*
X541000D01*
Y190500D01*
D02*
G37*
G36*
X523730Y190040D02*
X519460D01*
Y186270D01*
X523730D01*
Y190040D01*
D02*
G37*
G36*
X123730Y38732D02*
X117960D01*
Y33462D01*
X123730D01*
Y38732D01*
D02*
G37*
G36*
X128731Y30540D02*
X124960D01*
Y26270D01*
X128731D01*
Y30540D01*
D02*
G37*
G36*
X131731Y178729D02*
X125960D01*
Y173458D01*
X131731D01*
Y178729D01*
D02*
G37*
G36*
X140040D02*
X134271D01*
Y173458D01*
X140040D01*
Y178729D01*
D02*
G37*
G36*
X129730Y170590D02*
X121960D01*
Y167770D01*
X129730D01*
Y170590D01*
D02*
G37*
%LPD*%
D10*
X440000Y178998D02*
D03*
Y192998D02*
D03*
X198000Y96002D02*
D03*
Y82002D02*
D03*
X221000Y81998D02*
D03*
Y95998D02*
D03*
X234000Y81998D02*
D03*
Y95998D02*
D03*
X247000Y81998D02*
D03*
Y95998D02*
D03*
X149000Y118002D02*
D03*
Y104002D02*
D03*
X125000Y69998D02*
D03*
Y83998D02*
D03*
X133000Y179998D02*
D03*
Y193998D02*
D03*
X125000Y54002D02*
D03*
Y40002D02*
D03*
D11*
X161998Y140000D02*
D03*
X175998D02*
D03*
D12*
X260000Y181000D02*
D03*
Y191000D02*
D03*
X269000Y181000D02*
D03*
Y191000D02*
D03*
X224000Y181000D02*
D03*
Y191000D02*
D03*
X233000Y181000D02*
D03*
Y191000D02*
D03*
X242000Y181000D02*
D03*
Y191000D02*
D03*
X289000Y178000D02*
D03*
Y188000D02*
D03*
X438000Y152000D02*
D03*
Y142000D02*
D03*
X451000Y194000D02*
D03*
Y184000D02*
D03*
X130000Y15000D02*
D03*
Y25000D02*
D03*
X278000Y191000D02*
D03*
Y181000D02*
D03*
X331000Y92000D02*
D03*
Y82000D02*
D03*
X251000Y191000D02*
D03*
Y181000D02*
D03*
X340000Y92000D02*
D03*
Y82000D02*
D03*
X298000Y212000D02*
D03*
Y222000D02*
D03*
X149000Y139000D02*
D03*
Y129000D02*
D03*
X180000Y152000D02*
D03*
Y162000D02*
D03*
X308000Y222000D02*
D03*
Y212000D02*
D03*
X231000Y129000D02*
D03*
Y119000D02*
D03*
D13*
X193000Y189000D02*
D03*
X183000D02*
D03*
X165000Y177000D02*
D03*
X155000D02*
D03*
X319000Y169000D02*
D03*
X309000D02*
D03*
X319000Y178000D02*
D03*
X309000D02*
D03*
X149000Y46000D02*
D03*
X139000D02*
D03*
X408000Y177000D02*
D03*
X418000D02*
D03*
X172000Y38000D02*
D03*
X162000D02*
D03*
X139000Y37000D02*
D03*
X149000D02*
D03*
X525000Y185000D02*
D03*
X535000D02*
D03*
X319000Y187000D02*
D03*
X309000D02*
D03*
X537000Y31000D02*
D03*
X547000D02*
D03*
X537000Y40000D02*
D03*
X547000D02*
D03*
X149000Y94000D02*
D03*
X159000D02*
D03*
X535000Y175000D02*
D03*
X525000D02*
D03*
X264000Y114000D02*
D03*
X274000D02*
D03*
X254000Y123000D02*
D03*
X264000D02*
D03*
X309000Y160000D02*
D03*
X319000D02*
D03*
X309000Y151000D02*
D03*
X319000D02*
D03*
X165000Y186000D02*
D03*
X155000D02*
D03*
X213000Y189000D02*
D03*
X203000D02*
D03*
D16*
X261500Y102375D02*
D03*
X280500D02*
D03*
X163500Y126375D02*
D03*
X182500D02*
D03*
X553500Y51625D02*
D03*
X534500D02*
D03*
D17*
X271000Y81625D02*
D03*
X173000Y105625D02*
D03*
X544000Y72375D02*
D03*
D30*
X126002Y177998D02*
X139998D01*
X166000Y176000D02*
X166001Y176000D01*
X139500Y79500D02*
Y94000D01*
X130500D02*
X139500D01*
X169500Y79500D02*
Y91500D01*
X288000Y179000D02*
X300000D01*
X165000Y185000D02*
X172000D01*
X409000Y56001D02*
X412470Y59471D01*
X405587Y164000D02*
X409999D01*
X403586Y166000D02*
X405587Y164000D01*
X393250Y166000D02*
X403586D01*
X401000Y156000D02*
X406000Y151000D01*
X393250Y156000D02*
X401000D01*
X172000Y185000D02*
X172000Y185000D01*
X145232Y192000D02*
X174000D01*
X177000Y189000D01*
X183000D01*
X141000Y187768D02*
X145232Y192000D01*
X166001Y176000D02*
X172000D01*
X165000Y177000D02*
X166000Y176000D01*
X152000Y163000D02*
X153500Y161500D01*
X165000D01*
X179500D02*
X180000Y162000D01*
X165000Y161500D02*
X179500D01*
X131000Y172000D02*
Y175998D01*
Y166500D02*
Y172000D01*
X173625Y105000D02*
X180000D01*
X173000Y105625D02*
X173625Y105000D01*
X160000Y51000D02*
X165000D01*
X158000Y53000D02*
X160000Y51000D01*
X158000Y53000D02*
Y62000D01*
X165000Y46000D02*
Y51000D01*
X162000Y43000D02*
X165000Y46000D01*
X162000Y38000D02*
Y43000D01*
X162000Y38000D02*
X162000Y38000D01*
X156000Y38000D02*
X162000D01*
X155000Y37000D02*
X156000Y38000D01*
X149000Y37000D02*
X155000D01*
X307232Y201000D02*
X325000D01*
X302000Y195768D02*
X307232Y201000D01*
X319000Y194000D02*
X319000Y194000D01*
Y187000D02*
Y194000D01*
X309000Y187000D02*
Y194000D01*
X302000Y181000D02*
Y195768D01*
X309000Y187000D02*
X309000Y187000D01*
X300000Y179000D02*
X302000Y181000D01*
X286000Y199000D02*
X288799Y196201D01*
Y188200D02*
Y196201D01*
Y188200D02*
X289000Y188000D01*
X283000Y182000D02*
Y185975D01*
X282000Y181000D02*
X283000Y182000D01*
X278000Y181000D02*
X282000D01*
X285025Y188000D02*
X289000D01*
X283000Y185975D02*
X285025Y188000D01*
X277800Y198649D02*
X278000Y198449D01*
Y191000D02*
Y198449D01*
X294000Y162000D02*
X296000Y160000D01*
X281232Y162000D02*
X294000D01*
X278232Y159000D02*
X281232Y162000D01*
X304000Y169000D02*
X309000D01*
X272000Y168000D02*
X283000D01*
X302000Y171000D02*
X304000Y169000D01*
X297000Y171000D02*
X302000D01*
X286000D02*
X297000D01*
X283000Y168000D02*
X286000Y171000D01*
X518000Y175000D02*
X518000Y175000D01*
X525000D01*
X518000Y185000D02*
X518000Y185000D01*
X525000D01*
X535000D02*
X535000Y185000D01*
Y175000D02*
Y185000D01*
X230000Y235000D02*
X234000Y231000D01*
X127000D02*
X147000D01*
X124000Y228000D02*
X127000Y231000D01*
X124000Y180000D02*
Y228000D01*
Y180000D02*
X126002Y177998D01*
X133000Y212000D02*
X147000D01*
X133000Y200000D02*
Y212000D01*
X146000Y199000D02*
X177000D01*
X179000Y197000D02*
X190000D01*
X177000Y199000D02*
X179000Y197000D01*
X141000Y179000D02*
Y187768D01*
X179740Y7800D02*
X191940Y20000D01*
X239000Y130000D02*
Y136000D01*
X235200Y139800D02*
X239000Y136000D01*
X235200Y139800D02*
Y157860D01*
X139998Y177998D02*
X141000Y179000D01*
X147800Y185800D02*
X148000Y186000D01*
X155000D01*
X234000Y95998D02*
X247000D01*
X246999Y103000D02*
X247000Y102999D01*
Y95998D02*
Y102999D01*
X234000Y95998D02*
Y105000D01*
X187000Y21000D02*
X192200Y26200D01*
X231000Y143000D02*
Y156121D01*
X231000Y129000D02*
Y143000D01*
X231000Y143000D02*
X231000Y143000D01*
X220121Y167000D02*
X231000Y156121D01*
X237999Y114000D02*
Y118000D01*
X237000Y119000D02*
X237999Y118000D01*
X231000Y119000D02*
X237000D01*
X213000Y180060D02*
X235200Y157860D01*
X213000Y180060D02*
Y189000D01*
X212375Y167000D02*
X220121D01*
X224000Y175000D02*
X243000Y156000D01*
X224000Y175000D02*
Y181000D01*
X249200Y142432D02*
Y159800D01*
X233000Y176000D02*
X249200Y159800D01*
X233000Y176000D02*
Y181000D01*
X253800Y133432D02*
Y163200D01*
X242000Y175000D02*
X253800Y163200D01*
X242000Y175000D02*
Y181000D01*
X260000Y154524D02*
X270724Y143800D01*
X260000Y154524D02*
Y181000D01*
X180000Y162000D02*
Y166000D01*
X182000Y168000D01*
X189000D01*
X272999Y159000D02*
X278232D01*
X265800Y154664D02*
X272464Y148000D01*
X265800Y154664D02*
Y170568D01*
X272464Y148000D02*
X280140D01*
X288140Y140000D01*
X233000Y198000D02*
X233000Y198000D01*
X233000Y191000D02*
Y198000D01*
X242000D02*
X242000Y198000D01*
X242000Y191000D02*
Y198000D01*
X233000Y181000D02*
Y182000D01*
X269000Y181000D02*
Y182000D01*
Y173768D02*
Y181000D01*
X224000D02*
Y182000D01*
X242000Y181000D02*
Y182000D01*
X251000Y198000D02*
X251000Y198000D01*
Y192000D02*
Y198000D01*
X185500Y176500D02*
X191625D01*
X183000Y179000D02*
X185500Y176500D01*
X183000Y179000D02*
Y189000D01*
X191625Y157500D02*
X199500D01*
X203000Y161000D01*
Y189000D01*
X193000D02*
X203000D01*
X303000Y151000D02*
X309000D01*
X298800Y155200D02*
X303000Y151000D01*
X283200Y155200D02*
X298800D01*
X309000Y160000D02*
X309000Y160000D01*
X296000Y160000D02*
X309000D01*
X334092Y111200D02*
X341693Y103600D01*
X319940Y111200D02*
X334092D01*
X313400Y117740D02*
X319940Y111200D01*
X290000Y149000D02*
X297767D01*
X332353Y107000D02*
X341153Y98200D01*
X318200Y107000D02*
X332353D01*
X309200Y116000D02*
X318200Y107000D01*
X305000Y93000D02*
Y123140D01*
X288140Y140000D02*
X305000Y123140D01*
X288140Y140000D02*
X288140Y140000D01*
X335000Y146000D02*
X352750D01*
X331000Y150000D02*
X335000Y146000D01*
X331000Y150000D02*
Y156000D01*
X327000Y160000D02*
X331000Y156000D01*
X319000Y160000D02*
X327000D01*
X246999Y140231D02*
X249200Y142432D01*
X246999Y135000D02*
Y140231D01*
X253800Y133432D02*
X258032Y129200D01*
X261651Y144702D02*
X266752Y139600D01*
X261054Y144702D02*
X261651D01*
X270724Y143800D02*
X278400D01*
X184000Y140000D02*
X184000Y140000D01*
X175998Y140000D02*
X184000D01*
X148000Y177000D02*
X148000Y177000D01*
X155000D01*
X133000Y200000D02*
X133000Y200000D01*
X133000Y191998D02*
Y200000D01*
X393250Y166000D02*
Y174750D01*
X423000Y133000D02*
Y152000D01*
X388800Y89800D02*
X394000Y95000D01*
X429000Y29181D02*
Y34000D01*
X416219Y16400D02*
X429000Y29181D01*
X307600Y16400D02*
X416219D01*
X424400Y30521D02*
Y35340D01*
X312340Y20600D02*
X414479D01*
X420200Y32260D02*
Y37079D01*
X314079Y24800D02*
X412740D01*
X414479Y20600D02*
X424400Y30521D01*
X412740Y24800D02*
X420200Y32260D01*
X416000Y34000D02*
Y38819D01*
X411000Y29000D02*
X416000Y34000D01*
X316000Y29000D02*
X411000D01*
X298000Y222000D02*
Y226000D01*
X295500Y228500D02*
X298000Y226000D01*
X292000Y228500D02*
X295500D01*
X265800Y170568D02*
X269000Y173768D01*
Y199000D02*
X269000Y199000D01*
X269000Y192000D02*
Y199000D01*
X438599Y130200D02*
Y140401D01*
X438000Y141000D02*
X438599Y140401D01*
X438000Y160000D02*
X438000Y160000D01*
Y151000D02*
Y160000D01*
X429200Y132200D02*
Y159968D01*
X425500Y128500D02*
X429200Y132200D01*
X341693Y103600D02*
X358400D01*
X341153Y98200D02*
X357800D01*
X330999Y99000D02*
X331000Y98999D01*
Y92000D02*
Y98999D01*
X308479Y30400D02*
X314079Y24800D01*
X310400Y34600D02*
X316000Y29000D01*
X306740Y26200D02*
X312340Y20600D01*
X304000Y20000D02*
X307600Y16400D01*
X298000Y20000D02*
X304000D01*
X296000Y83000D02*
X297800Y81200D01*
Y75968D02*
Y81200D01*
Y75968D02*
X303500Y70268D01*
Y55000D02*
Y70268D01*
X296000Y83000D02*
X303000D01*
X310500Y75500D01*
Y55000D02*
Y75500D01*
X346000Y39000D02*
X353000D01*
X339000D02*
X346000D01*
X345500Y39500D02*
X346000Y39000D01*
X345500Y39500D02*
Y55000D01*
X339000Y39000D02*
Y54500D01*
X359500Y39000D02*
X366000D01*
X353000D02*
X359500D01*
Y55000D01*
X353000Y39000D02*
Y54500D01*
X352500Y55000D02*
X353000Y54500D01*
X366000Y39000D02*
Y54500D01*
X366500Y55000D01*
X401500Y42500D02*
Y55000D01*
X398000Y39000D02*
X401500Y42500D01*
X394500Y42500D02*
Y55000D01*
Y42500D02*
X398000Y39000D01*
X425500Y91000D02*
Y104500D01*
X425000Y105000D02*
X425500Y104500D01*
X426000Y82501D02*
Y85000D01*
X449000Y78232D02*
Y138000D01*
X409968Y39200D02*
X449000Y78232D01*
X480000Y98000D02*
X497000Y81000D01*
X480000Y98000D02*
Y125000D01*
X477479Y66400D02*
X484479Y59400D01*
X420200Y37079D02*
X449521Y66400D01*
X475740Y62200D02*
X482740Y55200D01*
X424400Y35340D02*
X451260Y62200D01*
X449521Y66400D02*
X477479D01*
X451260Y62200D02*
X475740D01*
X474000Y58000D02*
X490000Y42000D01*
X453000Y58000D02*
X474000D01*
X429000Y34000D02*
X453000Y58000D01*
X471000Y93819D02*
Y138000D01*
X416000Y38819D02*
X471000Y93819D01*
X409800Y39200D02*
X409968D01*
X444799Y81274D02*
Y147201D01*
X411525Y48000D02*
X444799Y81274D01*
X410000Y48000D02*
X411525D01*
X444799Y147201D02*
X444799Y147201D01*
X484479Y59400D02*
X495600D01*
X482740Y55200D02*
X490800D01*
X444799Y147201D02*
Y157799D01*
X449000Y138000D02*
X475000Y164000D01*
X444799Y157799D02*
X453465Y166464D01*
X475000Y170000D02*
X480464Y175464D01*
X475000Y164000D02*
Y170000D01*
X481999Y165000D02*
X482000D01*
X486464Y169464D01*
X460536Y174536D02*
X465999Y180000D01*
X391750Y176250D02*
X393250Y174750D01*
X383000Y176250D02*
X391750D01*
X165000Y166500D02*
Y176000D01*
X165000Y166500D02*
X165000Y166500D01*
X155000Y185000D02*
Y186000D01*
X283375Y228500D02*
X292000D01*
X366739Y107800D02*
X378000Y119060D01*
X343432Y107800D02*
X366739D01*
X378000Y119060D02*
Y135750D01*
X471000Y138000D02*
X476465Y143464D01*
X490000Y31000D02*
Y42000D01*
X490800Y55200D02*
X497000Y49000D01*
X495600Y59400D02*
X524000Y31000D01*
X339000Y121000D02*
X365000D01*
X357999Y114000D02*
X363939D01*
X283000Y155000D02*
X283200Y155200D01*
X278400Y143800D02*
X285200Y137000D01*
X276660Y139600D02*
X296600Y119660D01*
X266752Y139600D02*
X276660D01*
X274921Y135400D02*
X292400Y117921D01*
X260600Y135400D02*
X274921D01*
X274940Y129200D02*
X288200Y115940D01*
X258032Y129200D02*
X274940D01*
X288200Y97800D02*
Y115940D01*
X280600Y90200D02*
X288200Y97800D01*
X292400Y96060D02*
Y117921D01*
X284800Y88460D02*
X292400Y96060D01*
X285200Y137000D02*
X300800Y121400D01*
X260000Y136000D02*
X260600Y135400D01*
X365000Y121000D02*
X368000Y124000D01*
Y135750D01*
X363939Y114000D02*
X373000Y123060D01*
Y135750D01*
X524000Y31000D02*
X537000D01*
X425500Y128500D02*
X432000Y122000D01*
X437000D01*
X260000Y192000D02*
Y199000D01*
X260000Y192000D02*
X260000Y192000D01*
X319000Y169000D02*
X328000D01*
X328000Y169000D01*
X552000Y31000D02*
X553500Y32500D01*
X547000Y31000D02*
X552000D01*
X547000Y40000D02*
X553500D01*
Y32500D02*
Y40000D01*
Y51625D01*
X532625Y72375D02*
X544000D01*
X530000Y75000D02*
X532625Y72375D01*
X514500Y91000D02*
X526000D01*
X530000Y87000D01*
Y75000D02*
Y87000D01*
X477536Y156536D02*
X483535Y150536D01*
X460536Y173535D02*
X466535Y167535D01*
X460536Y173535D02*
Y174536D01*
X487536Y182536D02*
X487536D01*
X493000Y188000D01*
X487536Y182536D02*
X493535Y176536D01*
X483535Y150536D02*
X483536D01*
X489000Y156000D01*
X309000Y178000D02*
Y187000D01*
X352250Y146500D02*
X352750Y146000D01*
X191940Y20000D02*
X222000D01*
X226800Y26200D02*
X233000Y20000D01*
X273000D02*
X283400Y30400D01*
X308479D01*
X286000Y20000D02*
X292200Y26200D01*
X306740D01*
X331500Y55000D02*
Y69500D01*
X347000Y76000D02*
Y91000D01*
X346000Y92000D02*
X347000Y91000D01*
X340000Y92000D02*
X346000D01*
X334750Y72750D02*
X343750D01*
X347000Y76000D01*
X331500Y69500D02*
X334750Y72750D01*
X212998Y95998D02*
X221000D01*
X211440Y94440D02*
X212998Y95998D01*
X198000Y96002D02*
X205998D01*
X207240Y94760D01*
Y74821D02*
Y94760D01*
X198998Y75002D02*
Y80002D01*
X221000Y75000D02*
Y81998D01*
X205500Y55000D02*
Y68500D01*
X198998Y75002D02*
X205500Y68500D01*
X198998Y75002D02*
X198998D01*
X207240Y74821D02*
X212500Y69560D01*
Y55000D02*
Y69560D01*
X211440Y76560D02*
X219500Y68500D01*
Y55000D02*
Y68500D01*
X211440Y76560D02*
Y94440D01*
X226500Y55000D02*
Y69500D01*
X221000Y75000D02*
X226500Y69500D01*
X280600Y71400D02*
Y90200D01*
Y71400D02*
X282500Y69500D01*
Y55000D02*
Y69500D01*
X284800Y74200D02*
Y88460D01*
Y74200D02*
X289500Y69500D01*
Y55000D02*
Y69500D01*
X289000Y76000D02*
Y86720D01*
Y76000D02*
X296500Y68500D01*
Y55000D02*
Y68500D01*
X324500Y55000D02*
Y81950D01*
X380000Y55500D02*
X380500Y55000D01*
X373500D02*
Y71500D01*
X371000Y74000D02*
X373500Y71500D01*
X359000Y74000D02*
X371000D01*
X274000Y103000D02*
Y114000D01*
Y103000D02*
X274000Y103000D01*
X279875D01*
X280500Y102375D01*
X289000Y86720D02*
X296600Y94320D01*
Y119660D01*
X300800Y91200D02*
Y121400D01*
Y91200D02*
X317500Y74500D01*
Y55000D02*
Y74500D01*
X316000Y82000D02*
X331000D01*
X305000Y93000D02*
X316000Y82000D01*
X247000Y123000D02*
X247000Y123000D01*
X254000D01*
X255000D01*
X353750Y135750D02*
X363000D01*
X349000Y131000D02*
X353750Y135750D01*
X451000Y179000D02*
Y184000D01*
X450000Y178000D02*
X451000Y179000D01*
X442000Y178000D02*
X450000D01*
X440000Y176000D02*
X442000Y178000D01*
X451000Y184000D02*
X458000D01*
X458000Y184000D01*
X243000Y145000D02*
Y156000D01*
X160200Y7800D02*
X179740D01*
X157000Y11000D02*
X160200Y7800D01*
X157000Y11000D02*
Y16000D01*
X153000Y20000D02*
X157000Y16000D01*
X143500Y20000D02*
X153000D01*
X143500Y15000D02*
Y20000D01*
X172000Y33000D02*
Y38000D01*
X168500Y29500D02*
X172000Y33000D01*
X168500Y20000D02*
Y21000D01*
Y29500D01*
X149000Y61000D02*
X150000Y62000D01*
X149000Y37000D02*
Y46000D01*
Y61000D01*
X125000Y35000D02*
Y42002D01*
X121000Y31000D02*
X125000Y35000D01*
X129000Y24000D02*
X130000Y25000D01*
X121000Y24000D02*
X129000D01*
X121000Y9000D02*
X121000Y9000D01*
Y16000D01*
Y24000D01*
X138500Y60500D02*
X139000Y60000D01*
X149000Y94000D02*
Y104002D01*
X149000Y104002D01*
X131000Y101000D02*
X134002Y104002D01*
X138000D02*
X138500Y103502D01*
X134002Y104002D02*
X138000D01*
X159000Y94000D02*
X167000D01*
X169500Y91500D01*
X158000Y70000D02*
X177000D01*
X179000Y72000D01*
Y91000D01*
X149000Y118002D02*
Y129000D01*
X148998Y118000D02*
X149000Y118002D01*
X140000Y118000D02*
X148998D01*
X142000Y129000D02*
X149000D01*
X142000Y129000D02*
X142000Y129000D01*
X177375Y126375D02*
X182500D01*
X160002Y104002D02*
X163000Y107000D01*
Y116000D01*
X165000Y118000D01*
X174000D01*
X175000Y119000D01*
Y124000D01*
X176000Y125000D01*
X175000Y124000D02*
X177375Y126375D01*
X147000Y212000D02*
X211000D01*
Y206000D02*
Y212000D01*
X155000Y206000D02*
X211000D01*
X335832Y115400D02*
X343432Y107800D01*
X322600Y115400D02*
X335832D01*
X319000Y119000D02*
X322600Y115400D01*
X319000Y119000D02*
Y151000D01*
X296999Y141000D02*
X309200Y128799D01*
Y116000D02*
Y128799D01*
X297767Y149000D02*
X313400Y133367D01*
Y117740D02*
Y133367D01*
X326768Y208000D02*
X331200Y203568D01*
X317000Y208000D02*
X326768D01*
X313000Y212000D02*
X317000Y208000D01*
X308000Y212000D02*
X313000D01*
X342000Y174000D02*
Y192200D01*
X331200Y197000D02*
Y203568D01*
Y197000D02*
X333000Y195200D01*
X339000D01*
X342000Y192200D01*
X329000Y189000D02*
X335000D01*
X327000Y187000D02*
X329000Y189000D01*
X327000Y180000D02*
Y187000D01*
X325000Y178000D02*
X327000Y180000D01*
X319000Y178000D02*
X325000D01*
X251000Y182000D02*
X260000D01*
X130000Y15000D02*
X143500D01*
X139500Y94000D02*
X149000D01*
X139500Y94000D02*
Y94000D01*
Y94000D02*
X141000D01*
X355000Y92000D02*
X364530Y82470D01*
X360000Y102000D02*
X365000Y97000D01*
X379000D01*
X358400Y103600D02*
X360000Y102000D01*
X400999Y100000D02*
Y110999D01*
X423000Y133000D01*
X407200Y110200D02*
X425500Y128500D01*
X407200Y97432D02*
Y110200D01*
X405800Y96032D02*
X407200Y97432D01*
X190000Y57000D02*
X191000Y58000D01*
X190000Y57000D02*
X190000D01*
X188000Y72000D02*
X190000Y70000D01*
Y57000D02*
Y70000D01*
X188000Y72000D02*
Y79000D01*
X138000Y104002D02*
X149000D01*
X138500Y94000D02*
X139500D01*
Y103502D01*
X149000Y104002D02*
X160002D01*
X203000Y235000D02*
X212000D01*
X230000D01*
X165000Y51000D02*
X174000D01*
X179000Y46000D01*
Y42000D02*
Y46000D01*
Y42000D02*
X185000Y36000D01*
X192200Y26200D02*
X226800D01*
X240500Y34500D02*
Y55000D01*
X241200Y18899D02*
Y33800D01*
X168500Y21000D02*
X187000D01*
X248000Y20000D02*
X250000D01*
X247500Y34500D02*
Y55000D01*
X247000Y34000D02*
X247500Y34500D01*
X241000Y34000D02*
X247000D01*
X240500Y34500D02*
X241000Y34000D01*
X241200Y33800D01*
X261500Y34000D02*
Y55000D01*
X247500Y34500D02*
X248000Y34000D01*
X250000Y20000D02*
X263000D01*
X277600Y34600D01*
X310400D01*
X275500Y38500D02*
Y55000D01*
X271000Y34000D02*
X275500Y38500D01*
X268500Y34500D02*
Y55000D01*
X268000Y34000D02*
X268500Y34500D01*
X268000Y34000D02*
X271000D01*
X268500Y55000D02*
Y69425D01*
X269075Y70000D01*
X275500Y55000D02*
Y67500D01*
X271999Y70000D02*
X273000D01*
X275500Y67500D01*
X261500Y69500D02*
X262000Y70000D01*
X261500Y55000D02*
Y69500D01*
X262000Y70000D02*
X269075D01*
X271999D01*
X197000Y34000D02*
X241000D01*
X247000D02*
X248000D01*
X261500D01*
X268000D01*
X198500D02*
Y55000D01*
X185000Y36000D02*
X195000D01*
X197000Y34000D01*
X530324Y40000D02*
X537000D01*
X525552Y44771D02*
X530324Y40000D01*
X534500Y51625D02*
Y62719D01*
X534552Y62772D01*
X344000Y156000D02*
X352750D01*
X336000Y164000D02*
X344000Y156000D01*
X408999Y56002D02*
X409000Y56001D01*
X408999Y56002D02*
Y57000D01*
X400999Y100000D02*
X401200Y99799D01*
Y80665D02*
Y99799D01*
X414800Y72674D02*
Y76200D01*
X405800Y82432D02*
X409432Y78800D01*
X412200D01*
X414800Y76200D01*
X405800Y82432D02*
Y96032D01*
X357800Y98200D02*
X366200Y89800D01*
X388800D01*
X364530Y82470D02*
X379469D01*
X380000Y55500D02*
Y74000D01*
X410328Y65671D02*
Y71537D01*
X412470Y59471D02*
X412896D01*
X416528Y63103D01*
Y70947D01*
X401200Y80665D02*
X410328Y71537D01*
X414800Y72674D02*
X416528Y70947D01*
X394500Y55000D02*
Y71500D01*
X396232Y73232D01*
X397999Y74001D02*
X401500Y70500D01*
Y55000D02*
Y70500D01*
X387500Y55000D02*
X388615Y56115D01*
Y74384D01*
X292000Y228500D02*
Y233000D01*
X300999Y232999D02*
X308000Y225999D01*
Y222000D02*
Y225999D01*
D31*
X430000Y194000D02*
X447000D01*
X430000Y181122D02*
Y194000D01*
X423000Y190000D02*
Y202000D01*
X149000Y138875D02*
Y146000D01*
X130800Y85800D02*
X132800Y87800D01*
X126000Y85800D02*
X130800D01*
X406999Y178001D02*
X408000Y177000D01*
Y185001D01*
X131000Y146000D02*
Y151500D01*
Y138500D02*
Y146000D01*
X415450Y157450D02*
X431450Y173450D01*
X393250Y161000D02*
X402293D01*
X405843Y157450D01*
X415450D01*
X431450Y173450D02*
Y179672D01*
X458000Y194000D02*
X458000Y194000D01*
X451000Y194000D02*
X458000D01*
X234000Y212000D02*
X236000Y210000D01*
X261000D01*
X262625Y211625D01*
Y219000D01*
X160498Y138500D02*
X161998Y140000D01*
X218427Y198427D02*
X223573D01*
X224000Y198000D01*
Y191000D02*
Y198000D01*
X119500Y166500D02*
X131000D01*
X119000Y166000D02*
X119500Y166500D01*
X119000Y162000D02*
Y166000D01*
Y162000D02*
X119500Y161500D01*
X131000D01*
X179500Y151500D02*
X180000Y152000D01*
X165000Y151500D02*
X179500D01*
X119500D02*
X131000D01*
X119000Y152000D02*
X119500Y151500D01*
X119000Y152000D02*
Y156000D01*
X119500Y156500D01*
X131000D01*
X294999Y195000D02*
Y201001D01*
X291500Y204500D02*
X294999Y201001D01*
X291500Y204500D02*
Y209500D01*
X294000Y212000D02*
X298000D01*
X291500Y209500D02*
X294000Y212000D01*
X283375Y209500D02*
X291500D01*
X408000Y185001D02*
Y189001D01*
X430000Y181122D02*
X431450Y179672D01*
X425000Y177000D02*
X425000Y177000D01*
X418000Y177000D02*
X425000D01*
X450999Y152000D02*
X451000D01*
X459464Y160464D01*
X464000Y143000D02*
Y143000D01*
X470465Y149465D01*
X407000Y190001D02*
X408000Y189001D01*
X377750Y183750D02*
Y192250D01*
X373750Y184250D02*
Y192250D01*
X377750Y192250D02*
X379500Y194000D01*
X372000D02*
X373750Y192250D01*
X377750Y183750D02*
X378000Y183500D01*
Y176250D02*
Y183500D01*
X373000D02*
X373750Y184250D01*
X373000Y176250D02*
Y183500D01*
X331000Y82000D02*
X340000D01*
X233500Y55000D02*
Y81498D01*
X234000Y81998D01*
X254500Y55000D02*
Y81500D01*
X234000Y81998D02*
X234373Y81625D01*
X254625D02*
X271000D01*
X254500Y81500D02*
X254625Y81625D01*
X261500Y108500D02*
X264000Y111000D01*
X261500Y102375D02*
Y108500D01*
X446000Y195000D02*
X447000Y194000D01*
X446000Y195000D02*
Y202000D01*
X447000Y194000D02*
X451000D01*
X434000Y195000D02*
Y202000D01*
X436558Y168200D02*
X440000Y171642D01*
Y176000D01*
X126000Y84000D02*
Y85800D01*
X203000Y227000D02*
X227000D01*
X195000D02*
X203000D01*
X195000Y230000D02*
X224000D01*
X234373Y81625D02*
X254625D01*
X264000Y111000D02*
Y123000D01*
X195000Y227000D02*
Y230000D01*
Y235000D01*
X203000Y227000D02*
Y235000D01*
X212000Y227000D02*
Y235000D01*
X195000D02*
X203000D01*
D32*
X141000Y138500D02*
X149375D01*
X131000D02*
X141000D01*
X409999Y190001D02*
Y200000D01*
X401000Y192001D02*
X408000D01*
X405999Y200000D02*
X409999D01*
Y190001D02*
X410000Y190000D01*
X401000Y185001D02*
X408000D01*
X408000D01*
X141000Y138500D02*
Y146000D01*
X149375Y138500D02*
X160498D01*
X131500Y60500D02*
X138500D01*
X130000Y62000D02*
X131500Y60500D01*
X125000Y62000D02*
Y67998D01*
Y56002D02*
Y62000D01*
X130000D01*
X120000D02*
X125000D01*
X149000Y138875D02*
X149375Y138500D01*
X407000Y190001D02*
X409999D01*
Y200000D02*
X414000D01*
X414000Y200000D01*
X139000Y37000D02*
Y46000D01*
X125000Y56002D02*
X125000Y56002D01*
X163500Y126375D02*
Y138498D01*
X161998Y140000D02*
X163500Y138498D01*
X414000Y105000D02*
X425000D01*
X139000Y46000D02*
Y54002D01*
Y60000D01*
X125000Y54002D02*
X139000D01*
X140000D01*
X412000Y85000D02*
X426000D01*
D33*
X453435Y24000D02*
D03*
D34*
X350250Y201900D02*
D03*
X394750D02*
D03*
D35*
X222500Y116349D02*
D03*
Y126349D02*
D03*
Y136349D02*
D03*
Y146349D02*
D03*
X212500Y116349D02*
D03*
Y126349D02*
D03*
Y136349D02*
D03*
Y146349D02*
D03*
X202500Y116349D02*
D03*
Y126349D02*
D03*
Y136349D02*
D03*
Y146349D02*
D03*
X192500D02*
D03*
Y136349D02*
D03*
Y126349D02*
D03*
Y116349D02*
D03*
X150000Y62000D02*
D03*
X158000D02*
D03*
X150000Y70000D02*
D03*
X158000D02*
D03*
X150000Y78000D02*
D03*
X158000D02*
D03*
X368000Y151000D02*
D03*
X378000D02*
D03*
Y161000D02*
D03*
X368000D02*
D03*
X152000Y155000D02*
D03*
X144000Y163000D02*
D03*
X152000D02*
D03*
X144000Y155000D02*
D03*
X132800Y87800D02*
D03*
X401000Y185000D02*
D03*
X405999Y200000D02*
D03*
X159000Y104000D02*
D03*
X141000Y87000D02*
D03*
X139000Y95000D02*
D03*
Y104000D02*
D03*
X141000Y146000D02*
D03*
X131000D02*
D03*
X409999Y164000D02*
D03*
X172000Y185000D02*
D03*
X172000Y176000D02*
D03*
X131000Y172000D02*
D03*
X180000Y105000D02*
D03*
X120000Y62000D02*
D03*
X133000Y54000D02*
D03*
X165000Y51000D02*
D03*
X325000Y201000D02*
D03*
X319000Y194000D02*
D03*
X309000D02*
D03*
X277800Y198649D02*
D03*
X297000Y171000D02*
D03*
X406000Y151000D02*
D03*
X416000Y146000D02*
D03*
X458000Y194000D02*
D03*
X518000Y175000D02*
D03*
Y185000D02*
D03*
X212000Y232000D02*
D03*
X146000Y199000D02*
D03*
X246999Y103000D02*
D03*
X234000Y105000D02*
D03*
X237999Y114000D02*
D03*
X239000Y130000D02*
D03*
X189000Y168000D02*
D03*
X190000Y197000D02*
D03*
X272999Y159000D02*
D03*
X218427Y198427D02*
D03*
X233000Y198000D02*
D03*
X242000D02*
D03*
X251000D02*
D03*
X243000Y145000D02*
D03*
X246999Y135000D02*
D03*
X261054Y144702D02*
D03*
X184000Y140000D02*
D03*
X148000Y177000D02*
D03*
X133000Y201000D02*
D03*
X456000Y106000D02*
D03*
X400999Y120000D02*
D03*
X384200Y125250D02*
D03*
X388999Y102000D02*
D03*
X394000Y95000D02*
D03*
X300999Y232999D02*
D03*
X294999Y195000D02*
D03*
X269000Y199000D02*
D03*
X335000Y189000D02*
D03*
X425000Y177000D02*
D03*
X436558Y168200D02*
D03*
X423000Y152000D02*
D03*
X429200Y159968D02*
D03*
X330999Y99000D02*
D03*
X297800Y75968D02*
D03*
X296000Y83000D02*
D03*
X339000Y39000D02*
D03*
X389000Y37000D02*
D03*
X379999Y37000D02*
D03*
X398000Y39000D02*
D03*
X366000D02*
D03*
X353000D02*
D03*
X457946Y91800D02*
D03*
X491000Y115000D02*
D03*
X499000Y93000D02*
D03*
X479000Y84000D02*
D03*
X497000Y81000D02*
D03*
X474999Y73000D02*
D03*
X470000Y84000D02*
D03*
X527000Y15000D02*
D03*
Y24000D02*
D03*
X487000Y66000D02*
D03*
X457000Y50000D02*
D03*
X469000Y45000D02*
D03*
X438599Y130200D02*
D03*
X507000Y131000D02*
D03*
X464800Y134000D02*
D03*
X438000Y160000D02*
D03*
X481999Y165000D02*
D03*
X450999Y152000D02*
D03*
X464000Y143000D02*
D03*
X465999Y180000D02*
D03*
X401000Y192000D02*
D03*
X414000Y200000D02*
D03*
X292000Y233000D02*
D03*
X147800Y185800D02*
D03*
X480000Y125000D02*
D03*
X355000Y92000D02*
D03*
X339000Y121000D02*
D03*
X357999Y114000D02*
D03*
X296999Y141000D02*
D03*
X290000Y149000D02*
D03*
X272000Y168000D02*
D03*
X283000Y155000D02*
D03*
X260000Y136000D02*
D03*
X497000Y49000D02*
D03*
X409800Y39200D02*
D03*
X410000Y48000D02*
D03*
X379500Y194000D02*
D03*
X372000D02*
D03*
X260000Y199000D02*
D03*
X286000D02*
D03*
X328000Y169000D02*
D03*
X489000Y156000D02*
D03*
X493000Y188000D02*
D03*
X437000Y122000D02*
D03*
X490000Y31000D02*
D03*
X298000Y20000D02*
D03*
X273000D02*
D03*
X286000D02*
D03*
X233000D02*
D03*
X222000D02*
D03*
X359000Y74000D02*
D03*
X274000Y103000D02*
D03*
X342000Y174000D02*
D03*
X247000Y123000D02*
D03*
X349000Y131000D02*
D03*
X423000Y202000D02*
D03*
X446000Y202000D02*
D03*
X434000D02*
D03*
X458000Y184000D02*
D03*
X149000Y53500D02*
D03*
X121000Y31000D02*
D03*
Y24000D02*
D03*
X121000Y9000D02*
D03*
X121000Y16000D02*
D03*
X140000Y54000D02*
D03*
X179000Y91000D02*
D03*
X140000Y118000D02*
D03*
X142000Y129000D02*
D03*
X203000Y232000D02*
D03*
X195000D02*
D03*
X417552Y8771D02*
D03*
X516552Y62772D02*
D03*
Y134771D02*
D03*
X525552Y44771D02*
D03*
X534552Y62772D02*
D03*
X543552Y188771D02*
D03*
X552552Y206771D02*
D03*
X543552Y224771D02*
D03*
X552552Y242771D02*
D03*
X570552Y170771D02*
D03*
X561552Y188771D02*
D03*
Y224771D02*
D03*
X588552Y170771D02*
D03*
X579552Y188771D02*
D03*
X149000Y146000D02*
D03*
X330000Y129000D02*
D03*
X379000Y97000D02*
D03*
X379469Y82470D02*
D03*
X400999Y100000D02*
D03*
X414000Y105000D02*
D03*
X190000Y57000D02*
D03*
X188000Y79000D02*
D03*
X250000Y20000D02*
D03*
X241200Y18899D02*
D03*
X271999Y70000D02*
D03*
X336000Y164000D02*
D03*
X408999Y57000D02*
D03*
X412000Y85000D02*
D03*
X380000Y74000D02*
D03*
X398000D02*
D03*
X410328Y65671D02*
D03*
X388615Y74384D02*
D03*
X257000Y235000D02*
D03*
D36*
X147000Y231000D02*
D03*
Y212000D02*
D03*
X234000D02*
D03*
Y231000D02*
D03*
D37*
X198500Y55000D02*
D03*
X205500D02*
D03*
X212500D02*
D03*
X219500D02*
D03*
X226500D02*
D03*
X233500D02*
D03*
X240500D02*
D03*
X247500D02*
D03*
X254500D02*
D03*
X261500D02*
D03*
X268500D02*
D03*
X275500D02*
D03*
X282500D02*
D03*
X289500D02*
D03*
X296500D02*
D03*
X303500D02*
D03*
X310500D02*
D03*
X317500D02*
D03*
X324500D02*
D03*
X331500D02*
D03*
X338500D02*
D03*
X345500D02*
D03*
X352500D02*
D03*
X359500D02*
D03*
X366500D02*
D03*
X373500D02*
D03*
X380500D02*
D03*
X387500D02*
D03*
X394500D02*
D03*
X401500D02*
D03*
D38*
X410000Y190000D02*
D03*
X426000D02*
D03*
D39*
X459464Y160464D02*
D03*
X466535Y167535D02*
D03*
X486464Y169464D02*
D03*
X493535Y176536D02*
D03*
X470465Y149465D02*
D03*
X477536Y156536D02*
D03*
X476465Y143464D02*
D03*
X483535Y150536D02*
D03*
X480464Y175464D02*
D03*
X487536Y182536D02*
D03*
X453465Y166464D02*
D03*
X460536Y173535D02*
D03*
D40*
X154000Y70000D02*
D03*
D41*
X137500Y79500D02*
D03*
Y70000D02*
D03*
Y60500D02*
D03*
X170500D02*
D03*
Y70000D02*
D03*
Y79500D02*
D03*
D42*
X373000Y156000D02*
D03*
D43*
X363000Y135750D02*
D03*
X368000D02*
D03*
X373000D02*
D03*
X378000D02*
D03*
X383000D02*
D03*
Y176250D02*
D03*
X378000D02*
D03*
X373000D02*
D03*
X368000D02*
D03*
X363000D02*
D03*
D44*
X393250Y146000D02*
D03*
Y151000D02*
D03*
Y156000D02*
D03*
Y161000D02*
D03*
Y166000D02*
D03*
X352750D02*
D03*
Y161000D02*
D03*
Y156000D02*
D03*
Y151000D02*
D03*
Y146000D02*
D03*
D45*
X168500Y20000D02*
D03*
X143500D02*
D03*
D46*
X148000Y159000D02*
D03*
D47*
X165000Y151500D02*
D03*
Y156500D02*
D03*
Y161500D02*
D03*
Y166500D02*
D03*
X131000D02*
D03*
Y161500D02*
D03*
Y156500D02*
D03*
Y151500D02*
D03*
D48*
Y135000D02*
D03*
Y101000D02*
D03*
D49*
X191625Y157500D02*
D03*
Y176500D02*
D03*
X283375Y228500D02*
D03*
Y209500D02*
D03*
D50*
X212375Y167000D02*
D03*
X262625Y219000D02*
D03*
D51*
X514500Y91000D02*
D03*
X425500D02*
D03*
D52*
X146000Y159000D02*
X150000D01*
X148000Y156000D02*
Y162000D01*
D53*
X414250Y232450D02*
D03*
X330750D02*
D03*
M02*
