G04 Layer_Color=128*
%FSLAX44Y44*%
%MOMM*%
G71*
G01*
G75*
%ADD99C,0.1270*%
D99*
X440435Y24000D02*
X466435D01*
X453435Y11000D02*
Y37000D01*
X347000Y201900D02*
X353500D01*
X350250Y198650D02*
Y205150D01*
X391500Y201900D02*
X398000D01*
X394750Y198650D02*
Y205150D01*
X410125Y232450D02*
X418375D01*
X414250Y228325D02*
Y236575D01*
X326625Y232450D02*
X334875D01*
X330750Y228325D02*
Y236575D01*
X505634Y151967D02*
X522134D01*
X513884Y143717D02*
Y160217D01*
X463208Y194393D02*
X479708D01*
X471458Y186143D02*
Y202643D01*
X221000Y116349D02*
X224000D01*
X222500Y114849D02*
Y117849D01*
X221000Y126349D02*
X224000D01*
X222500Y124849D02*
Y127849D01*
X221000Y136349D02*
X224000D01*
X222500Y134849D02*
Y137849D01*
X221000Y146349D02*
X224000D01*
X222500Y144849D02*
Y147849D01*
X211000Y116349D02*
X214000D01*
X212500Y114849D02*
Y117849D01*
X211000Y126349D02*
X214000D01*
X212500Y124849D02*
Y127849D01*
X211000Y136349D02*
X214000D01*
X212500Y134849D02*
Y137849D01*
X211000Y146349D02*
X214000D01*
X212500Y144849D02*
Y147849D01*
X201000Y116349D02*
X204000D01*
X202500Y114849D02*
Y117849D01*
X201000Y126349D02*
X204000D01*
X202500Y124849D02*
Y127849D01*
X201000Y136349D02*
X204000D01*
X202500Y134849D02*
Y137849D01*
X201000Y146349D02*
X204000D01*
X202500Y144849D02*
Y147849D01*
X191000Y146349D02*
X194000D01*
X192500Y144849D02*
Y147849D01*
X191000Y136349D02*
X194000D01*
X192500Y134849D02*
Y137849D01*
X191000Y126349D02*
X194000D01*
X192500Y124849D02*
Y127849D01*
X191000Y116349D02*
X194000D01*
X192500Y114849D02*
Y117849D01*
X148500Y62000D02*
X151500D01*
X150000Y60500D02*
Y63500D01*
X156500Y62000D02*
X159500D01*
X158000Y60500D02*
Y63500D01*
X148500Y70000D02*
X151500D01*
X150000Y68500D02*
Y71500D01*
X156500Y70000D02*
X159500D01*
X158000Y68500D02*
Y71500D01*
X148500Y78000D02*
X151500D01*
X150000Y76500D02*
Y79500D01*
X156500Y78000D02*
X159500D01*
X158000Y76500D02*
Y79500D01*
X366500Y151000D02*
X369500D01*
X368000Y149500D02*
Y152500D01*
X376500Y151000D02*
X379500D01*
X378000Y149500D02*
Y152500D01*
X376500Y161000D02*
X379500D01*
X378000Y159500D02*
Y162500D01*
X366500Y161000D02*
X369500D01*
X368000Y159500D02*
Y162500D01*
X150500Y155000D02*
X153500D01*
X152000Y153500D02*
Y156500D01*
X142500Y163000D02*
X145500D01*
X144000Y161500D02*
Y164500D01*
X150500Y163000D02*
X153500D01*
X152000Y161500D02*
Y164500D01*
X142500Y155000D02*
X145500D01*
X144000Y153500D02*
Y156500D01*
X131300Y87800D02*
X134300D01*
X132800Y86300D02*
Y89300D01*
X399500Y185000D02*
X402500D01*
X401000Y183500D02*
Y186500D01*
X404499Y200000D02*
X407499D01*
X405999Y198500D02*
Y201500D01*
X157500Y104000D02*
X160500D01*
X159000Y102500D02*
Y105500D01*
X139500Y87000D02*
X142500D01*
X141000Y85500D02*
Y88500D01*
X137500Y95000D02*
X140500D01*
X139000Y93500D02*
Y96500D01*
X137500Y104000D02*
X140500D01*
X139000Y102500D02*
Y105500D01*
X139500Y146000D02*
X142500D01*
X141000Y144500D02*
Y147500D01*
X129500Y146000D02*
X132500D01*
X131000Y144500D02*
Y147500D01*
X408499Y164000D02*
X411499D01*
X409999Y162500D02*
Y165500D01*
X170500Y185000D02*
X173500D01*
X172000Y183500D02*
Y186500D01*
X170500Y176000D02*
X173500D01*
X172000Y174500D02*
Y177500D01*
X129500Y172000D02*
X132500D01*
X131000Y170500D02*
Y173500D01*
X178500Y105000D02*
X181500D01*
X180000Y103500D02*
Y106500D01*
X118500Y62000D02*
X121500D01*
X120000Y60500D02*
Y63500D01*
X131500Y54000D02*
X134500D01*
X133000Y52500D02*
Y55500D01*
X163500Y51000D02*
X166500D01*
X165000Y49500D02*
Y52500D01*
X323500Y201000D02*
X326500D01*
X325000Y199500D02*
Y202500D01*
X317500Y194000D02*
X320500D01*
X319000Y192500D02*
Y195500D01*
X307500Y194000D02*
X310500D01*
X309000Y192500D02*
Y195500D01*
X276300Y198649D02*
X279300D01*
X277800Y197149D02*
Y200149D01*
X295500Y171000D02*
X298500D01*
X297000Y169500D02*
Y172500D01*
X404500Y151000D02*
X407500D01*
X406000Y149500D02*
Y152500D01*
X414500Y146000D02*
X417500D01*
X416000Y144500D02*
Y147500D01*
X456500Y194000D02*
X459500D01*
X458000Y192500D02*
Y195500D01*
X516500Y175000D02*
X519500D01*
X518000Y173500D02*
Y176500D01*
X516500Y185000D02*
X519500D01*
X518000Y183500D02*
Y186500D01*
X210500Y232000D02*
X213500D01*
X212000Y230500D02*
Y233500D01*
X144500Y199000D02*
X147500D01*
X146000Y197500D02*
Y200500D01*
X245499Y103000D02*
X248500D01*
X246999Y101500D02*
Y104500D01*
X232500Y105000D02*
X235500D01*
X234000Y103500D02*
Y106500D01*
X236500Y114000D02*
X239499D01*
X237999Y112500D02*
Y115500D01*
X237500Y130000D02*
X240500D01*
X239000Y128500D02*
Y131500D01*
X187500Y168000D02*
X190500D01*
X189000Y166500D02*
Y169500D01*
X188500Y197000D02*
X191500D01*
X190000Y195500D02*
Y198500D01*
X271500Y159000D02*
X274499D01*
X272999Y157500D02*
Y160500D01*
X216927Y198427D02*
X219927D01*
X218427Y196927D02*
Y199927D01*
X231500Y198000D02*
X234500D01*
X233000Y196500D02*
Y199500D01*
X240500Y198000D02*
X243500D01*
X242000Y196500D02*
Y199500D01*
X249500Y198000D02*
X252500D01*
X251000Y196500D02*
Y199500D01*
X241500Y145000D02*
X244500D01*
X243000Y143500D02*
Y146500D01*
X245499Y135000D02*
X248500D01*
X246999Y133500D02*
Y136500D01*
X259554Y144702D02*
X262554D01*
X261054Y143202D02*
Y146202D01*
X182500Y140000D02*
X185500D01*
X184000Y138500D02*
Y141500D01*
X146500Y177000D02*
X149500D01*
X148000Y175500D02*
Y178500D01*
X131500Y201000D02*
X134500D01*
X133000Y199500D02*
Y202500D01*
X454500Y106000D02*
X457500D01*
X456000Y104500D02*
Y107500D01*
X399499Y120000D02*
X402499D01*
X400999Y118500D02*
Y121500D01*
X382700Y125250D02*
X385700D01*
X384200Y123750D02*
Y126750D01*
X387499Y102000D02*
X390499D01*
X388999Y100500D02*
Y103500D01*
X392500Y95000D02*
X395500D01*
X394000Y93500D02*
Y96500D01*
X299499Y232999D02*
X302499D01*
X300999Y231500D02*
Y234499D01*
X293499Y195000D02*
X296499D01*
X294999Y193500D02*
Y196500D01*
X267500Y199000D02*
X270500D01*
X269000Y197500D02*
Y200500D01*
X333500Y189000D02*
X336500D01*
X335000Y187500D02*
Y190500D01*
X423500Y177000D02*
X426500D01*
X425000Y175500D02*
Y178500D01*
X435057Y168200D02*
X438058D01*
X436558Y166700D02*
Y169700D01*
X421500Y152000D02*
X424500D01*
X423000Y150500D02*
Y153500D01*
X427700Y159968D02*
X430700D01*
X429200Y158468D02*
Y161468D01*
X329499Y99000D02*
X332499D01*
X330999Y97500D02*
Y100500D01*
X296300Y75968D02*
X299300D01*
X297800Y74468D02*
Y77468D01*
X294500Y83000D02*
X297500D01*
X296000Y81500D02*
Y84500D01*
X337500Y39000D02*
X340500D01*
X339000Y37500D02*
Y40500D01*
X387500Y37000D02*
X390500D01*
X389000Y35500D02*
Y38500D01*
X378499Y37000D02*
X381499D01*
X379999Y35500D02*
Y38500D01*
X396500Y39000D02*
X399500D01*
X398000Y37500D02*
Y40500D01*
X364500Y39000D02*
X367500D01*
X366000Y37500D02*
Y40500D01*
X351500Y39000D02*
X354500D01*
X353000Y37500D02*
Y40500D01*
X456446Y91800D02*
X459446D01*
X457946Y90300D02*
Y93300D01*
X489500Y115000D02*
X492500D01*
X491000Y113500D02*
Y116500D01*
X497500Y93000D02*
X500500D01*
X499000Y91500D02*
Y94500D01*
X477500Y84000D02*
X480500D01*
X479000Y82500D02*
Y85500D01*
X495500Y81000D02*
X498500D01*
X497000Y79500D02*
Y82500D01*
X473499Y73000D02*
X476499D01*
X474999Y71500D02*
Y74500D01*
X468500Y84000D02*
X471500D01*
X470000Y82500D02*
Y85500D01*
X525500Y15000D02*
X528500D01*
X527000Y13500D02*
Y16500D01*
X525500Y24000D02*
X528500D01*
X527000Y22500D02*
Y25500D01*
X485500Y66000D02*
X488500D01*
X487000Y64500D02*
Y67500D01*
X455500Y50000D02*
X458500D01*
X457000Y48500D02*
Y51500D01*
X467500Y45000D02*
X470500D01*
X469000Y43500D02*
Y46500D01*
X437099Y130200D02*
X440099D01*
X438599Y128700D02*
Y131700D01*
X505500Y131000D02*
X508500D01*
X507000Y129500D02*
Y132500D01*
X463300Y134000D02*
X466300D01*
X464800Y132500D02*
Y135500D01*
X436500Y160000D02*
X439500D01*
X438000Y158500D02*
Y161500D01*
X480499Y165000D02*
X483499D01*
X481999Y163500D02*
Y166500D01*
X449499Y152000D02*
X452499D01*
X450999Y150500D02*
Y153500D01*
X462500Y143000D02*
X465500D01*
X464000Y141500D02*
Y144500D01*
X464499Y180000D02*
X467499D01*
X465999Y178500D02*
Y181500D01*
X399500Y192000D02*
X402500D01*
X401000Y190500D02*
Y193500D01*
X412500Y200000D02*
X415500D01*
X414000Y198500D02*
Y201500D01*
X290500Y233000D02*
X293500D01*
X292000Y231500D02*
Y234500D01*
X146300Y185800D02*
X149300D01*
X147800Y184300D02*
Y187300D01*
X478500Y125000D02*
X481500D01*
X480000Y123500D02*
Y126500D01*
X353500Y92000D02*
X356500D01*
X355000Y90500D02*
Y93500D01*
X337500Y121000D02*
X340500D01*
X339000Y119500D02*
Y122500D01*
X356499Y114000D02*
X359499D01*
X357999Y112500D02*
Y115500D01*
X295499Y141000D02*
X298499D01*
X296999Y139500D02*
Y142500D01*
X288500Y149000D02*
X291500D01*
X290000Y147500D02*
Y150500D01*
X270500Y168000D02*
X273500D01*
X272000Y166500D02*
Y169500D01*
X281500Y155000D02*
X284500D01*
X283000Y153500D02*
Y156500D01*
X258500Y136000D02*
X261500D01*
X260000Y134500D02*
Y137500D01*
X495500Y49000D02*
X498500D01*
X497000Y47500D02*
Y50500D01*
X408300Y39200D02*
X411300D01*
X409800Y37700D02*
Y40700D01*
X408500Y48000D02*
X411500D01*
X410000Y46500D02*
Y49500D01*
X378000Y194000D02*
X381000D01*
X379500Y192500D02*
Y195500D01*
X370500Y194000D02*
X373500D01*
X372000Y192500D02*
Y195500D01*
X258500Y199000D02*
X261500D01*
X260000Y197500D02*
Y200500D01*
X284500Y199000D02*
X287500D01*
X286000Y197500D02*
Y200500D01*
X326500Y169000D02*
X329500D01*
X328000Y167500D02*
Y170500D01*
X487500Y156000D02*
X490500D01*
X489000Y154500D02*
Y157500D01*
X491500Y188000D02*
X494500D01*
X493000Y186500D02*
Y189500D01*
X435500Y122000D02*
X438500D01*
X437000Y120500D02*
Y123500D01*
X488500Y31000D02*
X491500D01*
X490000Y29500D02*
Y32500D01*
X296500Y20000D02*
X299500D01*
X298000Y18500D02*
Y21500D01*
X271500Y20000D02*
X274500D01*
X273000Y18500D02*
Y21500D01*
X284500Y20000D02*
X287500D01*
X286000Y18500D02*
Y21500D01*
X231500Y20000D02*
X234500D01*
X233000Y18500D02*
Y21500D01*
X220500Y20000D02*
X223500D01*
X222000Y18500D02*
Y21500D01*
X357500Y74000D02*
X360500D01*
X359000Y72500D02*
Y75500D01*
X272500Y103000D02*
X275500D01*
X274000Y101500D02*
Y104500D01*
X340500Y174000D02*
X343500D01*
X342000Y172500D02*
Y175500D01*
X245500Y123000D02*
X248500D01*
X247000Y121500D02*
Y124500D01*
X347500Y131000D02*
X350500D01*
X349000Y129500D02*
Y132500D01*
X421500Y202000D02*
X424500D01*
X423000Y200500D02*
Y203500D01*
X444500Y202000D02*
X447500D01*
X446000Y200500D02*
Y203500D01*
X432500Y202000D02*
X435500D01*
X434000Y200500D02*
Y203500D01*
X456500Y184000D02*
X459500D01*
X458000Y182500D02*
Y185500D01*
X147500Y53500D02*
X150500D01*
X149000Y52000D02*
Y55000D01*
X119500Y31000D02*
X122500D01*
X121000Y29500D02*
Y32500D01*
X119500Y24000D02*
X122500D01*
X121000Y22500D02*
Y25500D01*
X119500Y9000D02*
X122500D01*
X121000Y7500D02*
Y10500D01*
X119500Y16000D02*
X122500D01*
X121000Y14500D02*
Y17500D01*
X138500Y54000D02*
X141500D01*
X140000Y52500D02*
Y55500D01*
X177500Y91000D02*
X180500D01*
X179000Y89500D02*
Y92500D01*
X138500Y118000D02*
X141500D01*
X140000Y116500D02*
Y119500D01*
X140500Y129000D02*
X143500D01*
X142000Y127500D02*
Y130500D01*
X201500Y232000D02*
X204500D01*
X203000Y230500D02*
Y233500D01*
X193500Y232000D02*
X196500D01*
X195000Y230500D02*
Y233500D01*
X416052Y8771D02*
X419052D01*
X417552Y7272D02*
Y10272D01*
X515052Y62772D02*
X518052D01*
X516552Y61272D02*
Y64271D01*
X515052Y134771D02*
X518052D01*
X516552Y133271D02*
Y136271D01*
X524052Y44771D02*
X527052D01*
X525552Y43271D02*
Y46272D01*
X533052Y62772D02*
X536052D01*
X534552Y61272D02*
Y64271D01*
X542052Y188771D02*
X545052D01*
X543552Y187271D02*
Y190271D01*
X551052Y206771D02*
X554052D01*
X552552Y205271D02*
Y208271D01*
X542052Y224771D02*
X545052D01*
X543552Y223271D02*
Y226271D01*
X551052Y242771D02*
X554052D01*
X552552Y241271D02*
Y244271D01*
X569052Y170771D02*
X572052D01*
X570552Y169271D02*
Y172271D01*
X560052Y188771D02*
X563052D01*
X561552Y187271D02*
Y190271D01*
X560052Y224771D02*
X563052D01*
X561552Y223271D02*
Y226271D01*
X587052Y170771D02*
X590052D01*
X588552Y169271D02*
Y172271D01*
X578052Y188771D02*
X581052D01*
X579552Y187271D02*
Y190271D01*
X147500Y146000D02*
X150500D01*
X149000Y144500D02*
Y147500D01*
X328500Y129000D02*
X331500D01*
X330000Y127500D02*
Y130500D01*
X377500Y97000D02*
X380500D01*
X379000Y95500D02*
Y98500D01*
X377969Y82470D02*
X380969D01*
X379469Y80969D02*
Y83969D01*
X399499Y100000D02*
X402499D01*
X400999Y98500D02*
Y101500D01*
X412500Y105000D02*
X415500D01*
X414000Y103500D02*
Y106500D01*
X188500Y57000D02*
X191500D01*
X190000Y55500D02*
Y58500D01*
X186500Y79000D02*
X189500D01*
X188000Y77500D02*
Y80500D01*
X248500Y20000D02*
X251500D01*
X250000Y18500D02*
Y21500D01*
X239700Y18899D02*
X242700D01*
X241200Y17399D02*
Y20399D01*
X270499Y70000D02*
X273500D01*
X271999Y68500D02*
Y71500D01*
X334500Y164000D02*
X337500D01*
X336000Y162500D02*
Y165500D01*
X407499Y57000D02*
X410499D01*
X408999Y55500D02*
Y58500D01*
X410500Y85000D02*
X413500D01*
X412000Y83500D02*
Y86500D01*
X378500Y74000D02*
X381500D01*
X380000Y72500D02*
Y75500D01*
X396500Y74000D02*
X399500D01*
X398000Y72500D02*
Y75500D01*
X408828Y65671D02*
X411828D01*
X410328Y64171D02*
Y67171D01*
X387116Y74384D02*
X390116D01*
X388615Y72884D02*
Y75884D01*
X255500Y235000D02*
X258500D01*
X257000Y233500D02*
Y236500D01*
M02*
