M48
;Layer_Color=9474304
;FILE_FORMAT=4:4
METRIC,LZ
;TYPE=PLATED
T1F00S00C0.3000
T4F00S00C2.6000
;TYPE=NON_PLATED
T5F00S00C1.6500
%
T01
X00121Y00009
X00121Y00016
Y00024
Y00031
X0012Y00062
X00133Y00054
X0014
X00149Y000535
X0015Y00062
X00158
Y0007
X0015
Y00078
X00158
X00141Y00087
X001328Y000878
X00179Y00091
X00165Y00051
X0019Y00057
X00188Y00079
X00271999Y0007
X002978Y00075968
X00296Y00083
X00298Y0002
X00286
X00273
X0025
X002412Y00018899
X00233Y0002
X00222
X00339Y00039
X00353
X00366
X00379999Y00037
X00389Y00037
X00398Y00039
X004098Y000392
X0041Y00048
X00408999Y00057
X00410328Y00065671
X00398Y00074
X00388615Y00074384
X0038Y00074
X00379469Y0008247
X00359Y00074
X00355Y00092
X00412Y00085
X00457946Y000918
X0047Y00084
X00479
X00474999Y00073
X00487Y00066
X00497Y00081
X00499Y00093
X00497Y00049
X0049Y00031
X00469Y00045
X00457Y0005
X00516552Y00062772
X00534552
X00525552Y00044771
X00527Y00024
Y00015
X00417552Y00008771
X00588552Y00170771
X00570552
X00561552Y00188771
X00543552
X00552552Y00206771
X00543552Y00224771
X00561552
X00552552Y00242771
X00579552Y00188771
X00518Y00185
Y00175
X00493Y00188
X00481999Y00165
X00489Y00156
X00464Y00143
X004648Y00134
X0048Y00125
X00491Y00115
X00507Y00131
X00516552Y00134771
X00438599Y001302
X00437Y00122
X00456Y00106
X00414Y00105
X00400999Y001
X00394Y00095
X00388999Y00102
X00379Y00097
X003842Y0012525
X00400999Y0012
X00406Y00151
X00416Y00146
X00423Y00152
X004292Y00159968
X00438Y0016
X00436558Y001682
X00425Y00177
X00423Y00202
X00434Y00202
X00446
X00458Y00194
Y00184
X00465999Y0018
X00450999Y00152
X00409999Y00164
X00401Y00185
Y00192
X00405999Y002
X00414Y002
X003795Y00194
X00372
X00368Y00161
Y00151
X00378
Y00161
X00336Y00164
X00328Y00169
X00342Y00174
X00335Y00189
X00319Y00194
X00309
X00294999Y00195
X00286Y00199
X002778Y00198649
X00269Y00199
X0026
X00251Y00198
X00242
X00233
X00218427Y00198427
X0019Y00197
X00189Y00168
X001925Y00146349
X002025
X002125
X002225
Y00136349
Y00126349
Y00116349
X002125
Y00126349
Y00136349
X002025
Y00126349
Y00116349
X001925
Y00126349
Y00136349
X00239Y0013
X00246999Y00135
X00247Y00123
X00237999Y00114
X00234Y00105
X00246999Y00103
X00274Y00103
X0026Y00136
X00261054Y00144702
X00243Y00145
X00272999Y00159
X00272Y00168
X00283Y00155
X0029Y00149
X00296999Y00141
X00297Y00171
X00325Y00201
X00300999Y00232999
X00292Y00233
X00257Y00235
X00212Y00232
X00203
X00195
X0033Y00129
X00339Y00121
X00349Y00131
X00357999Y00114
X00330999Y00099
X0018Y00105
X00159Y00104
X00139
Y00095
X0014Y00118
X00142Y00129
X00141Y00146
X00149
X00152Y00155
Y00163
X00144
Y00155
X00131Y00146
Y00172
X00148Y00177
X001478Y001858
X00146Y00199
X00133Y00201
X00172Y00185
X00172Y00176
X00184Y0014
T04
X00453435Y00024
T05
X00513884Y00151967
X00471458Y00194393
M30
