G04 Layer_Color=2752767*
%FSLAX44Y44*%
%MOMM*%
G71*
G01*
G75*
%ADD99C,0.1270*%
%ADD100C,0.1693*%
D99*
X448355Y18920D02*
Y29080D01*
X458515D01*
Y18920D01*
X448355D01*
X414250Y227370D02*
X409170Y237530D01*
X419330D01*
X414250Y227370D01*
X330750D02*
X325670Y237530D01*
X335830D01*
X330750Y227370D01*
X513884Y146887D02*
X516424Y149427D01*
X518964D01*
X516424Y151967D01*
X518964Y154507D01*
X516424D01*
X513884Y157047D01*
X511344Y154507D01*
X508804D01*
X511344Y151967D01*
X508804Y149427D01*
X511344D01*
X513884Y146887D01*
X471458Y189313D02*
X473998Y191853D01*
X476538D01*
X473998Y194393D01*
X476538Y196933D01*
X473998D01*
X471458Y199473D01*
X468918Y196933D01*
X466378D01*
X468918Y194393D01*
X466378Y191853D01*
X468918D01*
X471458Y189313D01*
X217420Y111269D02*
X219960Y116349D01*
X217420Y121429D01*
X222500Y118889D01*
X227580Y121429D01*
X225040Y116349D01*
X227580Y111269D01*
X222500Y113809D01*
X217420Y111269D01*
Y121269D02*
X219960Y126349D01*
X217420Y131429D01*
X222500Y128889D01*
X227580Y131429D01*
X225040Y126349D01*
X227580Y121269D01*
X222500Y123809D01*
X217420Y121269D01*
Y131269D02*
X219960Y136349D01*
X217420Y141429D01*
X222500Y138889D01*
X227580Y141429D01*
X225040Y136349D01*
X227580Y131269D01*
X222500Y133809D01*
X217420Y131269D01*
Y141269D02*
X219960Y146349D01*
X217420Y151429D01*
X222500Y148889D01*
X227580Y151429D01*
X225040Y146349D01*
X227580Y141269D01*
X222500Y143809D01*
X217420Y141269D01*
X207420Y111269D02*
X209960Y116349D01*
X207420Y121429D01*
X212500Y118889D01*
X217580Y121429D01*
X215040Y116349D01*
X217580Y111269D01*
X212500Y113809D01*
X207420Y111269D01*
Y121269D02*
X209960Y126349D01*
X207420Y131429D01*
X212500Y128889D01*
X217580Y131429D01*
X215040Y126349D01*
X217580Y121269D01*
X212500Y123809D01*
X207420Y121269D01*
Y131269D02*
X209960Y136349D01*
X207420Y141429D01*
X212500Y138889D01*
X217580Y141429D01*
X215040Y136349D01*
X217580Y131269D01*
X212500Y133809D01*
X207420Y131269D01*
Y141269D02*
X209960Y146349D01*
X207420Y151429D01*
X212500Y148889D01*
X217580Y151429D01*
X215040Y146349D01*
X217580Y141269D01*
X212500Y143809D01*
X207420Y141269D01*
X197420Y111269D02*
X199960Y116349D01*
X197420Y121429D01*
X202500Y118889D01*
X207580Y121429D01*
X205040Y116349D01*
X207580Y111269D01*
X202500Y113809D01*
X197420Y111269D01*
Y121269D02*
X199960Y126349D01*
X197420Y131429D01*
X202500Y128889D01*
X207580Y131429D01*
X205040Y126349D01*
X207580Y121269D01*
X202500Y123809D01*
X197420Y121269D01*
Y131269D02*
X199960Y136349D01*
X197420Y141429D01*
X202500Y138889D01*
X207580Y141429D01*
X205040Y136349D01*
X207580Y131269D01*
X202500Y133809D01*
X197420Y131269D01*
Y141269D02*
X199960Y146349D01*
X197420Y151429D01*
X202500Y148889D01*
X207580Y151429D01*
X205040Y146349D01*
X207580Y141269D01*
X202500Y143809D01*
X197420Y141269D01*
X187420D02*
X189960Y146349D01*
X187420Y151429D01*
X192500Y148889D01*
X197580Y151429D01*
X195040Y146349D01*
X197580Y141269D01*
X192500Y143809D01*
X187420Y141269D01*
Y131269D02*
X189960Y136349D01*
X187420Y141429D01*
X192500Y138889D01*
X197580Y141429D01*
X195040Y136349D01*
X197580Y131269D01*
X192500Y133809D01*
X187420Y131269D01*
Y121269D02*
X189960Y126349D01*
X187420Y131429D01*
X192500Y128889D01*
X197580Y131429D01*
X195040Y126349D01*
X197580Y121269D01*
X192500Y123809D01*
X187420Y121269D01*
Y111269D02*
X189960Y116349D01*
X187420Y121429D01*
X192500Y118889D01*
X197580Y121429D01*
X195040Y116349D01*
X197580Y111269D01*
X192500Y113809D01*
X187420Y111269D01*
X144920Y56920D02*
X147460Y62000D01*
X144920Y67080D01*
X150000Y64540D01*
X155080Y67080D01*
X152540Y62000D01*
X155080Y56920D01*
X150000Y59460D01*
X144920Y56920D01*
X152920D02*
X155460Y62000D01*
X152920Y67080D01*
X158000Y64540D01*
X163080Y67080D01*
X160540Y62000D01*
X163080Y56920D01*
X158000Y59460D01*
X152920Y56920D01*
X144920Y64920D02*
X147460Y70000D01*
X144920Y75080D01*
X150000Y72540D01*
X155080Y75080D01*
X152540Y70000D01*
X155080Y64920D01*
X150000Y67460D01*
X144920Y64920D01*
X152920D02*
X155460Y70000D01*
X152920Y75080D01*
X158000Y72540D01*
X163080Y75080D01*
X160540Y70000D01*
X163080Y64920D01*
X158000Y67460D01*
X152920Y64920D01*
X144920Y72920D02*
X147460Y78000D01*
X144920Y83080D01*
X150000Y80540D01*
X155080Y83080D01*
X152540Y78000D01*
X155080Y72920D01*
X150000Y75460D01*
X144920Y72920D01*
X152920D02*
X155460Y78000D01*
X152920Y83080D01*
X158000Y80540D01*
X163080Y83080D01*
X160540Y78000D01*
X163080Y72920D01*
X158000Y75460D01*
X152920Y72920D01*
X362920Y145920D02*
X365460Y151000D01*
X362920Y156080D01*
X368000Y153540D01*
X373080Y156080D01*
X370540Y151000D01*
X373080Y145920D01*
X368000Y148460D01*
X362920Y145920D01*
X372920D02*
X375460Y151000D01*
X372920Y156080D01*
X378000Y153540D01*
X383080Y156080D01*
X380540Y151000D01*
X383080Y145920D01*
X378000Y148460D01*
X372920Y145920D01*
Y155920D02*
X375460Y161000D01*
X372920Y166080D01*
X378000Y163540D01*
X383080Y166080D01*
X380540Y161000D01*
X383080Y155920D01*
X378000Y158460D01*
X372920Y155920D01*
X362920D02*
X365460Y161000D01*
X362920Y166080D01*
X368000Y163540D01*
X373080Y166080D01*
X370540Y161000D01*
X373080Y155920D01*
X368000Y158460D01*
X362920Y155920D01*
X146920Y149920D02*
X149460Y155000D01*
X146920Y160080D01*
X152000Y157540D01*
X157080Y160080D01*
X154540Y155000D01*
X157080Y149920D01*
X152000Y152460D01*
X146920Y149920D01*
X138920Y157920D02*
X141460Y163000D01*
X138920Y168080D01*
X144000Y165540D01*
X149080Y168080D01*
X146540Y163000D01*
X149080Y157920D01*
X144000Y160460D01*
X138920Y157920D01*
X146920D02*
X149460Y163000D01*
X146920Y168080D01*
X152000Y165540D01*
X157080Y168080D01*
X154540Y163000D01*
X157080Y157920D01*
X152000Y160460D01*
X146920Y157920D01*
X138920Y149920D02*
X141460Y155000D01*
X138920Y160080D01*
X144000Y157540D01*
X149080Y160080D01*
X146540Y155000D01*
X149080Y149920D01*
X144000Y152460D01*
X138920Y149920D01*
X127720Y82720D02*
X130260Y87800D01*
X127720Y92880D01*
X132800Y90340D01*
X137880Y92880D01*
X135340Y87800D01*
X137880Y82720D01*
X132800Y85260D01*
X127720Y82720D01*
X395920Y179920D02*
X398460Y185000D01*
X395920Y190080D01*
X401000Y187540D01*
X406080Y190080D01*
X403540Y185000D01*
X406080Y179920D01*
X401000Y182460D01*
X395920Y179920D01*
X400919Y194920D02*
X403459Y200000D01*
X400919Y205080D01*
X405999Y202540D01*
X411079Y205080D01*
X408539Y200000D01*
X411079Y194920D01*
X405999Y197460D01*
X400919Y194920D01*
X153920Y98920D02*
X156460Y104000D01*
X153920Y109080D01*
X159000Y106540D01*
X164080Y109080D01*
X161540Y104000D01*
X164080Y98920D01*
X159000Y101460D01*
X153920Y98920D01*
X135920Y81920D02*
X138460Y87000D01*
X135920Y92080D01*
X141000Y89540D01*
X146080Y92080D01*
X143540Y87000D01*
X146080Y81920D01*
X141000Y84460D01*
X135920Y81920D01*
X133920Y89920D02*
X136460Y95000D01*
X133920Y100080D01*
X139000Y97540D01*
X144080Y100080D01*
X141540Y95000D01*
X144080Y89920D01*
X139000Y92460D01*
X133920Y89920D01*
Y98920D02*
X136460Y104000D01*
X133920Y109080D01*
X139000Y106540D01*
X144080Y109080D01*
X141540Y104000D01*
X144080Y98920D01*
X139000Y101460D01*
X133920Y98920D01*
X135920Y140920D02*
X138460Y146000D01*
X135920Y151080D01*
X141000Y148540D01*
X146080Y151080D01*
X143540Y146000D01*
X146080Y140920D01*
X141000Y143460D01*
X135920Y140920D01*
X125920D02*
X128460Y146000D01*
X125920Y151080D01*
X131000Y148540D01*
X136080Y151080D01*
X133540Y146000D01*
X136080Y140920D01*
X131000Y143460D01*
X125920Y140920D01*
X404919Y158920D02*
X407459Y164000D01*
X404919Y169080D01*
X409999Y166540D01*
X415079Y169080D01*
X412539Y164000D01*
X415079Y158920D01*
X409999Y161460D01*
X404919Y158920D01*
X166920Y179920D02*
X169460Y185000D01*
X166920Y190080D01*
X172000Y187540D01*
X177080Y190080D01*
X174540Y185000D01*
X177080Y179920D01*
X172000Y182460D01*
X166920Y179920D01*
X166920Y170920D02*
X169460Y176000D01*
X166920Y181080D01*
X172000Y178540D01*
X177080Y181080D01*
X174540Y176000D01*
X177080Y170920D01*
X172000Y173460D01*
X166920Y170920D01*
X125920Y166920D02*
X128460Y172000D01*
X125920Y177080D01*
X131000Y174540D01*
X136080Y177080D01*
X133540Y172000D01*
X136080Y166920D01*
X131000Y169460D01*
X125920Y166920D01*
X174920Y99920D02*
X177460Y105000D01*
X174920Y110080D01*
X180000Y107540D01*
X185080Y110080D01*
X182540Y105000D01*
X185080Y99920D01*
X180000Y102460D01*
X174920Y99920D01*
X114920Y56920D02*
X117460Y62000D01*
X114920Y67080D01*
X120000Y64540D01*
X125080Y67080D01*
X122540Y62000D01*
X125080Y56920D01*
X120000Y59460D01*
X114920Y56920D01*
X127920Y48920D02*
X130460Y54000D01*
X127920Y59080D01*
X133000Y56540D01*
X138080Y59080D01*
X135540Y54000D01*
X138080Y48920D01*
X133000Y51460D01*
X127920Y48920D01*
X159920Y45920D02*
X162460Y51000D01*
X159920Y56080D01*
X165000Y53540D01*
X170080Y56080D01*
X167540Y51000D01*
X170080Y45920D01*
X165000Y48460D01*
X159920Y45920D01*
X319920Y195920D02*
X322460Y201000D01*
X319920Y206080D01*
X325000Y203540D01*
X330080Y206080D01*
X327540Y201000D01*
X330080Y195920D01*
X325000Y198460D01*
X319920Y195920D01*
X313920Y188920D02*
X316460Y194000D01*
X313920Y199080D01*
X319000Y196540D01*
X324080Y199080D01*
X321540Y194000D01*
X324080Y188920D01*
X319000Y191460D01*
X313920Y188920D01*
X303920D02*
X306460Y194000D01*
X303920Y199080D01*
X309000Y196540D01*
X314080Y199080D01*
X311540Y194000D01*
X314080Y188920D01*
X309000Y191460D01*
X303920Y188920D01*
X272720Y193569D02*
X275260Y198649D01*
X272720Y203729D01*
X277800Y201189D01*
X282880Y203729D01*
X280340Y198649D01*
X282880Y193569D01*
X277800Y196109D01*
X272720Y193569D01*
X291920Y165920D02*
X294460Y171000D01*
X291920Y176080D01*
X297000Y173540D01*
X302080Y176080D01*
X299540Y171000D01*
X302080Y165920D01*
X297000Y168460D01*
X291920Y165920D01*
X400920Y145920D02*
X403460Y151000D01*
X400920Y156080D01*
X406000Y153540D01*
X411080Y156080D01*
X408540Y151000D01*
X411080Y145920D01*
X406000Y148460D01*
X400920Y145920D01*
X410920Y140920D02*
X413460Y146000D01*
X410920Y151080D01*
X416000Y148540D01*
X421080Y151080D01*
X418540Y146000D01*
X421080Y140920D01*
X416000Y143460D01*
X410920Y140920D01*
X452920Y188920D02*
X455460Y194000D01*
X452920Y199080D01*
X458000Y196540D01*
X463080Y199080D01*
X460540Y194000D01*
X463080Y188920D01*
X458000Y191460D01*
X452920Y188920D01*
X512920Y169920D02*
X515460Y175000D01*
X512920Y180080D01*
X518000Y177540D01*
X523080Y180080D01*
X520540Y175000D01*
X523080Y169920D01*
X518000Y172460D01*
X512920Y169920D01*
Y179920D02*
X515460Y185000D01*
X512920Y190080D01*
X518000Y187540D01*
X523080Y190080D01*
X520540Y185000D01*
X523080Y179920D01*
X518000Y182460D01*
X512920Y179920D01*
X206920Y226920D02*
X209460Y232000D01*
X206920Y237080D01*
X212000Y234540D01*
X217080Y237080D01*
X214540Y232000D01*
X217080Y226920D01*
X212000Y229460D01*
X206920Y226920D01*
X140920Y193920D02*
X143460Y199000D01*
X140920Y204080D01*
X146000Y201540D01*
X151080Y204080D01*
X148540Y199000D01*
X151080Y193920D01*
X146000Y196460D01*
X140920Y193920D01*
X241919Y97920D02*
X244459Y103000D01*
X241919Y108080D01*
X246999Y105540D01*
X252080Y108080D01*
X249540Y103000D01*
X252080Y97920D01*
X246999Y100460D01*
X241919Y97920D01*
X228920Y99920D02*
X231460Y105000D01*
X228920Y110080D01*
X234000Y107540D01*
X239080Y110080D01*
X236540Y105000D01*
X239080Y99920D01*
X234000Y102460D01*
X228920Y99920D01*
X232920Y108920D02*
X235459Y114000D01*
X232920Y119080D01*
X237999Y116540D01*
X243079Y119080D01*
X240539Y114000D01*
X243079Y108920D01*
X237999Y111460D01*
X232920Y108920D01*
X233920Y124920D02*
X236460Y130000D01*
X233920Y135080D01*
X239000Y132540D01*
X244080Y135080D01*
X241540Y130000D01*
X244080Y124920D01*
X239000Y127460D01*
X233920Y124920D01*
X183920Y162920D02*
X186460Y168000D01*
X183920Y173080D01*
X189000Y170540D01*
X194080Y173080D01*
X191540Y168000D01*
X194080Y162920D01*
X189000Y165460D01*
X183920Y162920D01*
X184920Y191920D02*
X187460Y197000D01*
X184920Y202080D01*
X190000Y199540D01*
X195080Y202080D01*
X192540Y197000D01*
X195080Y191920D01*
X190000Y194460D01*
X184920Y191920D01*
X267920Y153920D02*
X270459Y159000D01*
X267920Y164080D01*
X272999Y161540D01*
X278079Y164080D01*
X275539Y159000D01*
X278079Y153920D01*
X272999Y156460D01*
X267920Y153920D01*
X213347Y193347D02*
X215887Y198427D01*
X213347Y203507D01*
X218427Y200967D01*
X223507Y203507D01*
X220967Y198427D01*
X223507Y193347D01*
X218427Y195887D01*
X213347Y193347D01*
X227920Y192920D02*
X230460Y198000D01*
X227920Y203080D01*
X233000Y200540D01*
X238080Y203080D01*
X235540Y198000D01*
X238080Y192920D01*
X233000Y195460D01*
X227920Y192920D01*
X236920D02*
X239460Y198000D01*
X236920Y203080D01*
X242000Y200540D01*
X247080Y203080D01*
X244540Y198000D01*
X247080Y192920D01*
X242000Y195460D01*
X236920Y192920D01*
X245920D02*
X248460Y198000D01*
X245920Y203080D01*
X251000Y200540D01*
X256080Y203080D01*
X253540Y198000D01*
X256080Y192920D01*
X251000Y195460D01*
X245920Y192920D01*
X237920Y139920D02*
X240460Y145000D01*
X237920Y150080D01*
X243000Y147540D01*
X248080Y150080D01*
X245540Y145000D01*
X248080Y139920D01*
X243000Y142460D01*
X237920Y139920D01*
X241919Y129920D02*
X244459Y135000D01*
X241919Y140080D01*
X246999Y137540D01*
X252080Y140080D01*
X249540Y135000D01*
X252080Y129920D01*
X246999Y132460D01*
X241919Y129920D01*
X255974Y139622D02*
X258514Y144702D01*
X255974Y149782D01*
X261054Y147242D01*
X266134Y149782D01*
X263594Y144702D01*
X266134Y139622D01*
X261054Y142162D01*
X255974Y139622D01*
X178920Y134920D02*
X181460Y140000D01*
X178920Y145080D01*
X184000Y142540D01*
X189080Y145080D01*
X186540Y140000D01*
X189080Y134920D01*
X184000Y137460D01*
X178920Y134920D01*
X142920Y171920D02*
X145460Y177000D01*
X142920Y182080D01*
X148000Y179540D01*
X153080Y182080D01*
X150540Y177000D01*
X153080Y171920D01*
X148000Y174460D01*
X142920Y171920D01*
X127920Y195920D02*
X130460Y201000D01*
X127920Y206080D01*
X133000Y203540D01*
X138080Y206080D01*
X135540Y201000D01*
X138080Y195920D01*
X133000Y198460D01*
X127920Y195920D01*
X450920Y100920D02*
X453460Y106000D01*
X450920Y111080D01*
X456000Y108540D01*
X461080Y111080D01*
X458540Y106000D01*
X461080Y100920D01*
X456000Y103460D01*
X450920Y100920D01*
X395919Y114920D02*
X398459Y120000D01*
X395919Y125080D01*
X400999Y122540D01*
X406079Y125080D01*
X403539Y120000D01*
X406079Y114920D01*
X400999Y117460D01*
X395919Y114920D01*
X379120Y120170D02*
X381660Y125250D01*
X379120Y130330D01*
X384200Y127790D01*
X389280Y130330D01*
X386740Y125250D01*
X389280Y120170D01*
X384200Y122710D01*
X379120Y120170D01*
X383919Y96920D02*
X386459Y102000D01*
X383919Y107080D01*
X388999Y104540D01*
X394079Y107080D01*
X391539Y102000D01*
X394079Y96920D01*
X388999Y99460D01*
X383919Y96920D01*
X388920Y89920D02*
X391460Y95000D01*
X388920Y100080D01*
X394000Y97540D01*
X399080Y100080D01*
X396540Y95000D01*
X399080Y89920D01*
X394000Y92460D01*
X388920Y89920D01*
X295919Y227920D02*
X298459Y232999D01*
X295919Y238079D01*
X300999Y235539D01*
X306079Y238079D01*
X303539Y232999D01*
X306079Y227920D01*
X300999Y230459D01*
X295919Y227920D01*
X289919Y189920D02*
X292459Y195000D01*
X289919Y200080D01*
X294999Y197540D01*
X300079Y200080D01*
X297539Y195000D01*
X300079Y189920D01*
X294999Y192460D01*
X289919Y189920D01*
X263920Y193920D02*
X266460Y199000D01*
X263920Y204080D01*
X269000Y201540D01*
X274080Y204080D01*
X271540Y199000D01*
X274080Y193920D01*
X269000Y196460D01*
X263920Y193920D01*
X329920Y183920D02*
X332460Y189000D01*
X329920Y194080D01*
X335000Y191540D01*
X340080Y194080D01*
X337540Y189000D01*
X340080Y183920D01*
X335000Y186460D01*
X329920Y183920D01*
X419920Y171920D02*
X422460Y177000D01*
X419920Y182080D01*
X425000Y179540D01*
X430080Y182080D01*
X427540Y177000D01*
X430080Y171920D01*
X425000Y174460D01*
X419920Y171920D01*
X431478Y163120D02*
X434017Y168200D01*
X431478Y173280D01*
X436558Y170740D01*
X441637Y173280D01*
X439098Y168200D01*
X441637Y163120D01*
X436558Y165660D01*
X431478Y163120D01*
X417920Y146920D02*
X420460Y152000D01*
X417920Y157080D01*
X423000Y154540D01*
X428080Y157080D01*
X425540Y152000D01*
X428080Y146920D01*
X423000Y149460D01*
X417920Y146920D01*
X424120Y154888D02*
X426660Y159968D01*
X424120Y165048D01*
X429200Y162508D01*
X434280Y165048D01*
X431740Y159968D01*
X434280Y154888D01*
X429200Y157428D01*
X424120Y154888D01*
X325919Y93920D02*
X328459Y99000D01*
X325919Y104080D01*
X330999Y101540D01*
X336079Y104080D01*
X333539Y99000D01*
X336079Y93920D01*
X330999Y96460D01*
X325919Y93920D01*
X292720Y70888D02*
X295260Y75968D01*
X292720Y81048D01*
X297800Y78508D01*
X302880Y81048D01*
X300340Y75968D01*
X302880Y70888D01*
X297800Y73428D01*
X292720Y70888D01*
X290920Y77920D02*
X293460Y83000D01*
X290920Y88080D01*
X296000Y85540D01*
X301080Y88080D01*
X298540Y83000D01*
X301080Y77920D01*
X296000Y80460D01*
X290920Y77920D01*
X333920Y33920D02*
X336460Y39000D01*
X333920Y44080D01*
X339000Y41540D01*
X344080Y44080D01*
X341540Y39000D01*
X344080Y33920D01*
X339000Y36460D01*
X333920Y33920D01*
X383920Y31920D02*
X386460Y37000D01*
X383920Y42080D01*
X389000Y39540D01*
X394080Y42080D01*
X391540Y37000D01*
X394080Y31920D01*
X389000Y34460D01*
X383920Y31920D01*
X374919Y31920D02*
X377459Y37000D01*
X374919Y42080D01*
X379999Y39540D01*
X385079Y42080D01*
X382539Y37000D01*
X385079Y31920D01*
X379999Y34460D01*
X374919Y31920D01*
X392920Y33920D02*
X395460Y39000D01*
X392920Y44080D01*
X398000Y41540D01*
X403080Y44080D01*
X400540Y39000D01*
X403080Y33920D01*
X398000Y36460D01*
X392920Y33920D01*
X360920D02*
X363460Y39000D01*
X360920Y44080D01*
X366000Y41540D01*
X371080Y44080D01*
X368540Y39000D01*
X371080Y33920D01*
X366000Y36460D01*
X360920Y33920D01*
X347920D02*
X350460Y39000D01*
X347920Y44080D01*
X353000Y41540D01*
X358080Y44080D01*
X355540Y39000D01*
X358080Y33920D01*
X353000Y36460D01*
X347920Y33920D01*
X452866Y86720D02*
X455406Y91800D01*
X452866Y96880D01*
X457946Y94340D01*
X463026Y96880D01*
X460486Y91800D01*
X463026Y86720D01*
X457946Y89260D01*
X452866Y86720D01*
X485920Y109920D02*
X488460Y115000D01*
X485920Y120080D01*
X491000Y117540D01*
X496080Y120080D01*
X493540Y115000D01*
X496080Y109920D01*
X491000Y112460D01*
X485920Y109920D01*
X493920Y87920D02*
X496460Y93000D01*
X493920Y98080D01*
X499000Y95540D01*
X504080Y98080D01*
X501540Y93000D01*
X504080Y87920D01*
X499000Y90460D01*
X493920Y87920D01*
X473920Y78920D02*
X476460Y84000D01*
X473920Y89080D01*
X479000Y86540D01*
X484080Y89080D01*
X481540Y84000D01*
X484080Y78920D01*
X479000Y81460D01*
X473920Y78920D01*
X491920Y75920D02*
X494460Y81000D01*
X491920Y86080D01*
X497000Y83540D01*
X502080Y86080D01*
X499540Y81000D01*
X502080Y75920D01*
X497000Y78460D01*
X491920Y75920D01*
X469919Y67920D02*
X472459Y73000D01*
X469919Y78080D01*
X474999Y75540D01*
X480079Y78080D01*
X477539Y73000D01*
X480079Y67920D01*
X474999Y70460D01*
X469919Y67920D01*
X464920Y78920D02*
X467460Y84000D01*
X464920Y89080D01*
X470000Y86540D01*
X475080Y89080D01*
X472540Y84000D01*
X475080Y78920D01*
X470000Y81460D01*
X464920Y78920D01*
X521920Y9920D02*
X524460Y15000D01*
X521920Y20080D01*
X527000Y17540D01*
X532080Y20080D01*
X529540Y15000D01*
X532080Y9920D01*
X527000Y12460D01*
X521920Y9920D01*
Y18920D02*
X524460Y24000D01*
X521920Y29080D01*
X527000Y26540D01*
X532080Y29080D01*
X529540Y24000D01*
X532080Y18920D01*
X527000Y21460D01*
X521920Y18920D01*
X481920Y60920D02*
X484460Y66000D01*
X481920Y71080D01*
X487000Y68540D01*
X492080Y71080D01*
X489540Y66000D01*
X492080Y60920D01*
X487000Y63460D01*
X481920Y60920D01*
X451920Y44920D02*
X454460Y50000D01*
X451920Y55080D01*
X457000Y52540D01*
X462080Y55080D01*
X459540Y50000D01*
X462080Y44920D01*
X457000Y47460D01*
X451920Y44920D01*
X463920Y39920D02*
X466460Y45000D01*
X463920Y50080D01*
X469000Y47540D01*
X474080Y50080D01*
X471540Y45000D01*
X474080Y39920D01*
X469000Y42460D01*
X463920Y39920D01*
X433519Y125120D02*
X436059Y130200D01*
X433519Y135280D01*
X438599Y132740D01*
X443679Y135280D01*
X441139Y130200D01*
X443679Y125120D01*
X438599Y127660D01*
X433519Y125120D01*
X501920Y125920D02*
X504460Y131000D01*
X501920Y136080D01*
X507000Y133540D01*
X512080Y136080D01*
X509540Y131000D01*
X512080Y125920D01*
X507000Y128460D01*
X501920Y125920D01*
X459720Y128920D02*
X462260Y134000D01*
X459720Y139080D01*
X464800Y136540D01*
X469880Y139080D01*
X467340Y134000D01*
X469880Y128920D01*
X464800Y131460D01*
X459720Y128920D01*
X432920Y154920D02*
X435460Y160000D01*
X432920Y165080D01*
X438000Y162540D01*
X443080Y165080D01*
X440540Y160000D01*
X443080Y154920D01*
X438000Y157460D01*
X432920Y154920D01*
X476919Y159920D02*
X479459Y165000D01*
X476919Y170080D01*
X481999Y167540D01*
X487079Y170080D01*
X484539Y165000D01*
X487079Y159920D01*
X481999Y162460D01*
X476919Y159920D01*
X445919Y146920D02*
X448459Y152000D01*
X445919Y157080D01*
X450999Y154540D01*
X456079Y157080D01*
X453539Y152000D01*
X456079Y146920D01*
X450999Y149460D01*
X445919Y146920D01*
X458920Y137920D02*
X461460Y143000D01*
X458920Y148080D01*
X464000Y145540D01*
X469080Y148080D01*
X466540Y143000D01*
X469080Y137920D01*
X464000Y140460D01*
X458920Y137920D01*
X460919Y174920D02*
X463459Y180000D01*
X460919Y185080D01*
X465999Y182540D01*
X471079Y185080D01*
X468539Y180000D01*
X471079Y174920D01*
X465999Y177460D01*
X460919Y174920D01*
X395920Y186920D02*
X398460Y192000D01*
X395920Y197080D01*
X401000Y194540D01*
X406080Y197080D01*
X403540Y192000D01*
X406080Y186920D01*
X401000Y189460D01*
X395920Y186920D01*
X408920Y194920D02*
X411460Y200000D01*
X408920Y205080D01*
X414000Y202540D01*
X419080Y205080D01*
X416540Y200000D01*
X419080Y194920D01*
X414000Y197460D01*
X408920Y194920D01*
X286920Y227920D02*
X289460Y233000D01*
X286920Y238080D01*
X292000Y235540D01*
X297080Y238080D01*
X294540Y233000D01*
X297080Y227920D01*
X292000Y230460D01*
X286920Y227920D01*
X142720Y180720D02*
X145260Y185800D01*
X142720Y190880D01*
X147800Y188340D01*
X152880Y190880D01*
X150340Y185800D01*
X152880Y180720D01*
X147800Y183260D01*
X142720Y180720D01*
X474920Y119920D02*
X477460Y125000D01*
X474920Y130080D01*
X480000Y127540D01*
X485080Y130080D01*
X482540Y125000D01*
X485080Y119920D01*
X480000Y122460D01*
X474920Y119920D01*
X349920Y86920D02*
X352460Y92000D01*
X349920Y97080D01*
X355000Y94540D01*
X360080Y97080D01*
X357540Y92000D01*
X360080Y86920D01*
X355000Y89460D01*
X349920Y86920D01*
X333920Y115920D02*
X336460Y121000D01*
X333920Y126080D01*
X339000Y123540D01*
X344080Y126080D01*
X341540Y121000D01*
X344080Y115920D01*
X339000Y118460D01*
X333920Y115920D01*
X352919Y108920D02*
X355459Y114000D01*
X352919Y119080D01*
X357999Y116540D01*
X363079Y119080D01*
X360539Y114000D01*
X363079Y108920D01*
X357999Y111460D01*
X352919Y108920D01*
X291919Y135920D02*
X294459Y141000D01*
X291919Y146080D01*
X296999Y143540D01*
X302079Y146080D01*
X299539Y141000D01*
X302079Y135920D01*
X296999Y138460D01*
X291919Y135920D01*
X284920Y143920D02*
X287460Y149000D01*
X284920Y154080D01*
X290000Y151540D01*
X295080Y154080D01*
X292540Y149000D01*
X295080Y143920D01*
X290000Y146460D01*
X284920Y143920D01*
X266920Y162920D02*
X269460Y168000D01*
X266920Y173080D01*
X272000Y170540D01*
X277080Y173080D01*
X274540Y168000D01*
X277080Y162920D01*
X272000Y165460D01*
X266920Y162920D01*
X277920Y149920D02*
X280460Y155000D01*
X277920Y160080D01*
X283000Y157540D01*
X288080Y160080D01*
X285540Y155000D01*
X288080Y149920D01*
X283000Y152460D01*
X277920Y149920D01*
X254920Y130920D02*
X257460Y136000D01*
X254920Y141080D01*
X260000Y138540D01*
X265080Y141080D01*
X262540Y136000D01*
X265080Y130920D01*
X260000Y133460D01*
X254920Y130920D01*
X491920Y43920D02*
X494460Y49000D01*
X491920Y54080D01*
X497000Y51540D01*
X502080Y54080D01*
X499540Y49000D01*
X502080Y43920D01*
X497000Y46460D01*
X491920Y43920D01*
X404720Y34120D02*
X407260Y39200D01*
X404720Y44280D01*
X409800Y41740D01*
X414880Y44280D01*
X412340Y39200D01*
X414880Y34120D01*
X409800Y36660D01*
X404720Y34120D01*
X404920Y42920D02*
X407460Y48000D01*
X404920Y53080D01*
X410000Y50540D01*
X415080Y53080D01*
X412540Y48000D01*
X415080Y42920D01*
X410000Y45460D01*
X404920Y42920D01*
X374420Y188920D02*
X376960Y194000D01*
X374420Y199080D01*
X379500Y196540D01*
X384580Y199080D01*
X382040Y194000D01*
X384580Y188920D01*
X379500Y191460D01*
X374420Y188920D01*
X366920D02*
X369460Y194000D01*
X366920Y199080D01*
X372000Y196540D01*
X377080Y199080D01*
X374540Y194000D01*
X377080Y188920D01*
X372000Y191460D01*
X366920Y188920D01*
X254920Y193920D02*
X257460Y199000D01*
X254920Y204080D01*
X260000Y201540D01*
X265080Y204080D01*
X262540Y199000D01*
X265080Y193920D01*
X260000Y196460D01*
X254920Y193920D01*
X280920D02*
X283460Y199000D01*
X280920Y204080D01*
X286000Y201540D01*
X291080Y204080D01*
X288540Y199000D01*
X291080Y193920D01*
X286000Y196460D01*
X280920Y193920D01*
X322920Y163920D02*
X325460Y169000D01*
X322920Y174080D01*
X328000Y171540D01*
X333080Y174080D01*
X330540Y169000D01*
X333080Y163920D01*
X328000Y166460D01*
X322920Y163920D01*
X483920Y150920D02*
X486460Y156000D01*
X483920Y161080D01*
X489000Y158540D01*
X494080Y161080D01*
X491540Y156000D01*
X494080Y150920D01*
X489000Y153460D01*
X483920Y150920D01*
X487920Y182920D02*
X490460Y188000D01*
X487920Y193080D01*
X493000Y190540D01*
X498080Y193080D01*
X495540Y188000D01*
X498080Y182920D01*
X493000Y185460D01*
X487920Y182920D01*
X431920Y116920D02*
X434460Y122000D01*
X431920Y127080D01*
X437000Y124540D01*
X442080Y127080D01*
X439540Y122000D01*
X442080Y116920D01*
X437000Y119460D01*
X431920Y116920D01*
X484920Y25920D02*
X487460Y31000D01*
X484920Y36080D01*
X490000Y33540D01*
X495080Y36080D01*
X492540Y31000D01*
X495080Y25920D01*
X490000Y28460D01*
X484920Y25920D01*
X292920Y14920D02*
X295460Y20000D01*
X292920Y25080D01*
X298000Y22540D01*
X303080Y25080D01*
X300540Y20000D01*
X303080Y14920D01*
X298000Y17460D01*
X292920Y14920D01*
X267920D02*
X270460Y20000D01*
X267920Y25080D01*
X273000Y22540D01*
X278080Y25080D01*
X275540Y20000D01*
X278080Y14920D01*
X273000Y17460D01*
X267920Y14920D01*
X280920D02*
X283460Y20000D01*
X280920Y25080D01*
X286000Y22540D01*
X291080Y25080D01*
X288540Y20000D01*
X291080Y14920D01*
X286000Y17460D01*
X280920Y14920D01*
X227920D02*
X230460Y20000D01*
X227920Y25080D01*
X233000Y22540D01*
X238080Y25080D01*
X235540Y20000D01*
X238080Y14920D01*
X233000Y17460D01*
X227920Y14920D01*
X216920D02*
X219460Y20000D01*
X216920Y25080D01*
X222000Y22540D01*
X227080Y25080D01*
X224540Y20000D01*
X227080Y14920D01*
X222000Y17460D01*
X216920Y14920D01*
X353920Y68920D02*
X356460Y74000D01*
X353920Y79080D01*
X359000Y76540D01*
X364080Y79080D01*
X361540Y74000D01*
X364080Y68920D01*
X359000Y71460D01*
X353920Y68920D01*
X268920Y97920D02*
X271460Y103000D01*
X268920Y108080D01*
X274000Y105540D01*
X279080Y108080D01*
X276540Y103000D01*
X279080Y97920D01*
X274000Y100460D01*
X268920Y97920D01*
X336920Y168920D02*
X339460Y174000D01*
X336920Y179080D01*
X342000Y176540D01*
X347080Y179080D01*
X344540Y174000D01*
X347080Y168920D01*
X342000Y171460D01*
X336920Y168920D01*
X241920Y117920D02*
X244460Y123000D01*
X241920Y128080D01*
X247000Y125540D01*
X252080Y128080D01*
X249540Y123000D01*
X252080Y117920D01*
X247000Y120460D01*
X241920Y117920D01*
X343920Y125920D02*
X346460Y131000D01*
X343920Y136080D01*
X349000Y133540D01*
X354080Y136080D01*
X351540Y131000D01*
X354080Y125920D01*
X349000Y128460D01*
X343920Y125920D01*
X417920Y196920D02*
X420460Y202000D01*
X417920Y207080D01*
X423000Y204540D01*
X428080Y207080D01*
X425540Y202000D01*
X428080Y196920D01*
X423000Y199460D01*
X417920Y196920D01*
X440920Y196920D02*
X443460Y202000D01*
X440920Y207080D01*
X446000Y204540D01*
X451080Y207080D01*
X448540Y202000D01*
X451080Y196920D01*
X446000Y199460D01*
X440920Y196920D01*
X428920D02*
X431460Y202000D01*
X428920Y207080D01*
X434000Y204540D01*
X439080Y207080D01*
X436540Y202000D01*
X439080Y196920D01*
X434000Y199460D01*
X428920Y196920D01*
X452920Y178920D02*
X455460Y184000D01*
X452920Y189080D01*
X458000Y186540D01*
X463080Y189080D01*
X460540Y184000D01*
X463080Y178920D01*
X458000Y181460D01*
X452920Y178920D01*
X143920Y48420D02*
X146460Y53500D01*
X143920Y58580D01*
X149000Y56040D01*
X154080Y58580D01*
X151540Y53500D01*
X154080Y48420D01*
X149000Y50960D01*
X143920Y48420D01*
X115920Y25920D02*
X118460Y31000D01*
X115920Y36080D01*
X121000Y33540D01*
X126080Y36080D01*
X123540Y31000D01*
X126080Y25920D01*
X121000Y28460D01*
X115920Y25920D01*
Y18920D02*
X118460Y24000D01*
X115920Y29080D01*
X121000Y26540D01*
X126080Y29080D01*
X123540Y24000D01*
X126080Y18920D01*
X121000Y21460D01*
X115920Y18920D01*
X115920Y3920D02*
X118460Y9000D01*
X115920Y14080D01*
X121000Y11540D01*
X126080Y14080D01*
X123540Y9000D01*
X126080Y3920D01*
X121000Y6460D01*
X115920Y3920D01*
X115920Y10920D02*
X118460Y16000D01*
X115920Y21080D01*
X121000Y18540D01*
X126080Y21080D01*
X123540Y16000D01*
X126080Y10920D01*
X121000Y13460D01*
X115920Y10920D01*
X134920Y48920D02*
X137460Y54000D01*
X134920Y59080D01*
X140000Y56540D01*
X145080Y59080D01*
X142540Y54000D01*
X145080Y48920D01*
X140000Y51460D01*
X134920Y48920D01*
X173920Y85920D02*
X176460Y91000D01*
X173920Y96080D01*
X179000Y93540D01*
X184080Y96080D01*
X181540Y91000D01*
X184080Y85920D01*
X179000Y88460D01*
X173920Y85920D01*
X134920Y112920D02*
X137460Y118000D01*
X134920Y123080D01*
X140000Y120540D01*
X145080Y123080D01*
X142540Y118000D01*
X145080Y112920D01*
X140000Y115460D01*
X134920Y112920D01*
X136920Y123920D02*
X139460Y129000D01*
X136920Y134080D01*
X142000Y131540D01*
X147080Y134080D01*
X144540Y129000D01*
X147080Y123920D01*
X142000Y126460D01*
X136920Y123920D01*
X197920Y226920D02*
X200460Y232000D01*
X197920Y237080D01*
X203000Y234540D01*
X208080Y237080D01*
X205540Y232000D01*
X208080Y226920D01*
X203000Y229460D01*
X197920Y226920D01*
X189920D02*
X192460Y232000D01*
X189920Y237080D01*
X195000Y234540D01*
X200080Y237080D01*
X197540Y232000D01*
X200080Y226920D01*
X195000Y229460D01*
X189920Y226920D01*
X412472Y3692D02*
X415012Y8771D01*
X412472Y13851D01*
X417552Y11312D01*
X422632Y13851D01*
X420092Y8771D01*
X422632Y3692D01*
X417552Y6231D01*
X412472Y3692D01*
X511472Y57691D02*
X514012Y62772D01*
X511472Y67852D01*
X516552Y65311D01*
X521632Y67852D01*
X519092Y62772D01*
X521632Y57691D01*
X516552Y60231D01*
X511472Y57691D01*
Y129691D02*
X514012Y134771D01*
X511472Y139851D01*
X516552Y137311D01*
X521632Y139851D01*
X519092Y134771D01*
X521632Y129691D01*
X516552Y132231D01*
X511472Y129691D01*
X520472Y39692D02*
X523012Y44771D01*
X520472Y49851D01*
X525552Y47312D01*
X530632Y49851D01*
X528092Y44771D01*
X530632Y39692D01*
X525552Y42231D01*
X520472Y39692D01*
X529472Y57691D02*
X532012Y62772D01*
X529472Y67852D01*
X534552Y65311D01*
X539632Y67852D01*
X537092Y62772D01*
X539632Y57691D01*
X534552Y60231D01*
X529472Y57691D01*
X538472Y183691D02*
X541012Y188771D01*
X538472Y193851D01*
X543552Y191311D01*
X548632Y193851D01*
X546092Y188771D01*
X548632Y183691D01*
X543552Y186231D01*
X538472Y183691D01*
X547472Y201691D02*
X550012Y206771D01*
X547472Y211851D01*
X552552Y209311D01*
X557632Y211851D01*
X555092Y206771D01*
X557632Y201691D01*
X552552Y204231D01*
X547472Y201691D01*
X538472Y219691D02*
X541012Y224771D01*
X538472Y229851D01*
X543552Y227311D01*
X548632Y229851D01*
X546092Y224771D01*
X548632Y219691D01*
X543552Y222231D01*
X538472Y219691D01*
X547472Y237691D02*
X550012Y242771D01*
X547472Y247851D01*
X552552Y245311D01*
X557632Y247851D01*
X555092Y242771D01*
X557632Y237691D01*
X552552Y240231D01*
X547472Y237691D01*
X565472Y165691D02*
X568012Y170771D01*
X565472Y175851D01*
X570552Y173311D01*
X575632Y175851D01*
X573092Y170771D01*
X575632Y165691D01*
X570552Y168231D01*
X565472Y165691D01*
X556472Y183691D02*
X559012Y188771D01*
X556472Y193851D01*
X561552Y191311D01*
X566632Y193851D01*
X564092Y188771D01*
X566632Y183691D01*
X561552Y186231D01*
X556472Y183691D01*
Y219691D02*
X559012Y224771D01*
X556472Y229851D01*
X561552Y227311D01*
X566632Y229851D01*
X564092Y224771D01*
X566632Y219691D01*
X561552Y222231D01*
X556472Y219691D01*
X583472Y165691D02*
X586012Y170771D01*
X583472Y175851D01*
X588552Y173311D01*
X593632Y175851D01*
X591092Y170771D01*
X593632Y165691D01*
X588552Y168231D01*
X583472Y165691D01*
X574472Y183691D02*
X577012Y188771D01*
X574472Y193851D01*
X579552Y191311D01*
X584632Y193851D01*
X582092Y188771D01*
X584632Y183691D01*
X579552Y186231D01*
X574472Y183691D01*
X143920Y140920D02*
X146460Y146000D01*
X143920Y151080D01*
X149000Y148540D01*
X154080Y151080D01*
X151540Y146000D01*
X154080Y140920D01*
X149000Y143460D01*
X143920Y140920D01*
X324920Y123920D02*
X327460Y129000D01*
X324920Y134080D01*
X330000Y131540D01*
X335080Y134080D01*
X332540Y129000D01*
X335080Y123920D01*
X330000Y126460D01*
X324920Y123920D01*
X373920Y91920D02*
X376460Y97000D01*
X373920Y102080D01*
X379000Y99540D01*
X384080Y102080D01*
X381540Y97000D01*
X384080Y91920D01*
X379000Y94460D01*
X373920Y91920D01*
X374389Y77389D02*
X376929Y82470D01*
X374389Y87549D01*
X379469Y85009D01*
X384549Y87549D01*
X382009Y82470D01*
X384549Y77389D01*
X379469Y79929D01*
X374389Y77389D01*
X395919Y94920D02*
X398459Y100000D01*
X395919Y105080D01*
X400999Y102540D01*
X406079Y105080D01*
X403539Y100000D01*
X406079Y94920D01*
X400999Y97460D01*
X395919Y94920D01*
X408920Y99920D02*
X411460Y105000D01*
X408920Y110080D01*
X414000Y107540D01*
X419080Y110080D01*
X416540Y105000D01*
X419080Y99920D01*
X414000Y102460D01*
X408920Y99920D01*
X184920Y51920D02*
X187460Y57000D01*
X184920Y62080D01*
X190000Y59540D01*
X195080Y62080D01*
X192540Y57000D01*
X195080Y51920D01*
X190000Y54460D01*
X184920Y51920D01*
X182920Y73920D02*
X185460Y79000D01*
X182920Y84080D01*
X188000Y81540D01*
X193080Y84080D01*
X190540Y79000D01*
X193080Y73920D01*
X188000Y76460D01*
X182920Y73920D01*
X244920Y14920D02*
X247460Y20000D01*
X244920Y25080D01*
X250000Y22540D01*
X255080Y25080D01*
X252540Y20000D01*
X255080Y14920D01*
X250000Y17460D01*
X244920Y14920D01*
X236120Y13819D02*
X238660Y18899D01*
X236120Y23979D01*
X241200Y21439D01*
X246280Y23979D01*
X243740Y18899D01*
X246280Y13819D01*
X241200Y16359D01*
X236120Y13819D01*
X266919Y64920D02*
X269459Y70000D01*
X266919Y75080D01*
X271999Y72540D01*
X277080Y75080D01*
X274540Y70000D01*
X277080Y64920D01*
X271999Y67460D01*
X266919Y64920D01*
X330920Y158920D02*
X333460Y164000D01*
X330920Y169080D01*
X336000Y166540D01*
X341080Y169080D01*
X338540Y164000D01*
X341080Y158920D01*
X336000Y161460D01*
X330920Y158920D01*
X403919Y51920D02*
X406459Y57000D01*
X403919Y62080D01*
X408999Y59540D01*
X414079Y62080D01*
X411539Y57000D01*
X414079Y51920D01*
X408999Y54460D01*
X403919Y51920D01*
X406920Y79920D02*
X409460Y85000D01*
X406920Y90080D01*
X412000Y87540D01*
X417080Y90080D01*
X414540Y85000D01*
X417080Y79920D01*
X412000Y82460D01*
X406920Y79920D01*
X374920Y68920D02*
X377460Y74000D01*
X374920Y79080D01*
X380000Y76540D01*
X385080Y79080D01*
X382540Y74000D01*
X385080Y68920D01*
X380000Y71460D01*
X374920Y68920D01*
X392920D02*
X395460Y74000D01*
X392920Y79080D01*
X398000Y76540D01*
X403080Y79080D01*
X400540Y74000D01*
X403080Y68920D01*
X398000Y71460D01*
X392920Y68920D01*
X405248Y60591D02*
X407788Y65671D01*
X405248Y70751D01*
X410328Y68211D01*
X415408Y70751D01*
X412868Y65671D01*
X415408Y60591D01*
X410328Y63131D01*
X405248Y60591D01*
X383535Y69304D02*
X386076Y74384D01*
X383535Y79464D01*
X388615Y76924D01*
X393695Y79464D01*
X391156Y74384D01*
X393695Y69304D01*
X388615Y71844D01*
X383535Y69304D01*
X251920Y229920D02*
X254460Y235000D01*
X251920Y240080D01*
X257000Y237540D01*
X262080Y240080D01*
X259540Y235000D01*
X262080Y229920D01*
X257000Y232460D01*
X251920Y229920D01*
D100*
X355330Y201900D02*
G03*
X355330Y201900I-5080J0D01*
G01*
X399830D02*
G03*
X399830Y201900I-5080J0D01*
G01*
M02*
