G04 Layer_Color=128*
%FSLAX44Y44*%
%MOMM*%
G71*
G01*
G75*
%ADD17R,0.6000X0.5000*%
%ADD18R,0.5000X0.6000*%
%ADD19R,0.8000X0.9000*%
%ADD25R,0.6500X1.1000*%
%ADD26R,0.6500X0.9000*%
%ADD29R,0.9000X0.8000*%
%ADD41R,1.5000X3.4000*%
%ADD42R,1.1000X0.6500*%
%ADD43R,0.9000X0.6500*%
%ADD44R,0.8000X1.6000*%
%ADD45R,1.3000X0.3100*%
%ADD46R,1.7000X1.4500*%
%ADD47R,1.0000X1.8000*%
%ADD48R,1.2000X0.3100*%
%ADD49R,0.3100X1.2000*%
%ADD50R,2.1000X2.1000*%
%ADD51O,1.1000X0.4500*%
%ADD52R,1.7300X2.5000*%
G04:AMPARAMS|DCode=53|XSize=0.5mm|YSize=0.6mm|CornerRadius=0mm|HoleSize=0mm|Usage=FLASHONLY|Rotation=135.000|XOffset=0mm|YOffset=0mm|HoleType=Round|Shape=Rectangle|*
%AMROTATEDRECTD53*
4,1,4,0.3889,0.0354,-0.0354,-0.3889,-0.3889,-0.0354,0.0354,0.3889,0.3889,0.0354,0.0*
%
%ADD53ROTATEDRECTD53*%

%ADD54R,1.0000X1.3000*%
%ADD55R,0.4500X2.5000*%
%ADD56R,3.5000X1.5000*%
D17*
X203000Y189000D02*
D03*
X213000D02*
D03*
X155000Y186000D02*
D03*
X165000D02*
D03*
X319000Y151000D02*
D03*
X309000D02*
D03*
X319000Y160000D02*
D03*
X309000D02*
D03*
X264000Y123000D02*
D03*
X254000D02*
D03*
X274000Y114000D02*
D03*
X264000D02*
D03*
X525000Y175000D02*
D03*
X535000D02*
D03*
X159000Y94000D02*
D03*
X149000D02*
D03*
X547000Y40000D02*
D03*
X537000D02*
D03*
X547000Y31000D02*
D03*
X537000D02*
D03*
X309000Y187000D02*
D03*
X319000D02*
D03*
X535000Y185000D02*
D03*
X525000D02*
D03*
X149000Y37000D02*
D03*
X139000D02*
D03*
X162000Y38000D02*
D03*
X172000D02*
D03*
X418000Y177000D02*
D03*
X408000D02*
D03*
X139000Y46000D02*
D03*
X149000D02*
D03*
X309000Y178000D02*
D03*
X319000D02*
D03*
X309000Y169000D02*
D03*
X319000D02*
D03*
X155000Y177000D02*
D03*
X165000D02*
D03*
X183000Y189000D02*
D03*
X193000D02*
D03*
D18*
X231000Y119000D02*
D03*
Y129000D02*
D03*
X308000Y212000D02*
D03*
Y222000D02*
D03*
X180000Y162000D02*
D03*
Y152000D02*
D03*
X149000Y129000D02*
D03*
Y139000D02*
D03*
X298000Y222000D02*
D03*
Y212000D02*
D03*
X340000Y82000D02*
D03*
Y92000D02*
D03*
X251000Y181000D02*
D03*
Y191000D02*
D03*
X331000Y82000D02*
D03*
Y92000D02*
D03*
X278000Y181000D02*
D03*
Y191000D02*
D03*
X130000Y25000D02*
D03*
Y15000D02*
D03*
X451000Y184000D02*
D03*
Y194000D02*
D03*
X438000Y142000D02*
D03*
Y152000D02*
D03*
X289000Y188000D02*
D03*
Y178000D02*
D03*
X242000Y191000D02*
D03*
Y181000D02*
D03*
X233000Y191000D02*
D03*
Y181000D02*
D03*
X224000Y191000D02*
D03*
Y181000D02*
D03*
X269000Y191000D02*
D03*
Y181000D02*
D03*
X260000Y191000D02*
D03*
Y181000D02*
D03*
D19*
X175998Y140000D02*
D03*
X161998D02*
D03*
D25*
X544000Y72375D02*
D03*
X173000Y105625D02*
D03*
X271000Y81625D02*
D03*
D26*
X534500Y51625D02*
D03*
X553500D02*
D03*
X182500Y126375D02*
D03*
X163500D02*
D03*
X280500Y102375D02*
D03*
X261500D02*
D03*
D29*
X125000Y40002D02*
D03*
Y54002D02*
D03*
X133000Y193998D02*
D03*
Y179998D02*
D03*
X125000Y83998D02*
D03*
Y69998D02*
D03*
X149000Y104002D02*
D03*
Y118002D02*
D03*
X247000Y95998D02*
D03*
Y81998D02*
D03*
X234000Y95998D02*
D03*
Y81998D02*
D03*
X221000Y95998D02*
D03*
Y81998D02*
D03*
X198000Y82002D02*
D03*
Y96002D02*
D03*
X440000Y192998D02*
D03*
Y178998D02*
D03*
D41*
X425500Y91000D02*
D03*
X514500D02*
D03*
D42*
X262625Y219000D02*
D03*
X212375Y167000D02*
D03*
D43*
X283375Y209500D02*
D03*
Y228500D02*
D03*
X191625Y176500D02*
D03*
Y157500D02*
D03*
D44*
X131000Y101000D02*
D03*
Y135000D02*
D03*
D45*
Y151500D02*
D03*
Y156500D02*
D03*
Y161500D02*
D03*
Y166500D02*
D03*
X165000D02*
D03*
Y161500D02*
D03*
Y156500D02*
D03*
Y151500D02*
D03*
D46*
X148000Y159000D02*
D03*
D47*
X143500Y20000D02*
D03*
X168500D02*
D03*
D48*
X352750Y146000D02*
D03*
Y151000D02*
D03*
Y156000D02*
D03*
Y161000D02*
D03*
Y166000D02*
D03*
X393250D02*
D03*
Y161000D02*
D03*
Y156000D02*
D03*
Y151000D02*
D03*
Y146000D02*
D03*
D49*
X363000Y176250D02*
D03*
X368000D02*
D03*
X373000D02*
D03*
X378000D02*
D03*
X383000D02*
D03*
Y135750D02*
D03*
X378000D02*
D03*
X373000D02*
D03*
X368000D02*
D03*
X363000D02*
D03*
D50*
X373000Y156000D02*
D03*
D51*
X170500Y79500D02*
D03*
Y70000D02*
D03*
Y60500D02*
D03*
X137500D02*
D03*
Y70000D02*
D03*
Y79500D02*
D03*
D52*
X154000Y70000D02*
D03*
D53*
X460536Y173535D02*
D03*
X453465Y166464D02*
D03*
X487536Y182536D02*
D03*
X480464Y175464D02*
D03*
X483535Y150536D02*
D03*
X476465Y143464D02*
D03*
X477536Y156536D02*
D03*
X470465Y149465D02*
D03*
X493535Y176536D02*
D03*
X486464Y169464D02*
D03*
X466535Y167535D02*
D03*
X459464Y160464D02*
D03*
D54*
X426000Y190000D02*
D03*
X410000D02*
D03*
D55*
X401500Y55000D02*
D03*
X394500D02*
D03*
X387500D02*
D03*
X380500D02*
D03*
X373500D02*
D03*
X366500D02*
D03*
X359500D02*
D03*
X352500D02*
D03*
X345500D02*
D03*
X338500D02*
D03*
X331500D02*
D03*
X324500D02*
D03*
X317500D02*
D03*
X310500D02*
D03*
X303500D02*
D03*
X296500D02*
D03*
X289500D02*
D03*
X282500D02*
D03*
X275500D02*
D03*
X268500D02*
D03*
X261500D02*
D03*
X254500D02*
D03*
X247500D02*
D03*
X240500D02*
D03*
X233500D02*
D03*
X226500D02*
D03*
X219500D02*
D03*
X212500D02*
D03*
X205500D02*
D03*
X198500D02*
D03*
D56*
X234000Y231000D02*
D03*
Y212000D02*
D03*
X147000D02*
D03*
Y231000D02*
D03*
M02*
