G04 Layer_Color=8421504*
%FSLAX44Y44*%
%MOMM*%
G71*
G01*
G75*
%ADD10R,0.9000X2.1000*%
%ADD11R,2.1000X0.9000*%
%ADD12R,4.0000X4.0000*%
%ADD13R,1.5000X0.5500*%
%ADD14R,1.2000X0.3000*%
%ADD15R,0.3000X1.2000*%
%ADD16R,1.1000X0.3000*%
%ADD17R,0.6000X0.5000*%
%ADD18R,0.5000X0.6000*%
%ADD19R,0.8000X0.9000*%
%ADD20R,1.5000X1.4000*%
%ADD21R,1.2000X0.8500*%
%ADD22R,0.8500X1.2000*%
G04:AMPARAMS|DCode=23|XSize=1.3mm|YSize=1.4mm|CornerRadius=0mm|HoleSize=0mm|Usage=FLASHONLY|Rotation=315.000|XOffset=0mm|YOffset=0mm|HoleType=Round|Shape=Rectangle|*
%AMROTATEDRECTD23*
4,1,4,-0.9546,-0.0354,0.0354,0.9546,0.9546,0.0354,-0.0354,-0.9546,-0.9546,-0.0354,0.0*
%
%ADD23ROTATEDRECTD23*%

G04:AMPARAMS|DCode=24|XSize=1.2mm|YSize=1.3mm|CornerRadius=0mm|HoleSize=0mm|Usage=FLASHONLY|Rotation=315.000|XOffset=0mm|YOffset=0mm|HoleType=Round|Shape=Rectangle|*
%AMROTATEDRECTD24*
4,1,4,-0.8839,-0.0354,0.0354,0.8839,0.8839,0.0354,-0.0354,-0.8839,-0.8839,-0.0354,0.0*
%
%ADD24ROTATEDRECTD24*%

%ADD25R,0.6500X1.1000*%
%ADD26R,0.6500X0.9000*%
%ADD27R,0.4000X1.3500*%
%ADD28R,1.8000X1.9000*%
%ADD29R,0.9000X0.8000*%
G36*
X345825Y222950D02*
X326378D01*
X325276Y223407D01*
X324432Y224251D01*
X323975Y225353D01*
Y225950D01*
Y236950D01*
Y237945D01*
X324736Y239782D01*
X326143Y241189D01*
X327980Y241950D01*
X345825D01*
Y222950D01*
D02*
G37*
G36*
X418857Y241189D02*
X420264Y239782D01*
X421025Y237945D01*
Y236950D01*
Y225950D01*
Y225353D01*
X420568Y224251D01*
X419724Y223407D01*
X418622Y222950D01*
X399175D01*
Y241950D01*
X417020D01*
X418857Y241189D01*
D02*
G37*
D10*
X133400Y214349D02*
D03*
X146100D02*
D03*
X158800D02*
D03*
X171500D02*
D03*
X184200D02*
D03*
X196900D02*
D03*
X209600D02*
D03*
X222300D02*
D03*
X235000D02*
D03*
X247700D02*
D03*
X260400D02*
D03*
X273100D02*
D03*
X285800D02*
D03*
X298500D02*
D03*
Y34599D02*
D03*
X285800D02*
D03*
X273100D02*
D03*
X260400D02*
D03*
X247700D02*
D03*
X235000D02*
D03*
X222300D02*
D03*
X209600D02*
D03*
X196900D02*
D03*
X184200D02*
D03*
X171500D02*
D03*
X158800D02*
D03*
X146100D02*
D03*
X133400D02*
D03*
D11*
X313500Y67199D02*
D03*
Y79899D02*
D03*
Y92599D02*
D03*
Y105299D02*
D03*
Y117999D02*
D03*
Y130699D02*
D03*
Y143399D02*
D03*
Y156099D02*
D03*
Y168799D02*
D03*
Y181499D02*
D03*
D12*
X207500Y131349D02*
D03*
D13*
X424000Y91750D02*
D03*
Y79250D02*
D03*
Y66750D02*
D03*
X446000Y54250D02*
D03*
X424000D02*
D03*
X446000Y91750D02*
D03*
Y79250D02*
D03*
Y66750D02*
D03*
D14*
X424500Y136000D02*
D03*
Y131000D02*
D03*
Y126000D02*
D03*
Y121000D02*
D03*
Y116000D02*
D03*
X453500Y121000D02*
D03*
Y126000D02*
D03*
Y131000D02*
D03*
D15*
X434000Y111250D02*
D03*
X439000D02*
D03*
X444000D02*
D03*
Y140750D02*
D03*
X439000D02*
D03*
X434000D02*
D03*
D16*
X453500Y116000D02*
D03*
Y136000D02*
D03*
D17*
X182000Y13000D02*
D03*
X172000D02*
D03*
X152000Y13000D02*
D03*
X162000D02*
D03*
X470000Y109000D02*
D03*
X480000D02*
D03*
X470000Y118000D02*
D03*
X480000D02*
D03*
X500000Y24000D02*
D03*
X490000D02*
D03*
X280000Y234000D02*
D03*
X270000D02*
D03*
X510000Y15000D02*
D03*
X520000D02*
D03*
X344000Y141000D02*
D03*
X334000D02*
D03*
X364000D02*
D03*
X354000D02*
D03*
X520000Y24000D02*
D03*
X510000D02*
D03*
D18*
X340000Y82000D02*
D03*
Y92000D02*
D03*
X463000Y84000D02*
D03*
Y74000D02*
D03*
X443000Y236000D02*
D03*
Y226000D02*
D03*
X372000Y117000D02*
D03*
Y107000D02*
D03*
X352500Y60000D02*
D03*
Y50000D02*
D03*
X381000Y117000D02*
D03*
Y107000D02*
D03*
X434000Y226000D02*
D03*
Y236000D02*
D03*
X463000Y64000D02*
D03*
Y54000D02*
D03*
X396000Y154000D02*
D03*
Y164000D02*
D03*
X408000Y118000D02*
D03*
Y128000D02*
D03*
D19*
X490998Y93000D02*
D03*
X476998D02*
D03*
X393002Y140000D02*
D03*
X407002D02*
D03*
D20*
X547500Y55000D02*
D03*
X482500D02*
D03*
D21*
X570453Y205000D02*
D03*
D22*
X524491Y250962D02*
D03*
D23*
X499035Y122976D02*
D03*
X481181Y140830D02*
D03*
X460321Y161690D02*
D03*
X442467Y179544D02*
D03*
D24*
X477115Y233991D02*
D03*
X553482Y157624D02*
D03*
D25*
X349000Y173375D02*
D03*
Y108625D02*
D03*
D26*
X358500Y152625D02*
D03*
X339500D02*
D03*
X339500Y129375D02*
D03*
X358500D02*
D03*
D27*
X366000Y204400D02*
D03*
X372500D02*
D03*
X379000D02*
D03*
X359500D02*
D03*
X385500D02*
D03*
D28*
X384000Y232450D02*
D03*
X361000D02*
D03*
D29*
X392000Y48002D02*
D03*
Y62002D02*
D03*
X379000Y48002D02*
D03*
Y62002D02*
D03*
X366000Y48002D02*
D03*
Y62002D02*
D03*
X393000Y111998D02*
D03*
Y125998D02*
D03*
M02*
