G04 Layer_Physical_Order=1*
G04 Layer_Color=3162822*
%FSLAX44Y44*%
%MOMM*%
G71*
G01*
G75*
%ADD10R,0.9000X0.8000*%
%ADD11R,0.8000X0.9000*%
%ADD12R,0.5000X0.6000*%
%ADD13R,0.6000X0.5000*%
%ADD14R,1.8000X1.9000*%
%ADD15R,0.4000X1.3500*%
%ADD16R,0.6500X0.9000*%
%ADD17R,0.6500X1.1000*%
G04:AMPARAMS|DCode=18|XSize=1.2mm|YSize=1.3mm|CornerRadius=0mm|HoleSize=0mm|Usage=FLASHONLY|Rotation=315.000|XOffset=0mm|YOffset=0mm|HoleType=Round|Shape=Rectangle|*
%AMROTATEDRECTD18*
4,1,4,-0.8839,-0.0354,0.0354,0.8839,0.8839,0.0354,-0.0354,-0.8839,-0.8839,-0.0354,0.0*
%
%ADD18ROTATEDRECTD18*%

G04:AMPARAMS|DCode=19|XSize=1.3mm|YSize=1.4mm|CornerRadius=0mm|HoleSize=0mm|Usage=FLASHONLY|Rotation=315.000|XOffset=0mm|YOffset=0mm|HoleType=Round|Shape=Rectangle|*
%AMROTATEDRECTD19*
4,1,4,-0.9546,-0.0354,0.0354,0.9546,0.9546,0.0354,-0.0354,-0.9546,-0.9546,-0.0354,0.0*
%
%ADD19ROTATEDRECTD19*%

%ADD20R,0.8500X1.2000*%
%ADD21R,1.2000X0.8500*%
%ADD22R,1.5000X1.4000*%
%ADD23R,0.3000X1.2000*%
%ADD24R,1.1000X0.3000*%
%ADD25R,1.2000X0.3000*%
%ADD26R,1.5000X0.5500*%
%ADD27R,4.0000X4.0000*%
%ADD28R,2.1000X0.9000*%
%ADD29R,0.9000X2.1000*%
%ADD30C,0.2000*%
%ADD31C,0.2500*%
%ADD32C,0.3500*%
%ADD33C,4.0000*%
%ADD34O,1.0500X1.2500*%
%ADD35C,0.6000*%
G36*
X405116Y75916D02*
X406439Y75032D01*
X408000Y74722D01*
X408000Y74722D01*
X413383D01*
X413500Y73500D01*
Y72500D01*
X412591Y71629D01*
X412230Y71410D01*
X410328Y71789D01*
X407987Y71323D01*
X406002Y69997D01*
X404676Y68012D01*
X404210Y65671D01*
X404676Y63330D01*
X405601Y61946D01*
X404673Y61326D01*
X403347Y59341D01*
X402882Y57000D01*
X403347Y54659D01*
X404673Y52674D01*
X405526Y52104D01*
X404348Y50341D01*
X403882Y48000D01*
X404348Y45659D01*
X404984Y44707D01*
X405474Y43526D01*
X404919Y42694D01*
X404918Y42694D01*
X404880Y42636D01*
X404148Y41541D01*
X403683Y39200D01*
X403741Y38908D01*
X397911Y33078D01*
X331320D01*
X319850Y44548D01*
X320336Y45722D01*
X342800D01*
X342800Y45722D01*
X344361Y46032D01*
X345684Y46916D01*
X346287Y47519D01*
X347460Y47033D01*
Y44460D01*
X351230D01*
Y50000D01*
X352500D01*
Y51270D01*
X357540D01*
Y52748D01*
X357690Y52821D01*
X358960Y52028D01*
Y49272D01*
X366000D01*
Y48002D01*
X367270D01*
Y41462D01*
X377730D01*
Y48002D01*
X380270D01*
Y41462D01*
X390730D01*
Y48002D01*
X392000D01*
Y49272D01*
X399040D01*
Y53922D01*
X399500Y55002D01*
X399500Y55621D01*
Y69002D01*
X393472D01*
X393084Y70272D01*
X394267Y72042D01*
X394733Y74384D01*
X394267Y76725D01*
X393902Y77271D01*
X394501Y78391D01*
X402641D01*
X405116Y75916D01*
D02*
G37*
G36*
X419000Y215000D02*
X419000Y215000D01*
X419000D01*
Y206641D01*
X418982Y206503D01*
X418883Y206404D01*
X418721Y206280D01*
X417759Y205026D01*
X417155Y203567D01*
X416949Y202000D01*
X417155Y200434D01*
X417759Y198974D01*
X418721Y197721D01*
X419000Y197359D01*
X419000Y197359D01*
X419000Y197359D01*
Y186768D01*
X415111Y182878D01*
X382000D01*
Y188541D01*
X382526Y188759D01*
X383779Y189721D01*
X384741Y190974D01*
X385346Y192434D01*
X385552Y194000D01*
X386525Y195110D01*
X390040D01*
X390040Y195110D01*
X391512Y195043D01*
X393014Y194421D01*
X394750Y194193D01*
X396486Y194421D01*
X398104Y195091D01*
X399493Y196157D01*
X400559Y197546D01*
X401229Y199164D01*
X401457Y200900D01*
Y202900D01*
X401229Y204636D01*
X400559Y206254D01*
X399493Y207643D01*
X398104Y208709D01*
X396486Y209379D01*
X394750Y209607D01*
X393014Y209379D01*
X391540Y208768D01*
X390434Y209169D01*
X390040Y209364D01*
Y213690D01*
X386770D01*
Y204400D01*
X384230D01*
Y213690D01*
X382000D01*
Y219000D01*
X419000D01*
Y215000D01*
D02*
G37*
G36*
X145000Y57993D02*
X144721Y57779D01*
X143759Y56526D01*
X143154Y55066D01*
X142948Y53500D01*
X143154Y51934D01*
X143759Y50474D01*
X144721Y49221D01*
X144827Y49139D01*
X144318Y47639D01*
X140900D01*
Y48099D01*
X125900D01*
Y45000D01*
X115000D01*
Y70000D01*
X145000D01*
Y57993D01*
D02*
G37*
G36*
X435269Y220460D02*
X437500D01*
Y220000D01*
X448500D01*
X448538Y218515D01*
Y199078D01*
X433000D01*
X433000Y199078D01*
X431439Y198768D01*
X430116Y197884D01*
X423445Y191212D01*
X422059Y191786D01*
Y197507D01*
X422019Y197705D01*
X422033Y197906D01*
X421904Y198285D01*
X421826Y198678D01*
X421714Y198846D01*
X421649Y199037D01*
X421385Y199337D01*
X421163Y199670D01*
X420995Y199782D01*
X420431Y200517D01*
X420135Y201233D01*
X420034Y202000D01*
X420135Y202768D01*
X420431Y203484D01*
X420995Y204219D01*
X421163Y204331D01*
X421385Y204664D01*
X421649Y204964D01*
X421714Y205155D01*
X421826Y205323D01*
X421904Y205715D01*
X422033Y206094D01*
X422019Y206296D01*
X422059Y206494D01*
Y215000D01*
X428000D01*
Y219358D01*
X428960Y220460D01*
X432729D01*
Y226000D01*
X435269D01*
Y220460D01*
D02*
G37*
G36*
X300140Y199676D02*
X299116Y198652D01*
X298232Y197329D01*
X297922Y195768D01*
X297922Y195768D01*
Y191214D01*
X294116Y187408D01*
X293232Y186085D01*
X292922Y184524D01*
X292922Y184524D01*
Y175491D01*
X292674Y175326D01*
X291348Y173341D01*
X290947Y171325D01*
X289738Y170737D01*
X268824Y191651D01*
X268878Y192029D01*
X269324Y192947D01*
X271341Y193348D01*
X273266Y194634D01*
X273474Y194323D01*
X275459Y192997D01*
X277800Y192531D01*
X280141Y192997D01*
X282126Y194323D01*
X282149Y194357D01*
X283659Y193348D01*
X286000Y192882D01*
X288341Y193348D01*
X290326Y194674D01*
X291652Y196659D01*
X292118Y199000D01*
X291945Y199867D01*
X292751Y200849D01*
X299654D01*
X300140Y199676D01*
D02*
G37*
G36*
X439236Y189748D02*
X428678Y179191D01*
X441391Y166478D01*
X440581Y165491D01*
X440341Y165652D01*
X438000Y166117D01*
X435659Y165652D01*
X434613Y164953D01*
X433624Y164353D01*
X432558Y164941D01*
X431541Y165620D01*
X429200Y166085D01*
X428908Y166028D01*
X419624Y175311D01*
X419684Y175916D01*
X434689Y190922D01*
X438750D01*
X439236Y189748D01*
D02*
G37*
G36*
X330273Y179191D02*
X331596Y178307D01*
X333157Y177997D01*
X333157Y177997D01*
X336107D01*
X336706Y176877D01*
X336348Y176341D01*
X335882Y174000D01*
X336348Y171659D01*
X337674Y169674D01*
X339659Y168348D01*
X342000Y167882D01*
X342750Y167267D01*
Y164875D01*
X355250D01*
Y172973D01*
X356423Y173459D01*
X362567Y167316D01*
X363890Y166432D01*
X365451Y166122D01*
X390500D01*
Y158000D01*
X390960D01*
Y155270D01*
X395999D01*
X401040D01*
Y158000D01*
X401500D01*
Y159921D01*
X405508D01*
X405673Y159674D01*
X407658Y158348D01*
X409999Y157882D01*
X412340Y158348D01*
X414325Y159674D01*
X415064Y160780D01*
X416328Y160905D01*
X418922Y158311D01*
Y156491D01*
X418674Y156326D01*
X417348Y154341D01*
X417119Y153190D01*
X416000Y152118D01*
X413659Y151652D01*
X411674Y150326D01*
X410348Y148341D01*
X410181Y147500D01*
X401788D01*
X401040Y148460D01*
Y152730D01*
X397269D01*
Y148460D01*
X398085D01*
X398565Y148040D01*
X398876Y147190D01*
X398750Y147040D01*
X394271D01*
Y140001D01*
X393001D01*
Y138731D01*
X386462D01*
Y133601D01*
X385960Y132538D01*
X385960Y131898D01*
Y127268D01*
X393000D01*
Y124728D01*
X385960D01*
Y123000D01*
X369028D01*
Y135500D01*
X370000D01*
Y146500D01*
X367780D01*
X367768Y146561D01*
X366884Y147884D01*
X366884Y147884D01*
X365884Y148884D01*
X364750Y149642D01*
Y160125D01*
X352250D01*
Y146500D01*
X345750D01*
Y160125D01*
X333250D01*
Y149642D01*
X332116Y148884D01*
X332116Y148884D01*
X331116Y147884D01*
X330232Y146561D01*
X330220Y146500D01*
X328000D01*
X327000Y147152D01*
Y162080D01*
X327982Y162886D01*
X328000Y162882D01*
X330341Y163348D01*
X332326Y164674D01*
X333652Y166659D01*
X334118Y169000D01*
X333652Y171341D01*
X332326Y173326D01*
X330341Y174652D01*
X328000Y175117D01*
X327982Y175114D01*
X327000Y175920D01*
Y180805D01*
X328173Y181291D01*
X330273Y179191D01*
D02*
G37*
G36*
X191544Y236907D02*
X190674Y236326D01*
X189348Y234341D01*
X188883Y232000D01*
X189348Y229659D01*
X189809Y228969D01*
X189210Y227849D01*
X138600D01*
Y227389D01*
X134670D01*
Y214349D01*
Y201309D01*
X138600D01*
Y200849D01*
X139249D01*
X140055Y199867D01*
X139882Y199000D01*
X140348Y196658D01*
X141674Y194674D01*
X143659Y193348D01*
X146000Y192882D01*
X148341Y193348D01*
X150325Y194674D01*
X151652Y196658D01*
X152052Y198670D01*
X153322Y198545D01*
Y190622D01*
X152452Y190261D01*
X152052Y190175D01*
X150141Y191452D01*
X147800Y191918D01*
X145459Y191452D01*
X143474Y190126D01*
X142148Y188141D01*
X141683Y185800D01*
X142148Y183459D01*
X142918Y182306D01*
X143474Y181474D01*
X142984Y180293D01*
X142348Y179341D01*
X141920Y177190D01*
X141700Y176831D01*
X140771Y176078D01*
X135491D01*
X135326Y176326D01*
X133341Y177652D01*
X131000Y178118D01*
X128659Y177652D01*
X126674Y176326D01*
X125348Y174341D01*
X124882Y172000D01*
X125348Y169659D01*
X126674Y167674D01*
X128659Y166348D01*
X131000Y165882D01*
X133341Y166348D01*
X135326Y167674D01*
X135491Y167922D01*
X139311D01*
X140116Y167116D01*
X140116Y167116D01*
X141439Y166232D01*
X143000Y165922D01*
X143000Y165922D01*
X153431D01*
X171922Y147431D01*
Y109000D01*
X171922Y109000D01*
X172232Y107439D01*
X173116Y106116D01*
X173941Y105292D01*
X173883Y105000D01*
X174348Y102659D01*
X175674Y100674D01*
X177659Y99348D01*
X180000Y98883D01*
X182341Y99348D01*
X184326Y100674D01*
X185652Y102659D01*
X186117Y105000D01*
X185804Y106579D01*
X186724Y107849D01*
X204250D01*
Y128099D01*
X184000D01*
Y110891D01*
X182880Y110292D01*
X182341Y110652D01*
X180078Y111102D01*
Y149121D01*
X179768Y150681D01*
X178884Y152004D01*
X178884Y152004D01*
X174340Y156548D01*
X174826Y157722D01*
X193800D01*
X193800Y157722D01*
X195361Y158032D01*
X196684Y158916D01*
X206289Y168522D01*
X248942D01*
X269347Y148116D01*
X269347Y148116D01*
X270670Y147232D01*
X272231Y146922D01*
X272231Y146922D01*
X279000D01*
X279000Y146922D01*
X280561Y147232D01*
X281884Y148116D01*
X282666Y148898D01*
X283922Y148804D01*
X284348Y146659D01*
X285674Y144674D01*
X287659Y143348D01*
X289963Y142890D01*
X290313Y142794D01*
X291085Y142022D01*
X290882Y141000D01*
X291348Y138659D01*
X292674Y136674D01*
X294658Y135348D01*
X296999Y134882D01*
X298730Y135226D01*
X300000Y134377D01*
Y123199D01*
Y110499D01*
Y97799D01*
Y85099D01*
Y72399D01*
X300460D01*
Y68469D01*
X313500D01*
X326540D01*
Y72399D01*
X327000D01*
Y77922D01*
X334500D01*
Y76000D01*
X344436D01*
X344962Y74730D01*
X343116Y72884D01*
X342232Y71561D01*
X341922Y70000D01*
X341922Y70000D01*
Y54689D01*
X341111Y53878D01*
X317889D01*
X312782Y58986D01*
X313268Y60159D01*
X326540D01*
Y65929D01*
X313500D01*
X300460D01*
Y61078D01*
X259642D01*
X259116Y62348D01*
X264884Y68116D01*
X265768Y69439D01*
X266078Y71000D01*
X266078Y71000D01*
Y110879D01*
X265768Y112440D01*
X264884Y113763D01*
X264884Y113763D01*
X257363Y121284D01*
X256040Y122168D01*
X254479Y122478D01*
X254479Y122478D01*
X254309D01*
X253118Y123000D01*
X252652Y125341D01*
X251326Y127326D01*
X249918Y128266D01*
X249918Y129733D01*
X251325Y130674D01*
X251491Y130921D01*
X256801D01*
X257659Y130348D01*
X260000Y129882D01*
X262341Y130348D01*
X264326Y131674D01*
X265652Y133659D01*
X266117Y136000D01*
X265652Y138341D01*
X264628Y139874D01*
X265380Y140376D01*
X266706Y142361D01*
X267172Y144702D01*
X266706Y147043D01*
X265380Y149028D01*
X263395Y150354D01*
X261054Y150819D01*
X258713Y150354D01*
X256729Y149028D01*
X256563Y148780D01*
X247690D01*
X247326Y149326D01*
X245341Y150652D01*
X243000Y151117D01*
X240659Y150652D01*
X238674Y149326D01*
X237348Y147341D01*
X236882Y145000D01*
X237348Y142659D01*
X238674Y140674D01*
X240659Y139348D01*
X241330Y139215D01*
X241816Y138041D01*
X241348Y137341D01*
X241024Y135715D01*
X239000Y136117D01*
X236659Y135652D01*
X234674Y134326D01*
X233348Y132341D01*
X232882Y130000D01*
X233348Y127659D01*
X234674Y125674D01*
X234922Y125509D01*
Y122232D01*
X234922Y122232D01*
X235232Y120671D01*
X235279Y120601D01*
X235658Y119652D01*
X233674Y118326D01*
X232348Y116341D01*
X232270Y115950D01*
X231000Y116076D01*
Y128099D01*
X210750D01*
Y107849D01*
X231000D01*
Y111924D01*
X232270Y112049D01*
X232348Y111659D01*
X233674Y109674D01*
X235658Y108348D01*
X237999Y107882D01*
X238291Y107940D01*
X239115Y107116D01*
X239115Y107116D01*
X240439Y106232D01*
X241999Y105922D01*
X241999Y105922D01*
X249311D01*
X249522Y105711D01*
Y76678D01*
X194656D01*
X193851Y77660D01*
X194117Y79000D01*
X193652Y81341D01*
X192325Y83326D01*
X190341Y84652D01*
X188000Y85117D01*
X185658Y84652D01*
X183674Y83326D01*
X183092Y82456D01*
X182237Y81884D01*
X168316Y67963D01*
X167432Y66640D01*
X167121Y65079D01*
X167121Y65079D01*
Y63078D01*
X164000D01*
X164000Y63078D01*
X162439Y62768D01*
X161116Y61884D01*
X154116Y54884D01*
X153232Y53561D01*
X152922Y52000D01*
X152922Y52000D01*
Y50602D01*
X152496Y50307D01*
X151652Y50039D01*
X150561Y50768D01*
X149000Y51078D01*
X147593D01*
X146686Y51684D01*
X146431Y52017D01*
X146135Y52732D01*
X146033Y53500D01*
X146063Y53727D01*
X146117Y54000D01*
X146107Y54055D01*
X146135Y54268D01*
X146431Y54983D01*
X146994Y55718D01*
X146995Y55719D01*
X147163Y55831D01*
X147385Y56163D01*
X147649Y56464D01*
X147714Y56655D01*
X147826Y56823D01*
X147904Y57215D01*
X148033Y57594D01*
X148019Y57796D01*
X148059Y57993D01*
Y70000D01*
X147826Y71171D01*
X147163Y72163D01*
X146171Y72826D01*
X145000Y73059D01*
X115000D01*
Y238177D01*
X191158D01*
X191544Y236907D01*
D02*
G37*
G36*
X333250Y122848D02*
X332882Y121000D01*
X333348Y118659D01*
X334674Y116674D01*
X336659Y115348D01*
X339000Y114882D01*
X341341Y115348D01*
X341630Y115541D01*
X342750Y114942D01*
Y100125D01*
X355250D01*
Y103721D01*
X361800D01*
X361800Y103721D01*
X363360Y104032D01*
X364684Y104916D01*
X365327Y105559D01*
X366500Y105073D01*
Y101000D01*
X367922D01*
Y85689D01*
X367311Y85078D01*
X357467D01*
X357341Y86348D01*
X359326Y87674D01*
X360652Y89659D01*
X361118Y92000D01*
X360652Y94341D01*
X359326Y96326D01*
X357341Y97652D01*
X355000Y98118D01*
X352659Y97652D01*
X350674Y96326D01*
X350509Y96078D01*
X345500D01*
Y98000D01*
X337919D01*
X337113Y98982D01*
X337117Y99000D01*
X336651Y101341D01*
X335325Y103326D01*
X333340Y104652D01*
X330999Y105117D01*
X328658Y104652D01*
X328120Y104292D01*
X327000Y104891D01*
Y110499D01*
Y123199D01*
Y134848D01*
X328000Y135500D01*
X333250D01*
Y122848D01*
D02*
G37*
G36*
X517255Y262819D02*
X525431Y261606D01*
X528762Y260772D01*
X528605Y259502D01*
X525761D01*
Y252232D01*
X531281D01*
Y258832D01*
X532403Y259860D01*
X533449Y259598D01*
X541231Y256813D01*
X548703Y253279D01*
X555793Y249030D01*
X562431Y244106D01*
X568556Y238556D01*
X574106Y232431D01*
X579030Y225793D01*
X583279Y218703D01*
X586813Y211231D01*
X589598Y203449D01*
X591606Y195431D01*
X592819Y187255D01*
X593215Y179193D01*
X593177Y179000D01*
Y167437D01*
X572000D01*
X570537Y167146D01*
X569296Y166317D01*
X568468Y165077D01*
X568177Y163614D01*
Y139351D01*
X549283D01*
X549283Y139351D01*
Y139402D01*
X544235Y138905D01*
X539381Y137432D01*
X534908Y135042D01*
X530987Y131824D01*
X527769Y127903D01*
X525378Y123429D01*
X523906Y118575D01*
X523409Y113528D01*
X523460D01*
X523460Y113527D01*
Y105221D01*
X523460Y105221D01*
X523409D01*
X523906Y100173D01*
X525378Y95319D01*
X527769Y90846D01*
X530987Y86925D01*
X534908Y83707D01*
X539381Y81316D01*
X544235Y79844D01*
X549283Y79347D01*
Y79398D01*
X549283Y79398D01*
X568177D01*
Y69000D01*
X568214Y68814D01*
X567820Y61809D01*
X566614Y54709D01*
X564620Y47788D01*
X561864Y41134D01*
X558380Y34831D01*
X554212Y28957D01*
X549413Y23587D01*
X544043Y18788D01*
X538169Y14620D01*
X533753Y12179D01*
X533701Y12202D01*
X532733Y13067D01*
X533117Y15000D01*
X532652Y17341D01*
X531326Y19326D01*
X529341Y20652D01*
X527000Y21117D01*
X526522Y21022D01*
X525540Y21828D01*
Y22730D01*
X519999D01*
Y24000D01*
X518729D01*
Y29040D01*
X516000D01*
Y29500D01*
X514078D01*
Y45311D01*
X519689Y50922D01*
X537000D01*
Y45000D01*
X558000D01*
Y65000D01*
X537000D01*
Y59078D01*
X518000D01*
X518000Y59078D01*
X516439Y58768D01*
X515116Y57884D01*
X515116Y57884D01*
X507116Y49884D01*
X506232Y48561D01*
X505922Y47000D01*
X505922Y47000D01*
Y29500D01*
X496820D01*
X496015Y30482D01*
X496118Y31000D01*
X495652Y33341D01*
X494326Y35326D01*
X492341Y36652D01*
X490000Y37118D01*
X487659Y36652D01*
X485674Y35326D01*
X484348Y33341D01*
X483882Y31000D01*
X484146Y29677D01*
X484000Y29500D01*
X484000D01*
Y18500D01*
X504000D01*
Y9500D01*
X523644D01*
X523769Y9286D01*
X523171Y7792D01*
X518291Y6386D01*
X511191Y5180D01*
X505260Y4847D01*
X504000Y4823D01*
X504000Y4823D01*
X502746Y4823D01*
X409823D01*
Y11775D01*
X409532Y13238D01*
X408704Y14478D01*
X407463Y15307D01*
X406000Y15598D01*
X303803D01*
X303124Y16868D01*
X303652Y17659D01*
X304118Y20000D01*
X304094Y20117D01*
X304900Y21099D01*
X306000D01*
Y39197D01*
X307173Y39683D01*
X325741Y21116D01*
X325741Y21116D01*
X327064Y20232D01*
X328624Y19922D01*
X403368D01*
X403368Y19922D01*
X404929Y20232D01*
X406252Y21116D01*
X418884Y33748D01*
X418884Y33748D01*
X419768Y35071D01*
X420078Y36632D01*
Y42000D01*
X419768Y43561D01*
X418884Y44884D01*
X418884Y44884D01*
X416538Y47230D01*
X417064Y48500D01*
X434500D01*
Y48500D01*
X435500D01*
Y48500D01*
X451181D01*
X451348Y47659D01*
X452674Y45674D01*
X454659Y44348D01*
X457000Y43882D01*
X459341Y44348D01*
X459534Y44477D01*
X460116Y44361D01*
X462361Y42116D01*
X463684Y41232D01*
X464396Y41090D01*
X464674Y40674D01*
X466659Y39348D01*
X469000Y38883D01*
X471341Y39348D01*
X473326Y40674D01*
X474652Y42659D01*
X475117Y45000D01*
X475495Y45460D01*
X481230D01*
Y53730D01*
X472460D01*
Y51250D01*
X471630Y50806D01*
X471190Y50682D01*
X469000Y51118D01*
X468500Y51528D01*
Y60000D01*
X468040D01*
Y62730D01*
X463000D01*
Y65270D01*
X468040D01*
Y68000D01*
X468500D01*
Y80000D01*
X468040D01*
Y82730D01*
X463000D01*
Y85270D01*
X468040D01*
Y89540D01*
X464615D01*
X463810Y90522D01*
X464064Y91800D01*
X463837Y92940D01*
X464643Y93922D01*
X467000D01*
X467000Y93922D01*
X468561Y94232D01*
X468728Y94344D01*
X469998Y93665D01*
Y85500D01*
X472180D01*
X472985Y84518D01*
X472882Y84000D01*
X473348Y81659D01*
X474674Y79674D01*
X476659Y78348D01*
X479000Y77882D01*
X481341Y78348D01*
X483326Y79674D01*
X484652Y81659D01*
X485117Y84000D01*
X484923Y84978D01*
X485729Y85960D01*
X491571D01*
X492249Y84690D01*
X491348Y83341D01*
X490882Y81000D01*
X491348Y78659D01*
X492674Y76674D01*
X492922Y76509D01*
Y65652D01*
X492540Y64540D01*
X483770D01*
Y55000D01*
Y45460D01*
X492149D01*
X492674Y44674D01*
X494659Y43348D01*
X497000Y42882D01*
X499341Y43348D01*
X501326Y44674D01*
X502652Y46659D01*
X503117Y49000D01*
X502652Y51341D01*
X501326Y53326D01*
X501078Y53491D01*
Y76509D01*
X501326Y76674D01*
X502652Y78659D01*
X503117Y81000D01*
X502652Y83341D01*
X501326Y85326D01*
X499341Y86652D01*
X497538Y87010D01*
Y91730D01*
X490998D01*
Y93000D01*
X489728D01*
Y100040D01*
X484458D01*
X483998Y100500D01*
X483834Y101770D01*
X484078Y103000D01*
Y103500D01*
X486000D01*
Y112500D01*
Y120860D01*
X487173Y121346D01*
X491391Y117128D01*
X497239Y122976D01*
X491745Y128470D01*
X487198Y123923D01*
X486028Y124549D01*
X486118Y125000D01*
X485652Y127341D01*
X484326Y129326D01*
X484217Y130431D01*
X494969Y141184D01*
X491627Y144526D01*
X491884Y145765D01*
X492768Y147089D01*
X493078Y148649D01*
X493078Y148650D01*
Y151509D01*
X493326Y151674D01*
X494652Y153659D01*
X495118Y156000D01*
X494652Y158341D01*
X493326Y160326D01*
X491341Y161652D01*
X489000Y162118D01*
X488655Y162049D01*
X487752Y163164D01*
X488117Y165000D01*
X487651Y167341D01*
X486325Y169325D01*
X484340Y170652D01*
X481999Y171117D01*
X479658Y170652D01*
X477673Y169325D01*
X476347Y167341D01*
X475882Y165000D01*
X476347Y162659D01*
X477673Y160674D01*
X479658Y159348D01*
X481999Y158882D01*
X482344Y158951D01*
X483248Y157836D01*
X482882Y156000D01*
X483114Y154835D01*
X481944Y154209D01*
X481534Y154619D01*
X471037Y144121D01*
X469821Y144490D01*
X469652Y145341D01*
X468326Y147326D01*
X466341Y148652D01*
X464000Y149117D01*
X462727Y148864D01*
X462101Y150035D01*
X474110Y162043D01*
X470276Y165877D01*
X487518Y183119D01*
X488674Y183674D01*
X490659Y182348D01*
X493000Y181882D01*
X495341Y182348D01*
X497326Y183674D01*
X498652Y185659D01*
X499118Y188000D01*
X498652Y190341D01*
X497326Y192326D01*
X495341Y193652D01*
X493000Y194118D01*
X490659Y193652D01*
X488674Y192326D01*
X488509Y192078D01*
X486632D01*
X486631Y192078D01*
X485071Y191768D01*
X483748Y190884D01*
X483570Y190918D01*
X482419Y191457D01*
X482805Y194393D01*
X482419Y197330D01*
X481285Y200067D01*
X479482Y202417D01*
X477132Y204220D01*
X474395Y205354D01*
X471458Y205741D01*
X468521Y205354D01*
X465784Y204220D01*
X463434Y202417D01*
X461631Y200067D01*
X461600Y199991D01*
X460385Y199623D01*
X460341Y199652D01*
X458000Y200117D01*
X457676Y200053D01*
X456694Y200859D01*
Y223384D01*
X456384Y224945D01*
X455500Y226268D01*
X455500Y226268D01*
X452884Y228884D01*
X451561Y229768D01*
X450000Y230078D01*
X450000Y230078D01*
X448500D01*
Y238177D01*
X467563D01*
X468049Y237003D01*
X464684Y233638D01*
X469825Y228497D01*
X476217Y234889D01*
X477115Y233991D01*
X478013Y234889D01*
X484052Y228851D01*
X489546Y234345D01*
X486888Y237003D01*
X487374Y238177D01*
X496000D01*
X497463Y238468D01*
X498704Y239296D01*
X499532Y240537D01*
X499823Y242000D01*
Y263177D01*
X509000D01*
X509193Y263215D01*
X517255Y262819D01*
D02*
G37*
G36*
X418857Y241189D02*
X420264Y239782D01*
X421025Y237945D01*
Y236950D01*
Y225950D01*
Y225353D01*
X420568Y224251D01*
X419724Y223407D01*
X418622Y222950D01*
X410621D01*
X409981Y222059D01*
X395540D01*
Y231180D01*
X384001D01*
Y233720D01*
X395540D01*
Y241431D01*
X399175D01*
Y241950D01*
X417020D01*
X418857Y241189D01*
D02*
G37*
G36*
X264000Y232127D02*
X249049D01*
X249049Y232127D01*
X247488Y231817D01*
X246165Y230933D01*
X246165Y230933D01*
X244816Y229584D01*
X243932Y228261D01*
X243850Y227849D01*
X217790D01*
X217191Y228969D01*
X217652Y229659D01*
X218118Y232000D01*
X217652Y234341D01*
X216326Y236326D01*
X215457Y236907D01*
X215842Y238177D01*
X264000D01*
Y232127D01*
D02*
G37*
G36*
X125400Y37849D02*
X133400D01*
Y34599D01*
X136650D01*
Y20599D01*
X141400D01*
Y21099D01*
X167422D01*
Y18500D01*
X156000D01*
Y18040D01*
X153271D01*
Y13000D01*
Y7960D01*
X156000D01*
Y7500D01*
X166000D01*
Y7500D01*
X178000D01*
Y7960D01*
X180730D01*
Y13000D01*
Y18040D01*
X178000D01*
Y18500D01*
X175578D01*
Y21099D01*
X215100D01*
X215906Y20117D01*
X215882Y20000D01*
X216348Y17659D01*
X216876Y16868D01*
X216197Y15598D01*
X194000D01*
X192537Y15307D01*
X191296Y14478D01*
X190468Y13238D01*
X190177Y11775D01*
Y4823D01*
X115000D01*
Y41941D01*
X125400D01*
Y37849D01*
D02*
G37*
G36*
X345825Y241431D02*
X349460D01*
Y233720D01*
X360999D01*
Y232450D01*
X362269D01*
Y220410D01*
X377927D01*
X378969Y219140D01*
X378941Y219000D01*
Y213690D01*
X378973Y213532D01*
X378167Y212550D01*
X364040D01*
Y213690D01*
X360770D01*
Y204400D01*
X358230D01*
Y213690D01*
X354960D01*
Y210583D01*
X353690Y209907D01*
X352284Y210490D01*
X351521Y210590D01*
Y201900D01*
X350251D01*
Y200630D01*
X341722D01*
X341446Y200433D01*
X341331Y200376D01*
X331623Y210084D01*
X330300Y210968D01*
X328740Y211278D01*
X328740Y211278D01*
X313432D01*
X313432Y211278D01*
X311871Y210968D01*
X310548Y210084D01*
X310548Y210084D01*
X307173Y206709D01*
X306000Y207195D01*
Y227849D01*
X306000Y227849D01*
X305623Y229119D01*
X306651Y230658D01*
X307117Y232999D01*
X306651Y235341D01*
X305605Y236907D01*
X306163Y238177D01*
X323000D01*
X323147Y238206D01*
X323457Y238027D01*
X323975Y237393D01*
Y237945D01*
X324736Y239782D01*
X326143Y241189D01*
X327980Y241950D01*
X345825D01*
Y241431D01*
D02*
G37*
%LPC*%
G36*
X357540Y48730D02*
X353770D01*
Y44460D01*
X357540D01*
Y48730D01*
D02*
G37*
G36*
X399040Y46732D02*
X393270D01*
Y41462D01*
X399040D01*
Y46732D01*
D02*
G37*
G36*
X364730D02*
X358960D01*
Y41462D01*
X364730D01*
Y46732D01*
D02*
G37*
G36*
X394729Y152730D02*
X390960D01*
Y148460D01*
X394729D01*
Y152730D01*
D02*
G37*
G36*
X391731Y147040D02*
X386462D01*
Y141271D01*
X391731D01*
Y147040D01*
D02*
G37*
G36*
X274000Y109117D02*
X271659Y108652D01*
X269674Y107326D01*
X268348Y105341D01*
X267882Y103000D01*
X268348Y100659D01*
X269674Y98674D01*
X271659Y97348D01*
X274000Y96882D01*
X276341Y97348D01*
X278326Y98674D01*
X279652Y100659D01*
X280117Y103000D01*
X279652Y105341D01*
X278326Y107326D01*
X276341Y108652D01*
X274000Y109117D01*
D02*
G37*
G36*
X159000Y110118D02*
X156659Y109652D01*
X154674Y108326D01*
X153348Y106341D01*
X152882Y104000D01*
X153348Y101659D01*
X154674Y99674D01*
X156659Y98348D01*
X159000Y97882D01*
X161341Y98348D01*
X163326Y99674D01*
X164652Y101659D01*
X165118Y104000D01*
X164652Y106341D01*
X163326Y108326D01*
X161341Y109652D01*
X159000Y110118D01*
D02*
G37*
G36*
X204250Y154849D02*
X184000D01*
Y134599D01*
X204250D01*
Y154849D01*
D02*
G37*
G36*
X231000D02*
X210750D01*
Y134599D01*
X231000D01*
Y154849D01*
D02*
G37*
G36*
X139000Y110118D02*
X136659Y109652D01*
X134674Y108326D01*
X133348Y106341D01*
X132882Y104000D01*
X133348Y101659D01*
X134674Y99674D01*
Y99326D01*
X133348Y97341D01*
X132882Y95000D01*
X133348Y92659D01*
X134674Y90674D01*
X135756Y89951D01*
X135348Y89341D01*
X134882Y87000D01*
X135348Y84659D01*
X136674Y82674D01*
X138659Y81348D01*
X141000Y80883D01*
X143341Y81348D01*
X145326Y82674D01*
X146652Y84659D01*
X147118Y87000D01*
X146652Y89341D01*
X145326Y91326D01*
X144244Y92049D01*
X144652Y92659D01*
X145118Y95000D01*
X144652Y97341D01*
X143326Y99326D01*
Y99674D01*
X144652Y101659D01*
X145118Y104000D01*
X144652Y106341D01*
X143326Y108326D01*
X141341Y109652D01*
X139000Y110118D01*
D02*
G37*
G36*
X132130Y227389D02*
X126360D01*
Y215619D01*
X132130D01*
Y227389D01*
D02*
G37*
G36*
Y213079D02*
X126360D01*
Y201309D01*
X132130D01*
Y213079D01*
D02*
G37*
G36*
X149000Y152118D02*
X146659Y151652D01*
X145000Y150543D01*
X143341Y151652D01*
X141000Y152118D01*
X138659Y151652D01*
X136798Y150408D01*
X136362Y150267D01*
X135638D01*
X135202Y150408D01*
X133341Y151652D01*
X131000Y152118D01*
X128659Y151652D01*
X126674Y150326D01*
X125348Y148341D01*
X124882Y146000D01*
X125348Y143659D01*
X126674Y141674D01*
X128659Y140348D01*
X131000Y139882D01*
X133341Y140348D01*
X135326Y141674D01*
X135365Y141733D01*
X136635D01*
X136674Y141674D01*
X138659Y140348D01*
X141000Y139882D01*
X143341Y140348D01*
X145000Y141457D01*
X146659Y140348D01*
X149000Y139882D01*
X151341Y140348D01*
X153326Y141674D01*
X154652Y143659D01*
X155118Y146000D01*
X154652Y148341D01*
X153326Y150326D01*
X151341Y151652D01*
X149000Y152118D01*
D02*
G37*
G36*
X492268Y100040D02*
Y94270D01*
X497538D01*
Y100040D01*
X492268D01*
D02*
G37*
G36*
X499035Y121180D02*
X493187Y115332D01*
X498682Y109838D01*
X504529Y115685D01*
X499035Y121180D01*
D02*
G37*
G36*
X506679Y128823D02*
X500831Y122976D01*
X506325Y117481D01*
X512173Y123329D01*
X506679Y128823D01*
D02*
G37*
G36*
X499389Y136114D02*
X493541Y130266D01*
X499035Y124772D01*
X504883Y130619D01*
X499389Y136114D01*
D02*
G37*
G36*
X481230Y64540D02*
X472460D01*
Y56270D01*
X481230D01*
Y64540D01*
D02*
G37*
G36*
X525540Y29040D02*
X521269D01*
Y25270D01*
X525540D01*
Y29040D01*
D02*
G37*
G36*
X578993Y211790D02*
X571723D01*
Y206271D01*
X578993D01*
Y211790D01*
D02*
G37*
G36*
X569183D02*
X561913D01*
Y206271D01*
X569183D01*
Y211790D01*
D02*
G37*
G36*
X477115Y232195D02*
X471621Y226701D01*
X476761Y221560D01*
X482255Y227055D01*
X477115Y232195D01*
D02*
G37*
G36*
X531281Y249692D02*
X525761D01*
Y242422D01*
X531281D01*
Y249692D01*
D02*
G37*
G36*
X523221Y259502D02*
X517701D01*
Y252232D01*
X523221D01*
Y259502D01*
D02*
G37*
G36*
Y249692D02*
X517701D01*
Y242422D01*
X523221D01*
Y249692D01*
D02*
G37*
G36*
X553482Y155828D02*
X547988Y150333D01*
X553129Y145193D01*
X558623Y150687D01*
X553482Y155828D01*
D02*
G37*
G36*
X513884Y163314D02*
X510948Y162927D01*
X508211Y161794D01*
X505861Y159991D01*
X504058Y157640D01*
X502924Y154904D01*
X502537Y151967D01*
X502924Y149030D01*
X504058Y146293D01*
X505861Y143943D01*
X508211Y142140D01*
X510948Y141007D01*
X513884Y140620D01*
X516821Y141007D01*
X519558Y142140D01*
X521908Y143943D01*
X523711Y146293D01*
X524845Y149030D01*
X525232Y151967D01*
X524845Y154904D01*
X523711Y157640D01*
X521908Y159991D01*
X519558Y161794D01*
X516821Y162927D01*
X513884Y163314D01*
D02*
G37*
G36*
X546546Y162764D02*
X541051Y157270D01*
X546192Y152129D01*
X551686Y157624D01*
X546546Y162764D01*
D02*
G37*
G36*
X569183Y203731D02*
X561913D01*
Y198210D01*
X569183D01*
Y203731D01*
D02*
G37*
G36*
X578993D02*
X571723D01*
Y198210D01*
X578993D01*
Y203731D01*
D02*
G37*
G36*
X518000Y181117D02*
X515659Y180652D01*
X513674Y179326D01*
X512348Y177341D01*
X511883Y175000D01*
X512348Y172659D01*
X513674Y170674D01*
X515659Y169348D01*
X518000Y168883D01*
X520341Y169348D01*
X522326Y170674D01*
X523652Y172659D01*
X524118Y175000D01*
X523652Y177341D01*
X522326Y179326D01*
X520341Y180652D01*
X518000Y181117D01*
D02*
G37*
G36*
X560773Y163118D02*
X555279Y157624D01*
X560419Y152483D01*
X565913Y157977D01*
X560773Y163118D01*
D02*
G37*
G36*
X553836Y170055D02*
X548342Y164560D01*
X553482Y159420D01*
X558977Y164914D01*
X553836Y170055D01*
D02*
G37*
G36*
X130150Y31349D02*
X125400D01*
Y20599D01*
X130150D01*
Y31349D01*
D02*
G37*
G36*
X187540Y11730D02*
X183270D01*
Y7960D01*
X187540D01*
Y11730D01*
D02*
G37*
G36*
Y18040D02*
X183270D01*
Y14270D01*
X187540D01*
Y18040D01*
D02*
G37*
G36*
X150730Y18040D02*
X146460D01*
Y14270D01*
X150730D01*
Y18040D01*
D02*
G37*
G36*
Y11730D02*
X146460D01*
Y7960D01*
X150730D01*
Y11730D01*
D02*
G37*
G36*
X359729Y231180D02*
X349460D01*
Y220410D01*
X359729D01*
Y231180D01*
D02*
G37*
G36*
X348981Y210590D02*
X348216Y210490D01*
X346321Y209704D01*
X344694Y208456D01*
X343446Y206829D01*
X342660Y204934D01*
X342428Y203170D01*
X348981D01*
Y210590D01*
D02*
G37*
G36*
X329480Y222950D02*
X328121D01*
X329010Y222582D01*
X329480Y222520D01*
Y222950D01*
D02*
G37*
G36*
X333379D02*
X332020D01*
Y222520D01*
X332490Y222582D01*
X333379Y222950D01*
D02*
G37*
%LPD*%
D10*
X393000Y125998D02*
D03*
Y111998D02*
D03*
X366000Y62002D02*
D03*
Y48002D02*
D03*
X379000Y62002D02*
D03*
Y48002D02*
D03*
X392000Y62002D02*
D03*
Y48002D02*
D03*
D11*
X407002Y140000D02*
D03*
X393002D02*
D03*
X476998Y93000D02*
D03*
X490998D02*
D03*
D12*
X408000Y128000D02*
D03*
Y118000D02*
D03*
X396000Y164000D02*
D03*
Y154000D02*
D03*
X463000Y54000D02*
D03*
Y64000D02*
D03*
X434000Y236000D02*
D03*
Y226000D02*
D03*
X381000Y107000D02*
D03*
Y117000D02*
D03*
X352500Y50000D02*
D03*
Y60000D02*
D03*
X372000Y107000D02*
D03*
Y117000D02*
D03*
X443000Y226000D02*
D03*
Y236000D02*
D03*
X463000Y74000D02*
D03*
Y84000D02*
D03*
X340000Y92000D02*
D03*
Y82000D02*
D03*
D13*
X510000Y24000D02*
D03*
X520000D02*
D03*
X354000Y141000D02*
D03*
X364000D02*
D03*
X334000D02*
D03*
X344000D02*
D03*
X520000Y15000D02*
D03*
X510000D02*
D03*
X270000Y234000D02*
D03*
X280000D02*
D03*
X490000Y24000D02*
D03*
X500000D02*
D03*
X480000Y118000D02*
D03*
X470000D02*
D03*
X480000Y109000D02*
D03*
X470000D02*
D03*
X162000Y13000D02*
D03*
X152000D02*
D03*
X172000Y13000D02*
D03*
X182000D02*
D03*
D14*
X361000Y232450D02*
D03*
X384000D02*
D03*
D15*
X385500Y204400D02*
D03*
X359500D02*
D03*
X379000D02*
D03*
X372500D02*
D03*
X366000D02*
D03*
D16*
X358500Y129375D02*
D03*
X339500D02*
D03*
X339500Y152625D02*
D03*
X358500D02*
D03*
D17*
X349000Y108625D02*
D03*
Y173375D02*
D03*
D18*
X553482Y157624D02*
D03*
X477115Y233991D02*
D03*
D19*
X442467Y179544D02*
D03*
X460321Y161690D02*
D03*
X481181Y140830D02*
D03*
X499035Y122976D02*
D03*
D20*
X524491Y250962D02*
D03*
D21*
X570453Y205000D02*
D03*
D22*
X482500Y55000D02*
D03*
X547500D02*
D03*
D23*
X434000Y140750D02*
D03*
X439000D02*
D03*
X444000D02*
D03*
Y111250D02*
D03*
X439000D02*
D03*
X434000D02*
D03*
D24*
X453500Y136000D02*
D03*
Y116000D02*
D03*
D25*
Y131000D02*
D03*
Y126000D02*
D03*
Y121000D02*
D03*
X424500Y116000D02*
D03*
Y121000D02*
D03*
Y126000D02*
D03*
Y131000D02*
D03*
Y136000D02*
D03*
D26*
X446000Y66750D02*
D03*
Y79250D02*
D03*
Y91750D02*
D03*
X424000Y54250D02*
D03*
X446000D02*
D03*
X424000Y66750D02*
D03*
Y79250D02*
D03*
Y91750D02*
D03*
D27*
X207500Y131349D02*
D03*
D28*
X313500Y181499D02*
D03*
Y168799D02*
D03*
Y156099D02*
D03*
Y143399D02*
D03*
Y130699D02*
D03*
Y117999D02*
D03*
Y105299D02*
D03*
Y92599D02*
D03*
Y79899D02*
D03*
Y67199D02*
D03*
D29*
X133400Y34599D02*
D03*
X146100D02*
D03*
X158800D02*
D03*
X171500D02*
D03*
X184200D02*
D03*
X196900D02*
D03*
X209600D02*
D03*
X222300D02*
D03*
X235000D02*
D03*
X247700D02*
D03*
X260400D02*
D03*
X273100D02*
D03*
X285800D02*
D03*
X298500D02*
D03*
Y214349D02*
D03*
X285800D02*
D03*
X273100D02*
D03*
X260400D02*
D03*
X247700D02*
D03*
X235000D02*
D03*
X222300D02*
D03*
X209600D02*
D03*
X196900D02*
D03*
X184200D02*
D03*
X171500D02*
D03*
X158800D02*
D03*
X146100D02*
D03*
X133400D02*
D03*
D30*
X422250Y67000D02*
X423250Y66000D01*
X433000Y195000D02*
X450232D01*
X416800Y178800D02*
X433000Y195000D01*
X368730Y178800D02*
X416800D01*
X452616Y197384D02*
Y223384D01*
X450000Y226000D02*
X452616Y223384D01*
X443000Y226000D02*
X450000D01*
X443000Y236000D02*
X443000Y236000D01*
X434000D02*
X443000D01*
X401000Y164000D02*
X409999D01*
X401000Y164000D02*
X401000Y164000D01*
X409999Y163001D02*
X410000Y163000D01*
X409999Y163001D02*
Y164000D01*
X365451Y170200D02*
X412800D01*
X353576Y182075D02*
X365451Y170200D01*
X412800D02*
X423000Y160000D01*
X396000Y164000D02*
X401000D01*
X423000Y152000D02*
Y160000D01*
X414568Y174600D02*
X429200Y159968D01*
X366990Y174600D02*
X414568D01*
X179232Y167000D02*
X189032Y176800D01*
X170000Y167000D02*
X179232D01*
X165800Y171200D02*
X170000Y167000D01*
X169260Y161800D02*
X193800D01*
X161600Y169461D02*
X169260Y161800D01*
X176000Y109000D02*
Y149121D01*
X175999Y176000D02*
X180998Y181000D01*
X172000Y176000D02*
X175999D01*
X180998Y181000D02*
X259000D01*
X172000Y185000D02*
X172200Y185200D01*
X189032Y176800D02*
X254432D01*
X131000Y172000D02*
X141000D01*
X176000Y109000D02*
X180000Y105000D01*
X133000Y54000D02*
Y59000D01*
X130000Y62000D02*
X133000Y59000D01*
X120000Y62000D02*
X130000D01*
X140000Y49000D02*
Y54000D01*
X141000Y48000D02*
X145000D01*
X140000Y49000D02*
X141000Y48000D01*
X146100Y34599D02*
X149000Y37499D01*
Y47000D01*
X143000Y34699D02*
Y47000D01*
X146000D02*
X149000D01*
X145000Y48000D02*
X146000Y47000D01*
X157000Y52000D02*
X164000Y59000D01*
X170200D01*
X157000Y36399D02*
Y52000D01*
Y36399D02*
X158800Y34599D01*
X328740Y207200D02*
X345465Y190475D01*
X313432Y207200D02*
X328740D01*
X345465Y190475D02*
X357055D01*
X341000Y189000D02*
X343725Y186275D01*
X335000Y189000D02*
X341000D01*
X343725Y186275D02*
X355315D01*
X333157Y182075D02*
X353576D01*
X357055Y190475D02*
X368730Y178800D01*
X355315Y186275D02*
X366990Y174600D01*
X328800Y186432D02*
X333157Y182075D01*
X328800Y186432D02*
Y197200D01*
X325000Y201000D02*
X328800Y197200D01*
X302000Y195768D02*
X313432Y207200D01*
X302000Y189524D02*
Y195768D01*
X309000Y181499D02*
Y194000D01*
Y181499D02*
X309000Y181499D01*
X297000Y184524D02*
X302000Y189524D01*
X297000Y171000D02*
Y184524D01*
X416000Y142000D02*
Y146000D01*
X414000Y140000D02*
X416000Y142000D01*
X146000Y199000D02*
Y214249D01*
X146100Y214349D01*
X152000Y8000D02*
Y13000D01*
Y8000D02*
X153800Y6200D01*
X181000D01*
X182000Y7200D01*
Y13000D01*
X171500Y13000D02*
Y34599D01*
Y13000D02*
X172000D01*
X162000D02*
X171500D01*
X172000D02*
X172000Y13000D01*
X182000Y198000D02*
X184200Y200200D01*
X176232Y198000D02*
X182000D01*
X254479Y118400D02*
X262000Y110879D01*
X252740Y114200D02*
X257800Y109140D01*
X251600Y118400D02*
X254479D01*
X247000Y123000D02*
X251600Y118400D01*
X247032Y114200D02*
X252740D01*
X239000Y122232D02*
X247032Y114200D01*
X251000Y110000D02*
X253600Y107400D01*
X241999Y110000D02*
X251000D01*
X237999Y114000D02*
X241999Y110000D01*
X239000Y122232D02*
Y130000D01*
X262000Y71000D02*
Y110879D01*
X257800Y72740D02*
Y109140D01*
X253600Y74479D02*
Y107400D01*
X251721Y72600D02*
X253600Y74479D01*
X184660Y72600D02*
X251721D01*
X186400Y68400D02*
X253460D01*
X257800Y72740D01*
X193800Y161800D02*
X204600Y172600D01*
X250631D01*
X190000Y197000D02*
X197600Y189400D01*
X265308D01*
X296999Y157708D01*
X279000Y151000D02*
X283000Y155000D01*
X272231Y151000D02*
X279000D01*
X250631Y172600D02*
X272231Y151000D01*
X184200Y200200D02*
Y214349D01*
X171500Y199208D02*
Y214349D01*
X254432Y176800D02*
X272232Y159000D01*
X272999D01*
X263568Y185200D02*
X290000Y158768D01*
X172200Y185200D02*
X263568D01*
X259000Y181000D02*
X272000Y168000D01*
X227000Y198000D02*
X233000D01*
X224627Y200373D02*
X227000Y198000D01*
X224627Y200373D02*
Y212022D01*
X222300Y214349D02*
X224627Y212022D01*
X238000Y202000D02*
X242000Y198000D01*
X238000Y202000D02*
Y211349D01*
X235000Y214349D02*
X238000Y211349D01*
X243298Y144702D02*
X261054D01*
X243000Y145000D02*
X243298Y144702D01*
X246999Y135000D02*
X259000D01*
X260000Y136000D01*
X133000Y200000D02*
Y213949D01*
X133400Y214349D01*
X188200Y49800D02*
X194100D01*
X188200Y64200D02*
X255200D01*
X184200Y34599D02*
Y47800D01*
X440000Y102200D02*
X452200D01*
X456000Y106000D01*
X464000Y109000D02*
X470000D01*
X463000Y110000D02*
X464000Y109000D01*
X463000Y110000D02*
Y115000D01*
X462000Y116000D02*
X463000Y115000D01*
X453500Y116000D02*
X462000D01*
X460000Y98000D02*
X460000Y98000D01*
X470000Y101000D02*
X478000D01*
X460000Y98000D02*
X467000D01*
X460000D02*
X460000D01*
X467000D02*
X470000Y101000D01*
X439000Y103200D02*
X440000Y102200D01*
X439000Y103200D02*
Y111250D01*
X400999Y120000D02*
X406000D01*
X408000Y118000D01*
X387002Y111998D02*
X393000D01*
X386000Y113000D02*
X387002Y111998D01*
X386000Y113000D02*
Y116000D01*
X385000Y117000D02*
X386000Y116000D01*
X381000Y117000D02*
X385000D01*
X392002Y125000D02*
X393000Y125998D01*
X384450Y125000D02*
X392002D01*
X384200Y125250D02*
X384450Y125000D01*
X395200Y93800D02*
X403800D01*
X394000Y95000D02*
X395200Y93800D01*
X357000Y81000D02*
X357000Y81000D01*
X346000Y70000D02*
X357000Y81000D01*
X298500Y214349D02*
X300999Y216848D01*
X269000Y199000D02*
X273100Y203100D01*
Y214349D01*
X444000Y140750D02*
Y154000D01*
X438000Y160000D02*
X444000Y154000D01*
X297800Y69200D02*
Y75968D01*
Y69200D02*
X299801Y67199D01*
X313500D01*
X366000Y39000D02*
Y49500D01*
X392000D02*
X392749Y48751D01*
Y40251D02*
Y48751D01*
Y40251D02*
X394000Y39000D01*
X398000D01*
X389000Y37000D02*
Y48501D01*
X379999Y37000D02*
Y48501D01*
X379000Y49500D02*
X379999Y48501D01*
X389000Y65002D02*
X392000Y62002D01*
X353000Y39000D02*
Y49500D01*
X352500Y50000D02*
X353000Y49500D01*
X346000Y53000D02*
Y70000D01*
X316200Y49800D02*
X342800D01*
X308000Y58000D02*
X316200Y49800D01*
X399600Y29000D02*
X409800Y39200D01*
X329630Y29000D02*
X399600D01*
X306131Y52499D02*
X329630Y29000D01*
X328624Y24000D02*
X403368D01*
X304326Y48299D02*
X328624Y24000D01*
X403368D02*
X416000Y36632D01*
X423450Y91200D02*
X424000Y91750D01*
X423550Y78800D02*
X424000Y79250D01*
X457746Y92000D02*
X457946Y91800D01*
X446250Y92000D02*
X457746D01*
X446000Y91750D02*
X446250Y92000D01*
X491000Y115000D02*
X498976Y122976D01*
X499035D01*
X499000Y93000D02*
X499000Y93000D01*
X490998Y93000D02*
X499000D01*
X479000Y84000D02*
Y90998D01*
X476998Y93000D02*
X479000Y90998D01*
X497000Y49000D02*
Y81000D01*
X470000Y68001D02*
X474999Y73000D01*
X470000Y64000D02*
Y68001D01*
Y57000D02*
Y64000D01*
X463000D02*
X470000D01*
X472000Y55000D02*
X482500D01*
X472000Y55000D02*
X472000Y55000D01*
X470000Y57000D02*
X472000Y55000D01*
X458000Y80000D02*
Y83000D01*
X457250Y79250D02*
X458000Y80000D01*
X446000Y79250D02*
X457250D01*
X459000Y84000D02*
X470000D01*
X458000Y83000D02*
X459000Y84000D01*
X527000Y15000D02*
X527000Y15000D01*
X520000Y15000D02*
X527000D01*
Y24000D02*
X527000Y24000D01*
X520000Y24000D02*
X527000D01*
X487000Y59500D02*
Y66000D01*
X482500Y55000D02*
X487000Y59500D01*
X457000Y54250D02*
X462750D01*
X446000D02*
X457000D01*
Y50000D02*
Y54250D01*
X462750D02*
X463000Y54000D01*
Y47245D02*
X465245Y45000D01*
X463000Y47245D02*
Y54000D01*
X465245Y45000D02*
X469000D01*
X436000Y121000D02*
X437000Y122000D01*
X424500Y121000D02*
X436000D01*
X445000D02*
X453500D01*
X443200Y122800D02*
X445000Y121000D01*
X443200Y122800D02*
Y125265D01*
X438599Y129865D02*
X443200Y125265D01*
X438599Y129865D02*
Y130200D01*
X499035Y123035D02*
X507000Y131000D01*
X499035Y122976D02*
Y123035D01*
X461800Y131000D02*
X464800Y134000D01*
X453500Y131000D02*
X461800D01*
X486631Y188000D02*
X493000D01*
X461816Y163184D02*
X486631Y188000D01*
X442467Y179544D02*
X444456D01*
X407002Y140000D02*
X414000D01*
X415000Y139000D01*
Y137000D02*
Y139000D01*
Y137000D02*
X416000Y136000D01*
X424500D01*
X480000Y118000D02*
Y125000D01*
X342800Y49800D02*
X346000Y53000D01*
X340000Y92000D02*
X355000D01*
X355000Y92000D01*
X315601Y82000D02*
X340000D01*
X480000Y103000D02*
Y109000D01*
X478000Y101000D02*
X480000Y103000D01*
X339000Y121000D02*
Y128875D01*
X357999Y114000D02*
X364950Y120950D01*
X290000Y149000D02*
Y158768D01*
X296999Y141000D02*
Y157708D01*
X339000Y128875D02*
X339500Y129375D01*
X364950Y120950D02*
Y140050D01*
X364000Y141000D02*
X364950Y140050D01*
X354000Y137000D02*
Y141000D01*
Y137000D02*
X355000Y136000D01*
X357000D01*
X358500Y134500D01*
Y129375D02*
Y134500D01*
X339500Y129375D02*
Y134500D01*
X341000Y136000D01*
X343000D01*
X344000Y137000D01*
Y141000D01*
X339500Y147500D02*
Y152625D01*
X338000Y146000D02*
X339500Y147500D01*
X335000Y146000D02*
X338000D01*
X334000Y145000D02*
X335000Y146000D01*
X334000Y141000D02*
Y145000D01*
Y141000D02*
X334000Y141000D01*
X364000D02*
X364000Y141000D01*
Y145000D01*
X363000Y146000D02*
X364000Y145000D01*
X360000Y146000D02*
X363000D01*
X358500Y147500D02*
X360000Y146000D01*
X358500Y147500D02*
Y152625D01*
X412250Y54250D02*
X424000D01*
X446000Y66750D02*
X455750D01*
X470000Y118000D02*
Y124000D01*
X468000Y126000D02*
X470000Y124000D01*
X453500Y126000D02*
X468000D01*
X379000Y194500D02*
X379500Y194000D01*
X379000Y194500D02*
Y204400D01*
X372000Y194000D02*
X372500Y194500D01*
Y204400D01*
X260000Y199000D02*
Y213949D01*
X286000Y199000D02*
Y213949D01*
X313701Y169000D02*
X328000D01*
X313500Y168799D02*
X313701Y169000D01*
X518000Y55000D02*
X547500D01*
X510000Y47000D02*
X518000Y55000D01*
X510000Y15000D02*
Y24000D01*
Y47000D01*
X510000Y24000D02*
X510000Y24000D01*
X500000Y24000D02*
X510000D01*
X458000Y74000D02*
X463000D01*
X456750Y72750D02*
X458000Y74000D01*
X456750Y67750D02*
Y72750D01*
X455750Y66750D02*
X456750Y67750D01*
X481181Y140830D02*
X489000Y148649D01*
Y156000D01*
X309000Y181499D02*
X313500D01*
X309000D02*
X309000Y181499D01*
X416000Y131000D02*
X424500D01*
X413000Y128000D02*
X416000Y131000D01*
X408000Y128000D02*
X413000D01*
X423250Y66000D02*
X424000Y66750D01*
X490000Y24000D02*
Y31000D01*
X490000Y31000D01*
X298500Y34599D02*
X300099Y33000D01*
X298000Y20000D02*
Y30901D01*
X273100Y20100D02*
Y34599D01*
X273000Y20000D02*
X273100Y20100D01*
X352500Y60000D02*
Y67500D01*
X359000Y74000D01*
X366000Y62002D02*
Y70000D01*
X370000Y74000D01*
X313500Y79899D02*
X315601Y82000D01*
X423750Y92000D02*
X424000Y91750D01*
X349000Y107800D02*
Y108625D01*
X361800Y107800D02*
X365000Y111000D01*
Y115000D01*
X367000Y117000D01*
X372000D01*
X381000D01*
X416000Y36632D02*
Y42000D01*
X410000Y48000D02*
X416000Y42000D01*
X209600Y34599D02*
Y49800D01*
X265400Y46424D02*
X267274Y48299D01*
X260400Y34599D02*
X265400D01*
X267274Y48299D02*
X304326D01*
X209600Y49800D02*
X212299Y52499D01*
X306131D01*
X255200Y64200D02*
X262000Y71000D01*
X194100Y49800D02*
X196900Y47000D01*
Y34599D02*
Y47000D01*
X396000Y148500D02*
Y154000D01*
X393000Y145500D02*
X396000Y148500D01*
X378000Y142000D02*
Y151000D01*
Y142000D02*
X380000Y140000D01*
X393000D01*
X393000Y140000D01*
Y125998D02*
Y140000D01*
Y145500D01*
X450232Y195000D02*
X452616Y197384D01*
X444456Y179544D02*
X452000Y172000D01*
X455000D01*
X460000Y177000D01*
X462999D02*
X465999Y180000D01*
X460000Y177000D02*
X462999D01*
X171500Y34599D02*
Y37092D01*
Y38599D01*
X171000Y36851D02*
X171500Y37092D01*
X173064Y37846D01*
X171000Y36851D02*
Y47000D01*
X121000Y31000D02*
X129801D01*
X133400Y34599D01*
Y21000D02*
Y34599D01*
X127000Y9000D02*
X131000Y13000D01*
X121000Y9000D02*
X127000D01*
X121000Y16000D02*
X133400D01*
X133000Y13000D02*
X133400Y13400D01*
Y16000D01*
Y21000D01*
X131000Y13000D02*
X133000D01*
X152000D01*
X155121Y170000D02*
X176000Y149121D01*
X141000Y172000D02*
X143000Y170000D01*
X155121D01*
X147800Y185800D02*
X154800D01*
X161600Y169461D02*
Y186660D01*
X165800Y171200D02*
Y184920D01*
X165800Y184921D01*
Y187568D01*
X161600Y186660D02*
X161600Y186660D01*
Y189308D01*
X165800Y187568D02*
X176232Y198000D01*
X161600Y189308D02*
X171500Y199208D01*
X154800Y185800D02*
X157400Y188400D01*
Y212949D02*
X158800Y214349D01*
X157400Y188400D02*
Y212949D01*
X121000Y23000D02*
Y24000D01*
Y23000D02*
X123000Y21000D01*
X133400D01*
X349000Y107800D02*
X361800D01*
X265400Y34599D02*
Y46424D01*
X286100Y20100D02*
Y34599D01*
X298000Y30901D02*
X300099Y33000D01*
X222100Y20100D02*
Y34599D01*
X379000Y96999D02*
X387199Y88800D01*
X379000Y96999D02*
Y97000D01*
X387199Y88800D02*
X404740D01*
X400999Y100000D02*
Y100768D01*
X408000Y118000D02*
X413000D01*
X408000Y98000D02*
X460000D01*
X403800Y93800D02*
X408000Y98000D01*
X415000Y116000D02*
X424500D01*
X413000Y118000D02*
X415000Y116000D01*
X411481Y111250D02*
X434000D01*
X400999Y100768D02*
X411481Y111250D01*
X307000Y57000D02*
X308000Y58000D01*
X190000Y57000D02*
X307000D01*
X171000Y47000D02*
X175400Y51400D01*
X170200Y59000D02*
X171200Y60000D01*
Y65079D01*
X185121Y79000D01*
X188000D01*
X175400Y51400D02*
Y63339D01*
X179600Y52400D02*
Y61600D01*
X183800Y54200D02*
Y59800D01*
Y54200D02*
X188200Y49800D01*
X183800Y59800D02*
X188200Y64200D01*
X179600Y52400D02*
X184200Y47800D01*
X179600Y61600D02*
X186400Y68400D01*
X175400Y63339D02*
X184660Y72600D01*
X171500Y12500D02*
Y13000D01*
Y38599D02*
X173064Y37846D01*
X388999Y102000D02*
X388999Y102000D01*
X381000Y107000D02*
X384000D01*
X389000Y102000D01*
X233100Y20100D02*
Y34599D01*
X250100Y20100D02*
Y34599D01*
X409500Y57000D02*
X412250Y54250D01*
X408999Y57000D02*
X409500D01*
X404740Y88800D02*
X407140Y91200D01*
X423450D01*
X404330Y82470D02*
X408000Y78800D01*
X423550D01*
X379469Y82470D02*
X404330D01*
X357000Y81000D02*
X369000D01*
X372000Y84000D01*
Y107000D01*
X370000Y74000D02*
X380000D01*
X410328Y65671D02*
X420921D01*
X422250Y67000D01*
X385500Y62002D02*
Y70500D01*
X385384Y70616D02*
X385500Y70500D01*
X385384Y70616D02*
X388615Y73847D01*
Y74384D01*
X379000Y62002D02*
X385500D01*
X392000D01*
X280000Y234000D02*
X286000D01*
X300999Y216848D02*
Y232999D01*
X286000Y234000D02*
X287000Y233000D01*
X292000D01*
X247700Y214349D02*
Y226700D01*
X249049Y228049D01*
X269049D01*
X270000Y229000D01*
Y234000D01*
D31*
X395000Y192000D02*
X401000D01*
X390000D02*
X395000D01*
Y185000D02*
Y192000D01*
Y185000D02*
X401000D01*
Y192000D01*
X385950Y196050D02*
X390000Y192000D01*
X385950Y196050D02*
Y203950D01*
X385500Y204400D02*
X385950Y203950D01*
X405999Y208000D02*
Y215000D01*
X406000D01*
X434000Y202000D02*
X434000Y202000D01*
X434000Y202000D02*
Y219000D01*
X434000Y219000D01*
X434000Y219000D02*
Y226000D01*
X133000Y54000D02*
X140000D01*
X197573Y198427D02*
X218427D01*
X196900Y199100D02*
X197573Y198427D01*
X196900Y199100D02*
Y214349D01*
X406000Y215000D02*
X412000D01*
X387000D02*
X405999D01*
Y215001D01*
X406000Y215000D01*
X414000Y208000D02*
Y213000D01*
X412000Y215000D02*
X414000Y213000D01*
X385500Y213500D02*
X387000Y215000D01*
X385500Y204400D02*
Y213500D01*
X348375Y174000D02*
X349000Y173375D01*
X342000Y174000D02*
X348375D01*
D32*
X401000Y192000D02*
X405999D01*
Y208000D02*
X414000D01*
X405999Y200000D02*
X414000D01*
Y192000D02*
Y200000D01*
X401000Y185000D02*
X406000D01*
X405999Y185001D02*
X406000Y185000D01*
X411000D01*
X414000Y188000D01*
Y192000D01*
X405999D02*
X414000D01*
X405999Y185001D02*
Y192000D01*
Y200000D01*
Y200000D01*
Y208000D01*
X414000Y200000D02*
Y208000D01*
D33*
X453435Y24000D02*
D03*
D34*
X350250Y201900D02*
D03*
X394750D02*
D03*
D35*
X222500Y116349D02*
D03*
Y126349D02*
D03*
Y136349D02*
D03*
Y146349D02*
D03*
X212500Y116349D02*
D03*
Y126349D02*
D03*
Y136349D02*
D03*
Y146349D02*
D03*
X202500Y116349D02*
D03*
Y126349D02*
D03*
Y136349D02*
D03*
Y146349D02*
D03*
X192500D02*
D03*
Y136349D02*
D03*
Y126349D02*
D03*
Y116349D02*
D03*
X150000Y62000D02*
D03*
X158000D02*
D03*
X150000Y70000D02*
D03*
X158000D02*
D03*
X150000Y78000D02*
D03*
X158000D02*
D03*
X368000Y151000D02*
D03*
X378000D02*
D03*
Y161000D02*
D03*
X368000D02*
D03*
X152000Y155000D02*
D03*
X144000Y163000D02*
D03*
X152000D02*
D03*
X144000Y155000D02*
D03*
X132800Y87800D02*
D03*
X401000Y185000D02*
D03*
X405999Y200000D02*
D03*
X159000Y104000D02*
D03*
X141000Y87000D02*
D03*
X139000Y95000D02*
D03*
Y104000D02*
D03*
X141000Y146000D02*
D03*
X131000D02*
D03*
X409999Y164000D02*
D03*
X172000Y185000D02*
D03*
X172000Y176000D02*
D03*
X131000Y172000D02*
D03*
X180000Y105000D02*
D03*
X120000Y62000D02*
D03*
X133000Y54000D02*
D03*
X165000Y51000D02*
D03*
X325000Y201000D02*
D03*
X319000Y194000D02*
D03*
X309000D02*
D03*
X277800Y198649D02*
D03*
X297000Y171000D02*
D03*
X406000Y151000D02*
D03*
X416000Y146000D02*
D03*
X458000Y194000D02*
D03*
X518000Y175000D02*
D03*
Y185000D02*
D03*
X212000Y232000D02*
D03*
X146000Y199000D02*
D03*
X246999Y103000D02*
D03*
X234000Y105000D02*
D03*
X237999Y114000D02*
D03*
X239000Y130000D02*
D03*
X189000Y168000D02*
D03*
X190000Y197000D02*
D03*
X272999Y159000D02*
D03*
X218427Y198427D02*
D03*
X233000Y198000D02*
D03*
X242000D02*
D03*
X251000D02*
D03*
X243000Y145000D02*
D03*
X246999Y135000D02*
D03*
X261054Y144702D02*
D03*
X184000Y140000D02*
D03*
X148000Y177000D02*
D03*
X133000Y201000D02*
D03*
X456000Y106000D02*
D03*
X400999Y120000D02*
D03*
X384200Y125250D02*
D03*
X388999Y102000D02*
D03*
X394000Y95000D02*
D03*
X300999Y232999D02*
D03*
X294999Y195000D02*
D03*
X269000Y199000D02*
D03*
X335000Y189000D02*
D03*
X425000Y177000D02*
D03*
X436558Y168200D02*
D03*
X423000Y152000D02*
D03*
X429200Y159968D02*
D03*
X330999Y99000D02*
D03*
X297800Y75968D02*
D03*
X296000Y83000D02*
D03*
X339000Y39000D02*
D03*
X389000Y37000D02*
D03*
X379999Y37000D02*
D03*
X398000Y39000D02*
D03*
X366000D02*
D03*
X353000D02*
D03*
X457946Y91800D02*
D03*
X491000Y115000D02*
D03*
X499000Y93000D02*
D03*
X479000Y84000D02*
D03*
X497000Y81000D02*
D03*
X474999Y73000D02*
D03*
X470000Y84000D02*
D03*
X527000Y15000D02*
D03*
Y24000D02*
D03*
X487000Y66000D02*
D03*
X457000Y50000D02*
D03*
X469000Y45000D02*
D03*
X438599Y130200D02*
D03*
X507000Y131000D02*
D03*
X464800Y134000D02*
D03*
X438000Y160000D02*
D03*
X481999Y165000D02*
D03*
X450999Y152000D02*
D03*
X464000Y143000D02*
D03*
X465999Y180000D02*
D03*
X401000Y192000D02*
D03*
X414000Y200000D02*
D03*
X292000Y233000D02*
D03*
X147800Y185800D02*
D03*
X480000Y125000D02*
D03*
X355000Y92000D02*
D03*
X339000Y121000D02*
D03*
X357999Y114000D02*
D03*
X296999Y141000D02*
D03*
X290000Y149000D02*
D03*
X272000Y168000D02*
D03*
X283000Y155000D02*
D03*
X260000Y136000D02*
D03*
X497000Y49000D02*
D03*
X409800Y39200D02*
D03*
X410000Y48000D02*
D03*
X379500Y194000D02*
D03*
X372000D02*
D03*
X260000Y199000D02*
D03*
X286000D02*
D03*
X328000Y169000D02*
D03*
X489000Y156000D02*
D03*
X493000Y188000D02*
D03*
X437000Y122000D02*
D03*
X490000Y31000D02*
D03*
X298000Y20000D02*
D03*
X273000D02*
D03*
X286000D02*
D03*
X233000D02*
D03*
X222000D02*
D03*
X359000Y74000D02*
D03*
X274000Y103000D02*
D03*
X342000Y174000D02*
D03*
X247000Y123000D02*
D03*
X349000Y131000D02*
D03*
X423000Y202000D02*
D03*
X446000Y202000D02*
D03*
X434000D02*
D03*
X458000Y184000D02*
D03*
X149000Y53500D02*
D03*
X121000Y31000D02*
D03*
Y24000D02*
D03*
X121000Y9000D02*
D03*
X121000Y16000D02*
D03*
X140000Y54000D02*
D03*
X179000Y91000D02*
D03*
X140000Y118000D02*
D03*
X142000Y129000D02*
D03*
X203000Y232000D02*
D03*
X195000D02*
D03*
X417552Y8771D02*
D03*
X516552Y62772D02*
D03*
Y134771D02*
D03*
X525552Y44771D02*
D03*
X534552Y62772D02*
D03*
X543552Y188771D02*
D03*
X552552Y206771D02*
D03*
X543552Y224771D02*
D03*
X552552Y242771D02*
D03*
X570552Y170771D02*
D03*
X561552Y188771D02*
D03*
Y224771D02*
D03*
X588552Y170771D02*
D03*
X579552Y188771D02*
D03*
X149000Y146000D02*
D03*
X330000Y129000D02*
D03*
X379000Y97000D02*
D03*
X379469Y82470D02*
D03*
X400999Y100000D02*
D03*
X414000Y105000D02*
D03*
X190000Y57000D02*
D03*
X188000Y79000D02*
D03*
X250000Y20000D02*
D03*
X241200Y18899D02*
D03*
X271999Y70000D02*
D03*
X336000Y164000D02*
D03*
X408999Y57000D02*
D03*
X412000Y85000D02*
D03*
X380000Y74000D02*
D03*
X398000D02*
D03*
X410328Y65671D02*
D03*
X388615Y74384D02*
D03*
X257000Y235000D02*
D03*
M02*
